<svg width="64" height="64" viewBox="0 0 64 64" fill="none" xmlns="http://www.w3.org/2000/svg"><path fill="#fff" d="M0 0h64v64H0z"/><path d="M30.078 42.42H18.021l-2.463 7.812c-.065.3-.324.499-.616.465H8.85c-.357 0-.454-.199-.357-.598L18.93 19.283c.097-.333.194-.698.324-1.097.13-.698.194-1.43.194-2.161-.032-.166.098-.332.26-.366H28.1c.26 0 .39.1.422.266l11.83 34.24c.097.366 0 .532-.324.532h-6.774c-.227.034-.454-.133-.519-.365L30.08 42.42zm-10.177-6.748h8.233a48.149 48.149 0 00-.746-2.394c-.291-.898-.583-1.861-.875-2.859-.324-1.03-.616-2.028-.94-3.058a73.301 73.301 0 01-.875-2.959c-.26-.93-.486-1.795-.713-2.593h-.065a41.65 41.65 0 01-1.102 4.289c-.486 1.595-.972 3.257-1.49 4.92a66.526 66.526 0 01-1.427 4.654zm27.518-14.328c-1.07.033-2.107-.399-2.885-1.164a4.384 4.384 0 01-1.102-3.058 3.963 3.963 0 011.167-2.958A4.095 4.095 0 0147.484 13c1.264 0 2.236.399 2.949 1.164a4.26 4.26 0 011.07 2.958 4.268 4.268 0 01-1.135 3.058 3.76 3.76 0 01-2.95 1.164zm-3.63 28.855V24.602c0-.333.13-.466.42-.466h6.418c.292 0 .422.167.422.466v25.597c0 .366-.13.532-.422.532h-6.352c-.324 0-.486-.2-.486-.532z" fill="#000"/></svg>