<svg width="60" height="60" viewBox="0 0 60 60" fill="none" xmlns="http://www.w3.org/2000/svg">
<rect opacity="0.2" width="60" height="60" rx="15" fill="white"/>
<g clip-path="url(#clip0_176_242)">
<path d="M25.7583 35.9977C25.7583 34.0729 25.7583 32.1457 25.7583 30.216C25.7583 28.025 27.3246 26.2979 29.3669 26.2389C31.4091 26.1798 33.0948 27.8147 33.1225 30.0523C33.1743 34.0479 33.1863 38.0483 33.1225 42.0389C33.0779 44.7957 30.8958 46.5278 28.4921 45.8524C26.8378 45.3899 25.7956 43.9051 25.7607 41.959V35.9952L25.7583 35.9977Z" fill="#DF671D"/>
<path d="M35.5925 35.9975C35.5925 34.0723 35.5925 19.9046 35.5925 17.9794C35.5925 15.7885 37.1588 14.0614 39.1999 14.0011C41.2409 13.9408 42.9277 15.5782 42.9566 17.8146C43.0072 21.8089 43.0193 38.0469 42.9566 42.0412C42.9121 44.798 40.73 46.5301 38.3263 45.8547C36.6708 45.3922 35.6298 43.9074 35.5949 41.9613C35.5949 41.9195 35.5949 41.8789 35.5949 41.8383C35.5932 39.8905 35.5925 37.9436 35.5925 35.9975Z" fill="#F79F28"/>
<path d="M23.3305 42.2653C23.3343 42.7574 23.2422 43.2453 23.0593 43.7006C22.8765 44.1559 22.6066 44.5694 22.2655 44.9171C21.9244 45.2648 21.5189 45.5396 21.0727 45.7256C20.6264 45.9115 20.1484 46.0048 19.6664 46.0001C17.5977 46.0001 15.988 44.3381 16 42.2062C16.0121 40.1543 17.7218 38.421 19.6941 38.4616C20.6675 38.4829 21.5937 38.8933 22.2738 39.6046C22.9538 40.3159 23.3332 41.2714 23.3305 42.2653Z" fill="#DF671D"/>
</g>
<defs>
<clipPath id="clip0_176_242">
<rect width="27" height="32" fill="white" transform="translate(16 14)"/>
</clipPath>
</defs>
</svg>
