<svg width="64" height="64" viewBox="0 0 64 64" fill="none" xmlns="http://www.w3.org/2000/svg"><path fill="#fff" d="M0 0h64v64H0z"/><path d="M55.262 23.408c-.691-1.03-1.844-1.716-3.342-2.288l-2.535-.8c-1.037-.343-1.383-.687-1.498-.8-.115-.115-.23-.23-.23-.573 0-.457.115-.686.345-.686.23-.114.692-.343 1.729-.343 1.037 0 2.074.229 2.88.572.462.229.807.343 1.153.343.807 0 1.613-.572 1.613-1.716v-.915c0-.457-.115-.915-.345-1.258-.23-.343-.461-.572-.922-.8-.23-.115-.576-.343-1.037-.458a14.584 14.584 0 00-1.153-.343c-.345-.114-.806-.114-1.267-.229C50.423 13 49.96 13 49.385 13c-.922 0-1.844.114-2.65.343-.807.229-1.614.686-2.19 1.144-.691.457-1.152 1.143-1.613 1.944 0 .114-.115.114-.115.229l.115-.458c.115-.343.115-.572.23-.686v-.457c0-.915-.691-1.601-1.613-1.601h-1.613c-.576 0-1.037.114-1.498.457-.346.229-.576.686-.692 1.372l-1.843 8.006-1.729-7.891c-.115-.686-.346-1.144-.691-1.373-.577-.457-1.268-.457-1.498-.457h-1.498c-.577 0-1.038.114-1.383.457-.461.343-.576.915-.692 1.373l-1.728 7.777-1.96-7.892c-.115-.572-.345-.915-.69-1.258-.462-.457-1.268-.457-1.499-.457h-1.728c-.922 0-1.614.686-1.614 1.601 0 .229 0 .572.23 1.03l4.15 14.753c.23.686.46 1.03.69 1.258.577.458 1.268.458 1.499.458h1.498c.691 0 1.152-.115 1.498-.458.46-.343.576-.915.691-1.372l1.614-7.32 1.613 7.32c.115.572.346 1.029.691 1.372.577.458 1.268.458 1.498.458h1.498c.577 0 1.038-.115 1.383-.458.346-.229.576-.686.807-1.372l3.688-12.81c0 .343-.116.572-.116.915 0 1.258.346 2.402 1.037 3.431.692 1.03 1.844 1.83 3.458 2.402l2.535.8c.922.344 1.267.573 1.267.687.116.114.23.229.23.572 0 .457-.114.686-.46.915-.692.457-2.305.572-3.803.228-.576-.114-1.152-.343-1.729-.571l-.115-.115c-.115-.114-.23-.114-.346-.114-.23-.115-.46-.115-.69-.115-.807 0-1.614.572-1.614 1.716v1.03c0 .342.115.686.23 1.029.115.457.461.8 1.037 1.029.577.343 1.268.572 2.42.915 1.038.229 1.96.343 2.996.343 1.038 0 1.96-.114 2.881-.457.922-.344 1.729-.687 2.42-1.258.692-.572 1.153-1.259 1.614-2.06.345-.8.576-1.715.576-2.744.23-1.144-.115-2.287-.807-3.202zM20 27.982c0-.228-.115-.571-.115-1.372v-6.176c0-2.402-.577-4.232-1.844-5.49C16.773 13.686 14.93 13 12.51 13c-1.153 0-2.19.114-3.112.457a13.11 13.11 0 00-2.535.915c-.46.23-.691.458-.922.801-.23.457-.346.915-.346 1.258v.915c0 1.144.807 1.716 1.499 1.716.23 0 .46 0 .576-.115.115 0 .46-.114.691-.343.576-.229 1.152-.457 1.729-.572.576-.114 1.037-.229 1.613-.229 1.037 0 1.729.23 2.074.458.23.229.576.8.576 2.287-.23 0-.46-.114-.691-.114-.807-.114-1.498-.114-2.074-.114-2.075 0-3.803.572-5.186 1.83s-1.959 2.859-1.959 4.803c0 1.83.576 3.317 1.613 4.46 1.153 1.144 2.536 1.716 4.38 1.716 1.958 0 3.572-.572 4.954-1.83.231.343.461.572.692.915.691.686 1.729.8 2.42.229l1.152-.8c.576-.458.807-1.03.807-1.488a2.14 2.14 0 00-.23-.915c.115-.457 0-.8-.231-1.258zm-5.531-1.486c-.116.228-.23.571-.346.8-.346.458-.807.686-1.152.915-.577.229-1.038.229-1.498.229-.692 0-.922-.229-1.038-.343-.23-.229-.345-.686-.345-1.258 0-.8.23-1.144.46-1.373.346-.343 1.038-.457 1.96-.457.46 0 1.037 0 1.498.114.23 0 .46.114.691.114 0 .344-.115.801-.23 1.259zM50.538 41.25c-6.223 2.744-13.253 4.345-19.821 4.345-9.104 0-18.323-2.63-26.043-7.32-.807-.457-1.729-.343-2.305.344-.576.686-.461 1.715.23 2.287C10.09 48.111 19.77 52 30.026 52c8.181 0 16.709-2.86 22.47-7.32.922-.686 1.153-1.83.577-2.745-.461-.8-1.498-1.143-2.535-.686z" fill="#000"/><path d="M61.6 35.53c-1.152-1.486-7.49-2.058-11.178.801-.691.572-.922 1.373-.691 2.059.23.686.922 1.03 1.728.915 4.033-.572 5.301-.343 5.762-.229.115.458-.115 1.83-1.728 6.062-.231.8-.116 1.487.46 1.944.23.114.577.229.807.229.461 0 .922-.229 1.268-.572 3.342-2.974 4.724-9.493 3.572-11.208z" fill="#000"/></svg>