<svg width="64" height="64" viewBox="0 0 64 64" fill="none" xmlns="http://www.w3.org/2000/svg"><path fill="#fff" d="M0 0h64v64H0z"/><path d="M30.037 48.755l12.382-2.26.115-.027-6.367-7.824c-2.135-2.61-4.257-5.23-6.368-7.86 0-.039 6.576-18.74 6.613-18.806.01-.022 4.486 7.957 10.846 19.34l10.91 19.533.082.149-20.238-.003-20.237-.002 12.262-2.238v-.002zM5.75 46.375c0-.012 3-5.392 6.668-11.957l6.67-11.938 7.77-6.736c4.272-3.703 7.78-6.738 7.796-6.744a1.44 1.44 0 01-.125.325l-8.44 18.693-8.288 18.356-6.025.009c-3.313.005-6.026 0-6.026-.011v.002z" fill="#000"/></svg>