<svg width="49" height="56" viewBox="0 0 49 56" fill="none" xmlns="http://www.w3.org/2000/svg">
<g clip-path="url(#clip0_501_118)">
<path d="M0.358003 0.000166766H48.217C48.2774 -0.00174254 48.3372 0.0127729 48.39 0.0421666C48.4435 0.0698499 48.4887 0.111266 48.521 0.162169C48.5528 0.213065 48.571 0.271238 48.574 0.331168C48.5777 0.391021 48.5653 0.450779 48.538 0.504168C44.413 8.83671 38.1943 15.9548 30.491 21.1612C21.5661 27.127 11.0957 30.3617 0.361001 30.4692C0.313812 30.4712 0.266745 30.463 0.223001 30.4452C0.179002 30.4279 0.138881 30.4021 0.104997 30.3692C0.0712881 30.3363 0.0447382 30.2968 0.0270018 30.2532C0.00928696 30.2093 0.000121951 30.1625 1.41491e-06 30.1152V0.354167C-0.000131119 0.307489 0.00904837 0.261256 0.0270018 0.218169C0.0447382 0.174545 0.0712881 0.135052 0.104997 0.102168C0.138294 0.0689569 0.177683 0.0424749 0.221002 0.0241688C0.264681 0.00736406 0.311212 -0.000789273 0.358003 0.000166766V0.000166766Z" fill="#FF6250"/>
<path d="M10.686 55.5752C13.5205 55.5749 16.2389 54.4488 18.2433 52.4444C20.2476 50.4401 21.3737 47.7217 21.374 44.8872C21.3739 43.4837 21.0973 42.0941 20.5601 40.7975C20.0229 39.501 19.2356 38.3229 18.2431 37.3306C17.2507 36.3383 16.0725 35.5512 14.7758 35.0143C13.4792 34.4773 12.0894 34.201 10.686 34.2012C9.28265 34.201 7.89303 34.4774 6.59649 35.0143C5.29994 35.5513 4.12188 36.3384 3.12956 37.3307C2.13725 38.323 1.35013 39.5011 0.813156 40.7977C0.276181 42.0942 -0.000131297 43.4838 4.68032e-08 44.8872C-0.000131281 46.2906 0.276167 47.6803 0.813118 48.977C1.35007 50.2736 2.13715 51.4518 3.12944 52.4443C4.12173 53.4368 5.29978 54.2241 6.59634 54.7613C7.89289 55.2985 9.28256 55.575 10.686 55.5752V55.5752Z" fill="#FFDF90"/>
<path d="M32.5348 54.9422C31.0917 54.4083 29.9107 53.3376 29.2384 51.9537C28.5661 50.5697 28.4544 48.9795 28.9268 47.5152L36.9938 24.4922C37.2512 23.7886 37.6479 23.1442 38.1602 22.5975C38.6724 22.0507 39.2896 21.613 39.975 21.3103C40.6603 21.0076 41.3996 20.8463 42.1487 20.836C42.8979 20.8256 43.6414 20.9665 44.3348 21.2502C45.778 21.7844 46.959 22.8555 47.6313 24.2398C48.3036 25.6241 48.4152 27.2146 47.9428 28.6792L39.8758 51.7002C39.6187 52.404 39.2222 53.0487 38.71 53.5956C38.1979 54.1426 37.5806 54.5805 36.8951 54.8833C36.2097 55.186 35.4702 55.3472 34.721 55.3573C33.9717 55.3675 33.2282 55.2262 32.5348 54.9422Z" fill="#3366FF"/>
</g>
<defs>
<clipPath id="clip0_501_118">
<rect width="48.575" height="55.575" fill="white"/>
</clipPath>
</defs>
</svg>
