<svg width="57" height="56" viewBox="0 0 57 56" fill="none" xmlns="http://www.w3.org/2000/svg">
<g clip-path="url(#clip0_501_111)">
<path d="M10.094 4.01982e-06H46.906C48.2319 -0.00117976 49.545 0.259101 50.7702 0.765953C51.9954 1.2728 53.1086 2.01628 54.0462 2.95383C54.9837 3.89138 55.7272 5.0046 56.2341 6.2298C56.7409 7.45499 57.0012 8.76811 57 10.094V45.481C57.0012 46.8069 56.7409 48.12 56.2341 49.3452C55.7272 50.5704 54.9837 51.6836 54.0462 52.6212C53.1086 53.5587 51.9954 54.3022 50.7702 54.8091C49.545 55.3159 48.2319 55.5762 46.906 55.575H10.094C8.76811 55.5762 7.45499 55.3159 6.2298 54.8091C5.0046 54.3022 3.89138 53.5587 2.95383 52.6212C2.01628 51.6836 1.2728 50.5704 0.765953 49.3452C0.259101 48.12 -0.00117976 46.8069 4.01982e-06 45.481V10.094C-0.00117976 8.76811 0.259101 7.45499 0.765953 6.2298C1.2728 5.0046 2.01628 3.89138 2.95383 2.95383C3.89138 2.01628 5.0046 1.2728 6.2298 0.765953C7.45499 0.259101 8.76811 -0.00117976 10.094 4.01982e-06V4.01982e-06Z" fill="#470137"/>
<path d="M29.9716 14.6057L22.8466 26.3627L30.4466 38.8317C30.4967 38.9177 30.5138 39.019 30.4946 39.1167C30.4706 39.2167 30.3756 39.1407 30.2336 39.1647H24.7946C24.4146 39.1647 24.1536 39.1407 23.9876 38.9037C23.4876 37.9037 22.9666 36.9327 22.4676 35.9347C21.9676 34.9607 21.4226 33.9637 20.8526 32.9417C20.2826 31.9197 19.7116 30.8987 19.1416 29.8497H19.0946C18.5946 30.8707 18.0496 31.8927 17.5036 32.9137C16.9576 33.9347 16.4116 34.9557 15.8886 35.9537C15.3426 36.9537 14.7956 37.9727 14.2496 38.9467C14.1496 39.1847 13.9646 39.2077 13.7036 39.2077H8.47757C8.37757 39.2077 8.31157 39.2547 8.31157 39.1367C8.30107 39.0922 8.29991 39.0461 8.30818 39.0012C8.31644 38.9562 8.33394 38.9135 8.35957 38.8757L15.7416 26.7657L8.54157 14.5817C8.47057 14.4817 8.44157 14.3917 8.49357 14.3447C8.52352 14.3092 8.56198 14.2819 8.60534 14.2653C8.64871 14.2487 8.69558 14.2433 8.74157 14.2497H14.1326C14.2448 14.2523 14.3562 14.2684 14.4646 14.2977C14.5596 14.349 14.6409 14.4224 14.7016 14.5117C15.1526 15.5327 15.6756 16.5547 16.2216 17.5757C16.7916 18.5967 17.3376 19.5947 17.9316 20.5917C18.5016 21.5917 19.0246 22.5917 19.5226 23.6077H19.5706C20.0706 22.5627 20.5916 21.5417 21.1146 20.5437C21.6376 19.5457 22.1836 18.5437 22.7296 17.5507C23.2756 16.5577 23.7986 15.5317 24.3206 14.5577C24.3383 14.4643 24.3886 14.3803 24.4626 14.3207C24.5566 14.2685 24.6661 14.2515 24.7716 14.2727H29.7816C29.8382 14.2602 29.8975 14.2706 29.9464 14.3017C29.9953 14.3329 30.0299 14.3821 30.0426 14.4387C30.0666 14.4627 30.0186 14.5577 29.9716 14.6047V14.6057Z" fill="#FF61F6"/>
<path d="M40.9488 39.6629C39.1872 39.693 37.4412 39.3284 35.8388 38.5959C34.3492 37.8992 33.1009 36.7748 32.2528 35.3659C31.3272 33.7156 30.8753 31.8417 30.9468 29.9509C30.9227 28.1934 31.3739 26.4621 32.2528 24.9399C33.154 23.393 34.4594 22.1205 36.0288 21.2589C37.88 20.2906 39.9496 19.816 42.0378 19.8809C42.2048 19.8791 42.3718 19.8871 42.5378 19.9049C42.7518 19.9289 42.9888 19.9289 43.2738 19.9519V12.4519C43.2738 12.2859 43.3448 12.1909 43.5118 12.1909H48.3328C48.3859 12.1837 48.4399 12.1967 48.4838 12.2275C48.5277 12.2583 48.5585 12.3045 48.5698 12.3569V35.0079C48.5698 35.4349 48.5938 35.9079 48.6168 36.4329C48.6648 36.9329 48.6878 37.4069 48.7168 37.8099C48.7216 37.8902 48.7013 37.9699 48.6586 38.038C48.616 38.1061 48.5531 38.1593 48.4788 38.1899C47.2349 38.7127 45.9365 39.0951 44.6078 39.3299C43.4002 39.5479 42.1759 39.6593 40.9488 39.6629V39.6629ZM43.2758 34.9129V24.4629C43.0644 24.4118 42.8504 24.3721 42.6348 24.3439C42.3738 24.3199 42.1128 24.2959 41.8508 24.2959C40.9197 24.2856 39.9996 24.4974 39.1668 24.9139C38.3552 25.3181 37.6602 25.9229 37.1478 26.6709C36.5881 27.5741 36.3148 28.6255 36.3638 29.6869C36.3419 30.5202 36.4776 31.3501 36.7638 32.1329C36.9936 32.7658 37.3584 33.3411 37.8328 33.8189C38.2906 34.256 38.8433 34.5812 39.4478 34.7689C40.0839 34.9774 40.7494 35.0817 41.4188 35.0779C41.7748 35.0779 42.1078 35.0539 42.4188 35.0309C42.7083 35.0516 42.9988 35.0114 43.2718 34.9129H43.2758Z" fill="#FF61F6"/>
</g>
<defs>
<clipPath id="clip0_501_111">
<rect width="57" height="55.575" fill="white"/>
</clipPath>
</defs>
</svg>
