<svg width="56" height="56" viewBox="0 0 56 56" fill="none" xmlns="http://www.w3.org/2000/svg">
<g clip-path="url(#clip0_501_123)">
<path d="M56 46.2C56.0021 47.4876 55.7501 48.7629 55.2583 49.9528C54.7666 51.1427 54.0448 52.2239 53.1344 53.1344C52.2239 54.0448 51.1427 54.7666 49.9528 55.2583C48.7629 55.7501 47.4876 56.0021 46.2 56H9.80001C8.51247 56.0021 7.23717 55.7501 6.04722 55.2583C4.85728 54.7666 3.7761 54.0448 2.86567 53.1344C1.95523 52.2239 1.23345 51.1427 0.741702 49.9528C0.249952 48.7629 -0.00209418 47.4876 1.31052e-05 46.2V9.80001C-0.00209418 8.51247 0.249952 7.23717 0.741702 6.04722C1.23345 4.85728 1.95523 3.7761 2.86567 2.86567C3.7761 1.95523 4.85728 1.23345 6.04722 0.741702C7.23717 0.249952 8.51247 -0.00209418 9.80001 1.31052e-05H46.2C47.4876 -0.00209418 48.7629 0.249952 49.9528 0.741702C51.1427 1.23345 52.2239 1.95523 53.1344 2.86567C54.0448 3.7761 54.7666 4.85728 55.2583 6.04722C55.7501 7.23717 56.0021 8.51247 56 9.80001V46.2Z" fill="#CF0A2C"/>
<path d="M15.4132 47.0642H19.5562L19.7752 42.7022H19.9212C20.766 44.2861 22.0467 45.5951 23.6118 46.4742C25.1769 47.3533 26.9611 47.7659 28.7533 47.6632C34.6403 47.6632 40.5833 42.9752 40.5833 33.5422C40.6473 25.5182 36.0143 20.0672 29.4713 20.0672C25.2183 20.0672 22.1713 21.9752 20.4713 24.9202H20.3632V8.34521H15.6252V40.2292L15.4062 47.0542L15.4132 47.0642ZM20.3673 31.7252C20.3894 31.0631 20.4809 30.4052 20.6402 29.7622C21.0309 28.1086 21.9612 26.6321 23.2841 25.5657C24.607 24.4994 26.2473 23.9039 27.9462 23.8732C33.0702 23.8732 35.7963 28.3992 35.7963 33.6872C35.7963 39.7472 32.7962 43.8372 27.7812 43.8372C26.1259 43.8413 24.517 43.2902 23.2118 42.2722C21.9065 41.2541 20.9803 39.8277 20.5812 38.2212C20.4508 37.6482 20.3775 37.0637 20.3622 36.4762L20.3673 31.7252Z" fill="white"/>
</g>
<defs>
<clipPath id="clip0_501_123">
<rect width="56" height="56" fill="white"/>
</clipPath>
</defs>
</svg>
