<svg width="38" height="57" viewBox="0 0 38 57" fill="none" xmlns="http://www.w3.org/2000/svg">
<g clip-path="url(#clip0_501_100)">
<path d="M9.5 57C12.0196 57 14.4359 55.9991 16.2175 54.2175C17.9991 52.4359 19 50.0196 19 47.5V38H9.5C8.25244 38 7.0171 38.2457 5.86451 38.7231C4.71191 39.2006 3.66464 39.9003 2.78249 40.7825C1.90033 41.6646 1.20056 42.7119 0.723145 43.8645C0.245725 45.0171 0 46.2524 0 47.5C0 48.7476 0.245725 49.9829 0.723145 51.1355C1.20056 52.2881 1.90033 53.3354 2.78249 54.2175C3.66464 55.0997 4.71191 55.7994 5.86451 56.2769C7.0171 56.7543 8.25244 57 9.5 57V57Z" fill="#0ACF83"/>
<path d="M0 28.5C0 25.9804 1.00089 23.5641 2.78249 21.7825C4.56408 20.0009 6.98044 19 9.5 19H19V38H9.5C6.98044 38 4.56408 36.9991 2.78249 35.2175C1.00089 33.4359 0 31.0196 0 28.5V28.5Z" fill="#A259FF"/>
<path d="M0 9.5C0 6.98044 1.00089 4.56408 2.78249 2.78249C4.56408 1.00089 6.98044 0 9.5 0H19V19H9.5C6.98044 19 4.56408 17.9991 2.78249 16.2175C1.00089 14.4359 0 12.0196 0 9.5V9.5Z" fill="#F24E1E"/>
<path d="M19 0.0556641H28.5C31.0196 0.0556641 33.4359 1.05655 35.2175 2.83815C36.9991 4.61975 38 7.03611 38 9.55566C38 12.0752 36.9991 14.4916 35.2175 16.2732C33.4359 18.0548 31.0196 19.0557 28.5 19.0557H19V0.0556641Z" fill="#FF7262"/>
<path d="M38 28.5C38 30.3789 37.4428 32.2156 36.399 33.7779C35.3551 35.3402 33.8714 36.5578 32.1355 37.2769C30.3996 37.9959 28.4895 38.184 26.6466 37.8175C24.8038 37.4509 23.1111 36.5461 21.7825 35.2175C20.4539 33.8889 19.5491 32.1962 19.1825 30.3534C18.816 28.5105 19.0041 26.6004 19.7231 24.8645C20.4422 23.1286 21.6598 21.6449 23.2221 20.601C24.7844 19.5572 26.6211 19 28.5 19C31.0196 19 33.4359 20.0009 35.2175 21.7825C36.9991 23.5641 38 25.9804 38 28.5V28.5Z" fill="#1ABCFE"/>
</g>
<defs>
<clipPath id="clip0_501_100">
<rect width="38" height="57" fill="white"/>
</clipPath>
</defs>
</svg>
