<svg width="57" height="57" viewBox="0 0 57 57" fill="none" xmlns="http://www.w3.org/2000/svg">
<g clip-path="url(#clip0_501_107)">
<path d="M51.832 0H5.167C3.79679 0.000530062 2.48285 0.545079 1.51396 1.51396C0.545079 2.48285 0.000530062 3.79679 0 5.167L0 51.832C0.000265013 53.2024 0.544697 54.5166 1.51361 55.4857C2.48253 56.4548 3.79662 56.9995 5.167 57H51.832C53.2026 56.9997 54.5169 56.4552 55.486 55.486C56.4552 54.5169 56.9997 53.2026 57 51.832V5.167C56.9995 3.79662 56.4548 2.48253 55.4857 1.51361C54.5166 0.544697 53.2024 0.000265013 51.832 0V0ZM22.53 14.5C22.5411 15.1913 22.3463 15.8704 21.9703 16.4506C21.5942 17.0309 21.0541 17.4861 20.4185 17.7584C19.783 18.0307 19.0808 18.1078 18.4013 17.9797C17.7218 17.8517 17.0958 17.5244 16.6029 17.0394C16.1101 16.5545 15.7726 15.9339 15.6336 15.2566C15.4946 14.5792 15.5602 13.8759 15.8222 13.236C16.0842 12.5961 16.5306 12.0486 17.1047 11.6633C17.6788 11.2779 18.3546 11.0721 19.046 11.072C19.5004 11.0665 19.9513 11.1509 20.3729 11.3205C20.7944 11.4902 21.1782 11.7416 21.5021 12.0602C21.826 12.3789 22.0836 12.7586 22.26 13.1773C22.4364 13.5961 22.5282 14.0456 22.53 14.5V14.5ZM24.116 21.105H32.874L31.747 26.254C33.282 23.387 36.358 20.66 39.378 20.66C42.602 20.66 45.264 22.96 45.264 27.36C45.2591 28.6275 45.0691 29.8875 44.7 31.1L43.063 36.986C42.9156 37.5027 42.83 38.0351 42.808 38.572C42.808 39.597 43.216 40.107 43.986 40.107C44.756 40.107 45.725 39.541 46.853 36.419L49.107 37.286C47.776 41.948 45.368 43.891 42.348 43.891C38.813 43.891 37.125 41.791 37.125 38.923C37.122 38.0567 37.2422 37.1944 37.482 36.362L39.17 30.318C39.3477 29.7204 39.4337 29.0994 39.425 28.476C39.4636 28.0608 39.4111 27.6421 39.2712 27.2493C39.1312 26.8564 38.9072 26.4989 38.6148 26.2016C38.3223 25.9043 37.9685 25.6744 37.578 25.528C37.1876 25.3816 36.7698 25.3222 36.354 25.354C33.947 25.354 32.36 27.08 31.539 30.41L28.259 43.556H22.53L23.56 39.428C21.876 42.197 19.534 43.914 16.644 43.914C13.16 43.914 11.523 41.914 11.523 38.886C11.5302 38.0177 11.6328 37.1529 11.829 36.307L14.44 25.638H10.4L11.629 21.106H21.356L17.511 36.339C17.2966 37.1025 17.1767 37.8893 17.154 38.682C17.154 39.656 17.632 39.939 18.383 40.111C18.838 40.211 22.483 40.143 24.46 35.737L26.983 25.637H22.883L24.112 21.105H24.116Z" fill="#DC395F"/>
</g>
<defs>
<clipPath id="clip0_501_107">
<rect width="57" height="57" fill="white"/>
</clipPath>
</defs>
</svg>
