<svg width="70" height="49" viewBox="0 0 70 49" fill="none" xmlns="http://www.w3.org/2000/svg">
<g clip-path="url(#clip0_501_109)">
<path d="M40.4755 14.9588L43.3675 12.0678C44.2035 11.2311 44.9995 10.4978 45.7555 9.86781C46.5115 9.23781 47.2658 8.58848 48.0185 7.91981C49.2976 6.77856 50.6867 5.76695 52.1655 4.89981C53.1233 4.34955 54.2032 4.04708 55.3075 4.01981C56.7414 4.02367 58.1171 4.58738 59.1415 5.59081C59.665 6.03137 60.0877 6.5793 60.3811 7.19748C60.6744 7.81566 60.8314 8.48965 60.8415 9.17381C60.8227 10.2515 60.5424 11.3085 60.0245 12.2538C59.1602 13.7776 58.1722 15.2278 57.0705 16.5898C50.5371 25.1378 47.2705 30.6685 47.2705 33.1818C47.2383 33.4036 47.2583 33.6299 47.3287 33.8427C47.3992 34.0554 47.5182 34.2489 47.6763 34.4077C47.8345 34.5666 48.0274 34.6864 48.2399 34.7577C48.4524 34.8291 48.6785 34.85 48.9005 34.8188C49.9106 34.7559 50.8766 34.3825 51.6665 33.7498C53.0886 32.649 54.3953 31.4066 55.5665 30.0418C56.4031 29.1205 57.4295 27.8635 58.6455 26.2708C59.8615 24.6781 60.9301 23.2115 61.8515 21.8708C62.4992 20.8489 63.2815 19.9189 64.1775 19.1058C64.8 18.6048 65.5785 18.338 66.3775 18.3518C66.7743 18.3496 67.1676 18.4261 67.5347 18.5769C67.9018 18.7277 68.2352 18.9498 68.5158 19.2304C68.7965 19.511 69.0186 19.8445 69.1694 20.2116C69.3202 20.5787 69.3967 20.972 69.3945 21.3688C69.3945 22.9615 68.6611 25.0775 67.1945 27.7168C65.5568 30.5993 63.6414 33.3149 61.4755 35.8248C58.9242 39.0001 55.8919 41.7568 52.4885 43.9948C50.0283 45.7233 47.1318 46.7255 44.1295 46.8868C43.0568 46.9223 41.9886 46.7337 40.9929 46.3332C39.9971 45.9328 39.0959 45.3291 38.3465 44.5608C37.5893 43.7674 36.999 42.8301 36.6104 41.8045C36.2219 40.7789 36.0431 39.6858 36.0845 38.5898C36.0791 37.3884 36.1842 36.189 36.3985 35.0068C36.6237 33.8115 36.9386 32.6349 37.3405 31.4868C37.818 30.1402 38.4066 28.8357 39.1005 27.5868C39.9764 26.006 40.9389 24.4747 41.9835 22.9998C42.0661 22.8331 42.2758 22.4978 42.6125 21.9938C40.2302 23.8682 38.0593 25.9968 36.1385 28.3418C33.6625 31.4106 31.4944 34.7155 29.6655 38.2088C28.6234 40.1015 27.4028 41.8903 26.0205 43.5508C25.6197 43.9802 25.1325 44.3199 24.5909 44.5474C24.0493 44.7749 23.4657 44.8852 22.8785 44.8708C22.2516 44.8865 21.6288 44.7654 21.0536 44.5158C20.4783 44.2663 19.9643 43.8943 19.5475 43.4258C18.6611 42.4469 18.1881 41.1628 18.2275 39.8428C18.226 38.9336 18.3314 38.0274 18.5415 37.1428C18.8765 35.9127 19.3182 34.7142 19.8615 33.5608C20.3359 32.254 20.8814 30.9741 21.4955 29.7268C22.0121 28.6231 22.6 27.5542 23.2555 26.5268L25.6435 22.3788C25.9468 21.9933 26.2001 21.5709 26.3975 21.1218C24.6527 22.5276 23.0148 24.0611 21.4975 25.7098C19.9015 27.4318 18.3721 29.2128 16.9095 31.0528C15.4879 32.8294 14.1851 34.6978 13.0095 36.6458C11.9444 38.4025 10.9995 40.2293 10.1815 42.1138C9.55432 43.8264 8.64139 45.4203 7.48148 46.8278C7.07599 47.2254 6.59354 47.5359 6.06373 47.7404C5.53393 47.9449 4.96794 48.0389 4.40048 48.0168C3.79605 48.0241 3.19809 47.8918 2.65313 47.6303C2.10817 47.3687 1.63091 46.9849 1.25848 46.5088C0.386705 45.402 -0.059603 44.0194 0.000480977 42.6118C0.000480977 39.4285 1.55048 33.9395 4.65048 26.1448C6.30721 21.9273 8.21736 17.8138 10.3705 13.8268C12.1701 10.459 14.2086 7.22435 16.4705 4.14781C17.3385 2.95932 18.3521 1.88428 19.4875 0.947813C20.2772 0.333572 21.249 2.14219e-07 22.2495 -0.000187007C22.772 -0.00661763 23.2907 0.0899541 23.776 0.284013C24.2612 0.478072 24.7035 0.765816 25.0775 1.13081C25.4614 1.48139 25.7663 1.90956 25.9722 2.38694C26.178 2.86432 26.2801 3.38001 26.2715 3.89981C26.2572 4.80825 26.0652 5.7051 25.7065 6.53981C24.9211 8.19415 24.0167 9.78933 23.0005 11.3128C22.6178 11.9588 22.2408 12.6081 21.8695 13.2608C21.3668 14.1408 20.7385 15.2511 19.9845 16.5918L18.6005 19.3578C21.1145 16.3411 23.3145 13.7855 25.2005 11.6908C26.7603 9.92341 28.4179 8.24478 30.1655 6.66281C31.3295 5.59273 32.6169 4.66519 34.0005 3.89981C34.9423 3.36598 35.9978 3.06431 37.0795 3.01981C37.6367 3.00955 38.1904 3.10948 38.7088 3.31387C39.2273 3.51826 39.7002 3.82308 40.1005 4.21081C40.5065 4.58644 40.8285 5.04378 41.0451 5.55274C41.2618 6.0617 41.3682 6.61076 41.3575 7.16381C41.3371 8.02438 41.1679 8.87494 40.8575 9.67781C40.25 11.1526 39.5358 12.581 38.7205 13.9518L36.0805 18.7288L35.0705 20.6148L36.5785 18.9808C38.0871 17.3895 39.3871 16.0488 40.4785 14.9588H40.4755Z" fill="#1991EB"/>
</g>
<defs>
<clipPath id="clip0_501_109">
<rect width="69.386" height="48.017" fill="white"/>
</clipPath>
</defs>
</svg>
