<svg width="60" height="60" viewBox="0 0 60 60" fill="none" xmlns="http://www.w3.org/2000/svg">
<path d="M30 5.625C16.56 5.625 5.625 16.56 5.625 30C5.625 43.44 16.56 54.375 30 54.375C43.44 54.375 54.375 43.44 54.375 30C54.375 16.56 43.44 5.625 30 5.625ZM30 9.375C41.4131 9.375 50.625 18.5869 50.625 30C50.625 41.4131 41.4131 50.625 30 50.625C18.5869 50.625 9.375 41.4131 9.375 30C9.375 18.5869 18.5869 9.375 30 9.375ZM22.9125 20.2125L20.2125 22.9125L27.3075 30L20.2162 37.0875L22.9163 39.7875L30 32.6944L37.0875 39.7819L39.7875 37.0875L32.6944 30L39.7819 22.9125L37.0875 20.2125L30 27.3075L22.9125 20.2162V20.2125Z" fill="white"/>
</svg>
