<svg xmlns="http://www.w3.org/2000/svg" width="63.403" height="41.632" viewBox="0 0 63.403 41.632"><defs><style>.a,.b{fill:#908db5;}.a{font-size:6px;font-family:CircularStd-Book, Circular Std;}.b{stroke:rgba(0,0,0,0);}</style></defs><g transform="translate(0.226 1)"><text class="a" transform="translate(0 5)"><tspan x="0" y="0">Top Developers</tspan></text><text class="a" transform="translate(0 38.632)"><tspan x="0" y="0">Texas 2020</tspan></text><g transform="translate(0.274 12.004)"><g transform="translate(16.266 0)"><rect class="b" width="2.856" height="17.756"/></g><g transform="translate(21.295 5.712)"><path class="b" d="M1032.575,1354.909a2.761,2.761,0,0,1-2.918,2.918c-1.676,0-2.049-1.614-2.049-2.607v-6.705h-2.856v6.767a6.009,6.009,0,0,0,1.428,4.036,4.8,4.8,0,0,0,3.415,1.242,3.99,3.99,0,0,0,2.918-.993v.993h2.856v-12.045h-2.856v6.395Z" transform="translate(-1024.752 -1348.514)"/></g><g transform="translate(32.595 1.428)"><path class="b" d="M1570.313,1143.564h-2.856v4.284h-2.111v2.856h2.111v9.189h2.856V1150.7h2.111v-2.856h-2.111Z" transform="translate(-1565.347 -1143.564)"/></g><g transform="translate(40.169 5.462)"><path class="b" d="M1936.166,1345.273a3.408,3.408,0,0,1-2.3.869,3.309,3.309,0,0,1-3.415-3.477,3.259,3.259,0,0,1,3.415-3.415,3.134,3.134,0,0,1,2.3.869l.435.373,1.863-1.863-.435-.435a6.455,6.455,0,0,0-4.16-1.614,5.85,5.85,0,0,0-6.146,6.084,6.044,6.044,0,0,0,6.146,6.147,6.338,6.338,0,0,0,4.284-1.614l.435-.435-1.987-1.987Z" transform="translate(-1927.723 -1336.58)"/></g><g transform="translate(52.4 0)"><path class="b" d="M2521.625,1082.015a4.161,4.161,0,0,0-3.1-1.242,3.88,3.88,0,0,0-2.794.993v-6.519h-2.856V1093h2.856V1086.3c0-2.67,1.987-2.918,2.608-2.918,1.676,0,1.676,1.614,1.676,2.608V1093h2.856v-7.078A5.146,5.146,0,0,0,2521.625,1082.015Z" transform="translate(-2512.871 -1075.248)"/></g><ellipse class="b" cx="2.049" cy="2.049" rx="2.049" ry="2.049" transform="translate(44.143 9.561)"/><g transform="translate(0 0.497)"><path class="b" d="M18.3,1111.8a5.938,5.938,0,0,1-4.1,1.676c-3.228,0-5.526-2.484-5.526-5.9s2.3-5.9,5.463-5.9a6.174,6.174,0,0,1,4.1,1.676l.435.435,1.863-1.863-.435-.435a8.363,8.363,0,0,0-5.96-2.483,8.253,8.253,0,0,0-8.2,8.63c0,4.9,3.477,8.568,8.2,8.568a8.055,8.055,0,0,0,5.96-2.483l.435-.435-1.863-1.987Z" transform="translate(-5.94 -1099.009)"/></g></g></g></svg>