<svg width="60" height="60" viewBox="0 0 60 60" fill="none" xmlns="http://www.w3.org/2000/svg">
<rect opacity="0.2" width="60" height="60" rx="15" fill="white"/>
<g clip-path="url(#clip0_173_154)">
<path d="M13.333 25.4668V25.4501C13.3975 25.2619 13.5375 25.1221 13.6497 24.9667C14.0647 24.3907 14.4804 23.815 14.8967 23.2396C15.3937 22.5511 15.8933 21.8642 16.3871 21.1727C16.9472 20.3892 17.5356 19.627 18.1142 18.8572C18.8913 17.8238 19.6687 16.7903 20.4464 15.7569C20.4618 15.7337 20.4801 15.7127 20.5009 15.6944C20.5296 15.6721 20.5561 15.6681 20.5763 15.7059C20.5929 15.7689 20.5884 15.8331 20.5829 15.8964C20.5663 16.0871 20.5646 16.2785 20.5529 16.4693C20.5353 16.7627 20.5288 17.0564 20.5063 17.3494C20.4968 17.4739 20.4958 17.5994 20.4909 17.7234C20.4798 18.0171 20.4619 18.3105 20.4508 18.6042C20.4371 18.9644 20.4148 19.3241 20.3994 19.6843C20.3903 19.901 20.3811 20.1164 20.3674 20.3321C20.3422 20.7248 20.3319 21.1183 20.3077 21.5112C20.2981 21.6687 20.2924 21.8279 20.2851 21.9849C20.2712 22.2838 20.2631 22.5831 20.2399 22.8817C20.2306 23.0034 20.2279 23.1257 20.2232 23.2474C20.2136 23.5439 20.1952 23.8401 20.1829 24.1365C20.1682 24.4939 20.1441 24.8507 20.1342 25.2083C20.1329 25.2554 20.1216 25.3016 20.1176 25.3486C20.1142 25.3845 20.1314 25.3915 20.1594 25.3938C20.2 25.4188 20.2472 25.4308 20.2947 25.4283C20.3254 25.4283 20.3559 25.4283 20.3864 25.4283C26.7967 25.4283 33.2069 25.4283 39.6172 25.4283C39.6904 25.4283 39.7687 25.4463 39.8331 25.391C39.8497 25.3833 39.8631 25.37 39.8708 25.3535C39.8786 25.3369 39.8802 25.3181 39.8754 25.3004C39.8486 25.1523 39.8576 25.0014 39.8507 24.8524C39.8369 24.5534 39.8246 24.254 39.8086 23.9551C39.7881 23.5706 39.7752 23.1855 39.7504 22.801C39.7401 22.6382 39.7345 22.4743 39.7272 22.311C39.7142 22.0174 39.7055 21.7237 39.6824 21.4309C39.6722 21.301 39.6704 21.1703 39.6657 21.0403C39.656 20.7438 39.6365 20.4477 39.6249 20.1514C39.6114 19.8025 39.5932 19.4536 39.5749 19.1049C39.5582 18.7672 39.5427 18.4294 39.5257 18.0918C39.5077 17.7346 39.4924 17.3774 39.4745 17.0204C39.4578 16.6827 39.4372 16.3451 39.4264 16.0073C39.4232 15.9134 39.3987 15.8202 39.4198 15.7259C39.4619 15.6606 39.496 15.7059 39.5227 15.7381C39.597 15.8277 39.6645 15.9231 39.7342 16.0164C40.4073 16.9194 41.0843 17.8195 41.7653 18.7167C42.6299 19.8608 43.4865 21.0108 44.3224 22.1764C45.0565 23.1997 45.7943 24.2203 46.536 25.2383C46.5736 25.2898 46.6418 25.3383 46.6026 25.4208C46.5673 25.4541 46.5235 25.4413 46.4833 25.4413C44.3573 25.4413 42.2313 25.4416 40.1053 25.4421C40.0594 25.4421 40.0096 25.4295 39.9719 25.4705C39.9337 25.5066 39.9027 25.5497 39.8806 25.5975C39.615 26.1162 39.3496 26.635 39.0843 27.154C38.8483 27.616 38.6119 28.078 38.3751 28.5398C38.1394 28.999 37.904 29.4584 37.669 29.9181C37.437 30.3698 37.2054 30.8218 36.9742 31.2741C36.7385 31.7335 36.5032 32.193 36.2682 32.6526C36.0301 33.117 35.7924 33.5815 35.5549 34.0461C35.3206 34.503 35.0865 34.9601 34.8528 35.4172C34.6208 35.8692 34.3892 36.3213 34.1581 36.7735C33.9174 37.2429 33.6772 37.7124 33.4374 38.182C33.204 38.6365 32.9712 39.0911 32.7389 39.5458C32.5046 40.0027 32.2705 40.4597 32.0367 40.917C31.8049 41.369 31.5733 41.8212 31.342 42.2733C31.0999 42.745 30.8607 43.2183 30.6167 43.689C30.4252 44.0583 30.2445 44.4336 30.0385 44.7956C30.0271 44.8091 30.0116 44.8184 29.9943 44.8223C29.983 44.8216 29.972 44.8182 29.9623 44.8124C29.9525 44.8066 29.9443 44.7985 29.9383 44.7889C29.9157 44.7263 29.8859 44.6666 29.8493 44.6111C29.8045 44.5409 29.7638 44.4682 29.7276 44.3932C29.5379 44.004 29.3349 43.6213 29.1385 43.2354C28.8993 42.7656 28.6592 42.2961 28.4181 41.8271C28.1848 41.373 27.9531 40.918 27.7197 40.4638C27.4851 40.0071 27.2511 39.5501 27.0177 39.0928C26.7793 38.6287 26.5415 38.1644 26.3042 37.6996C26.0683 37.2405 25.8331 36.781 25.5985 36.3213C25.3691 35.8745 25.1401 35.4275 24.9114 34.9802C24.6734 34.5158 24.4356 34.0514 24.198 33.5869C23.9622 33.1278 23.727 32.6684 23.4923 32.2085C23.2556 31.7466 23.019 31.2847 22.7825 30.8229C22.5544 30.3784 22.3266 29.9339 22.0991 29.4894C21.8595 29.0227 21.6206 28.556 21.3824 28.0893C21.1467 27.63 20.9128 27.1698 20.6765 26.7109C20.4884 26.3459 20.3015 25.9802 20.1156 25.614C20.0729 25.5296 20.022 25.5005 19.9289 25.5006C18.1043 25.503 16.2799 25.5036 14.4554 25.5025C14.1305 25.5025 13.8056 25.5025 13.4807 25.5025C13.4305 25.5023 13.3766 25.5058 13.333 25.4668Z" fill="#FEAD00"/>
<path d="M39.451 15.6985C39.4622 16.0165 39.4744 16.3344 39.4977 16.6519C39.5065 16.7704 39.5057 16.8896 39.5134 17.0086C39.533 17.3151 39.5342 17.6228 39.5517 17.9297C39.5717 18.2797 39.585 18.6318 39.603 18.9828C39.6194 19.3201 39.6357 19.6573 39.652 19.9944C39.6687 20.3483 39.6882 20.702 39.703 21.0559C39.712 21.2687 39.7242 21.4814 39.7349 21.6943C39.7531 22.0592 39.7717 22.424 39.7864 22.7891C39.7947 22.9991 39.8097 23.209 39.8184 23.4191C39.8351 23.8089 39.8616 24.1981 39.8812 24.5876C39.8907 24.7756 39.8957 24.964 39.8996 25.1523C39.9016 25.2452 39.9341 25.3372 39.9097 25.431C39.8807 25.435 39.8719 25.4075 39.8521 25.4002C39.7962 25.403 39.7687 25.3605 39.7377 25.3264C39.4352 24.9903 39.1261 24.6596 38.8209 24.3262C38.44 23.9115 38.0591 23.4968 37.6782 23.0819C37.3681 22.7455 37.0586 22.4084 36.7496 22.0708C36.3708 21.6578 35.9917 21.2452 35.6121 20.833C35.2986 20.492 34.9851 20.1508 34.6717 19.8096C34.295 19.3984 33.9179 18.9878 33.5405 18.5776C33.2961 18.3125 33.0522 18.0468 32.809 17.7805C32.4674 17.405 32.1221 17.0329 31.78 16.6577C31.5595 16.4159 31.3353 16.1772 31.1146 15.9353C30.8379 15.6323 30.5562 15.3338 30.2833 15.0271C30.2097 14.9437 30.1312 14.8654 30.0583 14.7817C30.0178 14.7352 29.9835 14.7354 29.9428 14.7817C29.8075 14.936 29.6638 15.0829 29.5261 15.2356C29.3741 15.4048 29.2199 15.5719 29.0664 15.7395C28.7683 16.0646 28.4701 16.3895 28.1716 16.7142C27.9578 16.9476 27.7426 17.1791 27.529 17.4125C27.2445 17.7235 26.957 18.0321 26.674 18.3446C26.5249 18.5091 26.3726 18.6705 26.2229 18.8343C25.9347 19.1497 25.6435 19.462 25.3561 19.7786C25.2071 19.9429 25.0548 20.1044 24.9051 20.2685C24.6169 20.5838 24.3257 20.8965 24.0383 21.2129C23.8883 21.3773 23.7368 21.5388 23.5871 21.7026C23.2991 22.018 23.0075 22.33 22.7204 22.6469C22.5772 22.8054 22.4308 22.9609 22.287 23.1183C21.9926 23.4393 21.6981 23.7602 21.4035 24.0809C21.1942 24.3104 20.9822 24.5376 20.7726 24.7671C20.6059 24.9495 20.4358 25.1282 20.2726 25.3129C20.2392 25.3512 20.2097 25.4005 20.1474 25.3995C20.1276 25.4067 20.1187 25.4344 20.0887 25.43C20.0721 25.3504 20.0931 25.272 20.0977 25.193C20.1047 25.0763 20.1052 24.9608 20.1127 24.8445C20.1322 24.5461 20.1346 24.2467 20.1507 23.9482C20.1698 23.5915 20.187 23.2348 20.2022 22.8781C20.2116 22.6624 20.2252 22.447 20.2344 22.2313C20.2511 21.8415 20.2766 21.4521 20.2976 21.0626C20.3042 20.9382 20.3046 20.8137 20.3129 20.689C20.3328 20.388 20.3346 20.0858 20.3509 19.7844C20.3699 19.4334 20.3881 19.0823 20.4023 18.731C20.4113 18.5071 20.4241 18.2831 20.4356 18.0592C20.4523 17.7054 20.4711 17.3515 20.4856 16.9974C20.4951 16.7762 20.5081 16.5552 20.5189 16.334C20.5293 16.1185 20.5436 15.903 20.5501 15.6871C20.5579 15.6411 20.5936 15.6351 20.6306 15.6306C20.9417 15.5928 21.2535 15.5639 21.5641 15.5289C21.9028 15.4911 22.242 15.4558 22.5808 15.4188C22.859 15.3884 23.1376 15.3598 23.4159 15.3298C23.7604 15.2925 24.1049 15.2554 24.4494 15.2184C24.7249 15.1882 25.0006 15.1599 25.2763 15.1302L26.3179 15.0182C26.5989 14.9881 26.8803 14.9592 27.1613 14.9287C27.5004 14.892 27.8393 14.8555 28.1781 14.8192C28.4591 14.7885 28.7408 14.7627 29.0214 14.7284C29.3019 14.694 29.5849 14.6962 29.8655 14.666H30.1322C30.3023 14.6882 30.4739 14.6875 30.6447 14.6984C30.8911 14.7137 31.1354 14.7472 31.3806 14.7717C31.6673 14.8004 31.9537 14.8329 32.2402 14.8634C32.5157 14.8926 32.7912 14.922 33.0668 14.9517C33.3036 14.9771 33.5404 15.0028 33.7772 15.0289C34.1243 15.0672 34.4713 15.1037 34.8183 15.1409C35.1017 15.1712 35.3861 15.2002 35.6698 15.2311C36.0085 15.2679 36.3473 15.3038 36.6866 15.3408C36.9674 15.3716 37.2486 15.4001 37.5296 15.4304C37.8685 15.467 38.2074 15.5034 38.5464 15.5398C38.7798 15.5653 39.0145 15.593 39.2492 15.613C39.2963 15.617 39.3422 15.6275 39.389 15.6336C39.4243 15.639 39.4525 15.6555 39.451 15.6985Z" fill="#FDD205"/>
<path d="M46.6666 25.4833C46.5286 25.612 46.4154 25.7629 46.2928 25.905C45.1653 27.2129 44.0388 28.5214 42.9134 29.8306C41.7999 31.1248 40.6867 32.419 39.5737 33.7134C38.4927 34.9691 37.4115 36.2251 36.3302 37.4813C35.0808 38.9331 33.8318 40.3853 32.5831 41.8376C31.7557 42.7993 30.9278 43.7605 30.0995 44.7213C30.0771 44.7473 30.062 44.7845 30.0206 44.7901C30.0793 44.6463 30.1571 44.5118 30.2282 44.3734C30.4432 43.9567 30.6534 43.5373 30.8662 43.1193C31.1081 42.6446 31.3486 42.1692 31.5938 41.6961C31.8264 41.2478 32.0569 40.7985 32.2852 40.3481C32.5212 39.8861 32.7578 39.4243 32.9948 38.9627C33.2298 38.5032 33.4651 38.0438 33.7005 37.5845C33.9362 37.1223 34.1764 36.6622 34.4095 36.1985C34.6211 35.7771 34.8403 35.3593 35.0555 34.9395C35.4123 34.2434 35.769 33.5469 36.1255 32.8501C36.3755 32.3609 36.6229 31.8702 36.8756 31.3825C37.1089 30.9315 37.3406 30.4797 37.5706 30.027C37.8052 29.5673 38.0418 29.1086 38.2764 28.6489C38.5109 28.1891 38.7503 27.7256 38.9858 27.2632C39.2213 26.8008 39.4613 26.3464 39.6907 25.8847C39.751 25.7629 39.8167 25.6439 39.88 25.5235C39.8927 25.4993 39.9012 25.4712 39.9332 25.464C39.9711 25.4465 40.0127 25.4384 40.0544 25.4405H46.573C46.6063 25.4405 46.6396 25.4387 46.666 25.4657L46.6666 25.4833Z" fill="#EB6B00"/>
<path d="M29.9633 44.7876C29.7299 44.5196 29.4966 44.2526 29.2646 43.9836C28.5579 43.1632 27.8519 42.3426 27.1463 41.5216C26.4408 40.7006 25.7347 39.8799 25.0281 39.0595C24.3255 38.2431 23.6228 37.4268 22.92 36.6107C22.185 35.7565 21.45 34.9022 20.7151 34.0476C20.0109 33.229 19.3065 32.4106 18.6017 31.5924C17.8991 30.7759 17.1967 29.9592 16.4947 29.1421C15.7596 28.2879 15.0243 27.4337 14.2889 26.5796C13.9956 26.2387 13.7023 25.8978 13.4092 25.5569C13.3862 25.5302 13.369 25.4969 13.3333 25.4829V25.4662C15.547 25.4662 17.7607 25.4656 19.9745 25.4644C20.0559 25.4644 20.0969 25.4907 20.1331 25.5627C20.4151 26.1231 20.7013 26.6815 20.9867 27.2401C21.2229 27.7023 21.4596 28.1644 21.6967 28.6262C21.932 29.0857 22.1672 29.5453 22.4023 30.005C22.634 30.4571 22.8658 30.9091 23.0976 31.3612C23.3379 31.8308 23.5781 32.3003 23.8181 32.7698C24.0515 33.2245 24.2844 33.6791 24.5169 34.1336L25.2155 35.4973C25.4496 35.9545 25.6837 36.4116 25.9177 36.8686C26.1556 37.3331 26.3935 37.7976 26.6314 38.2621C26.8655 38.7193 27.0995 39.1764 27.3335 39.6336L28.0321 40.9972C28.2662 41.4543 28.5003 41.9114 28.7343 42.3686C28.9734 42.8353 29.2123 43.302 29.4511 43.7687C29.6084 44.0749 29.7678 44.3801 29.9251 44.6855C29.942 44.719 29.9646 44.7488 29.9633 44.7876Z" fill="#EB6B00"/>
<path d="M46.6016 25.3792L46.6666 25.45V25.4667H40.0589C40.0172 25.4667 39.9756 25.4667 39.9339 25.4653C39.9581 25.4293 39.9941 25.4182 40.0339 25.4172C40.0617 25.4172 40.0894 25.4172 40.1173 25.4172C42.2397 25.4172 44.3624 25.4168 46.4855 25.4162C46.5261 25.4157 46.5783 25.4385 46.6016 25.3792Z" fill="#FEAD00"/>
<path d="M20.1479 25.4003C20.4666 25.0519 20.7852 24.7036 21.1038 24.3554C21.9601 23.4226 22.8167 22.4899 23.6734 21.5574C24.3215 20.8519 24.9698 20.1462 25.6182 19.4405L28.3738 16.4402C28.8942 15.8734 29.4143 15.3067 29.934 14.74C29.9861 14.6828 30.0138 14.6826 30.0662 14.74C30.8493 15.5967 31.6339 16.4524 32.4199 17.3069C33.006 17.945 33.5923 18.5829 34.1788 19.2206C35.0994 20.2227 36.0198 21.225 36.9399 22.2275C37.526 22.8655 38.1123 23.5034 38.6988 24.1412C39.0838 24.5604 39.4682 24.9803 39.8521 25.4006C39.8562 25.4485 39.8396 25.475 39.7864 25.4663C39.7725 25.4652 39.7586 25.4652 39.7447 25.4663C33.2483 25.4663 26.7519 25.4663 20.2554 25.4663C20.2102 25.4648 20.1404 25.4935 20.1479 25.4003Z" fill="#FEEEB3"/>
</g>
<defs>
<clipPath id="clip0_173_154">
<rect width="33.3333" height="30.1553" fill="white" transform="translate(13.3333 14.6667)"/>
</clipPath>
</defs>
</svg>
