<svg width="130" height="130" viewBox="0 0 130 130" fill="none" xmlns="http://www.w3.org/2000/svg">
<rect width="130" height="130" rx="65" fill="url(#paint0_radial_671_1065)"/>
<path d="M65.0016 80.9702V90.4868H64.9984L34.2315 70.2585L27 65.5034L34.2315 60.7451L64.9984 80.9734L65.0016 80.9702Z" fill="url(#paint1_linear_671_1065)"/>
<path d="M103 65.5034L95.7689 70.2585H95.7657L65.002 90.4868V80.9702L95.7689 60.7451L103 65.5034Z" fill="url(#paint2_linear_671_1065)"/>
<path d="M103 75.0166L65.002 99.9968V90.4866L95.7657 70.2583H95.7689L103 75.0166Z" fill="url(#paint3_linear_671_1065)"/>
<path d="M65.0016 90.4866V99.9968L64.9984 100L27 75.0166L34.2315 70.2583L64.9984 90.4866H65.0016Z" fill="url(#paint4_linear_671_1065)"/>
<path d="M64.9984 31L27 56.0301L27.0031 56.0333L64.9984 81.0635H65.0016L102.997 56.0333L103 56.0301L64.9984 31Z" fill="url(#paint5_radial_671_1065)"/>
<defs>
<radialGradient id="paint0_radial_671_1065" cx="0" cy="0" r="1" gradientUnits="userSpaceOnUse" gradientTransform="translate(65 65) scale(65 151.866)">
<stop stop-color="#120053"/>
<stop offset="1" stop-color="#181034"/>
</radialGradient>
<linearGradient id="paint1_linear_671_1065" x1="46.0008" y1="60.7451" x2="46.0008" y2="90.4868" gradientUnits="userSpaceOnUse">
<stop stop-color="#623EFD"/>
<stop offset="1" stop-color="#2BC4F7"/>
</linearGradient>
<linearGradient id="paint2_linear_671_1065" x1="84.0012" y1="60.7451" x2="84.0012" y2="90.4868" gradientUnits="userSpaceOnUse">
<stop stop-color="#623EFD"/>
<stop offset="1" stop-color="#2BC4F7"/>
</linearGradient>
<linearGradient id="paint3_linear_671_1065" x1="84.0012" y1="70.2583" x2="84.0012" y2="99.9968" gradientUnits="userSpaceOnUse">
<stop stop-color="#623EFD"/>
<stop offset="1" stop-color="#2BC4F7"/>
</linearGradient>
<linearGradient id="paint4_linear_671_1065" x1="46.0008" y1="70.2583" x2="46.0008" y2="100" gradientUnits="userSpaceOnUse">
<stop stop-color="#623EFD"/>
<stop offset="1" stop-color="#2BC4F7"/>
</linearGradient>
<radialGradient id="paint5_radial_671_1065" cx="0" cy="0" r="1" gradientUnits="userSpaceOnUse" gradientTransform="translate(64.7516 67.2427) scale(39.1235 39.8667)">
<stop stop-color="#2BC4F7"/>
<stop offset="1" stop-color="#623EFD"/>
</radialGradient>
</defs>
</svg>
