<svg width="64" height="64" viewBox="0 0 64 64" fill="none" xmlns="http://www.w3.org/2000/svg"><path fill="#fff" d="M0 0h64v64H0z"/><path d="M55.397 26.444c-.362-2.544-1.932-4.603-3.864-6.177l-.724-.606-.724.848c-1.208 1.453-1.69 3.876-1.57 5.814.12 1.453.603 2.785 1.449 3.875-.604.364-1.45.606-2.053.97-1.449.484-2.777.605-4.226.605H3.237l-.12.969c-.363 3.028.12 6.177 1.448 8.963l.604 1.09v.121C8.912 49.214 15.673 52 22.918 52c14.006 0 25.597-6.177 31.03-19.258 3.622.121 7.124-.727 8.935-4.24l.483-.726-.724-.484c-2.053-1.333-4.95-1.454-7.245-.848z" fill="#000"/><path d="M14.854 43.376c-1.675 0-3.23-1.492-3.23-3.233 0-1.742 1.436-3.234 3.23-3.234 1.795 0 3.231 1.492 3.231 3.233.12 1.742-1.436 3.234-3.23 3.234z" fill="#fff"/><path d="M36.09 23.757H30.7v5.498h5.39v-5.498zm0-7.869H30.7v5.498h5.39v-5.498zm0-8.084H30.7v5.39h5.39v-5.39zm7.76 15.953h-5.389v5.498h5.39v-5.498zm-23.391 0h-5.498v5.498h5.498v-5.498zm7.869 0h-5.39v5.498h5.39v-5.498zm-15.63 0H7.2v5.498h5.498v-5.498zm15.63-7.869h-5.39v5.498h5.39v-5.498zm-7.869 0h-5.498v5.39h5.498v-5.39z" fill="#000"/></svg>