<svg width="60" height="60" viewBox="0 0 60 60" fill="none" xmlns="http://www.w3.org/2000/svg">
<rect opacity="0.2" width="60" height="60" rx="15" fill="white"/>
<path d="M21.1369 39.4179C20.4876 39.3872 19.8624 39.2709 19.2749 39.0215C17.9044 38.4411 16.8271 37.5449 16.2279 36.1891C15.695 34.9829 15.7005 33.7445 16.0993 32.5005C16.1213 32.4335 16.1448 32.3672 16.1705 32.2916C16.1191 32.2464 16.0727 32.2026 16.0233 32.1625C15.7157 31.9107 15.41 31.6558 15.0976 31.4095C14.3924 30.8548 14.0666 30.1193 14.0103 29.2574C13.9554 28.4148 14.1257 27.6038 14.3907 26.8072C14.7915 25.6032 15.3751 24.4815 16.0635 23.4146C18.0288 20.3646 20.4848 17.7472 23.4316 15.5624C24.4643 14.7977 25.5594 14.1296 26.7539 13.6249C27.4269 13.3405 28.1206 13.1158 28.8537 13.036C29.4469 12.972 30.0374 12.9812 30.6095 13.1809C31.0043 13.3155 31.3638 13.5327 31.6627 13.817C32.1797 14.3101 32.7012 14.7985 33.2213 15.2893C33.2577 15.3234 33.2973 15.3546 33.3465 15.396C33.5999 15.2914 33.8545 15.1873 34.1085 15.0814C35.0589 14.6852 36.036 14.372 37.0543 14.188C38.0178 14.0141 38.9851 13.9533 39.9572 14.1206C40.3686 14.1889 40.7677 14.3143 41.1424 14.493C42.2911 15.0452 42.8049 16.066 42.7159 17.2545C42.6418 18.2434 42.2503 19.1243 41.7313 19.9601C41.3138 20.632 40.8154 21.2448 40.2703 21.8224C40.2208 21.8747 40.1721 21.9271 40.1151 21.988C40.1512 22.0334 40.1826 22.0793 40.2204 22.1194C40.9837 22.9328 41.3993 23.9036 41.5983 24.9744C41.6963 25.5012 41.7172 26.0323 41.722 26.5659C41.7273 27.141 41.744 27.716 41.7554 28.3109C42.0294 28.3881 42.2925 28.4671 42.5583 28.536C43.3588 28.7434 44.094 29.0761 44.7557 29.5662C45.6331 30.2161 45.9673 31.3124 45.5731 32.3765C45.4995 32.5752 45.3771 32.7564 45.2835 32.9484C45.2577 33.0011 45.2301 33.0721 45.2465 33.1214C45.4078 33.6066 45.5783 34.0893 45.7539 34.5937C46.0897 34.6443 46.3757 34.8284 46.5968 35.1101C46.8585 35.4444 46.9761 35.83 46.9952 36.241C47.0202 36.7761 46.9422 37.3047 46.8414 37.8291C46.4458 39.9055 45.4203 41.6652 43.9361 43.1806C42.31 44.8413 40.312 45.8936 38.0472 46.4879C36.5458 46.8811 35.0149 47.039 33.4621 46.991C30.7926 46.9087 28.29 46.2555 26.0152 44.8686C23.8822 43.5683 22.2854 41.807 21.225 39.5848C21.2066 39.5462 21.1885 39.5073 21.1694 39.4689C21.1641 39.457 21.1549 39.4457 21.1369 39.4179ZM43.9925 36.5561L44.0303 36.5841C43.9919 36.6541 43.9644 36.7334 43.9132 36.7926C43.7845 36.9472 43.6473 37.0951 43.5023 37.2355C42.8431 37.856 42.0719 38.3154 41.2406 38.6813C39.5183 39.4395 37.706 39.7617 35.8203 39.7181C35.2781 39.7058 34.7394 39.6294 34.2162 39.4909C33.633 39.337 33.078 39.1217 32.6054 38.7441C31.7045 38.0235 31.5216 36.7275 32.1989 35.827C32.5581 35.3493 33.0407 35.1146 33.6601 35.1794C34.089 35.2245 34.517 35.2872 34.9473 35.3092C36.3735 35.3821 37.784 35.2622 39.1718 34.9294C40.2969 34.6597 41.3911 34.3084 42.4019 33.7419C42.9042 33.4601 43.3812 33.1455 43.7862 32.7374C44.0112 32.5103 44.2037 32.2615 44.3265 31.9671C44.5682 31.3861 44.4109 30.8093 43.8998 30.4271C43.3819 30.0403 42.8027 29.783 42.1655 29.6377C41.7961 29.5538 41.4316 29.4484 41.0688 29.3389C40.8018 29.2589 40.6401 29.0686 40.5876 28.8055C40.548 28.6106 40.5226 28.4132 40.5115 28.2149C40.4718 27.4484 40.4502 26.6811 40.4017 25.9153C40.3797 25.569 40.3263 25.2234 40.2648 24.8813C40.2144 24.6005 40.1129 24.3307 39.9648 24.0846C39.5913 23.463 38.8998 23.2245 38.2083 23.479C37.9029 23.5915 37.6405 23.7681 37.4026 23.9839C36.6555 24.6607 35.7664 24.9577 34.7519 24.898C34.1459 24.8623 33.5414 24.8041 32.9356 24.7648C32.5706 24.7411 32.2041 24.7309 31.8425 24.8054C31.0119 24.9761 30.339 25.4049 29.8352 26.0553C28.8559 27.3202 28.7763 28.6924 29.4052 30.1212C29.6669 30.7156 30.085 31.2126 30.5243 31.6922C30.7284 31.915 30.9334 32.138 31.1252 32.3708C31.3278 32.6168 31.3164 32.8202 31.1096 33.0611C31.002 33.1865 30.8882 33.3075 30.7871 33.4379C29.6931 34.845 29.237 36.426 29.4188 38.181C29.4933 38.9325 29.718 39.6626 30.0804 40.3305C30.7332 41.5333 31.7405 42.3744 32.9952 42.9427C34.6462 43.6905 36.3845 43.858 38.1637 43.5683C40.3687 43.2092 42.2846 42.288 43.8389 40.6973C44.8642 39.6475 45.5401 38.4313 45.7899 37.0008C45.8414 36.7059 45.8541 36.4061 45.7792 36.1117C45.6913 35.7624 45.479 35.5945 45.1116 35.5718C45.04 35.5674 44.9675 35.5718 44.889 35.5718C44.7728 34.9445 44.6225 34.3426 44.3373 33.7827C44.3153 33.7874 44.2938 33.7939 44.2729 33.8021C44.2479 33.8166 44.2241 33.8335 44.2002 33.8499C41.9427 35.4097 39.3995 36.1251 36.6583 36.2551C35.7662 36.2983 34.8718 36.2626 33.9864 36.1484C33.769 36.1232 33.5488 36.1313 33.334 36.1725C33.0301 36.2282 32.8785 36.4499 32.7952 36.7396C32.8785 36.7676 32.9457 36.7915 33.0149 36.8126C34.6508 37.3224 36.3805 37.4847 38.0866 37.2884C38.1228 37.2844 38.1648 37.2714 38.1947 37.284C38.2349 37.301 38.2795 37.3332 38.2953 37.3693C38.3041 37.3891 38.2646 37.4453 38.2336 37.4615C38.1678 37.4922 38.0994 37.517 38.029 37.5357C37.4177 37.7278 36.7873 37.8046 36.149 37.8204C35.0488 37.8473 33.9787 37.6667 32.9301 37.3527C32.8642 37.333 32.7963 37.3187 32.6963 37.2938C32.7304 37.4141 32.7464 37.5042 32.7811 37.5869C32.9013 37.8739 33.1151 38.0854 33.3797 38.2484C33.7956 38.5031 34.2582 38.6776 34.742 38.7624C36.0681 39.0048 37.3924 38.9643 38.7113 38.7023C40.5454 38.3378 42.2369 37.6354 43.8121 36.6603C43.8719 36.6248 43.9325 36.5911 43.9925 36.5561ZM32.0888 16.153C31.9556 16.0113 31.8389 15.8756 31.7104 15.7525C31.3162 15.3721 30.9191 14.9945 30.5192 14.6197C30.3916 14.5006 30.2402 14.4146 30.0595 14.385C29.7564 14.3341 29.4474 14.3243 29.1415 14.3558C28.5625 14.4176 28.0099 14.574 27.4715 14.7825C26.2731 15.2442 25.1813 15.8899 24.149 16.6303C21.1668 18.7691 18.7342 21.3899 16.8512 24.4928C16.2696 25.4483 15.7724 26.4443 15.445 27.5129C15.2621 28.1088 15.147 28.714 15.1947 29.3396C15.2301 29.8058 15.3612 30.2323 15.7326 30.5607C15.8515 30.6657 15.9572 30.785 16.0767 30.8893C16.2705 31.0581 16.4707 31.2201 16.668 31.3848C16.6915 31.3666 16.7135 31.3467 16.7339 31.3252C17.3995 30.4338 18.3041 29.8978 19.3968 29.6464C19.5038 29.6219 19.5553 29.5717 19.5946 29.4757C19.7528 29.0861 19.9108 28.696 20.0837 28.3124C20.938 26.4168 22.0009 24.6404 23.3281 23.0177C24.3845 21.7259 25.6045 20.6015 26.9396 19.5796C28.5126 18.3726 30.1671 17.2693 31.8921 16.2772C31.9528 16.242 32.0116 16.2017 32.0888 16.153ZM23.7207 35.0561C23.6741 34.669 23.6399 34.2801 23.5779 33.8951C23.49 33.3446 23.3122 32.821 23.0204 32.3362C22.423 31.3438 21.2652 30.6275 19.9424 30.8426C18.6785 31.0483 17.7686 31.7048 17.2854 32.8756C17.0523 33.4402 17.002 34.0313 17.0376 34.6334C17.0624 35.0563 17.1492 35.4656 17.3452 35.8443C18.0547 37.2061 19.178 38.0404 20.7449 38.2367C21.7616 38.3647 22.8583 37.9469 23.3729 36.7644C23.612 36.2181 23.693 35.6459 23.7207 35.0561ZM30.7772 19.1716C30.1303 19.2049 26.6834 21.9355 26.3338 22.691C26.4162 22.7753 26.4656 22.6855 26.5164 22.6518C28.6964 21.2078 31.1054 20.4581 33.7434 20.4028C34.7486 20.3815 35.7447 20.4743 36.7317 20.6623C36.8132 20.6776 36.8974 20.7231 36.9807 20.6563C36.9855 20.5306 36.8752 20.5253 36.8049 20.4935C35.9233 20.0893 34.9717 19.8487 33.9991 19.7842C33.902 19.7778 33.8055 19.7612 33.6856 19.7465C33.8526 19.4383 34.131 19.2717 34.3292 19.0321C32.9229 19.1456 31.6425 19.6014 30.4658 20.3083C30.3724 20.2351 30.3999 20.1717 30.4239 20.1133C30.526 19.863 30.6319 19.6144 30.7343 19.3643C30.7594 19.3031 30.8319 19.2497 30.7774 19.1716H30.7772Z" fill="black"/>
<path d="M38.8029 29.1024C38.6353 28.9317 38.5032 28.722 38.4514 28.4866C38.3635 28.0927 38.3039 27.6922 38.2521 27.2917C38.2389 27.1575 38.2563 27.0221 38.3028 26.8951C38.4173 26.5675 38.8396 26.464 39.1105 26.6909C39.1838 26.7498 39.2442 26.8223 39.2881 26.9042C39.6243 27.5894 39.7715 28.2999 39.57 29.0523C39.5624 29.0695 39.5532 29.0861 39.5425 29.1018L38.8029 29.1024Z" fill="black"/>
<path d="M33.367 29.5139C33.1354 29.5589 32.7561 29.6295 32.3782 29.707C32.1639 29.7512 31.9526 29.8081 31.7392 29.8564C31.6625 29.8736 31.5731 29.9054 31.5179 29.8243C31.4597 29.739 31.5098 29.656 31.5674 29.5918C31.6557 29.4881 31.7529 29.392 31.8581 29.3044C32.8181 28.5445 34.4081 28.6653 35.1503 29.6084C35.2092 29.6801 35.2566 29.7601 35.2907 29.8457C35.3248 29.9383 35.2672 29.9989 35.1655 29.9893C35.1078 29.9815 35.0515 29.9656 34.9985 29.9421C34.8365 29.8781 34.6764 29.8083 34.5151 29.7407C34.198 29.6073 33.8699 29.5156 33.367 29.5139Z" fill="black"/>
<path d="M34.0543 30.1433C34.4058 30.1373 34.7135 30.2478 34.9714 30.4796C35.0048 30.507 35.0349 30.5379 35.0613 30.5717C35.1404 30.6827 35.0932 30.7851 34.9558 30.7952C34.8903 30.7987 34.8246 30.7939 34.7603 30.7811C34.2237 30.6812 33.7023 30.7232 33.1953 30.9264C33.1222 30.9581 33.0448 30.9796 32.9655 30.9904C32.8427 31.0034 32.7677 30.9185 32.8099 30.8048C32.8458 30.709 32.8996 30.6067 32.9758 30.5402C33.2802 30.2743 33.6449 30.1471 34.0543 30.1433Z" fill="black"/>
<path d="M37.6555 31.6867C37.503 31.6227 37.3175 31.5736 37.1635 31.4763C36.9611 31.3483 36.9196 31.0709 37.0378 30.8675C37.1498 30.6755 37.4041 30.5761 37.6238 30.6727C37.7796 30.7412 37.915 30.8547 38.0556 30.9533C38.0888 30.9768 38.1099 31.0194 38.1305 31.0564C38.2672 31.3026 38.2024 31.4957 37.9396 31.6084C37.8611 31.6419 37.7732 31.6557 37.6555 31.6867Z" fill="black"/>
<path d="M38.886 30.5306C38.9058 30.3276 38.9697 30.1586 39.1209 30.0276C39.2778 29.8917 39.4593 29.8981 39.6107 30.0394C39.855 30.2675 39.8948 30.6795 39.6975 30.937C39.4977 31.1984 39.1833 31.1897 39.0202 30.9069C38.9545 30.7928 38.9295 30.6567 38.886 30.5306Z" fill="black"/>
<path d="M21.9765 33.7568C21.9805 33.9894 21.9071 34.2416 21.8119 34.4891C21.7405 34.6751 21.6649 34.8597 21.5957 35.0466C21.5337 35.215 21.5228 35.3971 21.5643 35.5713C21.6221 35.8274 21.8319 35.9676 22.0969 35.9247C22.198 35.9085 22.2997 35.885 22.401 35.8858C22.5416 35.8869 22.5871 35.9855 22.5109 36.102C22.3351 36.3721 21.9958 36.4918 21.6432 36.4086C21.1914 36.3019 20.8838 35.9213 20.871 35.438C20.8589 35.0748 20.9214 34.7129 21.0549 34.3734C21.2151 33.9704 21.1037 33.6224 20.8033 33.3198C20.4349 32.9485 19.4931 32.9684 19.2213 33.5707C19.1393 33.7527 19.0624 33.9369 18.9778 34.1176C18.9482 34.1816 18.9141 34.2522 18.86 34.2924C18.8018 34.335 18.7155 34.3726 18.6458 34.3662C18.5594 34.3581 18.5219 34.2689 18.521 34.1872C18.5195 34.0105 18.5067 33.8306 18.5348 33.6576C18.615 33.1651 18.8251 32.727 19.2393 32.42C20.1609 31.7355 21.2898 32.0786 21.7662 32.95C21.933 33.2536 21.98 33.4305 21.9765 33.7568Z" fill="black"/>
</svg>
