<svg width="64" height="64" viewBox="0 0 64 64" fill="none" xmlns="http://www.w3.org/2000/svg"><path d="M64 0H0v64h64V0z" fill="#fff"/><path d="M25.162 11C21.207 11 18 14.234 18 18.218s3.208 7.218 7.162 7.218h7.16V11h-7.16zM18 34c0-3.984 3.208-7.218 7.162-7.218h7.16v14.436h-7.16C21.207 41.218 18 37.984 18 34zm7.162 23c3.953 0 7.16-3.234 7.16-7.218v-7.218h-7.16c-3.954 0-7.162 3.234-7.162 7.218S21.208 57 25.162 57zm8.504-46h7.162c3.953 0 7.161 3.234 7.161 7.218s-3.208 7.218-7.161 7.218h-7.162V11zm6.506 30.218c3.953 0 7.161-3.234 7.161-7.218s-3.208-7.218-7.161-7.218c-3.953 0-7.162 3.234-7.162 7.218s3.209 7.218 7.162 7.218z" fill="#000"/></svg>