<svg width="60" height="60" viewBox="0 0 60 60" fill="none" xmlns="http://www.w3.org/2000/svg">
<rect opacity="0.2" width="60" height="60" rx="15" fill="white"/>
<g clip-path="url(#clip0_173_163)">
<path d="M20.7711 49.0786C24.8789 49.0786 28.2089 45.7478 28.2089 41.6391C28.2089 37.5305 24.8789 34.1997 20.7711 34.1997C16.6633 34.1997 13.3333 37.5305 13.3333 41.6391C13.3333 45.7478 16.6633 49.0786 20.7711 49.0786Z" fill="#FEDF8F"/>
<path d="M46.3155 11.9753C39.8549 23.1797 28.0229 30.8878 14.3399 31.5862C14.2212 31.5927 14.1024 31.5749 13.9908 31.5339C13.8792 31.4929 13.7772 31.4295 13.6909 31.3477C13.6046 31.2659 13.536 31.1673 13.4891 31.058C13.4422 30.9488 13.4181 30.8311 13.4183 30.7121V10.6665H45.56C45.7129 10.667 45.863 10.7076 45.9954 10.7843C46.1277 10.861 46.2376 10.971 46.3141 11.1035C46.3906 11.236 46.431 11.3862 46.4312 11.5392C46.4314 11.6922 46.3915 11.8426 46.3155 11.9753Z" fill="#FE6251"/>
<path d="M46.4288 30.4706C47.1695 28.435 46.1202 26.1842 44.0851 25.4433C42.0499 24.7024 39.7996 25.752 39.0589 27.7876L33.3937 43.356C32.653 45.3916 33.7023 47.6424 35.7375 48.3833C37.7726 49.1242 40.0229 48.0746 40.7637 46.039L46.4288 30.4706Z" fill="#3366FE"/>
</g>
<defs>
<clipPath id="clip0_173_163">
<rect width="33.3333" height="38.4114" fill="white" transform="translate(13.3333 10.6665)"/>
</clipPath>
</defs>
</svg>
