<svg xmlns="http://www.w3.org/2000/svg" width="74.218" height="31.689" viewBox="0 0 74.218 31.689"><defs><style>.a{fill:#908db5;}</style></defs><g transform="translate(0.549 14.613)"><path class="a" d="M231.938,49.679v6.765h-2.146v-16.7h5.692a5.144,5.144,0,0,1,3.685,1.446,4.828,4.828,0,0,1,0,7.069,5.139,5.139,0,0,1-3.685,1.423Zm0-7.886v5.832h3.593a2.835,2.835,0,0,0,2.123-.863,2.928,2.928,0,0,0-2.123-4.97Z" transform="translate(-229.792 -39.741)"/><path class="a" d="M245.4,44.2a5.323,5.323,0,0,1,3.755,1.271,4.512,4.512,0,0,1,1.377,3.487V56h-2.054V54.417h-.093a4.094,4.094,0,0,1-3.546,1.96,4.61,4.61,0,0,1-3.161-1.121,3.575,3.575,0,0,1-1.271-2.8,3.4,3.4,0,0,1,1.342-2.823,5.652,5.652,0,0,1,3.581-1.05,6.344,6.344,0,0,1,3.149.7v-.49a2.442,2.442,0,0,0-.887-1.9,3.039,3.039,0,0,0-2.075-.781,3.287,3.287,0,0,0-2.846,1.516l-1.89-1.19A5.267,5.267,0,0,1,245.4,44.2Zm-2.776,8.3a1.714,1.714,0,0,0,.712,1.4,2.614,2.614,0,0,0,1.668.56,3.424,3.424,0,0,0,2.414-1,3.143,3.143,0,0,0,1.061-2.357,4.411,4.411,0,0,0-2.8-.793,3.637,3.637,0,0,0-2.181.631A1.869,1.869,0,0,0,242.624,52.5Z" transform="translate(-228.744 -39.301)"/><path class="a" d="M251.83,44.853h2.053V46.72h.093q.956-2.192,3.942-2.193l.443.047v2.239l-.956-.093a3.426,3.426,0,0,0-2.461.922,3.092,3.092,0,0,0-.968,2.344v6.3H251.83Zm13.39,11.618a3.26,3.26,0,0,1-2.321-.864,3.2,3.2,0,0,1-.945-2.4V46.813h-2.006v-1.96h2.006v-3.5H264.1v3.5h2.8v1.96h-2.8V52.5a2.086,2.086,0,0,0,.444,1.551,1.438,1.438,0,0,0,1,.409,2.177,2.177,0,0,0,.5-.058,2.692,2.692,0,0,0,.455-.152l.677,1.913A5.794,5.794,0,0,1,265.22,56.471Z" transform="translate(-227.616 -39.582)"/><path class="a" d="M267.52,44.572h2.054v1.587h.092a3.829,3.829,0,0,1,1.505-1.4,4.32,4.32,0,0,1,2.111-.559,4.225,4.225,0,0,1,3.231,1.2,4.8,4.8,0,0,1,1.132,3.418V56H275.5V48.959a2.523,2.523,0,0,0-2.823-2.8,2.683,2.683,0,0,0-2.146,1.038,3.76,3.76,0,0,0-.864,2.484V56H267.52Z" transform="translate(-226.067 -39.301)"/><path class="a" d="M284.219,56.377a5.468,5.468,0,0,1-4.153-1.727,6.092,6.092,0,0,1-1.633-4.362,6.209,6.209,0,0,1,1.587-4.351,5.7,5.7,0,0,1,8.106-.092,6.573,6.573,0,0,1,1.5,4.607l-.023.233h-8.981a3.724,3.724,0,0,0,1.12,2.706,3.616,3.616,0,0,0,5.785-1.026l1.913.933a5.692,5.692,0,0,1-2.134,2.262A5.9,5.9,0,0,1,284.219,56.377Zm-3.43-7.466h6.556a2.851,2.851,0,0,0-.969-1.971,3.387,3.387,0,0,0-2.344-.781,3.114,3.114,0,0,0-2.089.747A3.57,3.57,0,0,0,280.789,48.911Z" transform="translate(-224.99 -39.301)"/><path class="a" d="M292.554,56h-2.147V44.568h2.054v1.867h.093a3.1,3.1,0,0,1,1.342-1.551,3.723,3.723,0,0,1,1.994-.642,4.023,4.023,0,0,1,1.587.28l-.654,2.077a3.556,3.556,0,0,0-1.259-.164,2.778,2.778,0,0,0-2.112.98,3.275,3.275,0,0,0-.9,2.285Z" transform="translate(-223.808 -39.297)"/></g><path class="a" d="M234.7,31.294v1.457h3.486a3.077,3.077,0,0,1-1.145,2.146,3.91,3.91,0,0,1-5.061-.377,3.962,3.962,0,0,1,0-5.49A3.656,3.656,0,0,1,234.7,27.9a3.736,3.736,0,0,1,2.628,1.04l1.027-1.027a5.131,5.131,0,0,0-3.655-1.47,5.37,5.37,0,0,0-2.706.728,5.274,5.274,0,0,0-1.991,1.965A5.261,5.261,0,0,0,232,36.38a5.36,5.36,0,0,0,2.706.73,4.975,4.975,0,0,0,3.577-1.354,5.219,5.219,0,0,0,1.327-4.462Z" transform="translate(-229.292 -26.441)"/><path class="a" d="M242.674,29.9a3.341,3.341,0,0,0-2.459.988,3.538,3.538,0,1,0,2.459-.988Zm1.367,4.917a1.873,1.873,0,0,1-2.746,0,2.091,2.091,0,0,1-.559-1.483,2.032,2.032,0,0,1,.559-1.482,1.887,1.887,0,0,1,2.758,0,2.028,2.028,0,0,1,.56,1.482A2.093,2.093,0,0,1,244.041,34.816Z" transform="translate(-228.311 -26.1)"/><rect class="a" width="1.509" height="10.096" transform="translate(33.578 0.364)"/><path class="a" d="M249.518,29.9a3.341,3.341,0,0,0-2.459.988,3.538,3.538,0,1,0,2.459-.988Zm1.367,4.917a1.873,1.873,0,0,1-2.746,0,2.091,2.091,0,0,1-.559-1.483,2.032,2.032,0,0,1,.559-1.482,1.887,1.887,0,0,1,2.758,0,2.028,2.028,0,0,1,.56,1.482A2.093,2.093,0,0,1,250.885,34.816Z" transform="translate(-227.635 -26.1)"/><path class="a" d="M265.3,35.415a1.758,1.758,0,0,1-1.666-1.04l4.593-1.9-.156-.39a3.756,3.756,0,0,0-.475-.884,3.422,3.422,0,0,0-.67-.7,2.825,2.825,0,0,0-.833-.448,2.936,2.936,0,0,0-.962-.156,3.084,3.084,0,0,0-2.316.976,3.465,3.465,0,0,0-.923,2.458,3.346,3.346,0,0,0,.976,2.447,3.466,3.466,0,0,0,5.295-.534l-1.171-.78A1.951,1.951,0,0,1,265.3,35.415ZM263.906,31.8a1.767,1.767,0,0,1,1.276-.572,1.558,1.558,0,0,1,.793.2,1.061,1.061,0,0,1,.481.526l-3.071,1.276A1.885,1.885,0,0,1,263.906,31.8Z" transform="translate(-226.074 -26.1)"/><path class="a" d="M258.066,30.666h-.052a2.241,2.241,0,0,0-1.809-.767,3.128,3.128,0,0,0-2.315,1.014,3.5,3.5,0,0,0,0,4.853,3.177,3.177,0,0,0,2.315,1,2.225,2.225,0,0,0,1.809-.781h.052v.352q0,2.159-1.834,2.159a1.694,1.694,0,0,1-1.041-.338,2.107,2.107,0,0,1-.69-.884l-1.314.547a3.478,3.478,0,0,0,.494.825,3.155,3.155,0,0,0,.7.638,3.419,3.419,0,0,0,.865.416,3.255,3.255,0,0,0,.989.149,3.118,3.118,0,0,0,2.4-.931,3.744,3.744,0,0,0,.866-2.647V30.107h-1.432Zm-.428,4.163a1.7,1.7,0,0,1-1.3.586,1.8,1.8,0,0,1-1.367-.6,2.249,2.249,0,0,1,.013-2.953,1.8,1.8,0,0,1,1.354-.611,1.655,1.655,0,0,1,1.3.6,2.348,2.348,0,0,1,0,2.979Z" transform="translate(-226.96 -26.1)"/></svg>