<svg width="60" height="60" viewBox="0 0 60 60" fill="none" xmlns="http://www.w3.org/2000/svg">
<rect opacity="0.2" width="60" height="60" rx="15" fill="white"/>
<g clip-path="url(#clip0_176_240)">
<path d="M25.1381 18.1998C25.3599 17.7966 25.5724 17.3894 25.8623 17.0305C26.7129 15.9771 27.7887 15.3099 29.1006 15.0832C30.6463 14.8162 32.0479 15.1952 33.2926 16.1711C33.8957 16.6435 34.3466 17.2489 34.7221 17.922C35.7185 19.7082 36.7188 21.4918 37.7231 23.2727C38.8009 25.1945 39.8782 27.1165 40.9549 29.0387C42.0293 30.954 43.104 32.8688 44.179 34.7831C44.5982 35.5342 45.0389 36.273 45.4284 37.0405C45.7672 37.71 45.9592 38.4477 45.9909 39.2017C46.0395 40.2114 45.8547 41.1695 45.3887 42.061C44.584 43.6009 43.3442 44.5754 41.6751 44.891C39.7058 45.2636 38.0281 44.6461 36.6666 43.1364C36.3382 42.7716 36.0986 42.342 35.8586 41.9133C34.8222 40.0636 33.7847 38.2144 32.7459 36.3658C31.8857 34.8325 31.0259 33.299 30.1664 31.7653C30.1149 31.6741 30.0555 31.5863 30.0004 31.4969C29.9255 31.4543 29.8844 31.3809 29.8441 31.3086C28.885 29.5882 27.9173 27.8728 26.9545 26.1554C26.4525 25.2599 25.9524 24.3638 25.4462 23.4709C25.0521 22.7747 24.7433 22.0453 24.6653 21.2363C24.5912 20.469 24.5965 19.7038 24.8267 18.9573C24.882 18.8204 24.9117 18.6734 24.9791 18.5409C25.0401 18.4301 25.0803 18.3106 25.1381 18.1998Z" fill="#4385F5"/>
<path d="M24.8731 18.9563C24.7813 19.3629 24.7001 19.7703 24.6792 20.1899C24.6247 21.2895 24.8649 22.3151 25.4001 23.2665C26.6274 25.4555 27.8556 27.645 29.0846 29.8349C29.3685 30.3411 29.6524 30.8474 29.9361 31.3539C29.9618 31.3995 29.9805 31.4495 30.0027 31.4973C29.7303 31.9762 29.455 32.4518 29.1855 32.9318C28.103 34.8595 27.0214 36.7878 25.9408 38.7166C25.4824 39.5325 25.0241 40.3482 24.5657 41.1638C24.5473 41.1966 24.526 41.2276 24.5058 41.2595C24.4937 41.2709 24.4849 41.2854 24.48 41.3015L24.4747 41.3095C24.4186 41.3199 24.4062 41.2812 24.3978 41.2374C24.3976 41.2162 24.3997 41.195 24.404 41.1742C24.4193 41.1111 24.4177 41.0456 24.4262 40.9813C24.5399 40.5157 24.6193 40.0401 24.6145 39.5635C24.602 38.3149 24.2662 37.1693 23.4995 36.1777C22.5868 34.9972 21.4059 34.2837 19.9484 34.1239C18.3641 33.9499 16.9541 34.3975 15.7717 35.5262C15.6959 35.5985 15.6149 35.6646 15.5388 35.7364C15.5231 35.7513 15.5064 35.7652 15.4889 35.7779C15.4809 35.7848 15.4721 35.7909 15.4641 35.7975C15.4486 35.8112 15.4319 35.824 15.4155 35.8368C15.4078 35.8432 15.3993 35.8493 15.3911 35.8557C15.3746 35.868 15.3565 35.8777 15.3372 35.8844H15.3068C15.2625 35.8584 15.2611 35.8219 15.2831 35.78L15.2851 35.7761C15.3173 35.7586 15.3073 35.7155 15.3317 35.6938L15.3352 35.6876C15.3668 35.6446 15.3937 35.598 15.4153 35.5488C15.5803 35.1917 15.7886 34.8593 15.9796 34.5172C17.0659 32.574 18.1547 30.6323 19.246 28.692C20.6087 26.2636 21.9717 23.8353 23.3349 21.407C23.8038 20.571 24.2723 19.7349 24.7404 18.8988C24.7659 18.8532 24.7968 18.8104 24.8249 18.7664C24.9441 18.801 24.8851 18.8849 24.8731 18.9563Z" fill="#FCBC03"/>
<path d="M15.457 35.7339C15.9423 35.2379 16.4797 34.8175 17.1068 34.5254C17.7324 34.2308 18.4077 34.0635 19.0952 34.0328C20.031 33.99 20.9228 34.1667 21.7475 34.6172C23.3666 35.5024 24.335 36.8785 24.6143 38.7519C24.7289 39.5217 24.6597 40.2796 24.4696 41.0285C24.4186 41.0763 24.4781 41.1568 24.4208 41.2027L24.4197 41.2054C24.3953 41.4466 24.2576 41.6411 24.1667 41.855C23.3822 43.4589 22.1534 44.5087 20.4404 44.8786C17.4168 45.5314 14.6554 43.4918 14.1036 40.564C13.8153 39.0351 14.1338 37.6225 14.9759 36.3333C15.089 36.176 15.1489 35.9749 15.3308 35.8736L15.3335 35.8711C15.3472 35.857 15.3605 35.8424 15.373 35.8274L15.3765 35.8232C15.3914 35.8115 15.4042 35.7971 15.414 35.7806L15.4198 35.774C15.4361 35.7652 15.4492 35.7511 15.457 35.7339Z" fill="#34A853"/>
</g>
<defs>
<clipPath id="clip0_176_240">
<rect width="32" height="30" fill="white" transform="translate(14 15)"/>
</clipPath>
</defs>
</svg>
