<svg width="60" height="60" viewBox="0 0 60 60" fill="none" xmlns="http://www.w3.org/2000/svg">
<rect opacity="0.2" width="60" height="60" rx="15" fill="white"/>
<g clip-path="url(#clip0_176_244)">
<path d="M29.3854 36.2165C28.9343 35.5526 28.5615 34.8385 28.3675 34.0669C28.1823 33.349 28.0906 32.6103 28.0946 31.8689C28.116 30.0704 28.6675 28.4681 29.7774 27.0591C30.0205 26.7503 30.3002 26.469 30.5737 26.185C30.7429 26.0103 30.7429 25.8525 30.5551 25.7116C30.0052 25.3058 29.4514 24.9067 28.8965 24.5088C28.3325 24.1047 27.7646 23.708 27.2046 23.3022C26.3159 22.6615 25.4286 22.0181 24.5428 21.3718C23.5954 20.6835 22.6485 19.9948 21.7022 19.3057C21.2036 18.9438 20.7068 18.5781 20.197 18.2348C20.1454 18.2086 20.0886 18.1943 20.0308 18.1932C19.973 18.192 19.9157 18.2039 19.8631 18.2281C19.2428 18.5662 18.5773 18.6468 17.8966 18.5843C16.4709 18.4529 15.2793 17.2542 15.0537 15.9122C14.9111 15.0668 15.0712 14.3155 15.4699 13.5947C15.7579 13.0726 16.5257 12.5082 17.0422 12.2697C17.5039 12.0568 18.0135 11.9691 18.5198 12.0155C19.5349 12.1012 20.3504 12.5256 20.9662 13.3586C21.3982 13.943 21.5646 14.5945 21.6018 15.2934C21.6142 15.5245 21.5409 15.7601 21.5454 15.9928C21.5454 16.1264 21.5854 16.3028 21.6751 16.3873C21.9435 16.6331 22.2424 16.845 22.5346 17.0637C23.1549 17.5281 23.7753 17.9863 24.3956 18.4513C24.9488 18.8678 30.9893 23.4758 32.3535 24.5286C32.5791 24.7016 32.7895 24.7269 33.0551 24.5956C33.6231 24.3041 34.2408 24.1218 34.8761 24.058C35.1338 24.0354 35.3086 23.8889 35.3103 23.6268C35.3154 23.0491 35.2928 22.4709 35.2844 21.8932C35.2816 21.6869 35.2844 21.48 35.29 21.2732C35.3064 20.7784 35.3323 20.2835 35.3402 19.7887C35.3402 19.6957 35.2889 19.597 35.2432 19.5097C35.1809 19.403 35.1131 19.2995 35.0402 19.1997C34.5283 19.1903 34.0681 18.5671 33.8717 18.143C33.2451 16.7903 33.579 15.0719 34.9956 14.2412C35.9758 13.6668 37.0005 13.6347 38.0111 14.2243C38.8424 14.7095 39.3127 15.414 39.4469 16.3761C39.602 17.4852 39.236 18.3746 38.4076 19.0898C38.2993 19.1834 38.1109 19.1845 37.9846 19.2211C37.904 19.3263 37.8317 19.4377 37.7686 19.5542C37.717 19.6624 37.6882 19.78 37.684 19.8997C37.6784 21.0645 37.6784 22.2293 37.684 23.394C37.684 23.9013 37.746 23.9779 38.248 24.0467C39.0181 24.1598 39.7625 24.4069 40.4474 24.7766C41.6802 25.4236 42.7709 26.2746 43.5559 27.4379C44.0758 28.2083 44.5501 29.021 44.7007 29.9741C44.7909 30.5439 44.9556 31.1052 45.0013 31.6767C45.0363 32.1163 44.9663 32.5711 44.8885 33.0107C44.8067 33.49 44.6917 33.9631 44.5445 34.4265C44.2309 35.4123 43.7036 36.2808 43.0314 37.0659C42.4475 37.7406 41.7555 38.3137 40.9837 38.7617C40.2641 39.185 39.5067 39.557 38.6799 39.712C37.4956 39.934 36.3063 40.2226 35.0988 39.81C34.8962 39.7402 34.6833 39.7048 34.4689 39.7052C34.3651 39.7052 34.2287 39.8083 34.1644 39.9036C33.826 40.4108 31.8792 43.5044 31.6926 43.7513C31.4179 44.1154 31.4106 44.4276 31.5409 44.8785C31.8189 45.8259 31.621 46.7192 30.8495 47.4147C30.5222 47.7243 30.1098 47.9288 29.6652 48.002C29.5947 48.0127 28.4617 47.9884 28.2654 47.8746C27.9085 47.674 27.5708 47.441 27.2565 47.1786C27.1223 47.0658 26.8618 46.5439 26.8307 46.4667C26.5488 45.818 26.5617 45.1451 26.8742 44.5324C27.2746 43.7473 27.8893 43.1826 28.8322 43.1048C29.249 43.0699 29.5129 42.8749 29.7379 42.5063C30.4271 41.3791 31.1658 40.2852 31.8809 39.1743C32.0907 38.848 32.0806 38.8136 31.7749 38.5836C31.0841 38.0657 30.3865 37.5568 29.8631 36.8528C29.743 36.7012 29.4306 36.283 29.3854 36.2165ZM41.3097 30.2452C41.2747 30.2159 41.1816 30.1753 41.1484 30.1059C40.5709 28.8993 39.6905 28.0268 38.4307 27.528C37.2289 27.0518 36.0266 27.0146 34.8214 27.448C34.4221 27.5912 34.0172 27.7766 33.6816 28.0308C33.2146 28.3888 32.7827 28.7904 32.3919 29.2301C32.1437 29.5011 31.9586 29.8237 31.8499 30.1747C31.6807 30.7687 31.4061 31.3549 31.5194 32.0036C31.599 32.4596 31.6322 32.929 31.767 33.3692C31.9785 34.0726 32.4054 34.6621 32.9316 35.1693C33.8598 36.0643 34.9438 36.6251 36.2634 36.6403C36.8635 36.6477 37.4624 36.6708 38.0382 36.4273C38.2908 36.3202 38.5728 36.2836 38.8238 36.2193C38.8767 36.1443 38.9374 36.0749 39.0048 36.0125C39.3341 35.7679 39.6905 35.5554 39.9979 35.286C40.5358 34.8154 40.9482 34.2185 41.198 33.549C41.3832 33.0751 41.4869 32.5734 41.5048 32.065C41.5141 31.5553 41.4504 31.0469 41.3159 30.5551C41.2899 30.4633 41.3097 30.3607 41.3097 30.2452ZM27.697 45.7318C27.697 45.7318 27.7534 45.6923 27.746 45.6658C27.6992 45.4105 27.8803 45.3423 28.0551 45.2431C28.5012 44.9901 28.8356 44.6367 28.989 44.1323C29.0595 43.899 28.9551 43.6927 28.7127 43.6679C28.5654 43.6501 28.416 43.6741 28.2818 43.7372C27.9891 43.8928 27.7178 44.0844 27.4359 44.2636C27.4024 44.2815 27.3765 44.3107 27.3626 44.3459C27.3155 44.5548 27.2796 44.7661 27.2548 44.9788C27.2563 45.0713 27.286 45.1612 27.34 45.2364C27.4449 45.4038 27.5712 45.5599 27.697 45.7318ZM36.1664 14.3488V14.3336C36.0722 14.3381 35.9786 14.3404 35.8844 14.3471C35.6673 14.3629 35.3893 14.6244 35.3667 14.8628C35.3447 15.0882 35.5359 15.1367 35.6949 15.223C36.1861 15.4952 36.6954 15.4349 37.2024 15.3086C37.5188 15.2303 37.6863 14.8301 37.4906 14.6013C37.3634 14.4695 37.1956 14.3843 37.014 14.3595C36.7371 14.3201 36.4495 14.3488 36.1664 14.3488ZM16.8651 12.9595C16.7524 13.0125 16.6232 13.0469 16.5268 13.1207C16.1462 13.3992 15.8713 13.7983 15.7468 14.253C15.6831 14.4784 15.7265 14.6407 15.8839 14.7805C16.0677 14.9434 16.2555 14.9028 16.4416 14.7642C16.8539 14.4564 17.142 14.0648 17.261 13.5603C17.3332 13.2481 17.181 12.9443 16.8651 12.9595Z" fill="#FE8124"/>
<path d="M27.6968 45.7315C27.571 45.5624 27.4464 45.4035 27.3387 45.2361C27.2847 45.1609 27.255 45.071 27.2535 44.9785C27.2783 44.7658 27.3142 44.5545 27.3613 44.3456C27.3752 44.3104 27.4012 44.2812 27.4346 44.2633C27.7165 44.0841 27.9889 43.8925 28.2805 43.7369C28.4147 43.6738 28.5641 43.6498 28.7114 43.6676C28.9539 43.6924 29.0582 43.8987 28.9877 44.132C28.8343 44.6364 28.4999 44.9898 28.0538 45.2428C27.879 45.342 27.6979 45.4119 27.7447 45.6655C27.7509 45.692 27.6985 45.7292 27.6968 45.7315Z" fill="white"/>
<path d="M36.1663 14.3485C36.4482 14.3485 36.737 14.3197 37.0122 14.3592C37.1937 14.3839 37.3616 14.4691 37.4887 14.601C37.6844 14.8298 37.5169 15.2299 37.2005 15.3083C36.693 15.4345 36.1854 15.4948 35.6931 15.2226C35.5369 15.1364 35.3429 15.0879 35.3649 14.8625C35.3874 14.6241 35.6655 14.3626 35.8826 14.3468C35.9762 14.34 36.0698 14.3378 36.1646 14.3333L36.1663 14.3485Z" fill="white"/>
<path d="M16.865 12.9593C17.1814 12.9441 17.3331 13.2479 17.2597 13.5601C17.1408 14.0645 16.8526 14.4562 16.4403 14.7639C16.2542 14.9026 16.0664 14.9432 15.8826 14.7803C15.7252 14.6405 15.6818 14.4804 15.7455 14.2527C15.87 13.7981 16.1449 13.399 16.5255 13.1205C16.623 13.0478 16.7505 13.0123 16.865 12.9593Z" fill="white"/>
</g>
<defs>
<clipPath id="clip0_176_244">
<rect width="30" height="36" fill="white" transform="translate(15 12)"/>
</clipPath>
</defs>
</svg>
