<svg width="96" height="96" viewBox="0 0 96 96" fill="none" xmlns="http://www.w3.org/2000/svg">
<rect opacity="0.05" x="0.3479" y="0.173889" width="95.6522" height="95.6522" rx="47.8261" fill="white"/>
<g opacity="0.3">
<path fill-rule="evenodd" clip-rule="evenodd" d="M40.8195 30.6878C42.6768 30.6023 43.2689 30.5833 47.9999 30.5833C52.7309 30.5833 53.3231 30.6039 55.1788 30.6878C57.0344 30.7717 58.3011 31.0678 59.4094 31.4969C60.57 31.9355 61.6229 32.6211 62.4937 33.5077C63.3804 34.377 64.0644 35.4283 64.5014 36.5905C64.9321 37.6988 65.2266 38.9655 65.3121 40.818C65.3976 42.6784 65.4166 43.2706 65.4166 48C65.4166 52.731 65.396 53.3231 65.3121 55.1804C65.2282 57.0329 64.9321 58.2996 64.5014 59.4079C64.0644 60.5702 63.3793 61.6233 62.4937 62.4938C61.6229 63.3805 60.57 64.0645 59.4094 64.5015C58.3011 64.9321 57.0344 65.2266 55.1819 65.3121C53.3231 65.3976 52.7309 65.4166 47.9999 65.4166C43.2689 65.4166 42.6768 65.3961 40.8195 65.3121C38.967 65.2282 37.7003 64.9321 36.592 64.5015C35.4297 64.0644 34.3766 63.3793 33.5061 62.4938C32.62 61.624 31.9343 60.5715 31.4968 59.4095C31.0678 58.3011 30.7733 57.0345 30.6878 55.182C30.6023 53.3216 30.5833 52.7294 30.5833 48C30.5833 43.269 30.6038 42.6768 30.6878 40.8211C30.7717 38.9655 31.0678 37.6988 31.4968 36.5905C31.935 35.4284 32.6212 34.3759 33.5077 33.5061C34.377 32.6203 35.429 31.9346 36.5904 31.4969C37.6988 31.0678 38.9654 30.7733 40.8179 30.6878H40.8195ZM55.0378 33.8228C53.2012 33.7389 52.6502 33.7215 47.9999 33.7215C43.3497 33.7215 42.7987 33.7389 40.962 33.8228C39.2631 33.9004 38.3416 34.1838 37.7273 34.4229C36.915 34.7396 36.3339 35.1148 35.7243 35.7244C35.1465 36.2866 34.7018 36.9709 34.4228 37.7273C34.1838 38.3416 33.9003 39.2631 33.8228 40.9621C33.7388 42.7987 33.7214 43.3497 33.7214 48C33.7214 52.6502 33.7388 53.2012 33.8228 55.0379C33.9003 56.7368 34.1838 57.6583 34.4228 58.2726C34.7015 59.0279 35.1464 59.7135 35.7243 60.2756C36.2864 60.8535 36.972 61.2984 37.7273 61.5771C38.3416 61.8161 39.2631 62.0996 40.962 62.1771C42.7987 62.2611 43.3481 62.2785 47.9999 62.2785C52.6518 62.2785 53.2012 62.2611 55.0378 62.1771C56.7367 62.0996 57.6583 61.8161 58.2726 61.5771C59.0848 61.2604 59.6659 60.8851 60.2755 60.2756C60.8534 59.7135 61.2983 59.0279 61.577 58.2726C61.8161 57.6583 62.0995 56.7368 62.1771 55.0379C62.261 53.2012 62.2784 52.6502 62.2784 48C62.2784 43.3497 62.261 42.7987 62.1771 40.9621C62.0995 39.2631 61.8161 38.3416 61.577 37.7273C61.2603 36.9151 60.8851 36.334 60.2755 35.7244C59.7133 35.1466 59.0289 34.7019 58.2726 34.4229C57.6583 34.1838 56.7367 33.9004 55.0378 33.8228ZM45.7753 53.3691C47.0177 53.8862 48.4011 53.956 49.6892 53.5665C50.9773 53.177 52.0903 52.3524 52.838 51.2335C53.5856 50.1146 53.9217 48.7709 53.7887 47.4317C53.6556 46.0926 53.0618 44.8412 52.1087 43.8912C51.501 43.284 50.7663 42.819 49.9574 42.5298C49.1486 42.2406 48.2856 42.1343 47.4307 42.2186C46.5758 42.3029 45.7502 42.5758 45.0134 43.0174C44.2766 43.4591 43.6469 44.0587 43.1696 44.7729C42.6924 45.4872 42.3794 46.2984 42.2532 47.1481C42.1271 47.9978 42.1909 48.8649 42.4401 49.687C42.6893 50.5092 43.1177 51.2658 43.6944 51.9025C44.2711 52.5391 44.9818 53.04 45.7753 53.3691ZM41.6698 41.6698C42.501 40.8385 43.4879 40.1791 44.5741 39.7292C45.6602 39.2793 46.8243 39.0478 47.9999 39.0478C49.1755 39.0478 50.3396 39.2793 51.4258 39.7292C52.5119 40.1791 53.4988 40.8385 54.3301 41.6698C55.1614 42.5011 55.8208 43.488 56.2707 44.5741C56.7206 45.6602 56.9521 46.8244 56.9521 48C56.9521 49.1756 56.7206 50.3397 56.2707 51.4258C55.8208 52.512 55.1614 53.4989 54.3301 54.3301C52.6512 56.009 50.3742 56.9522 47.9999 56.9522C45.6256 56.9522 43.3486 56.009 41.6698 54.3301C39.9909 52.6513 39.0477 50.3743 39.0477 48C39.0477 45.6257 39.9909 43.3487 41.6698 41.6698ZM58.9376 40.381C59.1436 40.1867 59.3085 39.953 59.4226 39.6938C59.5366 39.4346 59.5975 39.1551 59.6017 38.872C59.6058 38.5888 59.5531 38.3077 59.4466 38.0453C59.3401 37.7828 59.1821 37.5445 58.9819 37.3442C58.7816 37.144 58.5432 36.9859 58.2808 36.8795C58.0184 36.773 57.7373 36.7203 57.4541 36.7244C57.1709 36.7285 56.8915 36.7894 56.6323 36.9035C56.3731 37.0176 56.1394 37.1825 55.9451 37.3885C55.5672 37.7891 55.3603 38.3213 55.3683 38.872C55.3763 39.4226 55.5986 39.9485 55.9881 40.338C56.3775 40.7274 56.9034 40.9498 57.4541 40.9578C58.0048 40.9658 58.537 40.7589 58.9376 40.381Z" fill="white"/>
</g>
</svg>
