<svg width="60" height="60" viewBox="0 0 60 60" fill="none" xmlns="http://www.w3.org/2000/svg">
<rect opacity="0.2" width="60" height="60" rx="15" fill="white"/>
<g clip-path="url(#clip0_176_313)">
<path d="M26.0856 30.9267C26.0856 33.1494 26.0856 35.3722 26.0856 37.595C26.0856 38.1694 26.0004 38.7298 25.7892 39.2673C25.3431 40.4041 24.4786 41.0174 23.3076 41.2348C22.147 41.4511 21.0375 41.2671 19.9824 40.7545C18.6989 40.1322 17.4778 39.3968 16.2441 38.6855C15.4301 38.2157 15.0054 37.4616 15.0043 36.5107C14.9988 31.851 14.9988 27.1915 15.0043 22.5324C15.0043 21.5671 15.4453 20.8161 16.2819 20.342C20.3758 18.0189 24.4744 15.7038 28.5777 13.3968C29.517 12.8675 30.4686 12.8667 31.409 13.3968C35.4978 15.703 39.585 18.0118 43.6707 20.3229C44.5434 20.8173 44.993 21.5892 44.993 22.5903C45 27.2173 45 31.8444 44.993 36.4714C44.993 37.4736 44.5368 38.2472 43.6676 38.7392C39.5832 41.0529 35.4951 43.3605 31.4032 45.6618C30.4445 46.2028 29.4952 46.1911 28.5451 45.6393C27.2461 44.8848 25.9453 44.1329 24.6427 43.3836C24.5012 43.305 24.3679 43.2125 24.2449 43.1074C24.1336 43.009 24.1546 42.9344 24.2701 42.8686C24.3411 42.8236 24.4171 42.787 24.4965 42.7594C25.0981 42.5863 25.6586 42.3199 26.1988 42.0107C26.3796 41.9072 26.534 41.9197 26.7075 42.0208C27.6918 42.5945 28.6831 43.1568 29.6632 43.7383C29.9028 43.8806 30.1003 43.8693 30.3313 43.7383C31.8738 42.8619 33.4183 41.989 34.9649 41.1197C37.4236 39.7326 39.8833 38.3473 42.3441 36.9638C42.6412 36.7981 42.7618 36.6083 42.7606 36.261C42.7497 31.7444 42.7488 27.2277 42.7579 22.7109C42.7579 22.4277 42.6552 22.2621 42.4106 22.1244C38.3633 19.8508 34.3186 17.572 30.2765 15.2881C30.0789 15.1768 29.9102 15.1765 29.7138 15.2881C25.6488 17.5834 21.5822 19.8762 17.5139 22.1664C17.3171 22.2772 17.2331 22.425 17.2335 22.6529C17.2374 27.2343 17.2374 31.8159 17.2335 36.3975C17.2335 36.6165 17.3055 36.7635 17.4984 36.8716C18.5722 37.4717 19.6409 38.0811 20.7147 38.6812C21.2094 38.9577 21.7356 39.1265 22.3123 39.0701C23.1921 38.985 23.7754 38.3425 23.7758 37.4589C23.7758 32.9809 23.7758 28.503 23.7758 24.025C23.7758 23.428 23.8209 23.3833 24.4144 23.3833C24.8162 23.3833 25.2183 23.3833 25.6201 23.3833C25.9724 23.3833 26.0832 23.4953 26.0836 23.85C26.0855 26.2089 26.0861 28.5678 26.0856 30.9267Z" fill="#8BC74B"/>
<path d="M33.4294 23.0338C34.6533 23.0194 35.8586 23.1333 37.0051 23.6132C38.6245 24.2915 39.3732 25.5578 39.4996 27.255C39.5159 27.4736 39.3891 27.6253 39.1709 27.6292C38.6136 27.6385 38.0563 27.6369 37.4986 27.6292C37.3112 27.6264 37.2065 27.4969 37.1486 27.2472C37.0366 26.7665 36.8441 26.3279 36.4944 25.9673C36.0701 25.5298 35.5194 25.356 34.9466 25.2673C33.8698 25.0945 32.7716 25.1049 31.6984 25.298C31.3594 25.359 31.0359 25.4867 30.7467 25.6737C30.238 26.0043 30.0015 26.695 30.2096 27.2644C30.301 27.514 30.5021 27.6533 30.7339 27.7536C31.2558 27.9788 31.8131 28.071 32.3673 28.1717C33.5729 28.3903 34.7945 28.4859 35.997 28.7162C36.7671 28.8636 37.5313 29.037 38.2461 29.3727C39.225 29.832 39.8329 30.5686 39.9604 31.6708C40.0806 32.7072 39.9239 33.6748 39.2771 34.5203C38.7785 35.1721 38.1038 35.5863 37.3466 35.8761C36.4108 36.2343 35.4339 36.3774 34.439 36.4163C33.1657 36.4657 31.9014 36.3995 30.6631 36.0662C29.9113 35.8644 29.2101 35.556 28.6065 35.0527C27.6541 34.2578 27.2613 33.2116 27.2546 31.999C27.2546 31.7205 27.3888 31.5992 27.6649 31.5988C28.1443 31.5988 28.624 31.5988 29.1039 31.5988C29.4613 31.5988 29.5442 31.6824 29.6095 32.046C29.7102 32.6178 29.8926 33.156 30.3625 33.5383C30.7514 33.8557 31.2181 34.0202 31.7046 34.1186C32.7294 34.3263 33.7658 34.3029 34.8019 34.2508C35.3927 34.2209 35.9752 34.14 36.5205 33.8887C37.2894 33.5344 37.6242 32.932 37.5099 32.1242C37.4636 31.7987 37.2696 31.5856 37.002 31.4304C36.5178 31.1492 35.9749 31.0438 35.4358 30.9345C34.4379 30.7319 33.4213 30.6674 32.4128 30.5429C31.5183 30.4325 30.6304 30.2835 29.7865 29.9518C28.9522 29.6243 28.239 29.135 27.9131 28.2592C27.3523 26.7514 27.6692 24.8002 29.5885 23.7867C30.5655 23.2706 31.621 23.0719 32.7134 23.0341C32.9503 23.0268 33.1902 23.0338 33.4294 23.0338Z" fill="#8BC74B"/>
</g>
<defs>
<clipPath id="clip0_176_313">
<rect width="30" height="33.0596" fill="white" transform="translate(15 13)"/>
</clipPath>
</defs>
</svg>
