<svg width="60" height="60" viewBox="0 0 60 60" fill="none" xmlns="http://www.w3.org/2000/svg">
<rect opacity="0.2" width="60" height="60" rx="15" fill="white"/>
<g clip-path="url(#clip0_176_300)">
<path d="M45 22.2111C45 21.9477 44.8965 21.7718 44.6682 21.6409C42.7851 20.5619 40.9043 19.4793 39.0257 18.3933C38.8062 18.2674 38.6096 18.2654 38.3895 18.3933C36.5034 19.4842 34.6153 20.5713 32.7252 21.6545C32.5104 21.7776 32.4143 21.948 32.415 22.1975C32.4191 24.2402 32.4165 26.2829 32.4196 28.3256C32.4196 28.4263 32.3914 28.4801 32.3025 28.5312C30.7648 29.4124 29.2285 30.2958 27.6935 31.1814C27.6625 31.1993 27.6346 31.2295 27.5812 31.2224V31.0633C27.5812 27.0367 27.5825 23.01 27.5852 18.9831C27.5852 18.6732 27.4714 18.4784 27.2031 18.3261C25.859 17.5625 24.5227 16.7849 23.1811 16.0165C22.5865 15.6759 22.0017 15.3179 21.3937 15.0015H21.1923C21.0664 15.0266 20.9405 15.0518 20.8285 15.1178C20.2157 15.4808 19.5949 15.8315 18.9789 16.1864C17.7627 16.8861 16.5485 17.5887 15.33 18.2843C15.1576 18.383 15.0279 18.4978 15.0002 18.7014V38.8374C15.0785 39.0071 15.2115 39.1158 15.3723 39.2082C19.1684 41.39 22.9627 43.5747 26.7554 45.7622C26.9936 45.8997 27.1993 45.8987 27.4352 45.7622C31.2421 43.566 35.051 41.3732 38.8618 39.184C39.0899 39.0529 39.1924 38.8792 39.1916 38.6136C39.1861 36.5744 39.1894 34.5367 39.1861 32.4981C39.1861 32.3956 39.2203 32.3432 39.3062 32.2939C41.0939 31.2678 42.8813 30.2408 44.6684 29.213C44.898 29.0813 45.0002 28.9058 44.9997 28.6428C44.9959 26.4984 44.996 24.3545 45 22.2111ZM26.5948 19.688C26.6213 19.7311 26.6084 19.7777 26.6084 19.8215C26.6084 23.7719 26.6089 27.7224 26.6099 31.6728C26.6099 31.7506 26.6067 31.8093 26.5226 31.8576C24.9632 32.7508 23.4053 33.6466 21.8488 34.545C21.8312 34.5551 21.8121 34.5632 21.7922 34.573C21.7557 34.5357 21.7731 34.4919 21.7731 34.4537C21.7721 30.4906 21.7712 26.5276 21.7705 22.5645C21.7705 22.4852 21.7887 22.4387 21.8627 22.3954C23.4034 21.5117 24.9431 20.6263 26.4818 19.7391C26.5165 19.719 26.5483 19.6873 26.5948 19.688ZM17.557 18.1916C18.7694 17.4938 19.9816 16.7957 21.1935 16.0973C21.2567 16.0608 21.3053 16.047 21.3761 16.089C22.9354 16.9898 24.4962 17.8889 26.0586 18.7863C26.073 18.7946 26.086 18.8049 26.0994 18.8142C26.0994 18.8603 26.0581 18.8646 26.0317 18.8799C24.4821 19.7731 22.9325 20.6661 21.3831 21.5588C21.3247 21.5925 21.2784 21.6059 21.2117 21.5673C19.6559 20.6686 18.0992 19.7714 16.5417 18.8756C16.5206 18.8636 16.5012 18.849 16.4617 18.8228L17.557 18.1916ZM26.6084 44.4544C26.6084 44.4796 26.6059 44.5048 26.6034 44.5526L25.5528 43.9484C22.4009 42.1336 19.2485 40.3198 16.0956 38.5068C16.0004 38.4522 15.9639 38.3956 15.9639 38.2828C15.9673 32.1334 15.9682 25.9838 15.9667 19.8341V19.7963C15.968 19.6641 15.9682 19.6636 16.085 19.7308C17.5955 20.6004 19.1069 21.4687 20.619 22.3359C20.7608 22.4167 20.8119 22.4991 20.8116 22.6647C20.8061 26.8721 20.8033 31.0795 20.8033 35.2869C20.8033 35.5815 20.9075 35.7698 21.1656 35.9146C22.9452 36.913 24.7193 37.9213 26.4954 38.9252C26.5631 38.9638 26.6117 38.9965 26.6114 39.0934C26.6074 40.8807 26.6064 42.6677 26.6084 44.4544ZM27.2028 38.094C27.1396 38.13 27.0908 38.1554 27.0112 38.1101C25.4599 37.2276 23.9075 36.3478 22.3539 35.4707C22.3319 35.4584 22.3108 35.4455 22.2839 35.4289C22.309 35.3849 22.3544 35.3725 22.3909 35.3514C25.8544 33.3569 29.3177 31.3619 32.7806 29.3666C32.8735 29.3129 32.9364 29.3149 33.0275 29.3666C34.5548 30.2497 36.0828 31.1308 37.6116 32.0099C37.6476 32.0308 37.6831 32.0527 37.7201 32.0749C37.6867 32.1214 37.6368 32.1371 37.5943 32.1612C34.1302 34.1391 30.6664 36.1167 27.2028 38.094ZM38.126 38.4892C34.6468 40.4894 31.1684 42.4913 27.6909 44.4947C27.6625 44.5113 27.6328 44.5257 27.5809 44.5528V44.4098C27.5809 42.6476 27.5801 40.8861 27.5784 39.1254C27.5784 39.0247 27.6096 38.9711 27.698 38.9207C31.1663 36.9445 34.6338 34.9664 38.1005 32.9865C38.2239 32.9162 38.2244 32.9162 38.2244 33.0524C38.2244 34.8056 38.225 36.5587 38.2262 38.3117C38.2259 38.3963 38.2043 38.4446 38.1257 38.4892H38.126ZM38.2241 31.1633C38.2241 31.1799 38.2219 31.1965 38.2204 31.2136C38.1756 31.2388 38.1486 31.2 38.1197 31.1834C36.5692 30.2922 35.0191 29.4006 33.4694 28.5086C33.4155 28.4776 33.3812 28.4469 33.3815 28.3744C33.384 26.584 33.3849 24.7937 33.3843 23.0036C33.3856 22.9918 33.3879 22.9801 33.3911 22.9686C33.456 22.9744 33.4976 23.0124 33.5421 23.0386C35.067 23.9155 36.5916 24.7928 38.1156 25.6704C38.1801 25.7074 38.2262 25.7403 38.2259 25.8302C38.2232 27.6088 38.2226 29.3868 38.2239 31.1643L38.2241 31.1633ZM38.81 24.8376C38.745 24.8751 38.6954 24.8912 38.6184 24.8466C37.0743 23.9533 35.5286 23.0623 33.9812 22.1738C33.9489 22.1552 33.9177 22.1348 33.8759 22.1089C34.323 21.8511 34.7613 21.5981 35.1999 21.3458C36.3358 20.6913 37.4718 20.0371 38.6078 19.3834C38.668 19.3487 38.7151 19.3285 38.7881 19.3708C40.3474 20.2721 41.9083 21.1713 43.4706 22.0683C43.4885 22.0786 43.5054 22.0907 43.5398 22.1131L42.1643 22.9051C41.0455 23.5498 39.9273 24.1943 38.8097 24.8386L38.81 24.8376ZM43.9338 28.5177C42.3857 29.4048 40.839 30.2943 39.2936 31.1862C39.2654 31.2023 39.2364 31.2169 39.2067 31.2325C39.178 31.1922 39.1904 31.154 39.1904 31.1187C39.1904 29.362 39.1896 27.6052 39.1881 25.8483C39.1881 25.7698 39.2057 25.7225 39.2797 25.6799C40.8275 24.7926 42.3741 23.9031 43.9195 23.0114C43.9477 22.995 43.9769 22.9807 44.026 22.9547V23.0914C44.026 24.8398 44.0264 26.5882 44.0272 28.3366C44.027 28.4182 44.0141 28.4726 43.9336 28.5187L43.9338 28.5177Z" fill="#FE2D20"/>
</g>
<defs>
<clipPath id="clip0_176_300">
<rect width="30" height="30.8632" fill="white" transform="translate(15 15)"/>
</clipPath>
</defs>
</svg>
