<svg width="64" height="64" viewBox="0 0 64 64" fill="none" xmlns="http://www.w3.org/2000/svg"><path fill="#fff" d="M0 0h64v64H0z"/><path d="M8 18a9 9 0 019-9h30a9 9 0 019 9v30a9 9 0 01-9 9H17a9 9 0 01-9-9V18z" fill="#fff"/><path d="M53.4 11.6C51.6 9.9 49.5 9 47 9H17c-2.5 0-4.6.9-6.4 2.6-1 1-1.7 2.1-2.2 3.4 2.9-.2 7.6-.6 8.4-.7 1.1-.1 1.3.2 1.7.9l.1.1 13 21.7L48 33.1l-.3-.4c-1.2-1.8-4.8-6.8-5.2-7.3-.4-.6 0-.9.7-1 .7-.1 7-1.2 7.5-1.2h.1c.5-.1.9-.2 1.7.8.4.5 1.7 2.1 3 3.7l.4.5V18c.1-2.5-.8-4.6-2.5-6.4z" fill="#000"/><path d="M51.6 25.4c-.3-.3-.4-.3-.6-.3-.2 0-4.9.9-5.2.9-.3 0-.2.2-.1.4l4.1 5.7s5.1-1.3 5.4-1.3h.1V30l-.3-.2c-1.1-1.4-3.2-4.1-3.4-4.4zm-3.3 10.1l-14.4 3.8s4.4 7.6 4.7 8.1c.3.5.5.5.8.3.2-.1 5.1-1.7 9.1-3.1 2.7-.9 4.9-1.7 5.1-1.7.4-.1.3-.3.2-.4-.1-.1-.9-1.2-1.9-2.6-1.3-1.8-2.9-3.9-3-4.1-.1-.4-.3-.4-.6-.3z" fill="#000"/><path d="M39.5 50.9c-1.3.4-2 .6-2.8-.6-.7-.9-4.3-7.5-6.1-10.7-3.4.9-9.5 2.5-11.3 2.9-1.7.4-2.5-.6-2.8-1.3-.1-.2-1.1-2.4-2.5-5.4-1.8-3.9-4.2-9-6-13V48c0 2.5.9 4.6 2.6 6.4 1.8 1.7 3.9 2.6 6.4 2.6h30c2.5 0 4.6-.9 6.4-2.6 1.8-1.8 2.6-3.9 2.6-6.4v-3c-3.7 1.4-15.5 5.6-16.5 5.9z" fill="#000"/><path d="M18.8 38.9c0 .1.1.2.5.1.2-.1 2.4-.6 4.6-1.1.8-.2 1.7-.4 2.4-.6 1.1-.3 1.9-.5 2-.5.2 0 .3-.1.1-.5-.2-.3-11.2-19.2-11.2-19.2V17c-.1-.1-.1-.1-.3-.1-.1 0-2 .2-3.9.3-1.7.2-3.3.3-4 .4 0 .3-.1.6-.1.9 1.5 3 9.8 20.2 9.9 20.4zM56 33.1c-1.8.5-4.1 1.1-4.9 1.3 1.3 1.8 3.5 4.6 4.9 6.6v-7.9z" fill="#000"/></svg>