<svg width="60" height="60" viewBox="0 0 60 60" fill="none" xmlns="http://www.w3.org/2000/svg">
<rect opacity="0.2" width="60" height="60" rx="15" fill="white"/>
<g clip-path="url(#clip0_173_169)">
<path d="M13.3489 29.975C13.3489 26.9144 13.3014 23.8523 13.3629 20.7918C13.4135 18.2927 14.3449 16.1761 16.453 14.6925C17.5386 13.9278 18.7659 13.5548 20.0774 13.4177C20.7091 13.3569 21.3437 13.329 21.9783 13.3344C27.5309 13.3344 33.0835 13.3274 38.636 13.3406C40.2481 13.3406 41.8126 13.5999 43.2128 14.4792C45.0671 15.6473 46.1456 17.3263 46.5015 19.4772C46.6208 20.2582 46.6752 21.0477 46.6643 21.8377C46.6596 27.4284 46.6682 33.0199 46.6581 38.6106C46.6581 40.3465 46.3606 42.0193 45.3404 43.4834C43.9892 45.4233 42.086 46.3788 39.7645 46.5891C39.0784 46.6514 38.3931 46.6545 37.707 46.6545C32.2704 46.6545 26.8347 46.663 21.3989 46.649C19.7472 46.6443 18.1414 46.3866 16.7163 45.4661C14.9033 44.2979 13.8442 42.6306 13.4953 40.5077C13.3759 39.7268 13.3217 38.9372 13.3333 38.1473C13.3411 35.4216 13.3333 32.6959 13.3333 29.975H13.3489Z" fill="#DB395F"/>
<path d="M32.0859 28.3479C32.7253 27.3355 33.5289 26.4789 34.5935 25.905C36.9835 24.6169 39.5145 26.0085 39.7473 28.7155C39.8291 29.6617 39.7053 30.5744 39.4615 31.4832C39.1018 32.8211 38.6734 34.1411 38.3814 35.497C38.3324 35.7127 38.3284 35.9362 38.3697 36.1535C38.4819 36.7165 38.9468 36.9322 39.453 36.6503C39.6751 36.5141 39.8619 36.3273 39.9981 36.1052C40.2473 35.7408 40.4444 35.3434 40.5837 34.9246C40.6741 34.6528 40.7994 34.6201 41.0346 34.7392C41.2061 34.8333 41.3894 34.9038 41.5797 34.9487C42.0096 35.0344 42.0135 35.2556 41.878 35.6107C41.6101 36.3178 41.3087 37 40.8446 37.6035C39.7691 39.0053 38.1314 39.2389 36.7172 38.7413C35.6791 38.3737 35.1705 37.5661 35.0607 36.4985C34.9977 35.8381 35.0627 35.1717 35.2523 34.536C35.5768 33.4026 35.8951 32.2677 36.2071 31.1312C36.2748 30.9078 36.3235 30.6791 36.3527 30.4475C36.4306 29.6687 36.3706 28.9009 35.6277 28.4468C34.863 27.9796 34.0554 28.0676 33.3046 28.5247C32.6263 28.9343 32.2697 29.6002 32.0143 30.3213C31.6809 31.2636 31.4979 32.2472 31.251 33.2129C30.8046 34.9573 30.3703 36.7046 29.9482 38.4547C29.8812 38.7335 29.7652 38.7966 29.5012 38.7919C28.6196 38.7763 27.7373 38.7717 26.8534 38.7919C26.5349 38.7997 26.5247 38.6899 26.5933 38.4368C26.7584 37.8294 26.9048 37.2157 27.0239 36.5904C26.7288 36.9424 26.4624 37.306 26.1439 37.6269C25.1642 38.6136 23.9985 39.0847 22.5959 38.9617C21.1583 38.8363 20.2043 37.887 20.1093 36.4486C20.0681 35.7745 20.1311 35.0981 20.2962 34.4433C20.7635 32.5307 21.2307 30.618 21.698 28.7054C21.719 28.6182 21.7276 28.5278 21.7424 28.4383C21.1334 28.3495 20.5205 28.425 19.9099 28.3962C19.7744 28.39 19.6288 28.4476 19.5042 28.3472C19.4458 28.2319 19.4863 28.1198 19.5174 28.0076C19.6966 27.3449 19.8881 26.6837 20.0485 26.0179C20.1132 25.7508 20.237 25.6815 20.5034 25.6838C22.1507 25.6973 23.798 25.6973 25.4454 25.6838C25.7444 25.6838 25.8169 25.7329 25.7359 26.0498C25.0046 28.8977 24.2913 31.7504 23.5748 34.6022C23.4681 35.0297 23.3723 35.4588 23.3747 35.9043C23.3747 36.4774 23.6558 36.7734 24.236 36.7734C25.1705 36.7734 25.9492 36.3785 26.5964 35.7407C27.1688 35.1792 27.58 34.5212 27.7645 33.7159C28.1765 31.9513 28.6212 30.1944 29.0581 28.4344C28.4483 28.3464 27.8346 28.4211 27.2241 28.3931C27.0878 28.3869 26.9422 28.4414 26.816 28.3456C26.6899 28.2498 26.7747 28.1307 26.8012 28.0286C26.9811 27.341 27.1758 26.6565 27.3464 25.9673C27.4001 25.757 27.4928 25.6799 27.7186 25.6815C29.22 25.6918 30.722 25.6918 32.2245 25.6815C32.4791 25.6815 32.5321 25.7469 32.476 25.993C32.307 26.7234 32.1568 27.4586 31.9995 28.1914C32.0104 28.2553 31.92 28.362 32.0859 28.3479Z" fill="#FEFEFE"/>
<path d="M26.51 21.8617C26.503 22.952 25.584 23.839 24.4704 23.832C24.204 23.831 23.9404 23.7774 23.6947 23.6743C23.449 23.5712 23.2261 23.4206 23.0387 23.2312C22.8513 23.0418 22.7032 22.8173 22.6027 22.5705C22.5023 22.3238 22.4516 22.0596 22.4534 21.7932C22.4635 20.7076 23.3879 19.8151 24.4992 19.8206C24.7657 19.8213 25.0293 19.8748 25.2749 19.978C25.5205 20.0812 25.7433 20.232 25.9302 20.4218C26.1172 20.6116 26.2647 20.8366 26.3642 21.0837C26.4637 21.3309 26.5133 21.5953 26.51 21.8617Z" fill="#FEFEFE"/>
<path d="M20.2191 25.5569H25.6876V25.6052H20.202L20.2191 25.5569Z" fill="#DA3058"/>
<path d="M32.462 25.6222H27.5395V25.5864H32.4784L32.462 25.6222Z" fill="#DA3058"/>
<path d="M19.5097 28.3466C20.1864 28.3419 20.8639 28.3357 21.5415 28.3341C21.6193 28.3341 21.7315 28.2998 21.7478 28.4377C21.0054 28.4377 20.2635 28.4361 19.5221 28.433C19.5136 28.433 19.4972 28.4198 19.4972 28.4128C19.4996 28.3904 19.5037 28.3682 19.5097 28.3466Z" fill="#D93058"/>
<path d="M26.8215 28.3488C27.4998 28.3434 28.1781 28.3364 28.8564 28.3348C28.9342 28.3348 29.0472 28.2997 29.0635 28.4376C28.3227 28.4376 27.5818 28.4376 26.8409 28.4376C26.8316 28.4376 26.8145 28.4259 26.8145 28.4197C26.8142 28.3959 26.8166 28.3721 26.8215 28.3488Z" fill="#D93057"/>
<path d="M32.0859 28.348C32.0649 28.4025 32.0244 28.5037 31.987 28.4718C31.8905 28.3877 31.9481 28.281 32.0119 28.1907C32.0392 28.2429 32.061 28.295 32.0859 28.348Z" fill="#E67892"/>
</g>
<defs>
<clipPath id="clip0_173_169">
<rect width="33.3333" height="33.3232" fill="white" transform="translate(13.3333 13.3335)"/>
</clipPath>
</defs>
</svg>
