<svg width="96" height="96" viewBox="0 0 96 96" fill="none" xmlns="http://www.w3.org/2000/svg">
<rect opacity="0.05" width="95.6522" height="95.6522" rx="47.8261" fill="white"/>
<g opacity="0.3">
<path fill-rule="evenodd" clip-rule="evenodd" d="M43.7507 43.4535H49.167V46.2285C49.9472 44.6325 51.948 43.1985 54.9536 43.1985C60.7155 43.1985 62.0834 46.3755 62.0834 52.2045V63H56.2501V53.532C56.2501 50.2125 55.4699 48.3405 53.4836 48.3405C50.7288 48.3405 49.584 50.358 49.584 53.5305V63H43.7507V43.4535ZM33.748 62.745H39.5813V43.1985H33.748V62.745ZM40.417 36.825C40.4172 37.3279 40.3202 37.8259 40.1317 38.2899C39.9432 38.7539 39.6669 39.1748 39.3188 39.528C38.6136 40.2489 37.659 40.6525 36.6647 40.65C35.6721 40.6493 34.7197 40.2468 34.0134 39.5295C33.6666 39.1751 33.3913 38.7537 33.2031 38.2896C33.0149 37.8256 32.9176 37.3278 32.9167 36.825C32.9167 35.8095 33.3105 34.8375 34.0149 34.1205C34.7205 33.4022 35.6733 32.9996 36.6661 33C37.6607 33 38.6145 33.4035 39.3188 34.1205C40.0217 34.8375 40.417 35.8095 40.417 36.825Z" fill="white"/>
</g>
</svg>
