<svg width="203" height="65" viewBox="0 0 203 65" fill="none" xmlns="http://www.w3.org/2000/svg">
<g clip-path="url(#clip0_7_269)">
<path d="M55.1667 46.579V55.2399H55.1638L26.6133 36.8304L19.9027 32.5029L26.6133 28.1725L55.1638 46.5819L55.1667 46.579Z" fill="url(#paint0_linear_7_269)"/>
<path d="M90.4278 32.5029L83.7172 36.8304H83.7143L55.1667 55.2399V46.579L83.7172 28.1725L90.4278 32.5029Z" fill="url(#paint1_linear_7_269)"/>
<path d="M90.4278 41.1609L55.1667 63.895V55.2399L83.7143 36.8304H83.7172L90.4278 41.1609Z" fill="url(#paint2_linear_7_269)"/>
<path d="M55.1667 55.2399V63.895L55.1638 63.8979L19.9027 41.1609L26.6133 36.8304L55.1638 55.2399H55.1667Z" fill="url(#paint3_linear_7_269)"/>
<path d="M90.4278 23.8449L83.7172 28.1725L55.1667 46.579V37.921L83.7143 19.5145L90.4278 23.8449Z" fill="url(#paint4_linear_7_269)"/>
<path d="M55.1667 37.921V46.579L55.1638 46.5819L26.6133 28.1725L19.9027 23.8449L26.6162 19.5145L55.1638 37.921H55.1667Z" fill="url(#paint5_linear_7_269)"/>
<path d="M55.1638 1.10214L19.9027 23.8391L19.9056 23.842L55.1638 46.579H55.1667L90.4249 23.842L90.4278 23.8391L55.1638 1.10214Z" fill="url(#paint6_radial_7_269)"/>
<path d="M68.5502 18.6177L61.9324 14.3509C59.9155 13.0507 57.5652 12.3591 55.1638 12.3591C52.7624 12.3591 50.4121 13.0507 48.3952 14.3509L33.6806 23.8391L55.1638 37.6925L68.5502 29.0634C69.4253 28.5 70.1448 27.7267 70.6431 26.8143C71.1413 25.9019 71.4024 24.8795 71.4024 23.8406C71.4024 22.8016 71.1413 21.7792 70.6431 20.8668C70.1448 19.9545 69.4253 19.1812 68.5502 18.6177ZM61.1175 26.4513L55.1638 30.2899L45.1617 23.8391L51.7012 19.6244C52.3526 19.1956 53.0768 18.8888 53.8385 18.719C54.6426 18.5471 55.4728 18.5353 56.2815 18.6842C57.0902 18.8331 57.8614 19.1398 58.551 19.5868L61.1175 21.2414C61.5519 21.524 61.9088 21.9102 62.1559 22.365C62.4029 22.8199 62.5323 23.329 62.5323 23.8464C62.5323 24.3637 62.4029 24.8728 62.1559 25.3277C61.9088 25.7825 61.5519 26.1687 61.1175 26.4513Z" fill="white"/>
<path d="M104.388 32.2975H102.547V32.4595H104.388V32.2975Z" fill="#623EFD"/>
<path d="M92.1475 60.5104H92.4143H92.5709L92.8609 60.4873L92.9856 60.4728L93.1248 60.4555L93.3336 60.4237C93.3829 60.4237 93.4293 60.4063 93.4786 60.3976L93.6729 60.36L93.7773 60.3369L93.9832 60.2877L94.0876 60.2588L94.3051 60.1951L94.3689 60.1749C94.4588 60.146 94.5458 60.1141 94.6328 60.0794C94.7198 60.0447 94.8735 59.9811 94.9895 59.9261L95.0765 59.8798C95.1693 59.8364 95.2563 59.7873 95.3433 59.7381L95.4448 59.6802L95.5144 59.6368L95.6797 59.524L95.7377 59.4835L95.9233 59.3418L95.9581 59.3157C96.0277 59.2579 96.0944 59.2 96.1582 59.1393C96.222 59.0785 96.309 58.9946 96.3815 58.9194L96.3989 58.8992C96.4627 58.8298 96.5265 58.7574 96.5874 58.6851C96.6483 58.6128 96.6483 58.607 96.6773 58.5665L96.7643 58.4537L96.8513 58.3264C96.8774 58.2888 96.9064 58.2483 96.9296 58.2078C96.9528 58.1673 96.9847 58.1181 97.0108 58.0748C97.0369 58.0314 97.0601 57.9938 97.0833 57.9504L97.1587 57.8086C97.1819 57.7652 97.2051 57.7218 97.2254 57.6784L97.295 57.5309L97.3559 57.395L97.4168 57.2387C97.4371 57.1925 97.4545 57.1462 97.4719 57.097C97.4893 57.0478 97.5096 56.99 97.5299 56.935C97.5502 56.8801 97.5618 56.8367 97.5792 56.7875C97.5966 56.7383 97.6111 56.6747 97.6285 56.6168C97.6459 56.559 97.6604 56.5156 97.672 56.4664C97.701 56.3651 97.7242 56.2639 97.7474 56.1598C97.747 56.153 97.747 56.1463 97.7474 56.1395C97.7735 56.0296 97.7938 55.9168 97.817 55.8039C97.817 55.7663 97.817 55.7258 97.8373 55.6882C97.8576 55.6506 97.8634 55.5349 97.875 55.4539C97.8866 55.3729 97.875 55.3585 97.8953 55.3122C97.9156 55.2659 97.9156 55.1675 97.9243 55.0923C97.933 55.0171 97.9243 54.9998 97.9388 54.9564C97.9533 54.913 97.9388 54.8031 97.9591 54.7278C97.9794 54.6526 97.9591 54.6266 97.9591 54.5774L97.9765 54.3489V54.1927V53.9584C97.9765 53.9063 97.9765 53.8542 97.9765 53.7993C97.9765 53.6807 97.9765 53.5621 97.9765 53.4406C97.9765 53.2236 97.9765 53.0067 97.9765 52.7897C97.9765 52.7376 97.9765 52.6827 97.9765 52.6277C97.9765 52.4136 97.962 52.1996 97.9475 51.9855C97.9475 51.7715 97.9214 51.5603 97.904 51.3462C97.904 51.2913 97.904 51.2363 97.904 51.1842C97.8866 50.9702 97.8663 50.7561 97.846 50.542C97.8228 50.328 97.7996 50.1139 97.7735 49.897C97.7735 49.842 97.7735 49.787 97.7532 49.7321C97.7271 49.518 97.701 49.3011 97.672 49.0841C97.643 48.8643 97.6111 48.6444 97.5792 48.4217L97.5531 48.251C97.5212 48.0311 97.4893 47.8113 97.4545 47.5857L97.4197 47.3716L97.4023 47.2588C97.4023 47.2067 97.3878 47.1517 97.3791 47.0968C97.353 46.929 97.3298 46.7641 97.3066 46.5963C97.2892 46.4893 97.2747 46.3823 97.2602 46.2752C97.237 46.1017 97.2167 45.9281 97.1935 45.7517C97.1935 45.6504 97.1674 45.5492 97.1558 45.4479C97.1326 45.2425 97.1094 45.0314 97.0891 44.8231C97.0891 44.7537 97.0746 44.6842 97.0659 44.6148C97.0398 44.3255 97.0166 44.0536 96.9963 43.7701C96.9949 43.7596 96.9949 43.7489 96.9963 43.7383C96.9789 43.5185 96.9673 43.2957 96.9557 43.073V42.8878C96.9557 42.7027 96.9383 42.5205 96.9325 42.3324C96.9325 42.263 96.9325 42.1936 96.9325 42.1242C96.9325 41.8812 96.9325 41.6353 96.9325 41.3894C96.9325 41.2361 96.9325 41.1001 96.9325 40.9381C96.9325 40.8918 96.9325 40.8485 96.9325 40.8051C96.9325 40.698 96.9325 40.5939 96.9325 40.4898C96.9325 40.4319 96.9325 40.3769 96.9325 40.322C96.9325 40.267 96.9325 40.1426 96.947 40.0529C96.9615 39.9633 96.947 39.9372 96.947 39.8794C96.947 39.8215 96.9615 39.7116 96.9702 39.6306L96.9876 39.457C96.9876 39.4108 96.9876 39.3674 97.0021 39.324C97.0166 39.2806 97.0021 39.2603 97.0166 39.2285L97.0427 39.026C97.0427 38.9537 97.063 38.8843 97.0746 38.8149L97.1094 38.6181C97.1094 38.5516 97.1355 38.4851 97.1471 38.4157C97.1587 38.3462 97.1732 38.2884 97.1877 38.2276L97.2312 38.0309C97.2457 37.9702 97.2602 37.9094 97.2776 37.8487C97.295 37.7879 97.2921 37.785 97.3008 37.7532C97.3072 37.7268 97.3149 37.7007 97.324 37.6751C97.3472 37.5883 97.3704 37.5044 97.3965 37.4234C97.4226 37.3424 97.4284 37.3222 97.4429 37.2759C97.4574 37.2296 97.5038 37.0995 97.5328 37.0098L97.5763 36.8941C97.6227 36.7697 97.672 36.6482 97.7213 36.5296L97.7387 36.4949C97.7851 36.3878 97.8315 36.2837 97.8808 36.1825C97.9011 36.1448 97.9214 36.1072 97.9388 36.0696C97.9562 36.032 98.0171 35.9221 98.0577 35.8498L98.1273 35.7254C98.165 35.6589 98.2056 35.5923 98.2462 35.5287C98.2868 35.4651 98.2955 35.4477 98.3216 35.4101C98.3477 35.3725 98.4086 35.2799 98.4521 35.2192C98.4956 35.1584 98.5014 35.1469 98.5275 35.1121C98.5536 35.0774 98.6319 34.9733 98.687 34.9039L98.7334 34.8431C98.8233 34.7361 98.9161 34.629 99.0089 34.5278L99.0814 34.4526C99.1655 34.3658 99.2525 34.279 99.3424 34.198L99.3743 34.1662H99.3888C99.4613 34.0997 99.5367 34.036 99.615 33.9724L99.6411 33.9493C99.7252 33.8798 99.8122 33.8104 99.9021 33.7468L100.018 33.6658L100.149 33.5732L100.282 33.4893C100.325 33.4604 100.369 33.4315 100.415 33.4054H100.43L100.581 33.3186L100.688 33.2579L100.874 33.1624L100.966 33.1161L101.166 33.0236L101.251 32.986C101.349 32.9426 101.448 32.9021 101.541 32.8645L101.857 32.7488L101.955 32.7169L102.181 32.6475L102.486 32.5636H104.4C104.293 32.5897 104.188 32.6186 104.084 32.6504L103.861 32.7198L103.762 32.7517L103.446 32.8674C103.344 32.905 103.246 32.9455 103.156 32.9889L103.072 33.0265C103.002 33.0583 102.933 33.0872 102.866 33.1219L102.77 33.1682L102.585 33.2637L102.477 33.3244L102.315 33.4199L102.179 33.5038L102.048 33.5877C102.002 33.6166 101.961 33.6484 101.918 33.6802C101.874 33.712 101.831 33.7381 101.79 33.7699C101.7 33.8335 101.613 33.903 101.526 33.9724C101.517 33.9786 101.509 33.9864 101.503 33.9955L101.274 34.1894C101.274 34.1894 101.245 34.2212 101.227 34.2356C101.14 34.3166 101.053 34.4034 100.969 34.4902L100.897 34.5654C100.801 34.6667 100.708 34.7737 100.607 34.8807L100.549 34.953C100.497 35.0225 100.441 35.089 100.389 35.1613L100.314 35.2683C100.27 35.3291 100.227 35.3927 100.186 35.4593L100.108 35.5779L99.9891 35.7746L99.9195 35.899C99.8818 35.9713 99.8412 36.0436 99.8035 36.1188L99.7455 36.2316C99.6962 36.3329 99.6469 36.437 99.6005 36.544C99.5969 36.5561 99.592 36.5677 99.586 36.5788C99.5338 36.6964 99.4845 36.8179 99.4381 36.9432C99.4236 36.9809 99.412 37.0214 99.3975 37.059C99.3656 37.1457 99.3366 37.2354 99.3076 37.3251C99.2786 37.4148 99.2757 37.4234 99.2612 37.4726C99.2467 37.5218 99.2119 37.6375 99.1858 37.7243C99.1597 37.8111 99.1568 37.84 99.1394 37.8979L99.0959 38.0801C99.0814 38.1466 99.064 38.2103 99.0495 38.2768C99.035 38.3433 99.0234 38.4012 99.0118 38.4648C99.0002 38.5285 98.9857 38.6008 98.9741 38.6673L98.9393 38.864C98.9393 38.9335 98.9161 39.0029 98.9074 39.0752C98.8987 39.1475 98.8871 39.2083 98.8784 39.2777L98.8523 39.5062C98.8523 39.5641 98.8378 39.6219 98.832 39.6798C98.8262 39.7376 98.832 39.8447 98.8117 39.9286C98.7914 40.0124 98.8117 40.0443 98.8117 40.1021C98.8117 40.16 98.8117 40.2815 98.7972 40.3711V40.5389V40.8542C98.7972 40.8976 98.7972 40.941 98.7972 40.9873C98.7972 41.1406 98.7972 41.2939 98.7972 41.453C98.7972 41.6989 98.7972 41.9448 98.7972 42.1878C98.7972 42.2572 98.7972 42.3266 98.7972 42.399C98.7972 42.5841 98.7972 42.7663 98.8175 42.9515V43.1366C98.831 43.3719 98.8455 43.6033 98.861 43.8309C98.8813 44.1201 98.9074 44.4094 98.9335 44.6784C98.9335 44.7479 98.9335 44.8173 98.9538 44.8867C98.977 45.095 98.9973 45.3062 99.0234 45.5116C99.0234 45.6128 99.0466 45.7141 99.0611 45.8153C99.0814 45.9889 99.1046 46.1653 99.1278 46.3389L99.1713 46.66C99.1974 46.8278 99.2206 46.9926 99.2467 47.1604C99.2728 47.3282 99.296 47.4873 99.3221 47.6493C99.3569 47.8749 99.3888 48.0948 99.4207 48.3146C99.4207 48.3725 99.4381 48.4274 99.4439 48.4853C99.4758 48.708 99.5077 48.9279 99.5367 49.1477C99.5657 49.3647 99.5918 49.5817 99.6179 49.7957C99.6179 49.8507 99.6179 49.9056 99.6382 49.9606C99.6614 50.1776 99.6875 50.3916 99.7078 50.6057C99.731 50.8197 99.7484 51.0338 99.7687 51.2479C99.7687 51.2999 99.7687 51.3549 99.7687 51.4099C99.7687 51.4648 99.7687 51.5198 99.7832 51.5748C99.7832 51.7339 99.8035 51.8901 99.8122 52.0492C99.8122 52.2632 99.8325 52.4773 99.8412 52.6914C99.8412 52.7463 99.8412 52.8013 99.8412 52.8533C99.8412 53.0713 99.8412 53.2882 99.8412 53.5042V53.7935C99.8412 53.8195 99.8412 53.8427 99.8412 53.8687C99.8412 53.8947 99.8412 53.9757 99.8412 54.0307C99.8412 54.0857 99.8412 54.184 99.8412 54.2621V54.4212C99.8412 54.4964 99.8412 54.5716 99.8267 54.644C99.8122 54.7163 99.8267 54.7481 99.8267 54.7973C99.8267 54.8464 99.8122 54.9506 99.8035 55.0258C99.7948 55.101 99.8035 55.1155 99.789 55.1618C99.7745 55.208 99.789 55.1907 99.789 55.2051L99.7629 55.3816L99.7455 55.5234C99.7455 55.6043 99.7194 55.6796 99.7049 55.7577C99.6904 55.8358 99.7049 55.8358 99.6846 55.8734C99.6643 55.9862 99.6411 56.099 99.6179 56.2089C99.6175 56.2157 99.6175 56.2224 99.6179 56.2292C99.5947 56.3275 99.5715 56.4259 99.5454 56.5185L99.5019 56.6689C99.4845 56.7267 99.47 56.7846 99.4526 56.8396L99.4004 56.9871C99.383 57.042 99.3656 57.097 99.3453 57.1491C99.325 57.2011 99.3076 57.2445 99.2902 57.2908L99.2293 57.447C99.209 57.4933 99.1887 57.5367 99.1655 57.583C99.1423 57.6293 99.122 57.6813 99.0988 57.7305C99.0756 57.7797 99.0524 57.8173 99.0321 57.8607L98.9567 58.0024C98.9335 58.0458 98.9074 58.0863 98.8842 58.1268C98.861 58.1673 98.832 58.2165 98.803 58.2599L98.7247 58.3785L98.6377 58.5058L98.5507 58.6186L98.4724 58.7227H98.4579C98.397 58.795 98.3361 58.8674 98.2694 58.9368C98.2652 58.9448 98.2593 58.9517 98.252 58.957C98.1824 59.0323 98.107 59.1046 98.0316 59.1769L97.8402 59.3418L97.8054 59.3678C97.7561 59.4112 97.7039 59.4517 97.6517 59.4893L97.6227 59.5096L97.5647 59.5501L97.3965 59.6629L97.3298 59.7063L97.2834 59.7323L97.2283 59.7641L96.9615 59.9088L96.9064 59.9377L96.8745 59.9521C96.7585 60.0071 96.6396 60.0592 96.5149 60.1055H96.5004L96.2539 60.1951L96.1901 60.2154L96.048 60.2588L95.9726 60.279L95.8653 60.308L95.6623 60.3571L95.5579 60.3803H95.5144L95.3636 60.4063C95.3143 60.4063 95.2679 60.4266 95.2186 60.4323L95.0098 60.4642L94.83 60.4584H94.8097H94.7082L94.4182 60.4815H94.2587H93.9919H92.1533L92.1475 60.5104Z" fill="#623EFD"/>
<path d="M96.918 23.4891C96.918 23.3097 96.918 23.1362 96.918 22.9597C96.918 22.8903 96.918 22.818 96.918 22.7457C96.918 22.6733 96.918 22.6589 96.918 22.6126C96.918 22.3812 96.9354 22.1526 96.947 21.9241C96.947 21.8836 96.947 21.8402 96.947 21.7997C96.947 21.5654 96.9731 21.3311 96.9905 21.0997C97.0079 20.8683 97.0282 20.6397 97.0485 20.4083C97.0485 20.3707 97.0485 20.3331 97.0485 20.2955C97.0688 20.0728 97.092 19.8529 97.1181 19.6331C97.1181 19.5897 97.1181 19.5463 97.1326 19.5029C97.1471 19.4595 97.1471 19.3814 97.1529 19.3178C97.1587 19.2541 97.1703 19.1992 97.1761 19.1384C97.2051 18.9157 97.2341 18.69 97.266 18.4673L97.3008 18.2012C97.3443 17.9119 97.3878 17.6024 97.4342 17.3015C97.4806 17.0007 97.5328 16.6738 97.5763 16.3614L97.6111 16.1097C97.6517 15.8204 97.6894 15.5456 97.7242 15.265L97.7416 15.1377C97.7706 14.8774 97.7996 14.617 97.8257 14.3596C97.8257 14.3075 97.8257 14.2583 97.8402 14.2092C97.8605 14.0009 97.8779 13.7926 97.8953 13.5843L97.9127 13.3153C97.9127 13.1475 97.9359 12.9826 97.9446 12.8149C97.9446 12.7136 97.9446 12.6153 97.9446 12.5256C97.9446 12.3694 97.9446 12.2161 97.9591 12.0628C97.9736 11.9094 97.9591 11.7012 97.9591 11.5218C97.9591 11.3425 97.9591 11.1776 97.9591 11.0069C97.9591 10.9606 97.9591 10.9172 97.9591 10.8709C97.9591 10.7292 97.9591 10.5817 97.9388 10.4544C97.9388 10.4255 97.9388 10.3936 97.9388 10.3647C97.9388 10.2143 97.9127 10.0754 97.8982 9.92212C97.8982 9.88741 97.8982 9.85269 97.8982 9.81798L97.8547 9.4911C97.8547 9.43903 97.8402 9.38985 97.8315 9.33779L97.7967 9.14686C97.7967 9.0919 97.7764 9.03694 97.7677 8.98487C97.759 8.9328 97.7416 8.86048 97.7271 8.79973C97.7126 8.73899 97.701 8.68692 97.6894 8.63196L97.6546 8.50178C97.6401 8.44103 97.6227 8.38318 97.6053 8.32532L97.5705 8.19804C97.5502 8.1344 97.5299 8.07076 97.5067 8.00712C97.4835 7.94348 97.4893 7.94927 97.4777 7.92034C97.4458 7.83066 97.411 7.74099 97.3762 7.65131V7.63685L97.2718 7.39675C97.2718 7.37072 97.2457 7.34758 97.2341 7.32154C97.2225 7.29551 97.1761 7.20294 97.1442 7.14508L97.1065 7.06987C97.0659 6.99755 97.0253 6.92234 96.9818 6.85292V6.83845C96.9354 6.76324 96.8832 6.68803 96.8339 6.61571C96.8194 6.59257 96.802 6.57232 96.7846 6.54918L96.6773 6.40454C96.6512 6.37272 96.6251 6.33801 96.5961 6.30619C96.5671 6.27437 96.5294 6.22808 96.4975 6.19048L96.4105 6.09502L96.3003 5.98509L96.2133 5.9012L96.0944 5.79417L96.0045 5.71896C95.9639 5.68425 95.9175 5.64953 95.874 5.61771L95.7841 5.54829L95.6362 5.44704L95.5492 5.39208C95.4854 5.35158 95.4216 5.31398 95.3578 5.27926L95.2998 5.24455C95.2128 5.19827 95.1258 5.15488 95.0359 5.11438L94.9663 5.08256L94.7604 4.99288L94.6531 4.95238L94.4675 4.88585L94.3457 4.84824L94.1601 4.79328L94.0267 4.75857L93.8382 4.71229L93.6961 4.68336L93.5018 4.64575L93.3539 4.61972L93.1451 4.59079L92.9943 4.57054L92.7681 4.55029L92.6202 4.53583H92.3621H92.2316C92.1011 4.53583 91.9648 4.53583 91.8285 4.53583H93.67C93.8092 4.53583 93.9426 4.53583 94.076 4.53583H94.2065H94.4646L94.6125 4.55029L94.8387 4.57054L94.9895 4.59079L95.1983 4.61972L95.3433 4.64575L95.5405 4.68336L95.6826 4.71229L95.8711 4.75857L96.0045 4.79328L96.1872 4.84824L96.3119 4.88585L96.4946 4.95238L96.6019 4.99288L96.8078 5.08256L96.8803 5.11438C96.9702 5.15488 97.0572 5.19827 97.1442 5.24455L97.2022 5.27926C97.266 5.31398 97.3298 5.35158 97.3907 5.39208L97.4777 5.44704C97.527 5.48176 97.5792 5.51358 97.6256 5.54829L97.7184 5.61771L97.8489 5.71896L97.9388 5.79417L98.0577 5.9012L98.1447 5.98509L98.1998 6.03716L98.252 6.09502L98.339 6.19048C98.3738 6.22808 98.4086 6.26569 98.4405 6.30619L98.5217 6.40454L98.5565 6.44793L98.629 6.54918L98.6783 6.61571C98.7276 6.68803 98.7769 6.76035 98.8233 6.83556V6.85002C98.8668 6.92234 98.9103 6.99466 98.9509 7.06698C98.9509 7.09301 98.977 7.11616 98.9886 7.14219C99.0002 7.16823 99.0205 7.19715 99.035 7.22897L99.0785 7.31865L99.1133 7.39386C99.151 7.47196 99.1858 7.55296 99.2206 7.63396C99.2206 7.63396 99.2206 7.63396 99.2206 7.64842C99.2554 7.7352 99.2902 7.82488 99.3221 7.91455C99.3221 7.94348 99.3424 7.97241 99.3511 8.00134L99.3946 8.12862L99.412 8.19226C99.4265 8.23565 99.4381 8.27615 99.4497 8.31954C99.4613 8.36293 99.4845 8.43525 99.499 8.496C99.5135 8.55674 99.5222 8.58278 99.5309 8.62617C99.539 8.65086 99.5458 8.67597 99.5512 8.70138C99.5512 8.73031 99.5512 8.76213 99.5715 8.79395C99.5918 8.82577 99.5976 8.91544 99.6092 8.97909C99.6208 9.04273 99.6324 9.08612 99.6411 9.14108C99.6498 9.19604 99.6643 9.26836 99.673 9.332L99.6904 9.41878C99.6892 9.44094 99.6892 9.46315 99.6904 9.48532C99.7049 9.59235 99.7194 9.70227 99.731 9.8122C99.731 9.84691 99.731 9.88162 99.7455 9.91633C99.76 10.061 99.7745 10.2056 99.7861 10.3589V10.3821C99.7876 10.4042 99.7876 10.4264 99.7861 10.4486C99.7861 10.5846 99.8035 10.7234 99.8093 10.8652C99.8093 10.9114 99.8093 10.9548 99.8093 11.0011C99.8093 11.1718 99.8093 11.3425 99.8093 11.516C99.8093 11.6896 99.8093 11.7793 99.8093 11.9123C99.8093 11.9586 99.8093 12.0078 99.8093 12.057C99.8093 12.2103 99.8093 12.3636 99.7919 12.5198C99.7919 12.6211 99.7919 12.7194 99.7919 12.8091C99.7919 12.9769 99.7716 13.1417 99.76 13.3095L99.7426 13.5786C99.7252 13.7868 99.7078 13.9951 99.6875 14.2034C99.6875 14.2526 99.6875 14.3017 99.6875 14.3538C99.6614 14.6113 99.6324 14.8716 99.6005 15.132C99.6019 15.1415 99.6019 15.1513 99.6005 15.1609C99.6005 15.1927 99.6005 15.2274 99.6005 15.2592C99.5657 15.5485 99.528 15.8204 99.4874 16.1039L99.4526 16.3556C99.4062 16.668 99.3598 16.9804 99.3105 17.2957C99.2612 17.611 99.2206 17.8974 99.1771 18.1954C99.1771 18.285 99.1539 18.3718 99.1394 18.4615L99.0524 19.1326L99.0089 19.4971L98.9915 19.6273L98.9219 20.2897V20.4025C98.8987 20.6311 98.8784 20.8625 98.861 21.0939C98.8436 21.3253 98.8291 21.5596 98.8175 21.7939V21.9183C98.8175 22.144 98.7972 22.3754 98.7914 22.6068C98.7914 22.6531 98.7914 22.6965 98.7914 22.7428C98.7914 22.9858 98.7914 23.2316 98.7914 23.4833C98.7914 23.6279 98.7914 23.7726 98.7914 23.9172C98.7914 23.9577 98.7914 24.0011 98.7914 24.0416V24.354C98.7914 24.3945 98.7914 24.435 98.7914 24.4755C98.7914 24.6115 98.7914 24.7474 98.8117 24.8776C98.8233 25.0415 98.8378 25.2035 98.8552 25.3636L98.8726 25.5169L98.89 25.8611C98.89 25.9219 98.9074 25.9826 98.919 26.0405C98.9306 26.0984 98.9451 26.1938 98.9567 26.269C98.9683 26.3442 98.9799 26.3934 98.9944 26.4542C99.0089 26.5149 99.0234 26.6017 99.0408 26.6769C99.0582 26.7521 99.0669 26.7984 99.0814 26.8591C99.0959 26.9199 99.1133 26.9749 99.1278 27.0327C99.1423 27.0906 99.1597 27.16 99.1771 27.2207L99.2293 27.3885C99.2467 27.4522 99.267 27.5129 99.2873 27.5765C99.3076 27.6402 99.3192 27.672 99.3366 27.7183C99.354 27.7646 99.3801 27.8427 99.4033 27.9063L99.4555 28.0423C99.4816 28.1059 99.5048 28.1667 99.5309 28.2245C99.557 28.2824 99.5657 28.3113 99.586 28.3518C99.6063 28.3923 99.6411 28.4733 99.6701 28.534C99.6991 28.5948 99.7078 28.6122 99.7252 28.6498C99.7426 28.6874 99.7861 28.7684 99.818 28.8291L99.876 28.9361L99.9949 29.1386L100.038 29.2138L100.111 29.3238L100.218 29.4915L100.299 29.6015C100.337 29.6535 100.372 29.7056 100.41 29.7548C100.447 29.804 100.441 29.7924 100.456 29.8097C100.517 29.8907 100.581 29.9688 100.644 30.0441C100.671 30.073 100.697 30.1048 100.726 30.1337C100.755 30.1627 100.839 30.2581 100.897 30.3218L100.975 30.4028C101.077 30.5011 101.178 30.5995 101.285 30.692L101.338 30.7383C101.433 30.8193 101.532 30.8974 101.628 30.9755L101.697 31.0276C101.809 31.1105 101.925 31.1915 102.045 31.2706L102.121 31.3169C102.225 31.3834 102.335 31.4499 102.445 31.5136L102.509 31.5483C102.634 31.6177 102.764 31.6842 102.895 31.7479L102.985 31.7884C103.107 31.8462 103.231 31.9012 103.359 31.9504L103.402 31.9706C103.542 32.0256 103.692 32.0777 103.826 32.1268L103.93 32.1615L104.374 32.2975H102.532L102.089 32.1615L101.987 32.1268C101.842 32.0777 101.697 32.0256 101.564 31.9706L101.517 31.9504C101.39 31.9012 101.268 31.8462 101.143 31.7884L101.053 31.7479C100.923 31.6842 100.795 31.6177 100.668 31.5483L100.604 31.5136C100.494 31.4499 100.386 31.3834 100.279 31.3169L100.204 31.2706C100.085 31.1925 99.9688 31.1115 99.8586 31.0276L99.7861 30.9755C99.6875 30.8974 99.5889 30.8193 99.4961 30.7383L99.441 30.692C99.3337 30.5995 99.2322 30.5011 99.1336 30.4028L99.1017 30.3738L99.0553 30.3218C98.9944 30.2581 98.9364 30.1974 98.8813 30.1337L98.8001 30.0441C98.7363 29.9688 98.6725 29.8907 98.6116 29.8097L98.5739 29.7664C98.5362 29.7172 98.4985 29.6651 98.4637 29.613C98.4289 29.561 98.4086 29.5407 98.3825 29.5031L98.2723 29.3353C98.2491 29.3006 98.2259 29.2659 98.2056 29.2312L98.1621 29.156C98.1244 29.0895 98.0838 29.0229 98.0461 28.9535L97.9881 28.8465L97.9069 28.696L97.8924 28.6671L97.8402 28.5514L97.7532 28.3692C97.7358 28.3287 97.7184 28.2853 97.6981 28.2419C97.6778 28.1985 97.6662 28.1667 97.6488 28.1291C97.6414 28.1055 97.6327 28.0823 97.6227 28.0596L97.5705 27.9237L97.5038 27.7356C97.4864 27.6894 97.4719 27.6402 97.4545 27.5939C97.4371 27.5476 97.4371 27.5389 97.4255 27.51C97.4139 27.4811 97.4081 27.4406 97.3965 27.4059C97.3849 27.3712 97.3617 27.296 97.3472 27.2381L97.295 27.0501L97.2515 26.8736C97.2515 26.8505 97.237 26.8273 97.2312 26.8013C97.2254 26.7753 97.2167 26.729 97.208 26.6943C97.1993 26.6595 97.1761 26.5467 97.1616 26.4715L97.1268 26.2864C97.1123 26.2112 97.0978 26.136 97.0862 26.0579L97.0688 25.9595V25.8785C97.0514 25.7715 97.0369 25.6616 97.0253 25.5516C97.0253 25.4996 97.0108 25.4504 97.005 25.3983C96.9876 25.2382 96.9731 25.0763 96.9615 24.9123C96.9615 24.7822 96.9441 24.6462 96.9383 24.5102C96.9383 24.4697 96.9383 24.4292 96.9383 24.3887V24.0763V23.923C96.9228 23.788 96.9161 23.6434 96.918 23.4891Z" fill="#623EFD"/>
<path d="M92.2693 60.5134H90.4278V65H92.2693V60.5134Z" fill="#623EFD"/>
<path d="M92.2693 0H90.4278V4.48665H92.2693V0Z" fill="#623EFD"/>
<path d="M92.2693 0V4.48665H93.67C98.2839 4.48665 99.847 7.09012 99.847 11.4987C99.8153 13.4383 99.633 15.3726 99.3018 17.2842C98.9567 19.333 98.7734 21.4058 98.7537 23.4833C98.6754 28.6903 100.865 31.3111 104.383 32.2917V32.4537C100.865 33.3505 98.6754 36.1246 98.7537 41.3431C98.7698 43.4199 98.9531 45.4919 99.3018 47.5394C99.6333 49.4801 99.8155 51.4432 99.847 53.4117C99.847 57.9793 98.049 60.5076 93.67 60.5076H92.2635V65H93.9049C100.395 65 105.244 62.0639 105.244 53.8253C105.244 51.6239 104.931 49.3416 104.617 47.1402C104.304 44.9388 103.991 42.7345 103.991 40.5332C103.991 38.0049 104.774 34.4989 110.325 34.4989V30.3391C104.774 30.3391 103.991 27.1571 103.991 24.3049C103.991 22.0196 104.304 19.7372 104.617 17.4519C104.931 15.1667 105.244 12.9682 105.244 10.6829C105.25 3.18202 100.557 0 93.9107 0H92.2693Z" fill="url(#paint7_linear_7_269)"/>
<path d="M7.78361 32.2975H5.94211V32.4595H7.78361V32.2975Z" fill="#623EFD"/>
<path d="M18.183 60.5105H17.9162H17.7596L17.4696 60.4873L17.3449 60.4729L17.2057 60.4555L16.9969 60.4237C16.9476 60.4237 16.8983 60.4063 16.8519 60.3976L16.6576 60.36L16.5532 60.3369L16.3473 60.2877L16.24 60.2588L16.0254 60.1952L15.9616 60.1749C15.8717 60.146 15.7847 60.1142 15.6977 60.0794C15.6107 60.0447 15.457 59.9811 15.341 59.9261L15.254 59.8798C15.1612 59.8365 15.0742 59.7873 14.9872 59.7381L14.8857 59.6802L14.8161 59.6369L14.6508 59.524L14.5899 59.4835L14.4072 59.3418L14.3724 59.3158L14.1694 59.1393C14.094 59.067 14.0215 58.9947 13.949 58.9195L13.9316 58.8992C13.8678 58.8298 13.804 58.7575 13.7431 58.6851C13.6822 58.6128 13.6822 58.607 13.6503 58.5665L13.572 58.4335C13.5401 58.393 13.514 58.3496 13.485 58.3062L13.4038 58.1876L13.3255 58.0545C13.2994 58.014 13.2733 57.9735 13.2501 57.9301L13.1776 57.7884C13.1544 57.745 13.1312 57.7016 13.1109 57.6582C13.0906 57.6148 13.0645 57.5599 13.0413 57.5107L12.9804 57.3747C12.9572 57.3227 12.9398 57.2706 12.9195 57.2185C12.8992 57.1665 12.8789 57.126 12.8615 57.0768C12.8441 57.0276 12.8238 56.9697 12.8064 56.9148C12.789 56.8598 12.7716 56.8164 12.7571 56.7673C12.7426 56.7181 12.7223 56.6544 12.7078 56.5966C12.6933 56.5387 12.6759 56.4953 12.6643 56.4462C12.6353 56.3449 12.6121 56.2437 12.586 56.1395C12.586 56.1395 12.586 56.1251 12.586 56.1193C12.5599 56.0094 12.5367 55.8965 12.5164 55.7837C12.5164 55.7461 12.5164 55.7056 12.4961 55.668C12.4758 55.6304 12.47 55.5147 12.4584 55.4337C12.4468 55.3527 12.4439 55.3382 12.4381 55.292C12.4323 55.2457 12.4178 55.1473 12.4091 55.0721C12.4004 54.9969 12.4091 54.9795 12.3946 54.9361C12.3801 54.8928 12.3946 54.7828 12.3743 54.7076C12.354 54.6324 12.3743 54.6064 12.3743 54.5572C12.3743 54.508 12.3743 54.4068 12.3743 54.3287V54.1725V53.9381C12.3743 53.8861 12.3743 53.834 12.3743 53.779C12.3743 53.6604 12.3743 53.5418 12.3743 53.4203C12.3743 53.2044 12.3743 52.9874 12.3743 52.7695C12.3743 52.7174 12.3743 52.6624 12.3743 52.6075C12.3743 52.3934 12.383 52.1794 12.4004 51.9653C12.4004 51.7512 12.4265 51.5401 12.4439 51.326C12.4439 51.271 12.4439 51.2161 12.4439 51.164C12.4613 50.9499 12.4816 50.7359 12.5019 50.5218C12.5251 50.3077 12.5483 50.0937 12.5744 49.8767C12.5744 49.8218 12.5744 49.7668 12.5947 49.7118C12.6208 49.4978 12.6469 49.2808 12.6759 49.0639C12.7049 48.844 12.7368 48.6242 12.7687 48.4014L12.7948 48.2308C12.8267 48.0109 12.8586 47.7911 12.8934 47.5654L12.9282 47.3514L12.9456 47.2385C12.9456 47.1865 12.9601 47.1315 12.9688 47.0766C12.992 46.9088 13.0181 46.7439 13.0413 46.5761C13.0558 46.4691 13.0732 46.362 13.0877 46.255C13.1109 46.0814 13.1312 45.9079 13.1544 45.7314C13.1544 45.6302 13.1805 45.5289 13.1921 45.4277C13.2153 45.2223 13.2385 45.0111 13.2588 44.8029C13.2588 44.7334 13.2733 44.664 13.282 44.5946C13.3081 44.3053 13.3313 44.0334 13.3516 43.7499C13.3516 43.7499 13.3516 43.7296 13.3516 43.7181C13.369 43.4982 13.3806 43.2755 13.3922 43.0527V42.8676C13.3922 42.6825 13.4096 42.5002 13.4125 42.3122V42.1039C13.4125 41.8609 13.4125 41.615 13.4125 41.3692C13.4125 41.2158 13.4125 41.0799 13.4125 40.9179C13.4125 40.8716 13.4125 40.8282 13.4125 40.7848C13.4125 40.6778 13.4125 40.5737 13.4125 40.4695V40.3017C13.4125 40.2121 13.4125 40.1224 13.4125 40.0327C13.4125 39.943 13.4125 39.917 13.398 39.8591C13.3835 39.8013 13.398 39.6914 13.3777 39.6104L13.3603 39.4368C13.3603 39.3905 13.3603 39.3471 13.3458 39.3037C13.3313 39.2604 13.3458 39.2401 13.3458 39.2083L13.3197 39.0058C13.3197 38.9335 13.2965 38.864 13.2878 38.7946L13.253 38.5979C13.253 38.5314 13.2269 38.4648 13.2153 38.3954C13.2037 38.326 13.1892 38.2681 13.1747 38.2074L13.1312 38.0107C13.1312 37.9499 13.0993 37.8892 13.0848 37.8284C13.0703 37.7677 13.0703 37.7648 13.0616 37.733C13.0552 37.7066 13.0475 37.6805 13.0384 37.6549C13.0152 37.5681 12.9891 37.4842 12.9659 37.4032C12.9427 37.3222 12.934 37.302 12.9195 37.2557C12.905 37.2094 12.8586 37.0792 12.8267 36.9895C12.8267 36.9519 12.8006 36.9114 12.7861 36.8738C12.7397 36.7494 12.6904 36.628 12.6411 36.5094L12.6237 36.4746C12.5773 36.3676 12.5309 36.2635 12.4787 36.1622C12.4613 36.1246 12.441 36.087 12.4207 36.0494C12.4004 36.0118 12.3453 35.9019 12.3047 35.8296L12.2351 35.7052C12.1974 35.6386 12.1568 35.5721 12.1162 35.5085C12.0756 35.4448 12.0669 35.4275 12.0408 35.3899C12.0147 35.3523 11.9538 35.2597 11.9103 35.1989L11.8349 35.0919C11.7827 35.0196 11.7305 34.9531 11.6754 34.8836L11.629 34.8229C11.5391 34.7158 11.4463 34.6088 11.3535 34.5076L11.281 34.4324C11.1969 34.3456 11.1099 34.2588 11.02 34.1778L10.9881 34.146C10.9156 34.0794 10.8373 34.0158 10.7619 33.9522L10.7358 33.929C10.6517 33.8596 10.5618 33.7902 10.4748 33.7265L10.3588 33.6455L10.2283 33.553L10.0949 33.4691L9.96151 33.3852H9.94701L9.79621 33.2984L9.68891 33.2377L9.50331 33.1422L9.41051 33.0959L9.20751 33.0033L9.12631 32.9657C9.02771 32.9223 8.92911 32.8818 8.83631 32.8442L8.52021 32.7285L8.41871 32.6967L8.19541 32.6273L7.90541 32.5434H5.94211C6.04651 32.5694 6.15381 32.5984 6.25531 32.6302L6.48151 32.6996L6.58011 32.7314L6.89621 32.8471C6.99771 32.8847 7.09631 32.9252 7.18621 32.9686L7.27031 33.0062C7.33991 33.0381 7.40951 33.067 7.47621 33.1017L7.56901 33.148L7.75751 33.2434L7.86481 33.3042L8.02721 33.3996L8.16351 33.4835L8.29401 33.5674L8.42451 33.66C8.46801 33.6889 8.51151 33.7179 8.55211 33.7497C8.64201 33.8133 8.72901 33.8827 8.81601 33.9522C8.82446 33.9591 8.83222 33.9669 8.83921 33.9753C8.91751 34.0389 8.99291 34.1026 9.06541 34.1691C9.08281 34.1691 9.09731 34.2009 9.11181 34.2154C9.20171 34.2964 9.28871 34.3832 9.37281 34.47L9.44531 34.5452C9.54101 34.6464 9.63381 34.7535 9.72081 34.8605L9.77881 34.9328C9.83101 35.0022 9.88611 35.0688 9.93541 35.1411C9.98471 35.2134 9.98761 35.2105 10.0108 35.2481C10.0576 35.3094 10.1012 35.3732 10.1413 35.439C10.1674 35.4766 10.1935 35.5171 10.2167 35.5576C10.2399 35.5981 10.2979 35.6878 10.3356 35.7543C10.3733 35.8209 10.3849 35.8353 10.4052 35.8787C10.4255 35.9221 10.4864 36.0234 10.5241 36.0986C10.5618 36.1738 10.5618 36.1738 10.5821 36.2114C10.6314 36.3126 10.6807 36.4168 10.7271 36.5238C10.726 36.5354 10.726 36.547 10.7271 36.5585C10.7793 36.6771 10.8257 36.7986 10.8721 36.923L10.9156 37.0387C10.9475 37.1255 10.9765 37.2152 11.0055 37.3049C11.0345 37.3945 11.0374 37.4032 11.0519 37.4524C11.0664 37.5016 11.1012 37.6173 11.1244 37.7041C11.1476 37.7908 11.1563 37.8198 11.1708 37.8776C11.1853 37.9355 11.2027 37.9991 11.2172 38.0599L11.2607 38.2566C11.2752 38.3173 11.2897 38.381 11.3013 38.4446C11.3129 38.5082 11.3274 38.5806 11.339 38.6471L11.3738 38.8438C11.3738 38.9132 11.3941 38.9826 11.4057 39.055C11.4173 39.1273 11.426 39.188 11.4347 39.2575L11.4608 39.486L11.4782 39.6596C11.4782 39.7406 11.4927 39.8244 11.5014 39.9083C11.5101 39.9922 11.5014 40.024 11.5014 40.0819L11.5188 40.3509C11.5188 40.4059 11.5188 40.4608 11.5188 40.5187C11.5188 40.6228 11.5188 40.727 11.5188 40.834C11.5188 40.8774 11.5188 40.9208 11.5188 40.9671C11.5188 41.1204 11.5188 41.2737 11.5188 41.4328C11.5188 41.6787 11.5188 41.9246 11.5188 42.1676C11.5188 42.237 11.5188 42.3064 11.5188 42.3787C11.5188 42.5639 11.5043 42.7461 11.4956 42.9312C11.4956 42.992 11.4956 43.0556 11.4956 43.1164C11.4956 43.3507 11.4695 43.5821 11.455 43.8106C11.4318 44.0999 11.4086 44.3892 11.3825 44.6582C11.3825 44.7276 11.368 44.7971 11.3593 44.8665C11.339 45.0748 11.3158 45.2859 11.2926 45.4913C11.2926 45.5926 11.2665 45.6938 11.2549 45.7951C11.2346 45.9686 11.2114 46.1451 11.1882 46.3187C11.1882 46.4257 11.1592 46.5327 11.1418 46.6397C11.1186 46.8075 11.0954 46.9724 11.0693 47.1402C11.0432 47.308 11.02 47.4671 10.9939 47.6291C10.9591 47.8547 10.9272 48.0745 10.8953 48.2944L10.8692 48.4651C10.8373 48.6878 10.8083 48.9077 10.7764 49.1275C10.7474 49.3445 10.7213 49.5614 10.6952 49.7755C10.6952 49.8304 10.6952 49.8854 10.6749 49.9404C10.6488 50.1573 10.6256 50.3714 10.6053 50.5855C10.585 50.7995 10.5647 51.0136 10.5473 51.2276C10.5473 51.2797 10.5473 51.3347 10.5473 51.3896C10.5473 51.4446 10.5473 51.4996 10.5328 51.5545C10.5328 51.7136 10.5125 51.8698 10.5038 52.0289C10.5038 52.243 10.4835 52.4571 10.4748 52.6711C10.4748 52.7261 10.4748 52.781 10.4748 52.8331C10.4748 53.0501 10.4748 53.267 10.4748 53.484C10.4748 53.5794 10.4748 53.6749 10.4748 53.7733C10.4748 53.7993 10.4748 53.8224 10.4748 53.8485C10.4748 53.8745 10.4748 53.9555 10.4748 54.0105C10.4748 54.0654 10.4748 54.1638 10.4748 54.2419C10.4748 54.32 10.4748 54.346 10.4748 54.401L10.4922 54.6237C10.4922 54.6758 10.4922 54.7279 10.4922 54.777C10.4922 54.8262 10.4922 54.9304 10.5154 55.0056C10.5386 55.0808 10.5154 55.0952 10.5154 55.1415C10.5154 55.1878 10.5154 55.1705 10.5154 55.1849C10.5154 55.1994 10.5328 55.3035 10.5386 55.3614C10.5444 55.4192 10.5386 55.4568 10.5589 55.5031C10.5792 55.5494 10.585 55.6593 10.5995 55.7374L10.6169 55.8531L10.73 56.1193C10.7304 56.126 10.7304 56.1328 10.73 56.1395C10.7532 56.2379 10.7764 56.3362 10.8025 56.4288L10.846 56.5792C10.8634 56.6371 10.8779 56.6949 10.8953 56.7499L10.9475 56.8974C10.9649 56.9524 10.9823 57.0073 11.0026 57.0594C11.0229 57.1115 11.0374 57.1549 11.0577 57.2012L11.1186 57.3574L11.1795 57.4933L11.2491 57.6409C11.2694 57.6842 11.2926 57.7276 11.3158 57.771L11.3912 57.9128C11.4144 57.9562 11.4405 57.9967 11.4637 58.0372C11.4869 58.0777 11.5159 58.1268 11.5449 58.1702L11.6232 58.2888L11.7102 58.4161L11.7972 58.5289L11.8755 58.6331C11.9364 58.7054 12.0002 58.7777 12.064 58.8471L12.0814 58.8674C12.1539 58.9426 12.2264 59.0149 12.3047 59.0872L12.4932 59.2521L12.528 59.2782C12.5802 59.3225 12.6324 59.363 12.6846 59.3996L12.7136 59.4199L12.7716 59.4604L12.9398 59.5732L13.0065 59.6166L13.0529 59.6426L13.108 59.6745L13.3748 59.8191L13.4299 59.848L13.4618 59.8625C13.5778 59.9175 13.6967 59.9695 13.8214 60.0158L14.0679 60.1055L14.1317 60.1257L14.2738 60.1691L14.3492 60.1894L14.4565 60.2183L14.6595 60.2675L14.7639 60.2906H14.8074L14.9582 60.3166C15.0075 60.3166 15.0539 60.3369 15.1032 60.3427L15.312 60.3745L15.4512 60.3919H15.4744H15.5759L15.8659 60.415H16.0254H16.2893H18.183V60.5105Z" fill="#623EFD"/>
<path d="M13.4125 23.4891C13.4125 23.3097 13.4125 23.1362 13.4125 22.9597C13.4125 22.8903 13.4125 22.818 13.4125 22.7457C13.4125 22.6733 13.4125 22.6589 13.4125 22.6126C13.4125 22.3812 13.398 22.1526 13.3864 21.9241C13.3864 21.8836 13.3864 21.8402 13.3864 21.7997C13.3719 21.5654 13.3603 21.3311 13.3429 21.0997C13.3255 20.8683 13.3052 20.6397 13.2849 20.4083C13.2849 20.3707 13.2849 20.3331 13.2849 20.2955C13.2646 20.0728 13.2414 19.8529 13.2153 19.6331C13.2153 19.5897 13.2153 19.5463 13.2008 19.5029C13.1863 19.4595 13.2008 19.3814 13.1805 19.3177L13.1544 19.1384C13.1283 18.9157 13.0993 18.69 13.0674 18.4673C13.0674 18.3776 13.0442 18.2908 13.0297 18.2011C12.9891 17.9119 12.9456 17.6024 12.8992 17.3015C12.8528 17.0007 12.8006 16.6738 12.7571 16.3614C12.7571 16.2775 12.731 16.1936 12.7194 16.1097C12.6817 15.8204 12.644 15.5456 12.6092 15.265L12.5918 15.1377C12.5628 14.8774 12.5338 14.617 12.5077 14.3596C12.5077 14.3075 12.5077 14.2583 12.5077 14.2092C12.4874 14.0009 12.4671 13.7926 12.4526 13.5843C12.4526 13.4947 12.4526 13.405 12.4323 13.3153C12.4323 13.1475 12.412 12.9826 12.4033 12.8149C12.4033 12.7136 12.4033 12.6153 12.3888 12.5256C12.3888 12.3694 12.3888 12.2161 12.3888 12.0627C12.3888 11.9094 12.3888 11.7012 12.3888 11.5218C12.3888 11.3425 12.3888 11.1776 12.3888 11.0069C12.3888 10.9606 12.3888 10.9172 12.3888 10.8709C12.3888 10.7292 12.3888 10.5817 12.4091 10.4544C12.4091 10.4254 12.4091 10.3936 12.4091 10.3647C12.4091 10.2143 12.4323 10.0754 12.4497 9.92211C12.4497 9.8874 12.4497 9.85269 12.4497 9.81797C12.4642 9.70805 12.4758 9.59813 12.4932 9.49109C12.4932 9.43902 12.5077 9.38985 12.5164 9.33778L12.5512 9.14686C12.5512 9.09189 12.5686 9.03693 12.5802 8.98486C12.5918 8.93279 12.6063 8.86047 12.6208 8.79973C12.6353 8.73898 12.644 8.68691 12.6585 8.63195L12.6933 8.50177C12.6933 8.44103 12.7252 8.38317 12.7397 8.32532C12.7542 8.26746 12.7658 8.24143 12.7774 8.19804C12.789 8.15464 12.818 8.07076 12.8412 8.00711C12.8644 7.94347 12.8586 7.94926 12.8702 7.92033C12.9021 7.83066 12.934 7.74098 12.9717 7.65131C12.9717 7.65131 12.9717 7.65131 12.9717 7.63684L13.0761 7.39674C13.0761 7.37071 13.0993 7.34757 13.1138 7.32153L13.2008 7.14508L13.2414 7.06986C13.282 6.99755 13.3226 6.92233 13.3661 6.85291V6.83845C13.4125 6.76323 13.4618 6.68802 13.514 6.6157L13.5604 6.54917L13.6706 6.40453C13.6967 6.37271 13.7228 6.338 13.7518 6.30618C13.7808 6.27436 13.8156 6.22808 13.8504 6.19047L13.92 6.07476C13.9577 6.03715 13.9925 5.99955 14.0302 5.96484L14.1143 5.88095L14.2361 5.77391L14.326 5.6987C14.3677 5.66267 14.4112 5.62888 14.4565 5.59746L14.5464 5.52803L14.6943 5.42679L14.7813 5.37182C14.8451 5.33132 14.9089 5.29372 14.9727 5.25901L15.0307 5.22429C15.1148 5.17801 15.2047 5.13462 15.2946 5.09412L15.3642 5.0623L15.5701 4.97262L15.66 4.91766L15.8456 4.85113L15.9674 4.81352L16.153 4.75856L16.2864 4.72385L16.472 4.67756L16.617 4.64864L16.82 4.62839L16.9679 4.60235L17.1767 4.57343L17.3275 4.55318L17.5537 4.53293L17.6987 4.51846H17.9597H18.0902C18.2207 4.51846 18.357 4.51846 18.4933 4.51846H16.6518C16.5155 4.51846 16.3792 4.51846 16.2487 4.51846H16.1182H15.8601L15.7122 4.53293L15.486 4.55318L15.3352 4.57343L15.1264 4.60235L14.9785 4.62839L14.7842 4.66599L14.6421 4.69492L14.4536 4.7412L14.3202 4.77592L14.1375 4.83088L14.0128 4.86849L13.8301 4.93502L13.7228 4.97552L13.5169 5.06519L13.4444 5.09701C13.3545 5.13751 13.2675 5.1809 13.1805 5.22719L13.1225 5.2619C13.0587 5.29661 12.9949 5.33422 12.934 5.37472L12.847 5.42968L12.6962 5.53092L12.6063 5.60035L12.4758 5.7016L12.3859 5.77681L12.267 5.88384L12.18 5.96773L12.1249 6.0198L12.0727 6.07765L11.9828 6.17311C11.9509 6.21072 11.9161 6.24833 11.8842 6.28882L11.803 6.38718L11.7682 6.43057L11.6957 6.53181L11.6464 6.59835C11.5971 6.67067 11.5478 6.74298 11.5014 6.8182V6.83266C11.4579 6.90498 11.4173 6.9773 11.3767 7.04962L11.339 7.12483C11.3218 7.15281 11.3063 7.18179 11.2926 7.21161L11.2491 7.30128C11.2491 7.32732 11.223 7.35046 11.2114 7.3765L11.107 7.61659C11.107 7.61659 11.107 7.61659 11.107 7.63106C11.0693 7.71784 11.0374 7.80751 11.0055 7.89719C11.0055 7.92612 10.9852 7.95505 10.9765 7.98397L10.933 8.11125C10.9276 8.13286 10.9208 8.15412 10.9127 8.17489L10.8779 8.30217C10.8605 8.36003 10.8431 8.41788 10.8286 8.47863L10.7938 8.60881L10.759 8.67823C10.7506 8.7087 10.7438 8.7396 10.7387 8.7708C10.7242 8.83155 10.7126 8.89229 10.6981 8.95594C10.6836 9.01958 10.6778 9.06297 10.6691 9.11793L10.6343 9.30885C10.6343 9.33778 10.6343 9.3667 10.6198 9.39563V9.46217L10.5763 9.78905C10.5763 9.82376 10.5763 9.85847 10.5763 9.89319C10.5763 10.0378 10.5473 10.1825 10.5357 10.3358V10.3589C10.5357 10.3792 10.5357 10.4023 10.5357 10.4255C10.5357 10.5614 10.5212 10.7003 10.5154 10.842C10.5154 10.8883 10.5154 10.9317 10.5154 10.978C10.5154 11.1486 10.5154 11.3193 10.5154 11.4929C10.5154 11.6664 10.5154 11.7561 10.5154 11.8892C10.5154 11.9355 10.5154 11.9846 10.5154 12.0338C10.5154 12.1871 10.5154 12.3404 10.5299 12.4967C10.5299 12.5979 10.5299 12.6963 10.5299 12.7859C10.5299 12.9537 10.5502 13.1186 10.5618 13.2864L10.5792 13.5554C10.5966 13.7637 10.614 13.972 10.6343 14.1802C10.6343 14.2294 10.6343 14.2786 10.6343 14.3307C10.6604 14.5881 10.6894 14.8485 10.7213 15.1088C10.7199 15.1184 10.7199 15.1281 10.7213 15.1377C10.7213 15.1696 10.7213 15.2043 10.7213 15.2361C10.7561 15.5254 10.7938 15.7973 10.8344 16.0808L10.8692 16.3324C10.9156 16.6449 10.962 16.9573 11.0113 17.2726C11.0606 17.5879 11.1012 17.8743 11.1447 18.1722L11.1795 18.4384C11.2114 18.6611 11.2404 18.8867 11.2694 19.1095L11.3129 19.474C11.3129 19.5174 11.3129 19.5607 11.3274 19.6041C11.3535 19.824 11.3767 20.0438 11.3999 20.2666V20.3794C11.4231 20.6079 11.4434 20.8393 11.4608 21.0708C11.4782 21.3022 11.4927 21.5365 11.5043 21.7708C11.5043 21.8142 11.5043 21.8547 11.5043 21.8952C11.5043 22.1208 11.5246 22.3522 11.5333 22.5837C11.5333 22.6299 11.5333 22.6733 11.5333 22.7196C11.5333 22.9626 11.5333 23.2085 11.5333 23.4602C11.5333 23.6048 11.5333 23.7494 11.5333 23.8941V24.0185V24.3309C11.5333 24.3714 11.5333 24.4119 11.5333 24.4524C11.5333 24.5883 11.5333 24.7243 11.5101 24.8545C11.4985 25.0184 11.484 25.1804 11.4666 25.3404L11.4492 25.4938L11.4057 25.8206C11.4057 25.8814 11.3854 25.9421 11.3767 26C11.368 26.0578 11.3506 26.1533 11.3361 26.2285L11.3013 26.4137C11.3013 26.4889 11.2723 26.5612 11.2549 26.6364L11.2114 26.8186L11.1679 26.9922L11.1157 27.1802C11.1157 27.2381 11.0838 27.293 11.0664 27.348C11.049 27.403 11.0287 27.4724 11.0084 27.536C10.9881 27.5997 10.9765 27.6315 10.9591 27.6778C10.9417 27.7241 10.9156 27.8022 10.8924 27.8658L10.8402 28.0018C10.8141 28.0654 10.7909 28.1262 10.7648 28.184C10.7387 28.2419 10.7271 28.2708 10.7097 28.3113C10.6923 28.3518 10.6546 28.4328 10.6256 28.4935C10.5966 28.5543 10.5879 28.5716 10.5705 28.6092L10.4748 28.7886L10.44 28.9275C10.4023 28.9969 10.3646 29.0634 10.324 29.1299L10.2805 29.2052L10.208 29.3151L10.0978 29.4829L10.0195 29.5928L9.90641 29.7461C9.89354 29.7656 9.87898 29.784 9.86291 29.8011C9.80201 29.8821 9.73821 29.9602 9.67441 30.0354L9.59321 30.125C9.53811 30.1887 9.48011 30.2494 9.42211 30.3131L9.34091 30.3941C9.24231 30.4924 9.14081 30.5908 9.03351 30.6833L8.98131 30.7296C8.88561 30.8106 8.78701 30.8887 8.69131 30.9668L8.62171 31.0189C8.50764 31.1018 8.39164 31.1828 8.27371 31.2619L8.19831 31.3082C8.09391 31.3747 7.98371 31.4412 7.87351 31.5049L7.80971 31.5396C7.68211 31.609 7.55451 31.6756 7.42401 31.7392L7.33411 31.7797C7.21231 31.8376 7.08761 31.8925 6.96001 31.9417L6.91651 31.9619C6.77731 32.0169 6.62651 32.069 6.49311 32.1181L6.38871 32.1529L5.94501 32.2888H7.78651L8.23021 32.1529L8.33171 32.1181C8.47671 32.069 8.62171 32.0169 8.75511 31.9619L8.80151 31.9417C8.92621 31.8925 9.05091 31.8376 9.17271 31.7797L9.26551 31.7392C9.39697 31.6756 9.52457 31.609 9.64831 31.5396L9.71501 31.5049C9.82521 31.4412 9.93251 31.3747 10.0398 31.3082L10.1152 31.2619C10.2312 31.1838 10.3472 31.1028 10.4603 31.0189L10.5299 30.9668C10.6314 30.8887 10.7271 30.8106 10.8199 30.7296L10.875 30.6833C10.9794 30.5908 11.0838 30.4924 11.1824 30.3941L11.2114 30.3651L11.2607 30.3131L11.4347 30.125L11.513 30.0354C11.5787 29.9602 11.6425 29.8821 11.7044 29.8011L11.7392 29.7577C11.7769 29.7085 11.8146 29.6564 11.8494 29.6044C11.8842 29.5523 11.9045 29.532 11.9306 29.4944L12.0408 29.3266C12.064 29.2919 12.0872 29.2572 12.1075 29.2225C12.1237 29.1985 12.1382 29.1733 12.151 29.1473C12.1916 29.0808 12.2322 29.0142 12.2699 28.9448L12.3279 28.8378L12.4091 28.6874C12.4121 28.6769 12.4171 28.6671 12.4236 28.6584L12.4758 28.5427L12.5628 28.3605L12.615 28.2332C12.6324 28.1956 12.6498 28.158 12.6643 28.1204C12.6743 28.0977 12.683 28.0745 12.6904 28.0509C12.7107 28.0047 12.7281 27.9613 12.7455 27.915C12.7629 27.8687 12.789 27.7906 12.8122 27.727C12.8354 27.6633 12.8441 27.6315 12.8615 27.5852L12.8876 27.5013C12.8876 27.4666 12.9079 27.4319 12.9195 27.3972C12.9311 27.3625 12.9543 27.2873 12.9688 27.2294L13.021 27.0414L13.0645 26.8649C13.0645 26.8418 13.0645 26.8186 13.0848 26.7926C13.1051 26.7666 13.0993 26.7203 13.108 26.6856C13.1167 26.6509 13.1399 26.538 13.1544 26.4628L13.1892 26.2777C13.1892 26.2025 13.2153 26.1273 13.2298 26.0492L13.2472 25.9508V25.8698C13.2646 25.7628 13.2791 25.6529 13.2907 25.5429C13.2907 25.4909 13.3052 25.4417 13.311 25.3896C13.3255 25.2305 13.3429 25.0685 13.3545 24.9036C13.3545 24.7735 13.3719 24.6375 13.3777 24.5015C13.3777 24.4611 13.3777 24.4206 13.3777 24.3801C13.3777 24.2759 13.3777 24.1718 13.3777 24.0676C13.3777 24.0271 13.3777 23.9837 13.3777 23.9432C13.4048 23.7948 13.4164 23.6434 13.4125 23.4891Z" fill="#623EFD"/>
<path d="M19.9027 60.5134H18.0612V65H19.9027V60.5134Z" fill="#623EFD"/>
<path d="M19.9027 0H18.0612V4.48665H19.9027V0Z" fill="#623EFD"/>
<path d="M18.0612 0V4.48665H16.6518C12.0408 4.48665 10.4748 7.09012 10.4748 11.4987C10.5061 13.4385 10.6893 15.3729 11.0229 17.2842C11.3683 19.335 11.5515 21.4097 11.571 23.4891C11.6493 28.696 9.4598 31.3169 5.9421 32.2975V32.4595C9.4598 33.3563 11.6493 36.1304 11.571 41.3489C11.5539 43.4257 11.3697 45.4978 11.02 47.5452C10.6862 49.4856 10.5029 51.4489 10.4719 53.4174C10.4719 57.9851 12.2728 60.5134 16.6489 60.5134H18.0583V65H16.4198C9.9296 65 5.0808 62.0639 5.0808 53.8253C5.0808 51.6239 5.394 49.3416 5.7072 47.1402C6.0204 44.9388 6.3336 42.7345 6.3336 40.5332C6.3336 38.0049 5.5506 34.4989 0 34.4989V30.3391C5.5506 30.3391 6.3336 27.1571 6.3336 24.3049C6.3336 22.0196 6.0204 19.7372 5.7072 17.4519C5.394 15.1667 5.0808 12.9682 5.0808 10.6829C5.0808 3.18202 9.773 0 16.4198 0H18.0612Z" fill="url(#paint8_linear_7_269)"/>
<path d="M124.103 7.70048C124.983 7.68456 125.861 7.7887 126.713 8.01C127.377 8.18139 127.991 8.5098 128.502 8.9675C128.98 9.42057 129.333 9.98826 129.528 10.6164C129.762 11.3859 129.873 12.1874 129.856 12.9913V15.5427C129.873 16.3457 129.762 17.1463 129.528 17.9148C129.334 18.5441 128.98 19.1129 128.502 19.5665C127.997 20.026 127.39 20.3592 126.73 20.5385C125.878 20.7598 125 20.8639 124.12 20.848H115.301C115.223 20.8598 115.143 20.8528 115.068 20.8276C114.993 20.8025 114.925 20.7599 114.87 20.7034C114.814 20.6468 114.773 20.578 114.75 20.5025C114.727 20.4271 114.722 20.3472 114.736 20.2695V8.26456C114.724 8.1879 114.731 8.10968 114.756 8.03615C114.78 7.96262 114.822 7.8958 114.876 7.84101C114.931 7.78623 114.998 7.74499 115.072 7.7206C115.146 7.6962 115.224 7.68931 115.301 7.70048H124.103ZM117.612 17.9813C117.608 18.0145 117.611 18.0482 117.622 18.0799C117.633 18.1116 117.651 18.1403 117.675 18.1638C117.699 18.1874 117.728 18.2051 117.76 18.2156C117.792 18.2261 117.826 18.229 117.859 18.2243H124.027C124.496 18.2341 124.964 18.1836 125.419 18.0739C125.76 17.9944 126.074 17.8268 126.33 17.5879C126.576 17.3392 126.748 17.028 126.829 16.6882C126.939 16.2338 126.989 15.7671 126.979 15.2997V13.2343C126.989 12.7669 126.939 12.3002 126.829 11.8458C126.748 11.506 126.576 11.1948 126.33 10.9461C126.074 10.7075 125.76 10.5391 125.419 10.4573C124.963 10.3501 124.496 10.3005 124.027 10.3097H117.859C117.694 10.3097 117.612 10.3965 117.612 10.5701V17.9813Z" fill="white"/>
<path d="M145.6 7.70047C145.89 7.70047 146.032 7.83933 146.032 8.11414V9.89607C146.032 10.1709 145.887 10.3097 145.6 10.3097H137.382C136.973 10.301 136.565 10.3418 136.167 10.4312C135.877 10.4956 135.61 10.6377 135.395 10.842C135.188 11.0615 135.048 11.3355 134.992 11.6317C134.909 12.0362 134.872 12.4484 134.879 12.8611V13.0463H145.505C145.561 13.0386 145.618 13.044 145.672 13.0621C145.726 13.0802 145.775 13.1104 145.815 13.1505C145.855 13.1906 145.885 13.2393 145.903 13.293C145.922 13.3467 145.927 13.4038 145.919 13.4599V14.941C145.928 14.9973 145.923 15.0546 145.905 15.1086C145.887 15.1626 145.856 15.2116 145.816 15.2518C145.776 15.292 145.727 15.3222 145.673 15.3401C145.619 15.358 145.561 15.363 145.505 15.3547H134.879V15.6729C134.872 16.0856 134.909 16.4978 134.992 16.9023C135.048 17.1985 135.188 17.4725 135.395 17.692C135.61 17.8964 135.877 18.0384 136.167 18.1028C136.565 18.1922 136.973 18.233 137.382 18.2243H145.6C145.89 18.2243 146.032 18.3631 146.032 18.6379V20.4199C146.032 20.7092 145.887 20.8335 145.6 20.8335H137.324C136.507 20.8495 135.691 20.7611 134.896 20.5703C134.289 20.4227 133.73 20.1241 133.269 19.7025C132.833 19.2786 132.516 18.7479 132.35 18.1635C132.141 17.4163 132.043 16.6424 132.06 15.8667V12.6529C132.043 11.88 132.141 11.1089 132.35 10.3647C132.519 9.78381 132.835 9.25651 133.269 8.83443C133.732 8.4164 134.291 8.11837 134.896 7.96661C135.69 7.76969 136.506 7.67825 137.324 7.69469L145.6 7.70047Z" fill="white"/>
<path d="M161.266 7.70048C161.322 7.69283 161.38 7.69825 161.433 7.71633C161.487 7.73442 161.536 7.76466 161.576 7.80472C161.616 7.84477 161.647 7.89354 161.665 7.94722C161.683 8.00089 161.688 8.05802 161.681 8.11415V9.89608C161.688 9.9522 161.683 10.0093 161.665 10.063C161.647 10.1167 161.616 10.1655 161.576 10.2055C161.536 10.2456 161.487 10.2758 161.433 10.2939C161.38 10.312 161.322 10.3174 161.266 10.3097H151.844C151.702 10.2957 151.558 10.3144 151.424 10.3646C151.291 10.4148 151.17 10.495 151.073 10.599C150.911 10.8219 150.831 11.0937 150.846 11.3685V12.0049C150.846 12.7049 151.172 13.055 151.824 13.055H158.876C159.967 13.055 160.79 13.3442 161.341 13.891C161.892 14.4377 162.168 15.2448 162.168 16.2833V17.7846C162.186 18.1884 162.123 18.5918 161.985 18.9715C161.846 19.3512 161.633 19.6999 161.359 19.9975C160.819 20.5761 159.981 20.8422 158.839 20.8422H148.419C148.129 20.8422 147.987 20.7034 147.987 20.4286V18.638C147.987 18.3487 148.132 18.2243 148.419 18.2243H158.294C158.436 18.2384 158.579 18.2196 158.713 18.1694C158.847 18.1193 158.967 18.0391 159.065 17.935C159.227 17.7122 159.307 17.4404 159.291 17.1655V16.4048C159.291 15.7047 158.963 15.3547 158.314 15.3547H151.261C150.169 15.3547 149.347 15.076 148.796 14.5187C148.245 13.9613 147.97 13.1649 147.97 12.1293V10.7581C147.951 10.3549 148.011 9.95184 148.149 9.57211C148.286 9.19237 148.497 8.8434 148.77 8.54517C149.307 7.98204 150.147 7.70048 151.29 7.70048H161.266Z" fill="white"/>
<path d="M166.776 7.70048C166.832 7.69283 166.89 7.69825 166.943 7.71633C166.997 7.73442 167.046 7.76466 167.086 7.80472C167.126 7.84477 167.157 7.89354 167.175 7.94722C167.193 8.00089 167.198 8.05802 167.191 8.11415V20.4199C167.198 20.4756 167.191 20.532 167.173 20.585C167.154 20.6379 167.124 20.6859 167.084 20.7253C167.044 20.7646 166.995 20.7943 166.942 20.8121C166.889 20.8299 166.832 20.8352 166.776 20.8278H164.746C164.456 20.8278 164.314 20.6889 164.314 20.4141V8.11415C164.314 7.83934 164.456 7.70048 164.746 7.70048H166.776Z" fill="white"/>
<path d="M184.344 7.70048C184.4 7.69271 184.458 7.69808 184.511 7.71616C184.565 7.73425 184.614 7.76455 184.654 7.80468C184.694 7.84481 184.724 7.89367 184.742 7.94738C184.759 8.00109 184.764 8.05818 184.756 8.11414V9.95104C184.756 10.2403 184.62 10.3821 184.344 10.3821H174.919C174.512 10.3728 174.104 10.4146 173.707 10.5064C173.419 10.5697 173.155 10.7119 172.944 10.9172C172.746 11.1373 172.61 11.4058 172.55 11.6954C172.461 12.1018 172.42 12.5174 172.428 12.9335V15.6353C172.42 16.0551 172.461 16.4745 172.55 16.8849C172.612 17.1784 172.751 17.4501 172.953 17.6718C173.162 17.877 173.424 18.0203 173.71 18.0854C174.108 18.1747 174.515 18.2155 174.922 18.2069H181.128C181.259 18.2189 181.391 18.2023 181.514 18.1584C181.638 18.1144 181.751 18.0441 181.844 17.9524C182.022 17.691 182.102 17.3757 182.071 17.0614V15.5427C182.071 15.3807 181.995 15.2997 181.844 15.2997H176.32C176.045 15.2997 175.905 15.1551 175.905 14.8658V13.4599C175.905 13.1707 176.045 13.0289 176.32 13.0289H184.15C184.228 13.0151 184.309 13.02 184.385 13.0434C184.46 13.0668 184.53 13.108 184.586 13.1634C184.643 13.2189 184.686 13.2871 184.711 13.3623C184.736 13.4375 184.742 13.5176 184.73 13.5959V17.9639C184.73 19.014 184.527 19.7546 184.127 20.1856C183.902 20.4071 183.633 20.5788 183.337 20.6895C183.041 20.8002 182.725 20.8473 182.41 20.8278H174.812C173.996 20.8435 173.181 20.755 172.388 20.5645C171.781 20.4169 171.221 20.1183 170.761 19.6967C170.323 19.2737 170.005 18.7428 169.839 18.1578C169.629 17.4105 169.532 16.6366 169.549 15.8609V12.6529C169.531 11.88 169.629 11.1089 169.839 10.3647C170.007 9.78313 170.325 9.25559 170.761 8.83444C171.223 8.41641 171.782 8.11837 172.388 7.96661C173.18 7.76995 173.995 7.67852 174.812 7.6947L184.344 7.70048Z" fill="white"/>
<path d="M190.455 7.7005C190.706 7.69746 190.958 7.71002 191.209 7.7381C191.392 7.75861 191.57 7.81254 191.734 7.8972C191.895 7.98607 192.041 8.10036 192.166 8.23565C192.335 8.4187 192.493 8.61191 192.638 8.8142L199.633 17.964C199.657 18.0062 199.693 18.0408 199.736 18.0638C199.779 18.0869 199.828 18.0973 199.877 18.0941H200.048C200.146 18.0941 200.199 18.0305 200.199 17.9061V8.11416C200.19 8.0582 200.195 8.0011 200.213 7.94739C200.231 7.89368 200.261 7.84483 200.301 7.8047C200.341 7.76457 200.39 7.73426 200.443 7.71617C200.497 7.69809 200.554 7.69272 200.61 7.7005H202.585C202.642 7.69284 202.699 7.69826 202.753 7.71635C202.806 7.73443 202.855 7.76468 202.896 7.80473C202.936 7.84478 202.966 7.89355 202.984 7.94723C203.002 8.0009 203.008 8.05804 203 8.11416V18.881C203 19.6524 202.862 20.1682 202.585 20.4286C202.229 20.7261 201.77 20.8716 201.306 20.8336H199.691C199.449 20.8366 199.207 20.8241 198.966 20.796C198.787 20.7751 198.612 20.7242 198.45 20.6455C198.285 20.5599 198.136 20.4486 198.006 20.3158C197.826 20.1353 197.659 19.942 197.507 19.7372L190.492 10.5701C190.464 10.5317 190.427 10.5001 190.385 10.4776C190.343 10.4551 190.296 10.4422 190.249 10.4399H190.081C189.979 10.4399 189.93 10.5036 189.93 10.628V20.4199C189.936 20.4756 189.93 20.532 189.912 20.585C189.893 20.6379 189.863 20.6859 189.823 20.7253C189.783 20.7646 189.734 20.7943 189.681 20.8121C189.627 20.8299 189.571 20.8352 189.515 20.8278H187.54C187.25 20.8278 187.108 20.6889 187.108 20.4141V9.65021C187.108 8.88941 187.244 8.37161 187.52 8.10259C187.876 7.81068 188.331 7.66669 188.79 7.7005H190.455Z" fill="white"/>
<path d="M117.549 29.0085C117.613 28.9993 117.678 29.0051 117.74 29.0256C117.801 29.046 117.857 29.0805 117.903 29.1262C117.949 29.172 117.984 29.2278 118.004 29.2892C118.025 29.3506 118.031 29.4159 118.021 29.48V38.0223C118.012 38.5005 118.058 38.9782 118.161 39.4455C118.231 39.7812 118.39 40.0919 118.622 40.3451C118.861 40.5812 119.163 40.7447 119.492 40.8167C119.945 40.9186 120.41 40.9653 120.875 40.9555H129.575C129.639 40.9463 129.705 40.9522 129.766 40.9726C129.828 40.9931 129.884 41.0275 129.93 41.0733C129.975 41.119 130.01 41.1748 130.03 41.2362C130.051 41.2976 130.057 41.363 130.048 41.427V43.5272C130.056 43.591 130.05 43.656 130.029 43.717C130.009 43.778 129.974 43.8334 129.928 43.8789C129.882 43.9243 129.827 43.9585 129.765 43.9788C129.704 43.999 129.639 44.0049 129.575 43.9958H120.747C119.816 44.0167 118.885 43.9195 117.978 43.7065C117.287 43.5423 116.648 43.2071 116.122 42.7317C115.621 42.25 115.257 41.6439 115.069 40.9758C114.829 40.1224 114.716 39.2382 114.736 38.352V29.48C114.736 29.1647 114.901 29.0085 115.229 29.0085H117.549Z" fill="white"/>
<path d="M141.52 29.0085C142 28.9927 142.475 29.1066 142.895 29.3382C143.363 29.671 143.739 30.1169 143.988 30.6342L151.09 43.504C151.122 43.5563 151.143 43.6145 151.152 43.6751C151.161 43.7358 151.158 43.7976 151.142 43.8569C151.107 43.9495 151.003 43.9958 150.832 43.9958H148.106C148.003 44.0049 147.901 43.9819 147.812 43.9301C147.723 43.8782 147.652 43.8001 147.61 43.7065L146.087 40.9439H135.99L134.508 43.7065C134.463 43.7974 134.392 43.8731 134.305 43.9245C134.217 43.9759 134.116 44.0007 134.015 43.9958H131.222C131.029 43.9958 130.919 43.9495 130.891 43.8569C130.874 43.7978 130.87 43.7357 130.879 43.6748C130.888 43.614 130.91 43.5557 130.944 43.504L137.985 30.6342C138.229 30.126 138.59 29.6822 139.038 29.3382C139.397 29.1136 139.814 28.999 140.238 29.0085H141.52ZM137.341 38.4735H144.724L141.311 32.1992C141.291 32.154 141.258 32.1158 141.216 32.0891C141.174 32.0624 141.126 32.0484 141.076 32.0487H140.94C140.89 32.0485 140.841 32.0626 140.799 32.0892C140.757 32.1159 140.723 32.154 140.702 32.1992L137.341 38.4735Z" fill="white"/>
<path d="M151.229 29.0085C151.33 29.0027 151.431 29.0234 151.522 29.0686C151.612 29.1138 151.689 29.1818 151.745 29.2659L157.47 36.9953L163.244 29.2659C163.3 29.1822 163.376 29.1145 163.466 29.0693C163.556 29.0242 163.657 29.0032 163.757 29.0085H166.57C166.619 29.0041 166.669 29.0152 166.711 29.04C166.754 29.0649 166.788 29.1024 166.808 29.1473C166.827 29.195 166.833 29.247 166.826 29.2978C166.818 29.3487 166.797 29.3966 166.764 29.4366L159.065 39.4137V43.5272C159.074 43.591 159.067 43.656 159.047 43.717C159.026 43.778 158.991 43.8334 158.946 43.8789C158.9 43.9243 158.844 43.9585 158.783 43.9788C158.721 43.999 158.656 44.0049 158.592 43.9958H156.272C155.942 43.9958 155.779 43.8396 155.779 43.5272V39.4137L148.161 29.4366C148.127 29.3977 148.103 29.3504 148.094 29.2995C148.084 29.2486 148.088 29.196 148.106 29.1473C148.126 29.1006 148.161 29.0617 148.206 29.0367C148.25 29.0116 148.302 29.0017 148.352 29.0085H151.229Z" fill="white"/>
<path d="M182.7 29.0085C183.028 29.0085 183.193 29.1647 183.193 29.48V31.5049C183.193 31.8173 183.028 31.9764 182.7 31.9764H173.321C172.855 31.9665 172.39 32.0131 171.935 32.1153C171.607 32.1901 171.307 32.3532 171.065 32.5868C170.827 32.836 170.666 33.1483 170.601 33.4864C170.509 33.9472 170.466 34.4166 170.474 34.8865V35.1006H182.604C182.668 35.0919 182.733 35.0981 182.795 35.1188C182.856 35.1394 182.911 35.174 182.957 35.2197C183.002 35.2654 183.037 35.321 183.057 35.3821C183.077 35.4433 183.083 35.5083 183.074 35.5721V37.2644C183.083 37.3281 183.077 37.3932 183.057 37.4543C183.037 37.5155 183.002 37.5711 182.957 37.6168C182.911 37.6625 182.856 37.697 182.795 37.7177C182.733 37.7383 182.668 37.7446 182.604 37.7359H170.465V38.1004C170.457 38.5712 170.5 39.0415 170.593 39.5033C170.659 39.841 170.82 40.153 171.057 40.403C171.299 40.6347 171.599 40.7966 171.927 40.8716C172.381 40.9763 172.847 41.0239 173.313 41.0133H182.7C183.028 41.0133 183.193 41.1696 183.193 41.482V43.5069C183.193 43.8193 183.028 43.9755 182.7 43.9755H173.255C172.323 43.9963 171.392 43.8991 170.485 43.6862C169.794 43.5214 169.156 43.1862 168.629 42.7114C168.13 42.2282 167.767 41.6227 167.577 40.9555C167.339 40.1017 167.227 39.2178 167.246 38.3318V34.6609C167.228 33.7816 167.339 32.9044 167.577 32.0574C167.77 31.3973 168.133 30.7991 168.629 30.3218C169.157 29.8454 169.794 29.5065 170.485 29.3353C171.391 29.1123 172.322 29.0083 173.255 29.0258L182.7 29.0085Z" fill="white"/>
<path d="M197.835 29.0085C199.482 29.0085 200.664 29.3797 201.379 30.1222C202.094 30.8646 202.452 31.9639 202.452 33.4199V34.6406C202.452 35.8672 202.202 36.8372 201.701 37.5507C201.2 38.2643 200.384 38.7213 199.253 38.9219L202.925 43.4606C202.961 43.5045 202.986 43.5569 202.998 43.613C203.009 43.6691 203.006 43.7271 202.988 43.7817C202.959 43.9264 202.843 43.9958 202.643 43.9958H199.874C199.742 44.0063 199.609 43.9845 199.488 43.9321C199.403 43.8754 199.33 43.8027 199.273 43.7181L195.883 39.2632H188.949V43.5272C188.958 43.591 188.952 43.656 188.931 43.717C188.911 43.778 188.876 43.8334 188.83 43.8788C188.784 43.9243 188.729 43.9585 188.667 43.9788C188.606 43.999 188.541 44.0049 188.477 43.9958H186.157C185.829 43.9958 185.664 43.8396 185.664 43.5272V29.642C185.654 29.5552 185.663 29.4672 185.692 29.3846C185.721 29.3021 185.768 29.2271 185.83 29.1653C185.892 29.1035 185.967 29.0565 186.05 29.0278C186.132 28.9992 186.221 28.9896 186.308 28.9998L197.835 29.0085ZM188.949 36.6511H197.171C197.898 36.6511 198.413 36.4949 198.717 36.1825C199.048 35.7765 199.21 35.2581 199.166 34.7361V33.8451C199.21 33.3232 199.048 32.8048 198.717 32.3988C198.415 32.0825 197.9 31.9253 197.171 31.9272H189.228C189.042 31.9272 188.938 32.0111 188.938 32.1847L188.949 36.6511Z" fill="white"/>
<path d="M118.375 52.1707C118.54 52.1641 118.702 52.2043 118.845 52.2864C119.005 52.3999 119.134 52.5522 119.219 52.729L121.649 57.1317C121.661 57.1495 121.668 57.1696 121.671 57.1906C121.674 57.2115 121.673 57.2329 121.667 57.2532C121.667 57.285 121.62 57.2995 121.562 57.2995H120.64C120.605 57.3032 120.571 57.296 120.54 57.2789C120.51 57.2618 120.486 57.2356 120.472 57.204L119.95 56.2581H116.499L115.991 57.204C115.976 57.2345 115.951 57.2598 115.921 57.2768C115.892 57.2937 115.857 57.3016 115.823 57.2995H114.869C114.805 57.2995 114.765 57.285 114.753 57.2532C114.748 57.2327 114.747 57.2112 114.75 57.1903C114.754 57.1694 114.761 57.1494 114.773 57.1317L117.18 52.729C117.264 52.5556 117.387 52.404 117.54 52.2864C117.662 52.2075 117.806 52.1672 117.952 52.1707H118.375ZM116.948 55.4105H119.48L118.32 53.2641C118.313 53.2486 118.301 53.2355 118.287 53.2263C118.273 53.2171 118.256 53.2121 118.239 53.2121H118.195C118.178 53.2121 118.161 53.2171 118.147 53.2263C118.133 53.2355 118.121 53.2486 118.114 53.2641L116.948 55.4105Z" fill="white"/>
<path d="M137.808 52.1707C137.83 52.1678 137.852 52.1701 137.873 52.1772C137.894 52.1843 137.913 52.1962 137.929 52.2118C137.945 52.2275 137.957 52.2465 137.964 52.2675C137.971 52.2884 137.973 52.3107 137.97 52.3327V53.0501C137.974 53.0724 137.973 53.0954 137.966 53.1171C137.959 53.1388 137.948 53.1586 137.932 53.175C137.916 53.1913 137.897 53.2037 137.875 53.2112C137.854 53.2186 137.831 53.2209 137.808 53.2178H134.131C133.971 53.2148 133.811 53.2314 133.655 53.267C133.545 53.2916 133.444 53.3479 133.365 53.429C133.285 53.5138 133.23 53.6188 133.206 53.7327C133.171 53.8913 133.155 54.0535 133.159 54.2158V55.2717C133.156 55.4349 133.171 55.598 133.206 55.7577C133.229 55.8726 133.285 55.9788 133.365 56.0643C133.445 56.1441 133.545 56.2002 133.655 56.2263C133.811 56.2608 133.971 56.2764 134.131 56.2726H136.552C136.605 56.2785 136.658 56.2727 136.708 56.2557C136.758 56.2387 136.804 56.2109 136.842 56.1742C136.91 56.0719 136.941 55.9493 136.929 55.8271V55.2341C136.929 55.1704 136.9 55.1386 136.842 55.1386H134.69C134.58 55.1386 134.528 55.0837 134.528 54.9708V54.4212C134.528 54.3084 134.58 54.2534 134.69 54.2534H137.75C137.78 54.2492 137.81 54.2518 137.838 54.2612C137.867 54.2705 137.893 54.2863 137.914 54.3073C137.936 54.3283 137.952 54.354 137.961 54.3823C137.971 54.4106 137.974 54.4407 137.97 54.4704V56.18C137.999 56.4885 137.915 56.797 137.733 57.0478C137.645 57.1352 137.539 57.2028 137.423 57.2462C137.307 57.2896 137.183 57.3078 137.06 57.2995H134.084C133.766 57.305 133.449 57.271 133.139 57.1983C132.902 57.1413 132.684 57.0259 132.504 56.8627C132.333 56.6987 132.208 56.492 132.144 56.2639C132.06 55.9715 132.021 55.6682 132.028 55.3643V54.0943C132.021 53.7922 132.06 53.4908 132.144 53.2005C132.208 52.9733 132.333 52.7675 132.504 52.6046C132.684 52.4403 132.902 52.3239 133.139 52.2661C133.448 52.1897 133.766 52.1537 134.084 52.1591L137.808 52.1707Z" fill="white"/>
<path d="M153.613 52.1707C153.726 52.1707 153.784 52.2256 153.784 52.3327V53.0298C153.784 53.1369 153.726 53.1889 153.613 53.1889H150.406C150.246 53.1821 150.086 53.1948 149.93 53.2265C149.821 53.2539 149.721 53.3087 149.64 53.3856C149.56 53.4721 149.505 53.5794 149.483 53.6952C149.452 53.8532 149.437 54.0142 149.44 54.1754V54.2477H153.59C153.612 54.2447 153.634 54.2469 153.655 54.254C153.676 54.2612 153.695 54.2731 153.71 54.2888C153.726 54.3045 153.737 54.3237 153.744 54.3446C153.751 54.3656 153.753 54.3879 153.749 54.4097V54.9882C153.753 55.01 153.751 55.0323 153.744 55.0533C153.737 55.0742 153.726 55.0933 153.71 55.1091C153.695 55.1248 153.676 55.1367 153.655 55.1438C153.634 55.151 153.612 55.1532 153.59 55.1502H149.428V55.2746C149.426 55.4348 149.44 55.5948 149.472 55.7519C149.493 55.8679 149.548 55.9753 149.628 56.0614C149.71 56.1393 149.809 56.1951 149.918 56.2234C150.075 56.258 150.234 56.2735 150.394 56.2697H153.613C153.726 56.2697 153.784 56.3247 153.784 56.4317V57.126C153.784 57.233 153.726 57.2879 153.613 57.2879H150.382C150.063 57.2933 149.745 57.2593 149.434 57.1867C149.198 57.1285 148.98 57.0133 148.799 56.8511C148.629 56.6864 148.505 56.4799 148.439 56.2524C148.358 55.9595 148.32 55.6565 148.326 55.3527V54.0944C148.32 53.7925 148.358 53.4913 148.439 53.2005C148.505 52.9738 148.629 52.7683 148.799 52.6046C148.98 52.4415 149.198 52.3253 149.434 52.2661C149.744 52.1899 150.063 52.154 150.382 52.1591L153.613 52.1707Z" fill="white"/>
<path d="M165.445 52.1707C165.542 52.1702 165.639 52.175 165.735 52.1851C165.807 52.194 165.877 52.2156 165.941 52.2488C166.004 52.2832 166.062 52.3271 166.112 52.379C166.164 52.4368 166.225 52.512 166.295 52.6046L169.026 56.18C169.037 56.1959 169.051 56.2088 169.068 56.2175C169.085 56.2261 169.103 56.2301 169.122 56.2292H169.189C169.227 56.2292 169.247 56.2061 169.247 56.1569V52.3327C169.244 52.3107 169.246 52.2884 169.253 52.2675C169.261 52.2465 169.272 52.2275 169.288 52.2118C169.304 52.1962 169.323 52.1844 169.344 52.1772C169.365 52.1701 169.387 52.1678 169.409 52.1707H170.181C170.203 52.1677 170.225 52.1699 170.246 52.177C170.267 52.1842 170.286 52.1961 170.301 52.2118C170.317 52.2276 170.328 52.2467 170.335 52.2676C170.342 52.2886 170.344 52.3109 170.34 52.3327V56.5387C170.364 56.753 170.307 56.9685 170.181 57.1433C170.04 57.2582 169.86 57.3142 169.679 57.2995H169.05C168.953 57.3003 168.856 57.2954 168.76 57.2851C168.689 57.2772 168.621 57.2576 168.557 57.2272C168.493 57.194 168.435 57.15 168.386 57.097C168.316 57.0252 168.251 56.9488 168.191 56.8685L165.451 53.2931C165.44 53.2777 165.426 53.2651 165.409 53.256C165.392 53.247 165.374 53.2419 165.355 53.241H165.3C165.259 53.241 165.239 53.267 165.239 53.3133V57.1375C165.242 57.1593 165.241 57.1816 165.234 57.2026C165.227 57.2235 165.215 57.2427 165.2 57.2584C165.185 57.2741 165.166 57.286 165.145 57.2932C165.124 57.3003 165.101 57.3025 165.08 57.2995H164.308C164.195 57.2995 164.137 57.2446 164.137 57.1375V52.9373C164.112 52.7225 164.17 52.5063 164.299 52.3327C164.368 52.2747 164.447 52.2307 164.533 52.2034C164.619 52.1761 164.709 52.166 164.798 52.1736L165.445 52.1707Z" fill="white"/>
<path d="M186.067 52.1707C186.089 52.1672 186.112 52.169 186.133 52.1759C186.154 52.1828 186.174 52.1947 186.189 52.2105C186.205 52.2263 186.217 52.2456 186.224 52.2668C186.231 52.288 186.233 52.3106 186.229 52.3327V53.0501C186.229 53.1629 186.177 53.2178 186.067 53.2178H182.802C182.642 53.2148 182.482 53.2314 182.326 53.267C182.215 53.2916 182.115 53.3479 182.036 53.429C181.956 53.5138 181.901 53.6188 181.876 53.7327C181.842 53.8913 181.826 54.0535 181.83 54.2158V55.2514C181.826 55.4156 181.842 55.5797 181.876 55.7403C181.9 55.8553 181.955 55.9614 182.036 56.0469C182.116 56.1267 182.216 56.1828 182.326 56.2089C182.482 56.2435 182.642 56.259 182.802 56.2552H186.067C186.089 56.2518 186.112 56.2536 186.133 56.2605C186.154 56.2674 186.174 56.2792 186.189 56.295C186.205 56.3108 186.217 56.3301 186.224 56.3513C186.231 56.3726 186.233 56.3951 186.229 56.4172V57.1346C186.233 57.1567 186.231 57.1792 186.224 57.2005C186.217 57.2217 186.205 57.241 186.189 57.2568C186.174 57.2726 186.154 57.2844 186.133 57.2913C186.112 57.2983 186.089 57.3001 186.067 57.2966H182.755C182.437 57.3021 182.119 57.2681 181.81 57.1954C181.573 57.1384 181.355 57.023 181.175 56.8598C181.003 56.6952 180.878 56.4888 180.812 56.261C180.731 55.9682 180.693 55.6651 180.699 55.3614V54.0943C180.692 53.7924 180.73 53.4912 180.812 53.2005C180.878 52.9735 181.003 52.768 181.175 52.6046C181.354 52.4403 181.573 52.3239 181.81 52.2661C182.119 52.1897 182.437 52.1537 182.755 52.1591L186.067 52.1707Z" fill="white"/>
<path d="M197.661 52.1707C197.696 52.1683 197.73 52.1754 197.761 52.1912C197.791 52.207 197.817 52.2309 197.835 52.2604L199.81 54.9043L201.785 52.2604C201.804 52.2309 201.83 52.2071 201.861 52.1913C201.892 52.1755 201.927 52.1684 201.962 52.1707H202.922C202.939 52.1693 202.956 52.1734 202.97 52.1822C202.985 52.191 202.996 52.2042 203.003 52.2199C203.011 52.2359 203.013 52.2537 203.011 52.2712C203.008 52.2887 203 52.3051 202.988 52.3182L200.352 55.7317V57.1375C200.355 57.1595 200.353 57.1818 200.346 57.2027C200.339 57.2237 200.327 57.2427 200.311 57.2584C200.295 57.274 200.276 57.2859 200.255 57.293C200.234 57.3001 200.212 57.3024 200.19 57.2995H199.398C199.285 57.2995 199.227 57.2446 199.227 57.1375V55.7317L196.617 52.3182C196.605 52.3052 196.597 52.2891 196.593 52.2718C196.59 52.2545 196.591 52.2366 196.597 52.2199C196.604 52.2037 196.615 52.1902 196.631 52.1813C196.646 52.1724 196.663 52.1687 196.681 52.1707H197.661Z" fill="white"/>
</g>
<defs>
<linearGradient id="paint0_linear_7_269" x1="37.5347" y1="28.1725" x2="37.5347" y2="55.2399" gradientUnits="userSpaceOnUse">
<stop stop-color="#623EFD"/>
<stop offset="1" stop-color="#2BC4F7"/>
</linearGradient>
<linearGradient id="paint1_linear_7_269" x1="72.7987" y1="28.1725" x2="72.7987" y2="55.237" gradientUnits="userSpaceOnUse">
<stop stop-color="#623EFD"/>
<stop offset="1" stop-color="#2BC4F7"/>
</linearGradient>
<linearGradient id="paint2_linear_7_269" x1="72.7987" y1="36.8304" x2="72.7987" y2="63.895" gradientUnits="userSpaceOnUse">
<stop stop-color="#623EFD"/>
<stop offset="1" stop-color="#2BC4F7"/>
</linearGradient>
<linearGradient id="paint3_linear_7_269" x1="37.5347" y1="36.8304" x2="37.5347" y2="63.8979" gradientUnits="userSpaceOnUse">
<stop stop-color="#623EFD"/>
<stop offset="1" stop-color="#2BC4F7"/>
</linearGradient>
<linearGradient id="paint4_linear_7_269" x1="72.7987" y1="19.5145" x2="72.7987" y2="46.579" gradientUnits="userSpaceOnUse">
<stop stop-color="#023047"/>
<stop offset="1" stop-color="#219EBC"/>
</linearGradient>
<linearGradient id="paint5_linear_7_269" x1="37.5347" y1="19.5145" x2="37.5347" y2="46.5819" gradientUnits="userSpaceOnUse">
<stop stop-color="#023047"/>
<stop offset="1" stop-color="#219EBC"/>
</linearGradient>
<radialGradient id="paint6_radial_7_269" cx="0" cy="0" r="1" gradientUnits="userSpaceOnUse" gradientTransform="translate(54.9347 34.0245) scale(36.3051 36.2143)">
<stop stop-color="#2BC4F7"/>
<stop offset="1" stop-color="#623EFD"/>
</radialGradient>
<linearGradient id="paint7_linear_7_269" x1="92.2693" y1="32.5" x2="110.33" y2="32.5" gradientUnits="userSpaceOnUse">
<stop stop-color="#623EFD"/>
<stop offset="1" stop-color="#2BC4F7"/>
</linearGradient>
<linearGradient id="paint8_linear_7_269" x1="18.0612" y1="32.5" x2="0" y2="32.5" gradientUnits="userSpaceOnUse">
<stop stop-color="#623EFD"/>
<stop offset="1" stop-color="#2BC4F7"/>
</linearGradient>
<clipPath id="clip0_7_269">
<rect width="203" height="65" fill="white"/>
</clipPath>
</defs>
</svg>
