<svg width="64" height="64" viewBox="0 0 64 64" fill="none" xmlns="http://www.w3.org/2000/svg"><path fill="#fff" d="M0 0h64v64H0z"/><path d="M0 45.893c1.517-1.913 3.523-1.448 5.5-1.23 1.437.192 2.82.547 4.282.547.922.027 1.518-.355 2.114-1.011 1.138-1.258 1.951-2.761 3.143-3.964 1.924-1.94 4.146-3.334 6.748-4.236 4.363-1.531 8.834-2.761 13.142-4.51 3.631-1.504 6.395-3.909 8.346-7.353 1.274-2.241 2.52-4.51 4.092-6.587 2.14-2.734 4.905-4.155 8.346-4.128C57.53 13.45 59.1 12.656 60.7 12h.407c.677.246.894.793.894 1.476 0 1.859-.623 3.471-2.032 4.674-.949.793-1.951 1.53-2.954 2.241-1.382.984-2.222 2.269-2.629 3.936-.785 3.417-1.409 6.888-2.492 10.278-.949 3.006-2.114 5.904-4.336 8.282a9.138 9.138 0 01-2.358 1.831c-.515.246-.785.246-.704-.437a5.22 5.22 0 00-.054-1.586c-.299.656-.57 1.285-.868 1.941-2.005 4.1-4.959 6.997-9.484 8.036a.5.5 0 01-.19.055c-.514.054-1.219.328-1.463-.055-.298-.492.46-.793.732-1.175 2.168-2.816 3.685-5.877 3.983-9.512-.325-.028-.298.246-.352.382-.081.137-.136.328-.19.492-.298.82-.542 1.64-1.002 2.378-.461.766-1.111 1.148-2.006 1.176-2.33.054-4.66-.219-6.937-.547-2.032-.273-4.091-.437-6.15-.273-2.331.164-4.364 1.23-6.233 2.514-2.168 1.476-4.472 2.679-6.83 3.772-1.056.492-2.194.82-3.305 1.121H1.68c-.352-.547-.19-1.066.108-1.53.434-.657.868-1.313 1.328-1.941.244-.328.488-.656 0-.957-1.084-.656-1.924-1.667-3.089-2.187A3.345 3.345 0 010 45.893z" fill="#000"/></svg>