<svg width="60" height="60" viewBox="0 0 60 60" fill="none" xmlns="http://www.w3.org/2000/svg">
<rect opacity="0.2" width="60" height="60" rx="15" fill="white"/>
<g clip-path="url(#clip0_176_241)">
<path d="M44.3907 31.8739C44.5439 31.7125 44.6867 31.5408 44.8367 31.3765C44.985 31.2143 45.1303 31.049 45.2757 30.884C45.511 30.6172 45.7481 30.3521 45.9846 30.0864C46.1326 29.9204 46.2822 29.7551 46.4291 29.5877C46.6602 29.3243 46.894 29.0637 47.1266 28.8017C47.2726 28.6372 47.421 28.4747 47.5656 28.309C47.839 27.9959 48.1176 27.688 48.3915 27.3754C48.5723 27.1691 48.7545 26.9642 48.938 26.7605C49.2292 26.4381 49.514 26.1095 49.8053 25.7872C49.8801 25.7042 49.9724 25.6306 50 25.5105V25.4939C49.9459 25.4335 49.8748 25.4568 49.811 25.4568C45.8896 25.4556 41.9681 25.4552 38.0466 25.4557C38.0146 25.4557 37.9826 25.4568 37.9506 25.4557C37.656 25.4496 37.4399 25.7036 37.4486 25.9802C37.4599 26.3393 37.4515 26.6991 37.4509 27.0586C37.4509 27.0881 37.4575 27.1187 37.4449 27.1469C37.4422 27.1474 37.4393 27.147 37.4368 27.1457C37.4343 27.1445 37.4323 27.1424 37.431 27.1398C37.1228 26.6304 36.7439 26.1842 36.311 25.7852C35.9043 25.4102 35.4572 25.0973 34.9762 24.8358C34.5833 24.6222 34.1729 24.4522 33.7493 24.3162C33.1609 24.1271 32.5612 24.0104 31.9432 24.008H31.9359C31.9359 24.0103 31.9359 24.0125 31.9359 24.0149C31.9148 24.0192 31.893 24.0189 31.8719 24.014H31.8079H31.7446C31.7007 24.0158 31.6566 24.0235 31.6151 23.9998H31.2951C31.2649 24.0228 31.2311 24.0164 31.1971 24.0135H31.1179C31.0808 24.0156 31.0438 24.0217 31.0066 24.0145V24.0081C30.8171 24.012 30.627 24.0146 30.4392 24.0362C29.9667 24.0904 29.505 24.2022 29.0537 24.3559C28.397 24.5799 27.781 24.89 27.2115 25.2993C26.7112 25.6587 26.2663 26.0793 25.8835 26.569C25.5715 26.9677 25.3129 27.4019 25.1155 27.8739C25.0689 27.9854 25.0151 28.0949 24.9911 28.2098C24.9941 28.1741 24.9953 28.1384 24.9947 28.1026C24.9947 27.2948 24.9947 26.4873 24.9947 25.6799C24.9947 25.6467 24.9956 25.6135 24.9931 25.5803C24.9875 25.5036 24.9638 25.4796 24.888 25.4743C24.8507 25.4716 24.8134 25.4727 24.776 25.4727C24.136 25.4727 23.496 25.4762 22.856 25.4714C22.4911 25.4686 22.1641 25.582 21.8647 25.7895C21.7001 25.9037 21.5607 26.0476 21.4299 26.2017C21.3019 26.3529 21.1685 26.5 21.0379 26.6489C20.8405 26.8732 20.6436 27.0978 20.4471 27.3227C20.3131 27.4761 20.1767 27.6274 20.0429 27.7812C19.8503 28.0025 19.657 28.2231 19.463 28.4432C19.3316 28.5917 19.2006 28.7406 19.0699 28.89C18.8699 29.1193 18.6678 29.3464 18.4678 29.5759C18.341 29.7213 18.2127 29.8652 18.0861 30.0109C17.9044 30.22 17.7174 30.4241 17.5399 30.6373C17.5043 30.68 17.4725 30.6795 17.4332 30.6388C17.3483 30.551 17.2706 30.4563 17.1899 30.3644C16.921 30.0583 16.652 29.7525 16.3828 29.4468C16.2623 29.3105 16.1411 29.1748 16.0215 29.0376C15.753 28.7289 15.4829 28.4213 15.2112 28.1145C15.0907 27.9782 14.9689 27.8431 14.8502 27.7052C14.5915 27.4045 14.3268 27.1095 14.0656 26.8112C13.9367 26.6641 13.808 26.5169 13.6775 26.3714C13.5272 26.2036 13.3904 26.0223 13.2153 25.8798C12.8999 25.6232 12.5473 25.4722 12.141 25.4737C11.9197 25.4745 11.6984 25.4737 11.477 25.4737C11.029 25.4737 10.581 25.4739 10.133 25.4742C10.0862 25.4742 10.0353 25.4641 9.99979 25.5108V35.0046C10.0378 35.0538 10.0917 35.0414 10.1408 35.0415C10.7674 35.0424 11.3941 35.0426 12.0208 35.042C12.1702 35.042 12.3195 35.0452 12.4688 35.0407C12.7022 35.0336 12.8942 34.8543 12.9328 34.6157C12.9442 34.5392 12.9494 34.4619 12.9483 34.3846C12.9483 33.0014 12.9483 31.6186 12.9483 30.2359C12.9483 30.2022 12.9391 30.1659 12.9579 30.1354C12.9628 30.1353 12.9676 30.1363 12.9721 30.1383C12.9766 30.1404 12.9805 30.1434 12.9837 30.1473C13.1443 30.3356 13.3102 30.5188 13.4717 30.7058C13.708 30.9793 13.9454 31.2518 14.1837 31.5233C14.3517 31.7157 14.5197 31.9081 14.6877 32.1005C14.9211 32.3692 15.1549 32.6375 15.389 32.9055C15.5641 33.1061 15.7395 33.3065 15.9151 33.5066C16.1552 33.7806 16.3945 34.0552 16.6331 34.3303C16.7557 34.4722 16.8787 34.6137 17.002 34.7547C17.1328 34.9041 17.258 35.0586 17.3954 35.2012C17.4693 35.2778 17.5132 35.2775 17.5832 35.1974C17.7442 35.0134 17.9051 34.8292 18.0659 34.645C18.253 34.4297 18.4404 34.2145 18.6279 33.9996C18.7919 33.8109 18.9573 33.6234 19.1211 33.4345C19.3579 33.1615 19.5952 32.8891 19.8331 32.6174C20.0063 32.4188 20.1805 32.2209 20.3531 32.0219C20.5866 31.7533 20.8214 31.4859 21.0543 31.2169C21.1735 31.0793 21.2949 30.9437 21.4139 30.8058C21.5966 30.5938 21.7829 30.3852 21.9659 30.173C21.9801 30.1564 21.9931 30.1321 22.0219 30.1355C22.0319 30.1736 22.0275 30.2097 22.0275 30.2454C22.0275 31.6451 22.0276 33.0446 22.0279 34.4439C22.0279 34.502 22.0242 34.5601 22.0359 34.6175C22.0866 34.8695 22.2864 35.0408 22.5385 35.0414C23.2905 35.0436 24.0425 35.0422 24.7945 35.0421C24.9865 35.0421 24.9963 35.0319 24.9963 34.8286C24.9963 33.8578 24.9963 32.8871 24.9963 31.9163C24.9968 31.8727 24.9944 31.8291 24.9894 31.7858C24.9956 31.8161 25.004 31.8458 25.0146 31.8747C25.152 32.2572 25.3321 32.6173 25.5473 32.9583C25.8673 33.4657 26.2557 33.9105 26.7015 34.3027C27.0675 34.6245 27.4658 34.9047 27.8894 35.1386C28.3319 35.3833 28.7978 35.5794 29.2796 35.7235C29.8027 35.8805 30.333 35.9891 30.8796 35.9918C30.8796 35.9895 30.8796 35.9873 30.8796 35.9852C30.9116 35.9789 30.9431 35.9842 30.9747 35.9864H31.0387L31.1027 35.985C31.1621 35.9872 31.2227 35.9704 31.2802 36H31.6642C31.7164 35.9707 31.7722 35.9862 31.8267 35.9861L31.9051 35.9855L31.9531 35.9865L32.0327 35.9852C32.0327 35.9873 32.0327 35.9895 32.0327 35.9917H32.0363C32.2117 35.9857 32.3883 35.9848 32.5618 35.9622C32.9876 35.9054 33.4073 35.8078 33.8157 35.6706C34.5002 35.443 35.1411 35.1229 35.7319 34.6959C36.2025 34.3557 36.6258 33.9622 36.9907 33.5036C37.4695 32.9019 37.8307 32.2333 38.0391 31.4803C38.1991 30.9019 38.2707 30.314 38.2322 29.7113C38.2108 29.3693 38.1585 29.0302 38.076 28.6983C38.0397 28.5526 38.0404 28.5523 38.186 28.5523H43.0333C43.0493 28.5523 43.0653 28.5512 43.0813 28.5523C43.1017 28.5541 43.1283 28.544 43.1395 28.5681C43.1507 28.5921 43.1279 28.6083 43.1139 28.6236C42.8317 28.9322 42.5581 29.2491 42.2776 29.5595C42.132 29.7207 41.9874 29.8829 41.8437 30.0461C41.55 30.3813 41.2525 30.7128 40.9564 31.0456C40.8101 31.2101 40.6623 31.3731 40.5171 31.5385C40.2195 31.8775 39.9186 32.2133 39.6187 32.55C39.4759 32.7103 39.3311 32.8689 39.1905 33.0314C38.9179 33.3455 38.6393 33.6538 38.3637 33.9649C38.1403 34.2171 37.9173 34.4698 37.6911 34.7193C37.6327 34.7836 37.5751 34.8489 37.5179 34.9144C37.4973 34.938 37.4832 34.9647 37.4956 34.9974C37.508 35.03 37.5368 35.0374 37.5676 35.0396C37.6129 35.0428 37.6583 35.0421 37.7036 35.0421H41.863C44.4198 35.0421 46.9767 35.0421 49.5337 35.0421C49.8123 35.0421 49.9533 34.9242 50.0007 34.656V32.0004C49.9703 31.9589 49.9259 31.9637 49.8836 31.9636C49.6011 31.9627 49.3186 31.9636 49.036 31.9636C47.5007 31.9636 45.9654 31.9634 44.4301 31.9629C44.4024 31.9629 44.3625 31.9788 44.3496 31.9483C44.3367 31.9188 44.3707 31.8949 44.3907 31.8739ZM34.2147 31.6509C33.7955 32.2293 33.2322 32.5992 32.5705 32.8132C32.2143 32.9285 31.8487 32.9822 31.4753 32.9822C30.6647 32.9722 29.9257 32.7375 29.2822 32.2159C28.8029 31.8272 28.4556 31.3374 28.2916 30.7252C28.0691 29.8954 28.2131 29.1246 28.6911 28.4248C29.0811 27.8538 29.6126 27.4727 30.2438 27.2387C30.7454 27.0527 31.263 26.9877 31.7939 27.0345C32.4659 27.0939 33.0783 27.3197 33.619 27.7399C34.1123 28.1236 34.4759 28.6113 34.652 29.2291C34.9031 30.1104 34.7434 30.9214 34.2147 31.6509Z" fill="#4CBCEA"/>
</g>
<defs>
<clipPath id="clip0_176_241">
<rect width="40" height="12" fill="white" transform="translate(10 24)"/>
</clipPath>
</defs>
</svg>
