<svg width="64" height="64" viewBox="0 0 64 64" fill="none" xmlns="http://www.w3.org/2000/svg"><path fill="#fff" d="M0 0h64v64H0z"/><path d="M36.263 9c-.347 0-.67.075-.967.174.632.423.98.983 1.153 1.618.012.087.037.15.05.236.012.075.024.15.024.224.05 1.096-.285 1.233-.52 1.88-.36.834-.26 1.73.173 2.451.037.088.087.187.149.274-.471-3.148 2.144-3.621 2.628-4.604.037-.86-.67-1.432-1.227-1.83A2.73 2.73 0 0036.263 9zm3.942.71c-.05.286-.012.21-.025.36-.012.1-.012.224-.025.324a2.8 2.8 0 01-.086.299c-.025.1-.062.199-.1.298-.05.1-.086.187-.136.286-.037.05-.062.1-.1.15l-.073.112c-.063.087-.124.174-.186.249-.075.074-.137.161-.224.224v.012c-.074.062-.148.137-.235.2-.26.198-.558.348-.83.534-.087.063-.174.112-.248.187a1.819 1.819 0 00-.236.2c-.087.074-.149.149-.223.236-.062.074-.137.161-.186.248-.062.088-.124.175-.174.262-.05.1-.087.187-.136.286-.037.1-.074.187-.1.286-.036.112-.061.212-.086.311-.012.05-.012.112-.025.162-.012.05-.012.1-.025.15 0 .1-.012.211-.012.31 0 .075 0 .15.012.225 0 .1.013.199.038.31.012.1.037.2.062.3.037.1.062.199.099.298.025.062.062.125.087.174l-2.851-1.107a30.531 30.531 0 00-1.438-.373l-.781-.187a22.89 22.89 0 00-2.256-.336c-.025 0-.038-.013-.063-.013a22.067 22.067 0 00-2.218-.112c-.546 0-1.091.025-1.624.063a23.71 23.71 0 00-2.269.273 8.702 8.702 0 00-.558.1c-.384.075-.756.162-1.115.249l-.558.15c-.186.074-.36.16-.533.236l-.41.186c-.024.013-.049.013-.061.025-.124.062-.236.112-.347.174a5.49 5.49 0 00-.471.236c-.087.038-.174.088-.248.125-.037.025-.087.05-.112.063a7.38 7.38 0 00-.322.186c-.112.062-.21.125-.297.187s-.174.112-.248.174c-.013.013-.025.013-.038.025a3.15 3.15 0 00-.235.174l-.025.025-.186.15c-.025.012-.05.037-.074.05-.062.049-.124.111-.186.16-.013.026-.037.038-.05.05-.074.075-.149.138-.223.212-.012 0-.012.013-.025.025a3.474 3.474 0 00-.223.212c-.012.012-.012.025-.025.025-.062.062-.124.124-.186.199-.024.025-.061.05-.086.074-.062.075-.137.15-.211.224-.012.025-.037.038-.05.063-.099.1-.186.199-.285.298a7.296 7.296 0 01-.67.647c-.222.2-.458.386-.693.548a9.384 9.384 0 01-.744.473 7.559 7.559 0 01-.781.373c-.26.112-.533.212-.806.299-.52.112-1.053.323-1.512.36-.1 0-.21.026-.31.038-.112.025-.21.05-.31.075l-.297.112c-.1.037-.199.087-.298.137-.087.062-.186.112-.273.174a2.028 2.028 0 00-.248.212c-.086.062-.173.149-.248.224-.074.087-.148.161-.21.248-.062.1-.137.187-.186.287a2.189 2.189 0 00-.174.286c-.05.112-.099.212-.136.324a9.55 9.55 0 00-.112.323c-.024.1-.05.2-.062.299 0 .012-.012.025-.012.037-.025.112-.025.261-.037.336-.013.087-.025.162-.025.249 0 .05 0 .112.012.162.013.087.025.162.05.236.025.075.05.15.087.224v.013c.037.074.087.149.136.224.05.074.1.149.161.224.062.062.137.137.211.199.074.075.149.137.236.199.297.261.371.348.756.547.062.038.124.063.198.1.012 0 .025.012.037.012 0 .025 0 .038.013.063.012.1.037.199.062.298.024.112.062.212.099.3.037.074.062.148.099.223a.27.27 0 00.037.062c.05.1.1.187.149.274l.186.262c.062.074.136.161.21.236.075.075.15.137.236.212 0 0 .013.012.025.012.074.062.149.124.223.174.087.062.174.112.273.162.086.05.186.1.285.137.074.037.161.062.248.087.012.012.024.012.05.025l.16.037c-.037.672-.05 1.307.05 1.53.112.25.657-.51 1.203-1.38-.075.858-.124 1.866 0 2.165.136.311.88-.66 1.524-1.73 8.79-2.04 16.81 4.057 17.652 12.669-.16-1.344-1.81-2.09-2.566-1.904-.372.92-1.004 2.103-2.02 2.837a8.01 8.01 0 00-.124-2.489 8.063 8.063 0 01-1.537 3.137c-1.178.087-2.356-.486-2.975-1.345-.05-.037-.062-.112-.1-.161a2.331 2.331 0 01-.099-.262 1.039 1.039 0 01-.074-.261c-.012-.087-.012-.174-.012-.274v-.187a2 2 0 01.061-.26 2.15 2.15 0 01.087-.262c.05-.087.087-.174.149-.261.21-.598.21-1.083-.174-1.37a1.407 1.407 0 00-.235-.124c-.05-.012-.112-.037-.161-.05-.037-.012-.062-.025-.1-.037a1.852 1.852 0 00-.26-.062.94.94 0 00-.26-.038 2.009 2.009 0 00-.273-.024c-.062 0-.124.012-.186.012a.951.951 0 00-.272.037c-.087.013-.174.025-.26.05-.088.025-.174.05-.261.087-.087.038-.161.075-.248.112-.074.038-.149.087-.236.125-2.888 1.891-1.165 6.322.806 7.604-.744.136-1.5.298-1.71.46l-.025.025c.533.323 1.09.597 1.673.834.794.261 1.637.497 2.008.597v.012c1.03.212 2.07.287 3.124.224 5.492-.385 9.992-4.58 10.81-10.105.024.112.05.212.074.324.037.224.087.46.112.697v.012c.024.112.037.224.05.324v.05c.012.111.024.224.024.323.012.137.025.274.025.41v.2c0 .062.012.137.012.199 0 .075-.012.15-.012.224v.174c0 .087-.013.162-.013.25 0 .049 0 .099-.012.16 0 .088-.013.175-.013.275-.012.037-.012.074-.012.112l-.037.286c0 .037 0 .075-.013.112-.012.124-.037.236-.05.36v.026c-.024.112-.049.236-.074.348v.038l-.074.336c0 .012-.012.037-.012.05-.025.111-.05.223-.087.335v.038c-.037.124-.075.236-.1.348-.012.013-.012.025-.012.025l-.111.373c-.05.125-.087.237-.137.361-.05.125-.086.25-.136.361-.05.125-.1.237-.149.361h-.012c-.05.112-.1.237-.161.349-.013.037-.025.062-.037.087-.013.012-.013.025-.025.037a11.767 11.767 0 01-3.484 4.181 4.545 4.545 0 00-.297.212c-.025.025-.062.037-.087.062a5.301 5.301 0 01-.272.187l.037.075h.012l.52-.075h.013c.322-.05.645-.112.967-.174a2.24 2.24 0 00.273-.063c.062-.012.111-.024.173-.037.087-.012.174-.037.26-.05.075-.025.15-.037.224-.062 1.24-.298 2.442-.71 3.595-1.195A19.869 19.869 0 0130.462 57a20.33 20.33 0 004.227-.734 19.82 19.82 0 0011.714-9.396 19.905 19.905 0 01-3.335 8.002 19.534 19.534 0 003.31-2.763 19.756 19.756 0 005.219-10.578c.421 1.966.545 3.995.36 5.998 8.95-12.532.743-25.524-2.69-28.946-.013-.025-.025-.038-.025-.063-.013.013-.013.013-.013.025 0-.012 0-.012-.012-.025 0 .15-.013.3-.025.448-.037.287-.074.56-.124.834-.062.274-.136.548-.21.822-.087.261-.187.535-.298.796-.112.249-.236.51-.372.76a9.503 9.503 0 01-.955 1.381c-.185.224-.384.423-.582.622a8.092 8.092 0 01-.36.311l-.285.249a6.926 6.926 0 01-.694.485 8.2 8.2 0 01-.731.423c-.26.125-.52.237-.781.349-.26.1-.533.186-.806.261a9.986 9.986 0 01-.83.187c-.286.05-.57.075-.843.1-.199.012-.397.024-.596.024-.285 0-.57-.025-.842-.05a6.258 6.258 0 01-.843-.124 6.238 6.238 0 01-.83-.212h-.013a9.17 9.17 0 00.818-.1 8.946 8.946 0 001.636-.447c.273-.1.533-.224.781-.349.26-.124.496-.26.744-.41.235-.162.47-.324.694-.498a6.77 6.77 0 00.632-.56c.211-.187.397-.398.583-.61.186-.224.36-.448.52-.672.025-.037.05-.087.075-.124.124-.2.248-.399.36-.598a8.568 8.568 0 00.669-1.555c.086-.262.148-.535.21-.81.05-.285.1-.56.124-.833a9.9 9.9 0 00.05-.846c0-.2-.012-.399-.025-.598-.024-.286-.062-.56-.099-.833a9.08 9.08 0 00-.186-.834c-.087-.262-.173-.535-.273-.797a8.577 8.577 0 00-.347-.771 14.118 14.118 0 00-.421-.735c-.161-.236-.322-.46-.496-.684a27.18 27.18 0 00-.57-.635c-.1-.1-.21-.211-.323-.31a22.801 22.801 0 00-1.723-1.22 2.307 2.307 0 00-.247-.125c-.41-.261-.794-.398-1.178-.523z" fill="#000"/></svg>