<svg width="64" height="64" viewBox="0 0 64 64" fill="none" xmlns="http://www.w3.org/2000/svg"><path fill="#fff" d="M0 0h64v64H0z"/><path fill-rule="evenodd" clip-rule="evenodd" d="M43.233 17.04a.405.405 0 00-.347 0 .359.359 0 00-.173.295v8.782a.247.247 0 01-.08.18.185.185 0 01-.041.03.313.313 0 01-.243 0l-1.423-.818a.704.704 0 00-.694 0l-5.708 3.304a.695.695 0 00-.347.591v6.609c0 .244.139.47.347.591l5.708 3.305a.705.705 0 00.694 0l5.708-3.305a.695.695 0 00.347-.591V19.526a.677.677 0 00-.089-.337.705.705 0 00-.258-.272l-3.4-1.878zm-.52 16.782c0 .07-.035.121-.087.156l-1.96 1.13a.157.157 0 01-.174 0l-1.96-1.13a.205.205 0 01-.056-.054.178.178 0 01-.031-.102V31.56a.18.18 0 01.054-.13l.012-.01a.225.225 0 01.02-.017l1.961-1.13a.156.156 0 01.174 0l1.96 1.13a.183.183 0 01.087.157v2.26z" fill="#000"/><path d="M12.786 29.213a.747.747 0 00-.347-.609l-5.708-3.287a.706.706 0 00-.312-.087h-.052a.648.648 0 00-.312.087L.347 28.604a.702.702 0 00-.347.609l.017 8.852c0 .122.07.244.174.296.104.07.243.07.347 0l3.383-1.948a.695.695 0 00.347-.591v-4.14c0-.13.04-.255.109-.362a.712.712 0 01.238-.229l1.44-.835a.503.503 0 01.196-.075.88.88 0 01.15-.012.857.857 0 01.347.087l1.44.835a.695.695 0 01.348.592v4.139c0 .243.138.47.347.591l3.383 1.948a.312.312 0 00.347 0 .337.337 0 00.173-.296v-8.852zm51.063 2.109a.7.7 0 01-.196.17l-3.418 2a.314.314 0 01-.347 0 .337.337 0 01-.173-.296V31.56a.359.359 0 00-.174-.296l-1.787-1.026a.311.311 0 00-.346 0l-1.787 1.026a.28.28 0 00-.064.044.35.35 0 00-.11.252v2.087c0 .122.07.226.174.295l5.742 3.305a.288.288 0 01.12.112.349.349 0 01.053.184.336.336 0 01-.173.295l-3.435 1.913a.673.673 0 01-.677 0l-5.673-3.235a.747.747 0 01-.347-.608V29.3c0-.244.139-.47.347-.591l5.708-3.305a.704.704 0 01.694 0l5.673 3.305A.695.695 0 0164 29.3v1.6a.655.655 0 01-.089.33.714.714 0 01-.062.092zM23.16 25.37a.705.705 0 01.695 0l5.707 3.304a.695.695 0 01.347.591v6.609c0 .243-.138.47-.347.591l-5.707 3.305a.664.664 0 01-.218.08.728.728 0 01-.476-.08l-5.708-3.305a.695.695 0 01-.347-.591v-6.609c0-.243.139-.47.347-.591l5.708-3.304z" fill="#000"/><path d="M57.702 31.196c-.052-.018-.104-.018-.139 0l-1.093.626c-.051.035-.069.07-.069.121v1.27c0 .052.035.104.07.122l1.092.626a.25.25 0 00.067.013.149.149 0 00.072-.013l1.093-.626c.052-.035.07-.07.07-.122v-1.27a.146.146 0 00-.07-.121l-1.093-.626z" fill="#000"/></svg>