<svg width="64" height="64" viewBox="0 0 64 64" fill="none" xmlns="http://www.w3.org/2000/svg"><path fill="#fff" d="M0 0h64v64H0z"/><path fill-rule="evenodd" clip-rule="evenodd" d="M14.027 26.366c1.896 0 3.144.341 3.742 1.024.649.683.749 1.854.45 3.464-.35 1.707-.999 2.927-1.947 3.658-.948.732-2.445 1.122-4.441 1.122H8.837l1.846-9.268h3.344zM2 45h4.94l1.148-5.903h4.242c1.846 0 3.393-.195 4.591-.585a9.33 9.33 0 003.294-1.902 9.183 9.183 0 001.996-2.44 9.685 9.685 0 001.098-2.975c.498-2.634.15-4.683-1.198-6.146-1.298-1.464-3.393-2.195-6.238-2.195H6.391L2 45zm24.951-28h4.891l-1.148 5.902h4.342c2.744 0 4.64.488 5.689 1.415 1.048.927 1.347 2.44.948 4.537l-2.046 10.292h-4.99l1.946-9.805c.2-1.122.15-1.853-.25-2.292-.399-.39-1.197-.586-2.445-.586h-3.892L27.45 39.146h-4.89L26.952 17zm25.551 9.366c1.896 0 3.143.341 3.742 1.024.649.683.749 1.854.45 3.464-.35 1.707-.999 2.927-1.947 3.658-.948.732-2.445 1.122-4.441 1.122h-2.994l1.846-9.268h3.344zM40.475 45h4.94l1.148-5.902h4.242c1.846 0 3.393-.195 4.591-.586a9.33 9.33 0 003.294-1.902 9.185 9.185 0 001.996-2.44 9.687 9.687 0 001.097-2.975c.5-2.634.15-4.683-1.197-6.146-1.298-1.464-3.393-2.195-6.238-2.195h-9.481L40.474 45z" fill="#000"/></svg>