<svg width="64" height="64" viewBox="0 0 64 64" fill="none" xmlns="http://www.w3.org/2000/svg"><path fill="#fff" d="M0 0h64v64H0z"/><path d="M40.68 13.37c2.838-.584 5.89-.515 8.637.481a11.408 11.408 0 014.854 3.417c.606.722.678 1.7.714 2.594.017 2.13-.429 4.241-.982 6.285-1.088 3.795-2.748 7.436-4.818 10.819-.214.326-.428.653-.678.962a12.258 12.258 0 01-.071-.378c.09-.235.198-.466.307-.697v-.002c.194-.409.387-.82.478-1.259.406-1.538.218-3.107.032-4.658v-.012a45.85 45.85 0 01-.14-1.255c-.109-1.034.048-2.052.205-3.072.125-.809.25-1.62.242-2.44.071-.91-.303-1.769-.66-2.576-1.303-2.817-3.39-5.324-6.067-7.058a16.215 16.215 0 00-.914-.503c-.39-.205-.778-.407-1.138-.648z" fill="#000"/><path d="M30.772 14.247c3.497-.43 7.173.498 9.956 2.61 2.302 1.752 4.105 4.122 5.086 6.766l-.044-.001c-1.613-.052-3.43-.11-4.738.963-1.196.962-1.338 2.61-1.07 4.001.456 2.412 1.657 4.557 2.856 6.697.44.787.88 1.572 1.283 2.37.333.582.767 1.115 1.196 1.64l.16.197.071.087-.152.073c-.562.267-1.144.544-1.471 1.095-.423.646-.447 1.393-.471 2.14-.011.325-.021.65-.065.968-.339 2.902-.678 5.805-1.177 8.672-.232 1.374-.839 2.851-2.195 3.538-1.392.687-2.998 1.1-4.55.876-1.481-.258-2.41-1.58-2.837-2.868-.253-.9-.32-1.836-.387-2.769l-.017-.242a47.811 47.811 0 00-.025-.32 94.013 94.013 0 01-.071-8.089c.053-1.048-.5-2.147-1.481-2.662-.457-.253-1.018-.29-1.529-.325l-.024-.001c.208-.997.633-1.928 1.058-2.86.418-.914.836-1.829 1.048-2.807.553-2.456.25-4.998-.321-7.419-.286-1.202-1.231-2.267-2.498-2.576-1.963-.48-3.926.258-5.675 1.048.215-2.731.982-5.53 2.73-7.763 1.25-1.666 3.23-2.782 5.354-3.04z" fill="#000"/><path d="M23.437 15.153c-2.98-.876-6.174-1.495-9.297-.91-1.945.36-3.8 1.425-4.818 3.108-1.32 2.215-1.463 4.894-1.23 7.384.463 3.28 1.266 6.492 2.23 9.669.874 2.679 1.802 5.375 3.354 7.762.571.807 1.232 1.717 2.266 2.01.893.17 1.589-.533 2.106-1.117.731-.877 1.512-1.72 2.293-2.562v-.002l.003-.002.003-.003.304-.329.216-.233c.282-.306.562-.612.839-.922-1.767-1.546-2.73-3.915-2.409-6.217.268-1.751.303-3.555.196-5.323-.196-2.525.179-5.084 1-7.488.606-1.786 1.623-3.434 2.944-4.825z" fill="#000"/><path fill-rule="evenodd" clip-rule="evenodd" d="M42.624 27.57c.642-.444 1.464-.395 2.224-.349l.258.015c-.013.454-.081.903-.15 1.35-.098.646-.195 1.29-.13 1.944.014.174.031.35.051.527l.047.396c.133 1.097.27 2.216-.254 3.231-.228-.437-.473-.868-.718-1.3-.726-1.28-1.455-2.565-1.764-4.006-.101-.603-.123-1.378.436-1.808zm.268.258c-.235.194.022.474.224.56.492.28 1.174-.108 1.196-.657-.447-.204-1.006-.183-1.42.097zm-15.95.372c-1-.059-1.969.348-2.804.864l.014.458.007.18c.023.64.046 1.285 0 1.94-.01.247-.041.494-.072.741-.064.507-.128 1.014-.01 1.52.257 1.33 1.494 2.51 2.947 2.5.206-.674.453-1.339.763-1.973.876-1.657.731-3.61.278-5.356-.124-.496-.598-.853-1.123-.873zm-.712.755c-.02-.15.114-.238.237-.278.392-.1.866-.05 1.175.198.227.179.02.466-.175.576-.443.317-1.144.01-1.237-.496z" fill="#000"/><path d="M46.38 41.86c.498-.347 1.209-.694 1.777-.3 2.148 1.099 4.59.765 6.905.448h.003c.315-.044.626-.086.935-.125-1.587 1.504-3.767 2.198-5.923 2.43-1.422.161-2.915.208-4.289-.255v-.144c-.003-.71-.007-1.534.592-2.054zm-20.796 2.265c-.573.7-1.146 1.398-1.987 1.828-.912.508-1.932.721-2.95.934-.832.174-1.663.347-2.434.682 3.48 1.667 8.294 1.077 10.714-2 1.25-1.077.054-3.385-1.577-3.154-.725.439-1.246 1.075-1.766 1.71z" fill="#000"/></svg>