<svg width="60" height="60" viewBox="0 0 60 60" fill="none" xmlns="http://www.w3.org/2000/svg">
<rect opacity="0.2" width="60" height="60" rx="15" fill="white"/>
<g clip-path="url(#clip0_173_180)">
<path d="M30.0048 46.4895C26.4262 46.4895 22.848 46.4899 19.27 46.4907C17.87 46.4924 16.6271 46.0525 15.5349 45.1864C14.9444 44.7184 14.4707 44.147 14.0993 43.4891C13.7394 42.8495 13.5138 42.1648 13.404 41.4418C13.3579 41.1376 13.335 40.8304 13.3353 40.5228C13.3334 33.6793 13.3334 26.8358 13.3353 19.9921C13.3353 18.9799 13.5584 18.0162 14.0405 17.1198C14.2808 16.6741 14.577 16.261 14.922 15.8905C15.5109 15.2515 16.2357 14.7527 17.0429 14.431C17.6102 14.2038 18.2095 14.0666 18.8191 14.0241C19.1165 14.0022 19.4129 14.0017 19.7098 14.0017C26.7104 14.0007 33.7106 14.0007 40.7101 14.0017C41.7079 14.0017 42.6552 14.2247 43.538 14.6937C44.185 15.0365 44.7614 15.4985 45.2368 16.0553C45.9107 16.8399 46.3493 17.7383 46.5526 18.7503C46.6279 19.1235 46.6661 19.5033 46.6667 19.884C46.6649 26.7901 46.6646 33.6963 46.6659 40.6025C46.6672 41.4874 46.4687 42.3613 46.0852 43.1589C45.8306 43.6931 45.4944 44.175 45.0889 44.6105C44.5914 45.1469 43.999 45.5866 43.3415 45.9074C42.7311 46.206 42.0862 46.3835 41.411 46.46C41.1871 46.4855 40.9638 46.4884 40.7397 46.4884C37.1615 46.4894 33.5832 46.4898 30.0048 46.4895Z" fill="#001834"/>
<path d="M20.8419 29.651C20.8419 27.3091 20.8419 24.9671 20.8419 22.625C20.8419 22.3577 20.8469 22.3569 21.1127 22.351C21.8684 22.3341 22.6241 22.3109 23.38 22.2953C24.0735 22.2807 24.7668 22.2549 25.4605 22.2671C26.0709 22.2779 26.6793 22.3217 27.2779 22.4504C28.0864 22.6241 28.8429 22.9189 29.5127 23.4163C30.3539 24.0405 30.8984 24.865 31.1603 25.8733C31.4372 26.9389 31.399 28.0028 31.0708 29.0502C30.7799 29.9787 30.1991 30.7016 29.4179 31.2684C28.8218 31.7008 28.1491 31.9593 27.4355 32.1204C26.7253 32.2805 26.005 32.342 25.2783 32.3448C24.9134 32.3461 24.5483 32.3462 24.1838 32.3207C24.1007 32.3149 24.017 32.3207 23.9334 32.3185C23.8725 32.3171 23.8494 32.3461 23.8523 32.4044C23.8545 32.4461 23.8523 32.4878 23.8523 32.5296V36.6612C23.8523 36.7081 23.8547 36.7551 23.8509 36.802C23.8423 36.9052 23.7868 36.9606 23.6824 36.9714C23.6459 36.9738 23.6093 36.9744 23.5728 36.9731H21.1171C21.0858 36.9731 21.0545 36.9742 21.0232 36.9721C20.8928 36.9635 20.8502 36.92 20.843 36.7864C20.8405 36.7394 20.843 36.6925 20.843 36.6455L20.8419 29.651Z" fill="#00AAFF"/>
<path d="M32.825 35.1858V34.0903C32.825 34.0538 32.8236 34.0172 32.825 33.9807C32.8335 33.8233 32.8957 33.7878 33.0328 33.8648C33.4109 34.0773 33.8025 34.2587 34.2175 34.3875C35.046 34.6446 35.8903 34.7814 36.7603 34.7182C37.0264 34.6988 37.288 34.6531 37.5303 34.5329C37.807 34.3959 37.9538 34.0771 37.8639 33.8003C37.8126 33.6415 37.7037 33.5209 37.5757 33.4184C37.4243 33.2972 37.255 33.2056 37.0802 33.1227C36.6799 32.9327 36.263 32.7837 35.8523 32.619C35.2107 32.3619 34.5983 32.0485 34.0563 31.6175C33.531 31.1998 33.133 30.6819 32.9596 30.0212C32.7585 29.2521 32.8244 28.5019 33.1619 27.78C33.4906 27.0757 34.0286 26.5784 34.7127 26.228C35.3121 25.9209 35.9539 25.7815 36.6209 25.7334C37.4575 25.6733 38.2876 25.7334 39.1142 25.8586C39.4659 25.9125 39.804 26.0172 40.1357 26.1449C40.2513 26.1893 40.3089 26.2727 40.3142 26.3943C40.316 26.4308 40.3156 26.4674 40.3156 26.5039C40.3156 27.208 40.3156 27.9123 40.3156 28.6166C40.3156 28.8603 40.1875 28.9407 39.9627 28.8276C39.6472 28.6657 39.3149 28.5389 38.9718 28.4493C38.2508 28.2662 37.5203 28.1642 36.7741 28.2069C36.5807 28.2179 36.3919 28.2603 36.2071 28.315C35.7723 28.4441 35.5573 28.9913 35.941 29.3773C36.0518 29.4888 36.1731 29.5877 36.3138 29.659C36.4949 29.7512 36.6763 29.8429 36.86 29.9293C37.091 30.0378 37.3268 30.1349 37.5675 30.2204C38.2359 30.4579 38.875 30.771 39.4724 31.1534C40.2277 31.6386 40.7338 32.3053 40.8571 33.2125C41.0423 34.5756 40.531 35.8094 39.3003 36.5625C38.7776 36.8822 38.201 37.0619 37.5991 37.1572C36.3833 37.3508 35.1775 37.2713 33.9825 36.9954C33.6626 36.9215 33.3544 36.8066 33.0532 36.6739C32.8912 36.6024 32.8152 36.4972 32.8208 36.3113C32.8332 35.9371 32.825 35.5614 32.825 35.1858Z" fill="#00AAFF"/>
<path d="M23.8735 27.3639V25.2211C23.8735 25.1795 23.8746 25.1377 23.8744 25.0959C23.8744 25.0437 23.9013 25.0211 23.9517 25.0208C23.9777 25.0208 24.0037 25.0167 24.03 25.0169C24.609 25.0194 25.187 24.9883 25.7654 25.0117C26.2543 25.0318 26.7266 25.1347 27.1685 25.3484C27.8213 25.6637 28.1769 26.2005 28.2873 26.9055C28.3418 27.2534 28.3161 27.6024 28.2495 27.9472C28.1417 28.5053 27.8067 28.9009 27.3418 29.2023C27.0349 29.4015 26.6898 29.5006 26.3402 29.5848C25.9341 29.6809 25.5177 29.7264 25.1004 29.72C24.7561 29.7164 24.4118 29.7264 24.0685 29.709C24.032 29.7072 23.9955 29.7047 23.9589 29.7028C23.9037 29.7001 23.8713 29.6765 23.8738 29.6161C23.8755 29.5744 23.8738 29.5327 23.8738 29.4909L23.8735 27.3639Z" fill="#001834"/>
</g>
<defs>
<clipPath id="clip0_173_180">
<rect width="33.3333" height="32.4906" fill="white" transform="translate(13.3333 14)"/>
</clipPath>
</defs>
</svg>
