<svg width="64" height="64" viewBox="0 0 64 64" fill="none" xmlns="http://www.w3.org/2000/svg"><path fill="#fff" d="M0 0h64v64H0z"/><path d="M8.763 49.76V14.582c0-.24.1-.376.333-.376.567 0 1.1 0 1.867-.034.8-.034 1.633-.034 2.533-.068.9-.035 1.867-.035 2.9-.069S18.429 14 19.429 14c2.734 0 5 .342 6.867 1.06 1.667.581 3.2 1.538 4.467 2.803a10.92 10.92 0 012.433 3.898c.5 1.436.767 2.906.767 4.444 0 2.94-.667 5.368-2 7.282a11.456 11.456 0 01-5.367 4.171c-2.267.855-4.767 1.163-7.5 1.163-.8 0-1.333 0-1.667-.035-.333-.034-.8-.034-1.433-.034v10.974a.423.423 0 01-.367.48H9.163c-.267 0-.4-.138-.4-.445zm7.266-28.957v11.488c.467.034.9.068 1.3.068h1.767c1.3 0 2.6-.205 3.833-.615 1.067-.308 2-.958 2.734-1.812.7-.855 1.033-2.017 1.033-3.522a5.74 5.74 0 00-.767-3.043c-.566-.888-1.366-1.572-2.333-1.948-1.233-.513-2.567-.718-3.933-.684-.867 0-1.634 0-2.267.034-.667-.034-1.133 0-1.367.034zm38.734 9.402c-1-.547-2.067-.923-3.2-1.162-1.234-.274-2.467-.445-3.734-.445-.666-.034-1.366.069-2 .24a1.71 1.71 0 00-1.033.683 1.847 1.847 0 00-.267.923c0 .308.134.616.334.89.3.375.7.683 1.133.922.767.41 1.567.787 2.367 1.129 1.8.615 3.533 1.47 5.133 2.495 1.1.718 2 1.675 2.633 2.838.534 1.094.8 2.29.767 3.521a8.103 8.103 0 01-1.3 4.547 8.394 8.394 0 01-3.733 3.043c-1.634.718-3.634 1.094-6.034 1.094-1.533 0-3.033-.137-4.533-.444a13.205 13.205 0 01-3.4-1.094c-.233-.137-.4-.377-.367-.65v-5.949c0-.102.034-.239.134-.307.1-.069.2-.035.3.034 1.3.786 2.666 1.333 4.133 1.675 1.267.342 2.6.513 3.933.513 1.267 0 2.167-.171 2.767-.479.533-.24.9-.82.9-1.436 0-.478-.267-.923-.8-1.367-.533-.445-1.633-.957-3.267-1.607a20.205 20.205 0 01-4.733-2.462 8.78 8.78 0 01-2.533-2.906 7.493 7.493 0 01-.767-3.487 8.2 8.2 0 011.133-4.137 8.285 8.285 0 013.5-3.145c1.567-.82 3.534-1.196 5.9-1.196 1.367 0 2.767.102 4.134.307 1 .137 1.966.41 2.866.787.134.034.267.17.334.307.033.137.066.274.066.41v5.573a.424.424 0 01-.166.342c-.3.069-.467.069-.6 0z" fill="#000"/></svg>