<svg width="40" height="34" viewBox="0 0 40 34" fill="none" xmlns="http://www.w3.org/2000/svg">
<path d="M18.4615 4.63636V21.6364C18.4615 23.3106 18.137 24.9084 17.488 26.4297C16.8389 27.951 15.9615 29.267 14.8558 30.3778C13.75 31.4886 12.4399 32.37 10.9255 33.022C9.41106 33.674 7.82051 34 6.15385 34H4.61538C4.19872 34 3.83814 33.8471 3.53365 33.5412C3.22917 33.2353 3.07692 32.8731 3.07692 32.4545V29.3636C3.07692 28.9451 3.22917 28.5829 3.53365 28.277C3.83814 27.9711 4.19872 27.8182 4.61538 27.8182H6.15385C7.85256 27.8182 9.30289 27.2145 10.5048 26.0071C11.7067 24.7997 12.3077 23.3428 12.3077 21.6364V20.8636C12.3077 20.2197 12.0833 19.6723 11.6346 19.2216C11.1859 18.7708 10.641 18.5455 10 18.5455H4.61538C3.33333 18.5455 2.24359 18.0947 1.34615 17.1932C0.448718 16.2917 0 15.197 0 13.9091V4.63636C0 3.34848 0.448718 2.25379 1.34615 1.35227C2.24359 0.450758 3.33333 0 4.61538 0H13.8462C15.1282 0 16.2179 0.450758 17.1154 1.35227C18.0128 2.25379 18.4615 3.34848 18.4615 4.63636ZM40 4.63636V21.6364C40 23.3106 39.6755 24.9084 39.0264 26.4297C38.3774 27.951 37.5 29.267 36.3942 30.3778C35.2885 31.4886 33.9784 32.37 32.4639 33.022C30.9495 33.674 29.359 34 27.6923 34H26.1538C25.7372 34 25.3766 33.8471 25.0721 33.5412C24.7676 33.2353 24.6154 32.8731 24.6154 32.4545V29.3636C24.6154 28.9451 24.7676 28.5829 25.0721 28.277C25.3766 27.9711 25.7372 27.8182 26.1538 27.8182H27.6923C29.391 27.8182 30.8413 27.2145 32.0433 26.0071C33.2452 24.7997 33.8462 23.3428 33.8462 21.6364V20.8636C33.8462 20.2197 33.6218 19.6723 33.1731 19.2216C32.7244 18.7708 32.1795 18.5455 31.5385 18.5455H26.1538C24.8718 18.5455 23.7821 18.0947 22.8846 17.1932C21.9872 16.2917 21.5385 15.197 21.5385 13.9091V4.63636C21.5385 3.34848 21.9872 2.25379 22.8846 1.35227C23.7821 0.450758 24.8718 0 26.1538 0H35.3846C36.6667 0 37.7564 0.450758 38.6538 1.35227C39.5513 2.25379 40 3.34848 40 4.63636Z" fill="#2BC4F7"/>
</svg>
