<svg width="60" height="60" viewBox="0 0 60 60" fill="none" xmlns="http://www.w3.org/2000/svg">
<rect opacity="0.2" width="60" height="60" rx="15" fill="white"/>
<g clip-path="url(#clip0_176_289)">
<path d="M34.301 47.1149C34.4567 47.126 34.4744 47.0279 34.4772 46.9047C34.4983 46.3279 34.5212 45.7511 34.55 45.1743C34.5916 44.3443 34.6419 43.5146 34.6828 42.6846C34.7342 41.6409 34.772 40.5965 34.8303 39.5535C34.8823 38.6254 34.9267 37.6972 34.969 36.7687C35.0137 35.7829 35.0831 34.7978 35.1247 33.8117C35.1514 33.1714 35.1941 32.5322 35.2142 31.8912C35.2406 31.0435 35.3006 30.1965 35.3446 29.3495C35.4013 28.2601 35.4569 27.1705 35.5115 26.0807C35.5413 25.4696 35.5618 24.8577 35.5923 24.2462C35.6336 23.4103 35.6814 22.5751 35.7251 21.7392C35.7825 20.6323 35.8388 19.5254 35.8941 18.4188C35.9121 18.0556 35.9242 17.6904 35.9371 17.3286C35.935 17.2419 35.9467 17.1553 35.9718 17.0723C36.1105 17.0927 36.2146 17.1711 36.3106 17.2669C36.9176 17.8692 37.525 18.4712 38.1326 19.0729C38.1986 19.1455 38.2903 19.1896 38.3883 19.1957C39.2183 19.2505 40.048 19.3112 40.878 19.3691C41.1787 19.3899 41.2509 19.4496 41.2942 19.7465C41.5194 21.2609 41.7434 22.7755 41.9661 24.2903C42.3425 26.8267 42.719 29.3638 43.0954 31.9016C43.4952 34.6048 43.8948 37.3078 44.2941 40.0107C44.5255 41.5764 44.7544 43.1424 44.9937 44.7071C45.0194 44.8739 44.9643 44.911 44.8203 44.9419C41.5786 45.6388 38.3375 46.3381 35.097 47.0397C34.9503 47.0716 34.8039 47.1059 34.6565 47.1344C34.5375 47.1559 34.4168 47.1749 34.301 47.1149Z" fill="#5F8C3E"/>
<path d="M36.02 17.2156C36.0226 17.1636 36.0057 17.1124 35.9725 17.0723C35.799 16.986 35.6225 17.022 35.4522 17.0675C35.1773 17.1353 34.9062 17.2174 34.6398 17.3134C34.4609 17.3828 34.4061 17.3203 34.3502 17.1615C34.1012 16.4539 33.7762 15.7841 33.2871 15.2083C32.633 14.438 31.8303 13.9725 30.7849 14.0235C30.6871 14.0283 30.6417 13.9784 30.5872 13.9142C30.0246 13.251 29.3039 12.9482 28.4395 13.0072C27.4177 13.0766 26.5363 13.5067 25.7375 14.1171C24.5527 15.0235 23.7452 16.226 23.0966 17.5472C22.5368 18.6873 22.1254 19.8818 21.8226 21.1142C21.7907 21.2439 21.7317 21.3053 21.6055 21.3417C21.2239 21.4524 20.8424 21.5748 20.4629 21.6952C19.7089 21.9338 18.9559 22.1777 18.2004 22.4132C17.8404 22.5252 17.6392 22.76 17.5986 23.1336C17.5945 23.1735 17.5868 23.2134 17.5816 23.2536C17.3379 25.162 17.0939 27.0704 16.8498 28.9787C16.5547 31.2712 16.2587 33.5636 15.9618 35.8558C15.6429 38.3372 15.3237 40.8183 15.0042 43.2993C14.984 43.4557 15.0166 43.5074 15.171 43.5351C17.528 43.9726 19.8843 44.4136 22.2399 44.858C25.3615 45.4444 28.4841 46.0311 31.6077 46.618C32.5046 46.7862 33.4026 46.9499 34.2999 47.1153C34.5136 47.1424 34.5556 47.1153 34.5559 46.9103C34.5559 46.644 34.5961 46.3811 34.5982 46.1147C34.6031 45.549 34.6579 44.985 34.6752 44.4192C34.695 43.779 34.7553 43.1408 34.7734 42.5001C34.788 41.9798 34.823 41.462 34.8507 40.9434C34.8962 40.0846 34.9409 39.2262 34.9777 38.3667C34.9895 38.0892 35.0072 37.8117 35.0224 37.5366C35.055 36.9433 35.0847 36.3497 35.1116 35.7559C35.1362 35.2009 35.1778 34.6494 35.1962 34.0955C35.2174 33.4549 35.2749 32.8163 35.2902 32.1757C35.3034 31.6207 35.3453 31.0685 35.3707 30.515C35.4112 29.6333 35.4588 28.7512 35.4993 27.8692C35.5225 27.3503 35.5486 26.8315 35.5777 26.3128C35.6225 25.5061 35.6492 24.6982 35.7057 23.8921C35.7432 23.3622 35.7477 22.8308 35.78 22.3008C35.8344 21.4076 35.8642 20.5135 35.9166 19.6207C35.9371 19.2738 35.9399 18.9269 35.9627 18.5825C35.994 18.1271 36.0293 17.6724 36.02 17.2156ZM25.8742 19.8347C25.845 19.981 25.7882 20.0577 25.6366 20.1028C24.8676 20.3321 24.1028 20.5762 23.3359 20.8128C23.2835 20.8291 23.2319 20.8655 23.1566 20.8405C23.2253 20.5563 23.3085 20.2758 23.406 20.0001C23.8388 18.7001 24.3876 17.457 25.212 16.3516C25.8589 15.4844 26.6366 14.7755 27.6643 14.3828C28.0829 14.2226 28.512 14.1085 28.9671 14.2014C29.12 14.2255 29.2646 14.2872 29.3878 14.3811C28.9635 14.5834 28.5701 14.8451 28.2196 15.1584C27.4291 15.8698 26.9016 16.7581 26.503 17.73C26.2258 18.4095 26.0152 19.1144 25.8742 19.8347ZM30.4079 18.6255L27.5814 19.5076C27.4624 19.5447 27.3428 19.5804 27.1867 19.6279C27.5464 18.3172 28.016 17.116 28.9872 16.1781C29.2801 15.8987 29.615 15.6671 29.9799 15.4917C30.1079 15.4289 30.1429 15.4654 30.1814 15.585C30.4852 16.5253 30.556 17.4948 30.5577 18.4746C30.5584 18.5912 30.4839 18.6016 30.4079 18.6255ZM33.2625 17.7338C32.789 17.8801 32.3149 18.0251 31.8404 18.1736C31.6906 18.2204 31.7263 18.1115 31.7249 18.0404C31.7117 17.3758 31.6593 16.7154 31.5261 16.0633C31.4769 15.8205 31.4138 15.5805 31.3409 15.344C31.3004 15.2115 31.3364 15.1931 31.4554 15.2194C31.8317 15.303 32.1286 15.5125 32.378 15.7963C32.8411 16.3224 33.1095 16.9513 33.326 17.6068C33.3294 17.6179 33.3315 17.6294 33.3343 17.6415C33.3541 17.705 33.3083 17.7196 33.2625 17.7338Z" fill="#93BD46"/>
<path d="M28.3892 24.6919C29.0857 24.7033 29.905 24.7748 30.6836 25.1001C30.8411 25.166 30.8824 25.2288 30.8224 25.404C30.4221 26.5611 30.0343 27.7227 29.6486 28.885C29.6021 29.0262 29.564 29.0636 29.4124 28.9939C28.5229 28.579 27.5413 28.4006 26.5627 28.4761C26.2208 28.4977 25.889 28.6011 25.5953 28.7775C24.7833 29.2717 24.6366 30.2915 25.2745 30.9973C25.5752 31.33 25.9311 31.595 26.3084 31.834C27.1829 32.3889 27.9862 33.0198 28.5977 33.8735C29.2165 34.7406 29.4835 35.7083 29.4648 36.7589C29.4471 37.8342 29.2158 38.8591 28.6646 39.7921C27.9109 41.0675 26.7732 41.7886 25.3178 41.969C23.4979 42.1944 21.8333 41.7474 20.3381 40.6836C20.0842 40.5013 19.8516 40.2913 19.6444 40.0575C19.614 40.0277 19.5931 39.9895 19.5844 39.9478C19.5757 39.9062 19.5795 39.8628 19.5954 39.8234C19.8676 38.9343 20.1365 38.044 20.4022 37.1526C20.4463 37.0041 20.4945 37.0198 20.5961 37.0999C21.1559 37.5421 21.7487 37.9323 22.4157 38.1959C22.8198 38.3555 23.2322 38.4855 23.6737 38.4911C24.6571 38.5029 25.1683 37.7707 25.058 36.8678C24.998 36.3781 24.733 35.9858 24.3952 35.6386C24.108 35.3434 23.7799 35.0975 23.4542 34.8478C22.8878 34.4131 22.3671 33.9331 21.9808 33.3216C21.4903 32.5471 21.2562 31.7039 21.2923 30.7872C21.3471 29.3938 21.7685 28.1313 22.6613 27.0484C23.5697 25.9465 24.7566 25.2906 26.1263 24.943C26.8249 24.7661 27.536 24.6912 28.3892 24.6919Z" fill="#FEFEFE"/>
</g>
<defs>
<clipPath id="clip0_176_289">
<rect width="30" height="34.155" fill="white" transform="translate(15 13)"/>
</clipPath>
</defs>
</svg>
