<svg width="64" height="64" viewBox="0 0 64 64" fill="none" xmlns="http://www.w3.org/2000/svg"><path d="M64 0H0v64h64V0z" fill="#fff"/><path d="M6.157 28.585l24.935 28.74-14.83-28.74H6.157z" fill="#000"/><path d="M31.092 57.981c-.132 0-.394-.13-.525-.262L5.632 28.848c-.13-.132-.262-.525-.13-.656a.722.722 0 01.655-.394h10.105c.263 0 .525.131.525.394l14.83 28.87c.13.263 0 .657-.263.788 0 .131-.131.131-.262.131zM7.6 29.241l20.341 23.622L15.87 29.241H7.6z" fill="#fff"/><path d="M32.929 57.325l24.934-28.74H47.758L32.93 57.325z" fill="#000"/><path d="M32.929 57.981c-.131 0-.263 0-.394-.13-.262-.132-.393-.526-.262-.788l14.83-28.872c.13-.262.393-.393.524-.393h10.105a.72.72 0 01.656.394c.131.262.131.524-.131.656l-24.934 28.87c0 .263-.263.263-.394.263zm15.223-28.74L36.078 52.863 56.42 29.241h-8.268z" fill="#fff"/><path d="M16.656 28.585L32.01 58.244l15.355-29.659h-30.71z" fill="#000"/><path d="M32.01 58.9c-.262 0-.525-.131-.525-.394L16.131 28.848c-.131-.263-.131-.394 0-.656.131-.132.394-.263.525-.263h30.577c.263 0 .394.131.525.263.131.13.131.393 0 .656l-15.223 29.79c0 .13-.262.262-.525.262zM17.837 29.241l14.173 27.56 14.174-27.69H17.837v.13z" fill="#fff"/><path d="M31.485 11.787l-14.042 1.444-.787 14.567 14.83-16.01z" fill="#000"/><path d="M16.656 28.454h-.262a.722.722 0 01-.394-.656l.787-14.567c0-.262.263-.525.525-.656l14.042-1.444c.262 0 .525.131.656.394.131.262.131.525-.131.787l-14.83 15.88c-.13.13-.262.262-.393.262zm1.312-14.698l-.656 12.204L29.78 12.575l-11.81 1.18z" fill="#fff"/><path d="M46.577 13.231l-14.042-1.444 14.83 16.01-.788-14.566z" fill="#000"/><path d="M47.365 28.454c-.132 0-.394-.131-.525-.262l-14.83-16.01c-.13-.263-.262-.526-.13-.788a.722.722 0 01.655-.394l14.042 1.444c.263 0 .525.262.525.656l.788 14.567a.722.722 0 01-.394.656c.131.131 0 .131-.131.131zM34.24 12.574l12.467 13.387-.656-12.205-11.81-1.181z" fill="#fff"/><path d="M57.863 28.192L46.971 13.625l.787 14.567h10.105z" fill="#000"/><path d="M57.863 28.848H47.758c-.393 0-.656-.263-.656-.656l-.787-14.436c0-.263.13-.525.393-.656s.525 0 .788.262l10.892 14.436c.131.262.131.525 0 .656s-.262.394-.525.394zm-9.449-1.313h8.137l-8.793-11.68.656 11.68z" fill="#fff"/><path d="M17.05 13.625L6.157 28.192h10.105l.788-14.567z" fill="#000"/><path d="M16.262 28.848H6.157c-.262 0-.525-.131-.525-.394 0-.262-.13-.525 0-.656l10.893-14.436c.131-.262.525-.262.787-.262a.722.722 0 01.394.656l-.787 14.436c-.132.262-.394.656-.657.656zM7.47 27.535h8.136l.656-11.68-8.792 11.68z" fill="#fff"/><path d="M47.233 28.192L32.01 11.787 16.787 28.191h30.446z" fill="#000"/><path d="M47.233 28.848H16.787a.722.722 0 01-.656-.394c-.131-.262 0-.525.131-.656l15.223-16.404a.634.634 0 01.919 0l15.223 16.404c.131.131.262.525.131.656-.13.131-.262.394-.525.394zm-28.87-1.313h27.296L32.01 12.706l-13.648 14.83z" fill="#fff"/></svg>