<svg width="28" height="28" viewBox="0 0 28 28" fill="none" xmlns="http://www.w3.org/2000/svg">
<path d="M25.953 2.04656L12.3006 15.6989M2.11236 10.7149L25.5499 1.84441C25.6344 1.81207 25.7265 1.8049 25.8151 1.82378C25.9036 1.84265 25.9848 1.88676 26.0488 1.95077C26.1128 2.01478 26.1569 2.09596 26.1758 2.18449C26.1946 2.27302 26.1875 2.36513 26.1551 2.44968L17.2846 25.8872C17.2493 25.9762 17.1877 26.0523 17.1079 26.1052C17.0281 26.1581 16.934 26.1852 16.8382 26.1831C16.7425 26.1809 16.6498 26.1495 16.5724 26.093C16.4951 26.0366 16.4369 25.9578 16.4057 25.8673L12.4565 16.1354C12.4105 15.9975 12.333 15.8722 12.2302 15.7694C12.1274 15.6666 12.002 15.5891 11.8641 15.543L2.13229 11.5973C2.04061 11.5668 1.9606 11.5087 1.9032 11.431C1.8458 11.3533 1.81382 11.2597 1.81164 11.1631C1.80946 11.0665 1.83718 10.9716 1.89102 10.8914C1.94485 10.8112 2.02216 10.7495 2.11236 10.7149V10.7149Z" stroke="#623EFD" stroke-width="2" stroke-linecap="round" stroke-linejoin="round"/>
</svg>
