<svg width="64" height="64" viewBox="0 0 64 64" fill="none" xmlns="http://www.w3.org/2000/svg"><path fill="#fff" d="M0 0h64v64H0z"/><path d="M36.806 6c21.978 14.727 14.869 30.967 14.869 30.967S57.925 43.92 55.399 50c0 0-2.578-4.259-6.901-4.259-4.166 0-6.614 4.259-15 4.259C14.829 50 6 34.632 6 34.632c16.822 10.904 28.306 3.181 28.306 3.181-7.578-4.335-23.697-25.066-23.697-25.066 14.036 11.777 20.103 14.881 20.103 14.881-3.62-2.95-13.775-17.37-13.775-17.37 8.125 8.108 24.27 19.422 24.27 19.422C45.79 17.16 36.806 6 36.806 6z" fill="#000"/></svg>