<svg width="64" height="64" viewBox="0 0 64 64" fill="none" xmlns="http://www.w3.org/2000/svg"><path d="M64 0H0v64h64V0z" fill="#fff"/><path d="M48.8 9.5c-3.3.1-6.6 1.8-9.1 4.8-2.1 2.5-3.9 5.5-5.2 9.3-.3-.3-.6-.6-1-.9-1.6-1.5-3.2-3-5.9-3.7-3-.9-5.9-.3-8.5 1.5-1.2.9-2.2 2.3-2.6 3.8-1.2 3.9 1.6 7.2 2.2 7.9l2.1 2.2c.9.9 1.1 1.8.8 2.7-.4 1.4-2.3 2.5-4.3 1.9-.8-.3-1.5-.7-1.7-1.1-.1-.1-.1-.2 0-.4s.2-.4.3-.5c.1-.2.2-.3.3-.5.1-.3.2-.6.3-.8.3-.9.2-1.9-.3-2.7-.4-.7-.9-1.2-1.6-1.4-1.8-.6-3.3.2-3.8 1.9-.4 1.2-.2 2.5.5 3.8.6 1.2 2.1 2.9 5.2 3.8 3 .9 6.1.6 8.5-.9 1.9-1.2 3.2-3 3.5-5 .5-2.7-.7-4.8-3-7.4l-1.8-1.9c-.9-.9-1.2-2.3-.3-3.5.9-1.1 2.1-1.4 3.9-.9 2.1.6 3.4 1.7 4.7 3 .5.5 1.1 1 1.7 1.5-.9 3-1.5 6.1-2.1 8.7l-.4 2.2c-1.7 9-3 13.4-6.1 16-.6.4-1.5 1-2.7 1.1-.4 0-.5-.2-.5-.2 0-.2.1-.3.4-.5l.1-.1c.4-.2 1.4-.8 1.3-2.4 0-.9-.4-1.7-1.1-2.3-.7-.6-1.6-.9-2.6-.9-1.6.1-3.9 1.6-3.8 4.2.1 2.7 2.6 4.6 5.9 4.6h.3c2.1-.1 6.2-.9 10.2-5.7 4.7-5.5 6-11.7 7-16.3l1-5.7c.5 0 1 .1 1.5.1 4.4.1 6.7-1.5 7.7-2.5 1-.9 1.5-2 1.5-3.1 0-.9-.3-1.8-.9-2.4-.5-.5-1.1-.7-1.7-.7-1.1 0-2.4.7-2.8 2.2-.1.7.2 1.2.5 1.7.4.7.5.9-.1 1.3s-2.3 1.2-5.4.8l.4-2.4c1.1-5.4 2.4-12.1 7.1-12.3.4 0 1 .1 1.2.3.1.1.1.1.1.2s0 .1-.2.5l.1.6c-.4.6-.6 1.2-.6 1.8 0 .8.4 1.6 1 2.1s1.4.8 2.3.7c1.1 0 2-.5 2.6-1.4.5-.8.6-1.7.6-2.2-.1-2.8-2.8-4.6-6.7-4.5z" fill="#000"/></svg>