<svg width="32" height="32" viewBox="0 0 32 32" fill="none" xmlns="http://www.w3.org/2000/svg">
<path d="M5.33331 7.99999C5.33331 7.64637 5.47379 7.30723 5.72384 7.05718C5.97389 6.80713 6.31302 6.66666 6.66665 6.66666H25.3333C25.6869 6.66666 26.0261 6.80713 26.2761 7.05718C26.5262 7.30723 26.6666 7.64637 26.6666 7.99999C26.6666 8.35361 26.5262 8.69275 26.2761 8.9428C26.0261 9.19285 25.6869 9.33332 25.3333 9.33332H6.66665C6.31302 9.33332 5.97389 9.19285 5.72384 8.9428C5.47379 8.69275 5.33331 8.35361 5.33331 7.99999ZM5.33331 24C5.33331 23.6464 5.47379 23.3072 5.72384 23.0572C5.97389 22.8071 6.31302 22.6667 6.66665 22.6667H25.3333C25.6869 22.6667 26.0261 22.8071 26.2761 23.0572C26.5262 23.3072 26.6666 23.6464 26.6666 24C26.6666 24.3536 26.5262 24.6928 26.2761 24.9428C26.0261 25.1928 25.6869 25.3333 25.3333 25.3333H6.66665C6.31302 25.3333 5.97389 25.1928 5.72384 24.9428C5.47379 24.6928 5.33331 24.3536 5.33331 24ZM14.6666 14.6667C14.313 14.6667 13.9739 14.8071 13.7238 15.0572C13.4738 15.3072 13.3333 15.6464 13.3333 16C13.3333 16.3536 13.4738 16.6927 13.7238 16.9428C13.9739 17.1928 14.313 17.3333 14.6666 17.3333H25.3333C25.6869 17.3333 26.0261 17.1928 26.2761 16.9428C26.5262 16.6927 26.6666 16.3536 26.6666 16C26.6666 15.6464 26.5262 15.3072 26.2761 15.0572C26.0261 14.8071 25.6869 14.6667 25.3333 14.6667H14.6666Z" fill="white"/>
</svg>
