<svg width="60" height="60" viewBox="0 0 60 60" fill="none" xmlns="http://www.w3.org/2000/svg">
<rect opacity="0.2" width="60" height="60" rx="15" fill="white"/>
<g clip-path="url(#clip0_176_304)">
<path d="M44.9301 31.5081C44.9262 31.5126 44.924 31.5183 44.924 31.5243C44.924 31.5302 44.9262 31.536 44.9301 31.5405C44.8779 31.6548 44.9482 31.7834 44.8869 31.8965C44.8144 31.9996 44.852 32.1174 44.8438 32.2288C44.8006 32.3 44.8524 32.3863 44.8054 32.4566C44.7333 32.543 44.7665 32.647 44.7566 32.7441C44.7087 32.8122 44.7847 32.9119 44.6992 32.9706C44.4942 33.8687 44.2526 34.7551 43.8974 35.6074C43.8794 35.6608 43.865 35.7153 43.8542 35.7706C43.8377 35.8347 43.8107 35.8956 43.7744 35.9509C43.7282 36.0148 43.682 36.0804 43.6825 36.162C43.6531 36.2211 43.6505 36.2949 43.5897 36.3376C43.1193 37.3187 42.5532 38.2509 41.8997 39.1207C41.6127 39.5057 41.2783 39.8544 40.965 40.2203C40.899 40.3169 40.8194 40.4034 40.7285 40.4771L40.4868 40.7192C40.4125 40.8102 40.3252 40.8899 40.2279 40.9557C39.7046 41.4353 39.1521 41.8821 38.5737 42.2935C37.8694 42.7937 37.1185 43.2106 36.3465 43.5929C36.2906 43.6264 36.2307 43.6526 36.1682 43.671L35.9585 43.763C35.9031 43.7993 35.8422 43.8264 35.7781 43.8432C35.208 44.0757 34.6259 44.2774 34.0342 44.4474C33.6889 44.5436 33.3333 44.62 32.9825 44.7063C32.9126 44.7616 32.8224 44.7063 32.7499 44.7495C32.652 44.7422 32.5538 44.7588 32.4638 44.7978C32.3926 44.8453 32.3054 44.7978 32.2329 44.8362C32.1181 44.8121 32.0171 44.91 31.9036 44.8794C31.7892 44.9407 31.6598 44.8703 31.5445 44.9226L31.4712 44.9277C31.3266 44.9825 31.1717 44.9152 31.0267 44.9657L30.9097 44.9709C30.4622 45.014 30.0134 44.9825 29.5654 44.989C29.4101 44.9912 29.2526 45.0127 29.0985 44.9709L28.9815 44.9661C28.8365 44.9148 28.6795 44.9825 28.537 44.9273L28.4641 44.9226C28.3631 44.8755 28.2483 44.9359 28.1486 44.8841L27.7753 44.8358C27.7033 44.7927 27.6148 44.8462 27.544 44.7961C27.1241 44.7359 26.7076 44.6535 26.2964 44.5493C25.3754 44.3167 24.4791 43.9951 23.6203 43.589C22.4878 43.0605 21.4288 42.387 20.47 41.5853C20.2279 41.3834 19.978 41.1909 19.7644 40.9574C19.6453 40.8625 19.5525 40.7416 19.4286 40.6502L19.3484 40.5699C19.259 40.446 19.136 40.3541 19.0411 40.2341C18.238 39.4025 17.5665 38.4725 16.9847 37.4765C16.769 37.1092 16.5571 36.739 16.4034 36.3398C16.3655 36.291 16.3564 36.2276 16.3227 36.1771C15.9031 35.2602 15.5761 34.3038 15.3465 33.3219C15.2788 33.0384 15.2486 32.7458 15.2007 32.4588C15.1523 32.388 15.2007 32.3004 15.1623 32.2283C15.1459 32.1035 15.1296 31.9788 15.1135 31.8542C15.0626 31.7541 15.1217 31.6384 15.0755 31.5392C15.0776 31.5373 15.0792 31.5351 15.0803 31.5326C15.0814 31.5301 15.082 31.5274 15.082 31.5247C15.082 31.522 15.0814 31.5193 15.0803 31.5168C15.0792 31.5143 15.0776 31.5121 15.0755 31.5102C15.013 31.3519 15.0876 31.1818 15.0324 31.0226L15.0272 30.9052C14.9815 30.5362 15.013 30.1655 15.0099 29.7961C15.0099 29.5622 14.9828 29.3266 15.0272 29.0935L15.0324 28.9757C15.0859 28.8169 15.0117 28.6469 15.0755 28.4885C15.0775 28.4866 15.0791 28.4843 15.0802 28.4818C15.0813 28.4793 15.0818 28.4766 15.0818 28.4738C15.0818 28.4711 15.0813 28.4684 15.0802 28.4658C15.0791 28.4633 15.0775 28.461 15.0755 28.4591C15.1221 28.3582 15.0626 28.2434 15.1131 28.1445C15.1295 28.02 15.1457 27.8952 15.1618 27.7704C15.205 27.6983 15.1523 27.6107 15.2007 27.5399C15.2862 26.9321 15.4179 26.3316 15.5947 25.7438C15.7908 25.086 16.0341 24.4432 16.3227 23.8204C16.3564 23.7699 16.3659 23.7064 16.4034 23.6581C16.5588 23.2533 16.778 22.8813 16.9938 22.5076C17.4257 21.7563 17.9244 21.0456 18.484 20.3839C18.6639 20.1716 18.837 19.9523 19.0411 19.7629C19.1429 19.6474 19.2508 19.5375 19.3643 19.4336L19.4286 19.3473C19.5525 19.2575 19.6444 19.1345 19.7644 19.0396C20.5096 18.3332 21.3301 17.7109 22.2113 17.1839C22.683 16.9017 23.1607 16.6345 23.6596 16.4002C23.7159 16.3685 23.7754 16.3428 23.837 16.3234C24.383 16.0782 24.9435 15.8665 25.5153 15.6894C26.1319 15.4966 26.7612 15.3471 27.3986 15.2419C27.4472 15.2304 27.495 15.216 27.5419 15.1987C27.6126 15.1495 27.7003 15.1987 27.7719 15.1595C27.8985 15.166 28.0252 15.1496 28.1461 15.1111C28.2462 15.0594 28.3618 15.1198 28.4607 15.0727L28.5349 15.0676C28.679 15.0127 28.8335 15.0805 28.9781 15.0291L29.0959 15.024C29.6138 14.9808 30.1347 15.0153 30.6543 15.0058C30.7406 15.0058 30.8269 14.9856 30.9071 15.024L31.025 15.0291C31.1695 15.0805 31.324 15.0132 31.4682 15.0676L31.5428 15.0727C31.6576 15.1241 31.7871 15.0537 31.901 15.1159C32.0033 15.1871 32.1202 15.1508 32.2312 15.159C32.3032 15.1996 32.39 15.1504 32.4607 15.1966C32.8673 15.2876 33.2755 15.3692 33.6799 15.4706C34.2768 15.6243 34.8645 15.8116 35.4402 16.0316C35.4795 16.0459 35.5213 16.0537 35.5623 16.0644C35.6239 16.0837 35.6832 16.1096 35.7393 16.1417C35.7437 16.1466 35.7493 16.1502 35.7557 16.152C35.762 16.1539 35.7687 16.1539 35.7751 16.152C35.8391 16.1685 35.9 16.1951 35.9555 16.231C36.488 16.5038 37.0318 16.7523 37.5488 17.0566C38.1958 17.4368 38.8142 17.8639 39.3989 18.3344C39.6811 18.5614 39.9504 18.8044 40.2257 19.0405C40.322 19.1066 40.4083 19.1863 40.4821 19.2769L40.7242 19.519C40.8152 19.5935 40.895 19.6807 40.9611 19.778C41.3555 20.2259 41.7461 20.6782 42.0978 21.159C42.5044 21.7139 42.8714 22.2968 43.1961 22.9033C43.329 23.1532 43.455 23.4065 43.5845 23.6585C43.6449 23.7017 43.6475 23.775 43.6773 23.8342C43.6773 23.9205 43.7235 23.9813 43.7692 24.0452C43.8051 24.1007 43.8319 24.1616 43.8486 24.2256C44.0212 24.7581 44.2487 25.2712 44.3863 25.8154C44.4882 26.2189 44.5926 26.622 44.6958 27.0238C44.7821 27.0825 44.7053 27.1822 44.7532 27.2504C44.7631 27.347 44.7303 27.4515 44.8019 27.5378C44.849 27.6081 44.7985 27.6944 44.8403 27.7656C44.8507 27.877 44.8136 27.9948 44.8835 28.0979C44.943 28.211 44.8727 28.3396 44.9266 28.454C44.9227 28.4585 44.9206 28.4642 44.9206 28.4702C44.9206 28.4761 44.9227 28.4819 44.9266 28.4863C44.9853 28.6318 44.9163 28.7884 44.9668 28.9339L44.9733 29.0914C45.0046 29.6951 45.0046 30.3001 44.9733 30.9039L44.9668 31.061C44.9197 31.206 44.9888 31.3627 44.9301 31.5081Z" fill="#21759A"/>
<path d="M29.9948 15.7007C37.8832 15.6925 44.2892 22.092 44.2992 29.9908C44.3086 37.8762 37.9052 44.2848 30.0078 44.2938C22.122 44.3029 15.7108 37.8982 15.7034 30.0033C15.6961 22.1153 22.0974 15.7102 29.9948 15.7007Z" fill="white"/>
<path d="M26.7953 37.8648L25.5645 34.2057C24.4473 30.8833 23.3302 27.5603 22.213 24.2368C22.1125 23.9368 22.0935 23.9748 22.4046 23.9511C22.8129 23.9196 23.2246 23.8902 23.6272 23.8324C23.9725 23.7828 24.1481 23.472 24.0445 23.1419C23.9716 22.9093 23.7856 22.7768 23.5154 22.7906C22.9268 22.8208 22.339 22.8687 21.7504 22.8968C21.0034 22.9326 20.2563 22.9753 19.5063 22.9365C19.4398 22.933 19.3466 22.9701 19.313 22.8933C19.2866 22.8333 19.3604 22.7794 19.3958 22.7285C20.9051 20.5526 22.8914 18.9783 25.3547 18.0055C26.9855 17.3619 28.7337 17.0696 30.4851 17.1476C33.5249 17.2771 36.1945 18.3426 38.4939 20.3441C38.5267 20.3726 38.5582 20.4024 38.5888 20.4304C38.6031 20.4485 38.6159 20.4677 38.6272 20.4878C38.4921 20.4978 38.3683 20.4986 38.2449 20.5176C37.0831 20.6958 36.2485 21.7967 36.362 22.9723C36.4241 23.611 36.6641 24.1807 36.9748 24.7283C37.3131 25.3295 37.7028 25.9004 38.0105 26.5205C38.7524 28.0224 38.8689 29.5764 38.3989 31.174C37.765 33.3231 37.1159 35.468 36.4725 37.615C36.4546 37.6605 36.4343 37.705 36.4116 37.7483C36.2683 37.3263 36.1367 36.9426 36.0077 36.5585C34.6207 32.4323 33.2328 28.3066 31.844 24.1815C31.7836 24.0029 31.8009 23.9541 31.999 23.9463C32.3938 23.9303 32.7878 23.8928 33.1806 23.8475C33.5642 23.8043 33.7446 23.5942 33.7183 23.2567C33.6933 22.9378 33.4753 22.7652 33.0947 22.7898C32.1763 22.8484 31.2584 22.9076 30.3383 22.9352C29.13 22.9714 27.9216 22.8825 26.7185 22.8087C26.5963 22.8014 26.4746 22.7885 26.3525 22.7863C26.0301 22.7807 25.8191 22.9697 25.7915 23.2839C25.7639 23.5782 25.9434 23.7987 26.2662 23.8371C26.6585 23.8842 27.0525 23.92 27.4465 23.9476C27.5712 23.9567 27.6346 23.9955 27.6782 24.1159C28.3074 25.8516 28.9404 27.5862 29.5771 29.3196C29.6109 29.3984 29.6146 29.4869 29.5874 29.5682C28.676 32.293 27.7664 35.0184 26.8587 37.7444C26.8445 37.7738 26.8294 37.7967 26.7953 37.8648Z" fill="#21759A"/>
<path d="M30.2278 31.1255L31.551 34.7458C32.4141 37.107 33.2762 39.468 34.1373 41.8289C34.2504 42.1388 34.253 42.1401 33.9323 42.2411C31.4819 43.0133 29.0175 43.0606 26.5389 42.383C26.343 42.33 26.3999 42.2402 26.4409 42.1211C27.6174 38.7058 28.7929 35.2903 29.9676 31.8747C30.0466 31.6455 30.1269 31.4189 30.2278 31.1255Z" fill="#21759A"/>
<path d="M18.2625 24.7837L24.366 41.5039C23.2966 41.3192 20.6374 39.0574 19.429 37.3126C18.1591 35.4785 17.4163 33.4502 17.2005 31.2277C16.9774 28.9801 17.3986 26.6286 18.2625 24.7837Z" fill="#21759A"/>
<path d="M41.3904 24.0449C42.0065 25.1844 42.4315 26.4171 42.6484 27.6942C43.2552 31.2366 42.5323 34.4853 40.4799 37.44C39.4541 38.9073 38.1533 40.0936 36.6174 41.018C36.5838 41.0383 36.5553 41.0797 36.488 41.0542C36.6006 40.7237 36.712 40.3922 36.8263 40.0617C38.0027 36.6614 39.1705 33.2586 40.3616 29.8636C40.7138 28.8594 41.0668 27.8599 41.239 26.8047C41.3766 25.9628 41.3797 25.1169 41.3438 24.2685C41.3408 24.1904 41.2731 24.0984 41.3904 24.0449Z" fill="#21759A"/>
</g>
<defs>
<clipPath id="clip0_176_304">
<rect width="30" height="29.9957" fill="white" transform="translate(15 15)"/>
</clipPath>
</defs>
</svg>
