<svg width="242" height="60" viewBox="0 0 242 60" fill="none" xmlns="http://www.w3.org/2000/svg">
<path d="M34.8399 4.4541C29.7276 4.45401 24.7301 5.96541 20.4794 8.79718C16.2286 11.6289 12.9156 15.6539 10.9592 20.363C9.00276 25.0721 8.49086 30.2539 9.48822 35.2531C10.4856 40.2523 12.9474 44.8444 16.5623 48.4486C20.1773 52.0528 24.783 54.5072 29.797 55.5016C34.8111 56.4959 40.0083 55.9855 44.7314 54.0348C49.4545 52.0841 53.4913 48.7808 56.3314 44.5427C59.1716 40.3045 60.6874 35.3218 60.6872 30.2246C60.6867 23.39 57.9633 16.8354 53.1161 12.0026C48.2689 7.16977 41.6948 4.45454 34.8399 4.4541Z" fill="black"/>
<path d="M38.3341 8.44341C38.3201 8.44788 38.3055 8.45014 38.2909 8.45011C38.2395 8.53528 37.9351 9.12294 37.3775 10.2131C37.2584 10.4605 37.126 10.7013 36.9807 10.9344C36.9147 10.94 36.8483 10.9362 36.7834 10.9232C36.7452 10.8907 36.7143 10.8506 36.6926 10.8054C36.6902 10.8012 36.6595 10.6963 36.5996 10.4903C35.9387 8.22016 35.5659 6.96252 35.4814 6.71741C35.4429 6.56042 35.365 6.41573 35.2552 6.29688C35.1453 6.17804 35.007 6.08892 34.8532 6.03786C34.8322 5.94627 34.831 5.85125 34.8496 5.75915C34.9104 5.69422 37.139 5.76945 37.5443 5.86729C37.5443 5.87058 37.5297 5.95944 37.5048 6.13025L37.307 6.12845C37.1821 6.12845 36.75 6.32353 36.8803 6.72328L37.4997 8.63591C37.5074 8.64118 37.5168 8.64342 37.5261 8.64219C37.5893 8.5683 37.8303 8.1386 38.249 7.35311C38.6677 6.56447 38.9062 6.13125 38.9613 6.05275C39.0181 6.04066 39.0772 6.04453 39.132 6.06396C39.1868 6.08338 39.2351 6.11758 39.2715 6.16275C39.28 6.17392 39.4168 6.82833 39.6817 8.12597C39.8179 8.80005 39.9017 9.1788 39.9291 9.26878C39.9768 9.24723 40.02 9.21704 40.0567 9.17974C40.071 9.16159 40.3356 8.736 40.8504 7.90297C40.9804 7.72068 41.0785 7.51777 41.1406 7.30284C41.1438 7.17551 41.1052 7.05062 41.0306 6.94723C40.9559 6.84384 40.8495 6.76762 40.7274 6.73019L40.8076 6.45539C41.4444 6.60547 42.0707 6.79736 42.6821 7.02982C42.6887 7.09463 42.6701 7.15949 42.6302 7.21102L42.5903 7.27132L42.5915 7.30273C42.2739 7.18272 41.9573 7.30539 41.6407 7.67626C41.5556 7.77808 41.2143 8.31617 40.623 9.29049C40.1463 10.0776 39.8423 10.5769 39.7111 10.7883C39.5249 11.0828 39.4158 11.2622 39.3775 11.3295C39.3166 11.3438 39.2529 11.3402 39.1941 11.3191C39.1353 11.2979 39.0839 11.2602 39.0463 11.2104C39.0298 11.1871 38.9089 10.6972 38.678 9.73886C38.5918 9.30002 38.4769 8.86728 38.3341 8.44341Z" fill="#FFD200"/>
<path d="M22.7939 11.6712L22.9586 11.6088C23.2283 11.5035 23.5202 11.4676 23.8074 11.5042C24.0947 11.5408 24.3681 11.6489 24.6025 11.8184C24.7809 11.9384 25.045 12.1205 25.3972 12.3738C25.6676 12.5692 25.8813 12.6317 26.038 12.5613L26.1374 12.5177L26.1602 12.5171C26.2222 12.5891 26.2614 12.6779 26.2726 12.7722C26.239 12.791 26.1444 12.8394 25.9882 12.917C25.5801 13.1212 25.2063 13.3224 24.8669 13.5205C24.7619 13.5814 24.698 13.6078 24.6778 13.593L24.5381 13.5045C23.5049 12.8622 22.9286 12.5349 22.8091 12.5226C22.7385 12.5169 22.6678 12.5318 22.6057 12.5656C22.5435 12.5994 22.4926 12.6505 22.4591 12.7127C22.4257 12.7748 22.4111 12.8454 22.4172 12.9157C22.4234 12.986 22.4499 13.053 22.4937 13.1085C22.4985 13.1151 22.5283 13.1582 22.5899 13.2378C22.6194 13.2778 22.6811 13.3672 22.7756 13.5024C23.1263 13.998 23.5802 14.0571 23.7775 13.8308L23.8276 13.8359C23.8548 13.8847 23.8851 13.9317 23.9185 13.9765L23.9735 14.0325C23.9783 14.0362 23.9808 14.0465 23.9756 14.0643C23.9197 14.1095 23.7903 14.2026 23.5828 14.3464C23.0955 14.68 22.6315 15.046 22.1937 15.4419L22.0743 15.5489H22.0336C21.9722 15.4899 21.9156 15.4262 21.8643 15.3583C21.8635 15.341 21.8656 15.3298 21.8704 15.3265L21.9485 15.2425C22.0762 15.1053 22.0691 14.8881 21.9303 14.5911C21.8759 14.4784 21.3528 13.8022 20.3611 12.5625C20.2007 12.3497 20.0275 12.1468 19.8424 11.9551C19.758 11.8638 19.6474 11.8007 19.5257 11.7743C19.404 11.7479 19.2771 11.7595 19.1623 11.8075L19.0453 11.8654C19.0318 11.869 19.0176 11.8692 19.004 11.8663C18.9016 11.7654 18.8524 11.6994 18.8582 11.6636C19.5421 11.0485 20.2684 10.4819 21.0317 9.96793H21.0627C21.1946 10.1145 21.248 10.1956 21.2229 10.2112L21.0883 10.3013C21.0178 10.3559 20.9647 10.4296 20.9353 10.5136C20.9059 10.5977 20.9015 10.6884 20.9227 10.7748C20.9613 10.9903 21.0573 11.1914 21.2007 11.3571C21.2095 11.3704 21.273 11.458 21.3857 11.6222C21.4234 11.6713 21.6149 11.9315 21.9634 12.403H22.0251C22.0398 12.3772 22.7097 10.2437 22.7158 10.1943C22.7428 10.0913 22.738 9.98262 22.702 9.88242C22.6659 9.78223 22.6003 9.69525 22.5137 9.6329C22.4488 9.5966 22.3752 9.5785 22.3008 9.58053C22.2264 9.58256 22.1539 9.60465 22.0911 9.64444C22.0608 9.66113 22.0287 9.67416 21.9953 9.68323C21.9377 9.60904 21.8923 9.52608 21.861 9.43753C21.861 9.43753 23.9237 8.2717 24.0215 8.28378C24.1325 8.44586 24.1719 8.53918 24.1412 8.5604L24.0106 8.65279C23.8157 8.84508 23.6737 9.08427 23.5986 9.34723C23.284 10.1051 23.0153 10.8812 22.7939 11.6712Z" fill="#FFD200"/>
<path d="M33.5345 9.09471C33.44 9.11501 33.3433 9.12384 33.2467 9.12102L33.1148 9.00318C32.474 8.43546 31.7079 8.6551 31.5444 8.8199C31.4826 8.89416 31.44 8.9824 31.4203 9.07689C31.4007 9.17139 31.4046 9.26924 31.4317 9.36188C31.5395 9.98237 31.662 10.6771 32.8699 10.3584C33.2419 10.246 33.5875 10.0599 33.8858 9.81142C34.1842 9.56291 34.4293 9.25702 34.6065 8.91199C34.6626 8.91551 34.7173 8.93102 34.7669 8.95746L34.8338 8.99594L34.8674 8.9968L34.4022 10.7649C34.4022 10.7674 34.1211 10.7831 33.5617 10.8125C32.468 10.8723 31.3825 11.0347 30.3194 11.2975C30.0991 11.352 29.9827 11.3788 29.9694 11.3788C29.9673 11.3752 29.9643 11.3723 29.9606 11.3706C29.9569 11.3688 29.9528 11.3681 29.9487 11.3688L29.8858 11.1485C29.8845 11.1451 29.8843 11.1413 29.8851 11.1378C29.886 11.1342 29.8879 11.131 29.8906 11.1285L30.0353 11.0389C30.1957 10.9367 30.2541 10.7089 30.2133 10.3578C30.2066 10.3056 30.1333 9.99416 29.9933 9.42338C29.9694 9.33007 29.9487 9.22706 29.9204 9.11071C29.704 8.1306 29.5731 7.55953 29.5238 7.39714C29.3874 6.95877 29.1112 6.7609 28.6952 6.80966C28.6841 6.74556 28.6678 6.68245 28.6466 6.62093L28.6223 6.55849C30.2427 6.14063 31.9012 5.88662 33.5726 5.80029C33.5918 5.83393 34.2183 7.18725 34.2183 7.203L34.2208 7.24514L33.9458 7.36024L33.9357 7.35726C33.9291 7.35571 33.9221 7.35571 33.9154 7.35726C33.6605 7.04346 33.3374 6.79147 32.9706 6.62032C32.6037 6.44918 32.2027 6.36334 31.7977 6.36928C31.0411 6.35321 30.915 6.59469 31.0049 7.09214C31.052 7.43181 31.1243 7.76753 31.2213 8.09651C31.5049 8.60791 32.6714 8.26038 32.9931 7.61415L33.0673 7.47057C33.0758 7.45172 33.1208 7.43482 33.2068 7.41237C33.2607 7.39952 33.3164 7.39583 33.3715 7.40143C33.3947 7.48681 33.5594 9.06294 33.5345 9.09471Z" fill="#FFD200"/>
<path d="M47.3702 14.9941C47.3517 14.9584 47.331 14.9238 47.3082 14.8905C47.1572 14.6476 47.2855 14.2685 47.693 13.7532C47.8002 13.6147 48.1545 13.1529 48.7559 12.3677C48.934 12.1369 49.0616 11.9681 49.1406 11.8684L49.2385 11.743L49.3268 11.6118C49.5924 11.2134 50.1467 11.3367 50.3181 12.292C50.3543 12.5266 50.3494 12.7658 50.3035 12.9988C50.289 13.0633 50.279 13.1289 50.2737 13.1948C50.3799 13.2474 50.4997 13.2667 50.6171 13.2499C50.6843 13.093 50.8106 12.6771 50.9969 11.9974L51.0401 11.8387C51.0525 11.7938 50.0863 10.9955 49.5053 10.5753C48.8443 10.0816 48.1527 9.63 47.4347 9.22314L46.1676 9.96115L46.149 9.96574L46.2964 10.2578C46.3051 10.2538 46.3147 10.2516 46.3243 10.2514L46.342 10.256L46.5407 10.1769C47.2171 9.90121 48.0503 10.0414 48.1846 10.2675C48.2792 10.4365 48.2068 10.6771 47.9599 10.9955C47.6669 11.3749 47.2453 11.9356 46.6951 12.6776C46.514 12.9467 46.3081 13.1983 46.0801 13.4293C45.8403 13.6147 45.5198 13.7062 45.3034 13.5171C45.2618 13.5208 45.2077 13.5856 45.1405 13.7122L45.1578 13.751L45.301 13.8349C45.7779 14.124 46.2351 14.4444 46.6696 14.7938C46.9875 15.0432 47.1637 15.178 47.198 15.2019C47.2438 15.1632 47.284 15.1183 47.3174 15.0686L47.3702 14.9941Z" fill="#FFD200"/>
<path d="M41.6967 11.7208C41.7185 11.7222 41.7401 11.7264 41.7608 11.7335C41.9525 11.7933 42.2528 11.5926 42.411 11.3236C42.4707 11.22 42.8056 10.466 43.416 9.06158C43.5386 8.81543 43.6334 8.55641 43.6986 8.28933C43.7551 7.90185 43.6521 7.65644 43.3908 7.5504C43.3909 7.46147 43.4192 7.37486 43.4716 7.30289C43.5627 7.28955 45.5297 8.11938 45.9633 8.42597C45.9696 8.46872 45.9393 8.53535 45.8673 8.62321C45.8624 8.62197 45.8597 8.62197 45.8524 8.62017C45.8232 8.61197 45.7947 8.60175 45.767 8.58959C45.4467 8.45538 45.1207 8.66589 44.9426 8.97856C44.9265 9.01131 44.8351 9.20826 44.6719 9.56876C44.3729 10.238 44.0745 10.874 43.7827 11.4805C43.6787 11.6701 43.6026 11.8735 43.5567 12.0846C43.526 12.3967 43.6287 12.5973 43.8617 12.6882C43.8761 12.7539 43.8377 12.8378 43.7484 12.9402C43.5873 12.8739 43.4297 12.7993 43.2762 12.7169C42.8374 12.5 42.4337 12.3157 42.065 12.164C41.7878 12.0513 41.6371 11.9876 41.6013 11.971C41.6128 11.8813 41.6455 11.7955 41.6967 11.7208Z" fill="#FFD200"/>
<path d="M25.2288 8.11C25.1659 8.10644 25.1028 8.11163 25.0413 8.12544L24.9489 8.15181C24.9378 8.15321 24.9266 8.15363 24.9155 8.15306C24.9136 8.14911 24.9106 8.14583 24.9067 8.1437C24.9029 8.14158 24.8985 8.1407 24.8942 8.14121L24.7903 7.92428L24.789 7.89431C25.1521 7.66616 27.3373 6.85631 27.5427 6.86333C27.6229 6.97266 27.6545 7.05872 27.632 7.12176C27.1626 7.26714 27.0265 7.61397 27.23 8.16397C27.2452 8.21032 27.2846 8.3109 27.3443 8.46541C27.6293 9.18436 27.8757 9.83784 28.0906 10.4244C28.1673 10.6802 28.2941 10.9182 28.4637 11.1248C28.54 11.2033 28.6314 11.2658 28.7324 11.3084C28.7824 11.3326 28.8375 11.3444 28.8931 11.343C28.9481 11.3223 29.006 11.3102 29.0647 11.3073C29.1005 11.3443 29.1283 11.3881 29.1466 11.4361C29.1649 11.4841 29.1732 11.5353 29.1711 11.5866C29.1578 11.5926 28.9484 11.6639 28.5397 11.8032C28.17 11.9289 27.7521 12.0877 27.2896 12.2787C27.1785 12.3287 27.0647 12.3723 26.9487 12.4092C26.8911 12.3368 26.8528 12.2511 26.8373 12.16L26.9535 12.0579C27.0732 11.9518 27.1114 11.5795 26.9993 11.3074C26.8987 11.0669 26.6176 10.421 26.1576 9.36203C26.1467 9.33721 26.0621 9.13694 25.9027 8.76341C25.8444 8.61136 25.7586 8.47132 25.6495 8.3503C25.5443 8.22055 25.3943 8.13481 25.2288 8.11Z" fill="#FFD200"/>
<path d="M52.8927 30.2252C52.8928 33.7852 51.8341 37.2653 49.8505 40.2254C47.8668 43.1856 45.0473 45.4927 41.7486 46.8551C38.4498 48.2176 34.8199 48.5741 31.3178 47.8796C27.8158 47.1851 24.599 45.4709 22.0742 42.9536C19.5494 40.4362 17.8299 37.229 17.1333 33.7374C16.4367 30.2457 16.7943 26.6265 18.1607 23.3375C19.5271 20.0485 21.8411 17.2373 24.8099 15.2595C27.7788 13.2816 31.2693 12.226 34.8399 12.2261C39.6276 12.2264 44.2192 14.1228 47.6047 17.4982C50.9902 20.8736 52.8923 25.4516 52.8927 30.2252Z" fill="#FFD200"/>
<path d="M32.8128 45.9328C32.8673 45.9408 32.9222 45.9446 32.9772 45.9443C33.0945 45.9022 33.1541 45.761 33.1541 45.521C33.1541 42.3695 33.1532 34.0978 33.1735 34.0543L33.2408 33.9076C33.2408 33.9076 33.678 32.8312 34.0564 31.9892C34.0794 32.0105 34.0993 32.0349 34.1156 32.0617C34.1997 32.3192 34.2703 32.5809 34.3271 32.8458C34.4113 33.1908 37.4974 45.2844 37.4974 45.2844C37.546 45.4817 37.5715 45.5881 37.5767 45.6001C37.6118 45.6758 37.6717 45.7374 37.7466 45.7746C37.8215 45.8118 37.9069 45.8225 37.9887 45.8049C38.3099 45.7686 40.0119 45.2792 40.1957 45.1151C40.252 45.0555 40.2909 44.9817 40.3082 44.9016C40.3254 44.8216 40.3204 44.7383 40.2935 44.6609L40.2531 44.5055C39.8438 42.8622 36.1691 28.4418 35.9923 27.8188L35.9473 27.6628C35.9282 27.5898 40.3774 17.0744 40.7596 16.1327C40.8505 15.9116 40.866 15.7558 40.8101 15.6667C40.6797 15.4668 38.6064 14.7051 38.3378 14.836C38.2202 14.9429 38.1353 15.0807 38.0926 15.2335C37.9862 15.4974 33.4355 26.2134 33.3306 26.4476L33.2629 26.5933L33.2058 26.7424C33.1997 26.7566 33.1808 26.7672 33.1425 26.7754C33.1437 26.7345 33.1054 14.8048 33.0994 14.7633C33.0957 14.723 33.0837 14.6839 33.0644 14.6484C33.045 14.6129 33.0186 14.5816 32.9867 14.5566C32.9548 14.5316 32.9182 14.5133 32.879 14.5028C32.8398 14.4924 32.7989 14.49 32.7587 14.4958C31.9405 14.6192 31.1346 14.8137 30.3503 15.0769C30.2302 15.1666 30.216 15.3408 30.216 15.714C30.216 17.2146 30.2464 43.9692 30.2403 44.1937C30.2184 44.7987 30.2354 45.1438 30.284 45.2238C30.4417 45.4795 32.3734 45.8946 32.8128 45.9328Z" fill="black"/>
<path d="M41.5061 44.1464C41.8462 44.2091 43.5986 43.4451 44.9858 42.3819C45.8846 41.6921 46.1083 41.5151 46.6361 40.8528C47.552 39.7046 48.0114 38.2808 48.0145 36.5813C48.0145 32.9244 48.0045 31.0252 47.9847 30.8836C47.9256 30.2323 47.6309 29.6247 47.1555 29.1742C46.6801 28.7237 46.0565 28.461 45.4011 28.4352C45.2416 28.431 44.946 28.4291 44.5227 28.4291C44.3751 28.4379 44.2283 28.4031 44.1005 28.329C43.9727 28.255 43.8696 28.145 43.8042 28.0128C43.7385 27.8458 43.7111 27.6661 43.724 27.4871C43.6985 23.2834 43.695 21.115 43.7134 20.9818C43.7209 20.8831 43.7571 20.7888 43.8176 20.7103C43.878 20.6318 43.9601 20.5725 44.0538 20.5398C44.1475 20.5071 44.2487 20.5023 44.3451 20.526C44.4414 20.5497 44.5288 20.6009 44.5964 20.6734C45.2889 21.3994 45.8934 22.2041 46.3975 23.0708C46.5285 23.2934 46.6718 23.551 46.8265 23.8488C46.8937 24.0114 47.0034 24.1532 47.144 24.2593C47.2109 24.2965 47.2851 24.3185 47.3615 24.3237C47.4379 24.3288 47.5144 24.3171 47.5857 24.2892C47.657 24.2613 47.7211 24.218 47.7736 24.1625C47.8261 24.1069 47.8655 24.0405 47.8892 23.9679C48.0015 23.6682 48.2034 21.6329 47.6558 20.7582C47.0301 19.7572 45.2801 17.8939 44.5022 17.5128C43.0549 16.8069 41.2879 17.9036 41.2879 19.4954C41.2879 25.5075 41.2964 28.5723 41.3134 28.6896C41.3509 29.127 41.4979 29.5481 41.7409 29.9142C41.9838 30.2803 42.315 30.5798 42.7041 30.7853C43.1162 30.9913 43.5727 31.0935 44.0336 31.0828L44.2079 31.0864C44.3529 31.0888 44.5249 31.0906 44.7258 31.0906C44.901 31.0747 45.0763 31.1194 45.2224 31.2172C45.3684 31.315 45.4763 31.4598 45.528 31.6275C45.57 31.7478 45.5882 32.6908 45.5826 34.4566C45.5826 35.1668 45.5822 35.6977 45.5814 36.0493C45.5814 37.8704 45.5167 38.0695 45.2414 38.6573C44.9263 39.3274 44.6272 39.7031 43.4613 40.5236C42.8999 40.9329 42.2918 41.2746 41.6499 41.5415C41.3928 41.6385 41.2658 41.7418 41.2658 41.8475V43.9558C41.2658 44.0073 41.3133 44.058 41.4059 44.1113C41.4375 44.1277 41.4712 44.1395 41.5061 44.1464Z" fill="black"/>
<path d="M21.5025 38.5862V21.7317C21.9824 20.9387 22.5356 20.1922 23.1549 19.5019C23.9447 18.6394 24.5442 18.1028 24.9465 17.8841C26.4136 17.0945 28.0979 18.2294 28.2414 19.7616C28.2663 20.016 28.2785 23.7565 28.2782 30.9829C28.2997 31.4544 28.229 31.9256 28.07 32.3702C27.6461 33.3521 26.8767 33.8434 25.7618 33.8441C24.5032 33.8441 23.8736 33.8486 23.873 33.8575V41.3169C23.873 41.3399 23.848 41.3684 23.8004 41.4053C23.7798 41.4226 23.7552 41.4344 23.7289 41.4397C23.7026 41.4451 23.6753 41.4438 23.6496 41.4359C23.4333 41.3815 21.5025 39.0128 21.5025 38.5862ZM25.2255 20.6383C24.7309 21.1502 24.2747 21.6978 23.8608 22.2765V30.9723L23.8742 31.264H25.3148C25.4779 31.2351 25.6258 31.151 25.7337 31.0257C25.8416 30.9005 25.9027 30.7419 25.9067 30.5769L25.897 20.8135C25.8846 20.7227 25.8407 20.6391 25.7729 20.5773C25.7051 20.5154 25.6178 20.4791 25.526 20.4748C25.4098 20.4929 25.3036 20.5507 25.2255 20.6383Z" fill="black"/>
<path d="M23.6259 47.6878L23.5828 47.696C23.567 47.7002 23.2814 48.1089 22.7256 48.9272C22.297 49.5589 22.0798 49.8789 22.0719 49.894C21.8818 50.2906 21.9376 50.6069 22.2351 50.8541C22.191 50.9433 22.1366 51.0271 22.0732 51.1037C21.9462 51.1156 20.6039 50.1452 20.5918 50.1334C20.6353 50.043 20.6893 49.9581 20.7529 49.8804C21.1032 49.9916 21.4177 49.8486 21.6964 49.4514C22.3837 48.474 22.8599 47.8087 23.1264 47.4442C23.4631 46.9834 23.567 46.631 23.4272 46.3802L23.3889 46.3084C23.3713 46.273 23.4202 46.2064 23.5348 46.1055C23.5591 46.1161 23.7828 46.2661 24.2139 46.5487C24.4853 46.7309 24.6691 46.8471 24.759 46.9017L24.9013 46.9835C24.9167 46.9926 25.0104 47.3658 25.176 48.0923C25.4935 49.4956 25.7047 50.2907 25.8053 50.4676C25.8496 50.4107 26.038 50.021 26.3705 49.2985C26.6814 48.6289 26.6693 48.206 26.3343 48.0299C26.3403 47.9492 26.376 47.8736 26.4346 47.8176C26.4419 47.8176 26.7026 47.9245 27.2167 48.1402C27.2548 48.156 27.4073 48.2154 27.6684 48.3165C27.8051 48.3723 27.9031 48.4158 27.9625 48.4471C27.9652 48.5116 27.9454 48.5751 27.9065 48.6268L27.8637 48.691V48.7243C27.7683 48.6401 27.2836 48.5971 27.0016 49.1785C26.9995 49.1845 26.6828 49.9459 26.0515 51.4626C25.7059 52.2981 25.5173 52.7575 25.489 52.8344C25.3001 52.7753 25.116 52.7018 24.9384 52.6145L23.6472 47.6962C23.646 47.6878 23.6375 47.6842 23.6259 47.6878Z" fill="#FFD200"/>
<path d="M16.0502 43.3349C16.0597 43.3315 16.0696 43.3295 16.0796 43.3288C16.135 43.3856 16.1677 43.4605 16.1717 43.5396C15.7053 43.9023 15.8155 45.2396 16.6688 45.742C17.3184 46.1224 17.7749 45.6305 17.7454 45.1839C17.6897 44.8444 17.5447 44.5258 17.3252 44.2604C17.1305 44.0154 16.9616 43.7511 16.8213 43.4715C16.4561 42.4262 17.4309 41.3861 18.7935 41.8712C19.7703 42.2193 20.5629 43.31 20.6826 44.0447C20.5665 44.1235 19.7479 44.5577 19.609 44.6055C19.5449 44.5231 19.5264 44.4731 19.5477 44.4507L19.6658 44.328C20.0408 43.9552 19.7598 42.7704 18.9275 42.5241C18.3407 42.3508 17.7898 43.0243 18.523 43.9099C18.7703 44.1845 18.9661 44.501 19.1013 44.8446C19.4854 46.0479 18.3118 47.1141 16.7852 46.4227C16.0813 46.0992 15.517 45.535 15.1944 44.8324C15.0676 44.5547 14.9828 44.2597 14.9428 43.9572C15.1177 43.8381 15.2999 43.7303 15.4886 43.6345C15.8563 43.4366 16.0417 43.336 16.0502 43.3349Z" fill="#FFD200"/>
<path d="M29.8792 49.0355C31.3245 49.0669 32.3825 50.0764 32.4086 50.4385C32.174 50.7502 31.9522 51.0741 31.7353 51.4183C31.6888 51.4217 31.6408 51.3908 31.5903 51.3174C31.7347 50.1337 30.6963 48.9191 29.4347 49.9068C28.4134 50.7066 28.1131 52.8971 29.2378 53.5182C29.6899 53.7645 30.6979 53.7893 31.2801 52.7062L31.5679 52.7853C31.5654 52.7954 31.5661 52.8061 31.5696 52.8159L31.5803 52.8305L31.521 53.9595C30.6335 54.5321 28.4556 54.3594 27.5137 52.6391C27.26 52.1885 27.1592 51.6681 27.2263 51.1557C27.2934 50.6433 27.5247 50.1662 27.8859 49.7955C28.4279 49.2966 29.1416 49.0245 29.8792 49.0355Z" fill="#FFD200"/>
<path d="M32.8435 49.5601L32.9772 49.563L33.1462 49.5794C34.2669 49.6896 35.3952 49.7026 36.5182 49.6182C36.7464 49.5994 36.8645 49.5891 36.8719 49.5915C37.0495 50.0121 37.2052 50.4416 37.3382 50.8783C37.182 50.9767 37.0909 51.0179 37.0693 50.9931L36.9475 50.8762C36.62 50.5539 36.2053 50.3339 35.7542 50.2432C35.5594 50.2047 34.5421 50.0708 34.5311 50.5144L34.4989 51.7478C34.4976 51.7938 34.542 51.8457 34.6319 51.9026C35.0458 52.0057 35.4838 51.9407 35.8496 51.722C35.981 51.6255 36.1074 51.5224 36.2282 51.413C36.2658 51.3758 36.3077 51.3432 36.3531 51.316C36.4061 51.2943 36.465 51.2917 36.5197 51.3088C36.5531 51.7651 36.5694 52.1201 36.578 52.3734C36.5841 52.5661 36.5922 52.7442 36.5996 52.9045C36.5103 52.9303 36.4167 52.9373 36.3245 52.9251L36.192 52.7964C35.515 52.1301 34.6381 52.327 34.5062 52.5716C34.4482 52.9605 34.4366 53.3549 34.4715 53.7466C34.773 54.6391 36.6296 54.5349 37.5978 52.9734C37.6634 52.9968 37.7242 53.0322 37.7768 53.0779C37.6906 53.5706 37.5769 54.0582 37.4361 54.5382C37.2663 54.6285 36.5874 54.681 35.3995 54.6957C34.1525 54.713 32.5432 54.6067 32.2861 54.5188C32.3106 54.442 32.326 54.3626 32.3317 54.2822C32.7756 54.2595 33.0191 54.008 33.0674 53.5244C33.2302 51.8481 33.3059 50.8666 33.2942 50.5799C33.2711 50.133 33.1101 49.8691 32.805 49.794C32.8032 49.7143 32.8163 49.635 32.8435 49.5601Z" fill="#FFD200"/>
<path d="M18.3043 47.8603C18.3423 47.8706 18.3793 47.8843 18.4149 47.9012C18.7151 48.0224 19.001 47.9246 19.273 47.6119C19.5781 47.2604 20.1229 46.6536 20.9124 45.7847C21.1084 45.5973 21.2685 45.3757 21.3846 45.1309C21.4203 45.028 21.433 44.9184 21.4217 44.8101C21.4205 44.8061 21.3889 44.7394 21.3317 44.6025C21.3768 44.5398 21.428 44.4817 21.4846 44.4292L21.5171 44.4301L21.6423 44.5428C22.1251 44.9749 22.4654 45.268 22.6632 45.4223C22.8878 45.5977 23.02 45.7041 23.0577 45.7377C23.0649 45.7817 23.0176 45.8483 22.9142 45.9367C22.5641 45.9013 22.2378 46.0674 21.9353 46.4352C21.7955 46.603 21.3334 47.1387 20.549 48.0421C20.3633 48.2415 20.1963 48.4575 20.0504 48.6875C19.9656 48.8522 19.9334 49.2328 20.0455 49.3467L20.1093 49.4122C20.1376 49.4424 19.9771 49.6145 19.9668 49.624C19.8544 49.6364 18.0951 48.1461 18.1084 48.0588C18.1673 47.9866 18.2329 47.9202 18.3043 47.8603Z" fill="#FFD200"/>
<path d="M41.1251 48.585V48.6167L41.1865 48.7673C41.2649 48.9579 42.1762 51.3923 42.3752 51.984C42.5214 52.4084 42.6949 52.6775 42.9006 52.7859C43.0527 52.8574 43.2263 52.8684 43.3862 52.8168C43.3996 52.8682 43.4166 52.9186 43.4373 52.9676L43.4683 53.0422L43.4914 53.1076C42.6579 53.4379 41.8022 53.7095 40.9306 53.9205C40.9258 53.8941 40.9103 53.8283 40.882 53.726L40.8586 53.6402L40.8896 53.6397C41.0103 53.5951 41.1115 53.5098 41.1756 53.3985C41.288 53.2022 41.288 52.9134 41.171 52.5317C40.7155 51.0414 40.4668 50.2625 40.425 50.1949C40.3619 50.0711 40.2539 49.9758 40.1229 49.9285C39.9919 49.8811 39.8478 49.8851 39.7197 49.9398C39.6798 49.8719 39.6595 49.7943 39.6611 49.7156C40.0837 49.4354 40.4875 49.1281 40.8699 48.7955C40.946 48.7151 41.0317 48.6444 41.1251 48.585Z" fill="#FFD200"/>
<path d="M45.3491 49.0355L45.8235 49.0139C46.1529 48.9982 47.2887 49.3009 46.977 50.6169C46.5479 52.4408 43.6658 53.2194 43.2367 51.7503C43.1203 51.352 43.2303 50.9268 43.5665 50.4748C43.6349 50.3799 43.668 50.3261 43.6622 50.31C43.6093 50.2999 43.5029 50.282 43.3383 50.263C41.8031 50.0885 42.0614 48.4549 43.2392 47.7126C44.2766 47.0582 45.4839 47.2208 45.6039 48.1246C45.6208 48.3702 45.5667 48.6155 45.448 48.8314L45.3493 48.9705V49.0355H45.3491ZM45.0166 51.7731C45.9279 51.8609 46.4332 50.6996 45.6766 50.2891C45.5299 50.2202 45.3658 50.1967 45.2056 50.2216C44.8935 50.2515 44.6209 50.2667 44.3891 50.2709C44.2903 50.4024 44.2275 50.5573 44.2071 50.7204C44.1867 50.8834 44.2093 51.049 44.2726 51.2007C44.336 51.3524 44.438 51.4849 44.5684 51.5853C44.6989 51.6857 44.8534 51.7504 45.0166 51.7731ZM43.9764 49.1666C44.1436 49.1794 44.3116 49.1544 44.4678 49.0936C44.9008 47.862 43.5939 47.5539 43.2058 48.3764C43.1426 48.4812 43.1197 48.6053 43.1414 48.7257C43.1631 48.846 43.228 48.9544 43.324 49.0306C43.4272 49.1261 43.646 49.1722 43.9763 49.1666H43.9764Z" fill="#FFD200"/>
<path d="M47.5164 47.9722L47.4422 47.9798C46.6634 48.0758 46.2168 47.8107 46.1059 47.1784C45.8983 46.0183 47.369 44.6119 48.5745 44.9886C48.6903 45.0194 48.7984 45.0738 48.8922 45.1482C48.986 45.2226 49.0634 45.3155 49.1195 45.421C49.1757 45.5266 49.2094 45.6426 49.2185 45.7617C49.2277 45.8809 49.2121 46.0006 49.1728 46.1135C49.1554 46.1778 49.1343 46.241 49.1096 46.3028C49.0488 46.4664 49.0232 46.5428 49.0402 46.5361L49.2396 46.478C50.1937 46.1892 51.4469 46.7209 50.876 48.2909C50.3256 49.816 48.064 50.568 47.3851 49.5167C47.143 49.1474 47.1612 48.7002 47.4362 48.1776C47.5089 48.0406 47.535 47.9755 47.5165 47.9722H47.5164ZM49.0179 49.1153C49.8091 49.235 50.3658 48.3079 49.9352 47.7943C49.8424 47.6858 49.7182 47.6085 49.5796 47.5729C49.441 47.5373 49.2948 47.5452 49.1609 47.5956L48.996 47.6392L48.8276 47.6786C48.659 47.7107 48.493 47.7553 48.3311 47.8119C48.0145 48.0298 48.212 48.9892 49.0179 49.1153ZM47.3104 46.8721C47.5558 46.8776 47.8005 46.8458 48.0363 46.7779L48.195 46.7479C48.2406 46.7268 48.2811 46.696 48.3135 46.6576C48.3539 46.1219 48.2117 45.7863 47.8869 45.6508C47.7792 45.6186 47.6659 45.6094 47.5545 45.6238C47.443 45.6382 47.3358 45.676 47.24 45.7346C47.1442 45.7932 47.0618 45.8713 46.9984 45.9639C46.935 46.0564 46.8919 46.1613 46.8719 46.2716C46.8535 46.4087 46.8888 46.5476 46.9704 46.6594C47.0521 46.7712 47.1738 46.8474 47.3104 46.872L47.3104 46.8721Z" fill="#FFD200"/>
<path d="M50.4888 41.8082C50.5308 41.8012 51.2701 42.3732 52.6967 43.5214C52.8179 43.6294 52.9536 43.7199 53.0999 43.7905C53.1965 43.6422 53.2572 43.4736 53.2773 43.298C53.2974 43.1223 53.2763 42.9444 53.2157 42.7783C53.2014 42.7328 53.1875 42.6865 53.1737 42.6404C53.2561 42.585 53.3506 42.5501 53.4493 42.5386C53.5313 42.6738 53.6745 42.968 53.8821 43.4257C53.9546 43.5736 54.0163 43.7265 54.0668 43.8832C54.0242 43.892 53.9835 43.9078 53.9462 43.9302L53.9015 43.969L53.7572 43.9611C53.7055 43.958 53.5025 44.0581 53.5159 44.1517C53.673 44.3113 53.8618 44.4364 54.0702 44.5191C54.1705 44.5384 54.2742 44.5296 54.3697 44.4935C54.4652 44.4574 54.5488 44.3956 54.6111 44.3149C54.6758 44.3517 54.736 44.3957 54.7906 44.4461C54.7925 44.4913 54.5506 44.8151 54.0662 45.4141C53.7925 45.7699 53.4933 46.1056 53.171 46.4185C53.0954 46.3686 53.0258 46.3102 52.9635 46.2446C52.9635 46.2213 52.9659 46.2079 52.9732 46.2004L53.0626 46.1022C53.1221 46.029 53.1596 45.9406 53.1708 45.847C53.182 45.7534 53.1664 45.6586 53.1257 45.5736C53.0581 45.4905 52.9832 45.4136 52.9018 45.3439C52.8247 45.2694 52.7405 45.2026 52.6505 45.1443C52.6399 45.1486 52.6282 45.1499 52.6169 45.1479C52.0256 45.7865 51.6044 46.2244 51.3582 46.454C51.2145 46.5879 51.1335 46.6609 51.1179 46.6812L51.0747 46.68C51.0677 46.6764 50.8718 46.4855 50.8489 46.454C50.8168 46.4136 50.791 46.3687 50.7724 46.3207L50.7556 46.1592C50.751 46.1222 50.7294 45.9616 50.6942 45.6763C50.3885 43.3004 50.2463 42.0992 50.2676 42.0728L50.3408 41.9849L50.4122 41.8943C50.4338 41.8624 50.4596 41.8334 50.4888 41.8083L50.4888 41.8082ZM51.2615 45.7944L51.3031 45.7953C51.4864 45.6262 51.796 45.2978 52.2318 44.8101C52.1443 44.6873 51.0525 43.773 51.0488 43.773C51.0166 43.7693 50.9993 43.7712 50.9923 43.7806C50.9859 43.7905 51.0428 44.2974 51.1628 45.3012C51.1758 45.4689 51.2089 45.6345 51.2615 45.7943L51.2615 45.7944Z" fill="#FFD200"/>
<path d="M15.6069 27.0976C15.1544 27.059 14.6995 27.1361 14.2853 27.3217C13.7483 27.5141 13.3045 27.9026 13.0438 28.4087H13.0331C13.0555 27.9659 13.138 27.5282 13.2784 27.1075C13.3428 26.9729 13.5357 26.8384 13.6576 26.6873C14.8326 25.2296 14.2808 24.1608 13.8767 23.7139C13.7611 23.7082 12.7925 24.0353 12.5497 25.2663C12.4846 25.7551 12.539 26.2524 12.7083 26.7157C12.7897 26.9275 12.8059 27.1587 12.7548 27.3798C12.667 27.9361 12.6399 28.2433 12.6225 28.2893L12.6131 28.3002C12.6099 28.2989 12.6072 28.2969 12.605 28.2943C12.6028 28.2917 12.6013 28.2886 12.6006 28.2853C12.5582 27.974 12.4501 27.6752 12.2836 27.4086C12.1171 27.1419 11.8958 26.9134 11.6343 26.7381C11.3413 26.5029 11.0022 26.3313 10.6388 26.2343C10.6325 26.2443 10.4935 26.7717 11.019 27.7694C11.3672 28.3532 11.9157 28.7915 12.563 29.003C12.5287 29.6799 12.5418 29.9646 12.5441 30.0095L12.5784 31.0996H12.5429C11.9971 29.4547 10.3869 29.1984 10.0794 29.187C10.0673 29.2 10.0515 30.1025 10.9065 30.9572C11.3886 31.4091 11.9889 31.7163 12.6383 31.8433C12.6845 32.8186 12.5811 33.4303 12.8206 33.6333C12.8309 33.6433 13.0825 33.6212 13.0947 33.6282C13.1284 33.6318 13.2175 33.624 13.2336 33.603C13.2564 33.5303 13.2648 33.4538 13.2582 33.3779L13.2391 32.7898L13.1023 31.8403C13.2103 31.7964 13.3218 31.7617 13.4356 31.7364C14.5089 31.4577 15.4564 30.7057 15.756 29.6554C15.7973 29.515 15.8055 29.4405 15.786 29.4332C15.3619 29.447 14.9443 29.5419 14.556 29.7126C14.0259 29.9517 13.5813 30.346 13.2812 30.8429C13.1874 30.9977 13.129 31.0905 13.1026 31.1232L13.068 31.1244C13.0655 31.1187 13.0625 31.1168 13.0549 31.1132C13.0206 31.0072 12.9725 29.4093 13.0549 29.0586C14.2187 28.7905 14.5998 28.6671 15.2479 27.8816C15.3835 27.7211 15.6494 27.12 15.6069 27.0976Z" fill="#FFD200"/>
<path d="M54.0696 27.0976C54.5215 27.0589 54.9757 27.1361 55.3893 27.3217C55.9271 27.5131 56.3714 27.9019 56.6315 28.4087H56.6431C56.6205 27.9659 56.5377 27.5281 56.397 27.1075C56.3337 26.9729 56.1402 26.8384 56.0165 26.6873C54.843 25.2296 55.3954 24.1608 55.7987 23.7139C55.9126 23.7082 56.8837 24.0353 57.1263 25.2663C57.1916 25.7552 57.1369 26.2525 56.967 26.7157C56.8876 26.928 56.8716 27.1586 56.9208 27.3798C57.0089 27.9361 57.0364 28.2433 57.0533 28.2893L57.0642 28.3002C57.0671 28.2988 57.0696 28.2967 57.0715 28.2941C57.0733 28.2915 57.0745 28.2885 57.0748 28.2853C57.117 27.9738 57.225 27.6748 57.3917 27.4081C57.5584 27.1413 57.7801 26.913 58.042 26.7381C58.3349 26.5025 58.6742 26.3309 59.0378 26.2343C59.0436 26.2443 59.1822 26.7717 58.6564 27.7694C58.308 28.3523 57.7603 28.7904 57.114 29.003C57.1471 29.6799 57.1335 29.9646 57.1335 30.0095L57.0988 31.0996H57.1335C57.681 29.4547 59.2894 29.1984 59.5984 29.187C59.6094 29.2 59.6246 30.1025 58.7701 30.9572C58.2878 31.4093 57.6874 31.7164 57.0377 31.8433C56.99 32.8186 57.0939 33.4303 56.8542 33.6333C56.8454 33.6433 56.5932 33.6212 56.5813 33.6282C56.5488 33.6318 56.4576 33.624 56.4424 33.603C56.4203 33.5302 56.4121 33.4538 56.4182 33.3779L56.4364 32.7898L56.5728 31.8403C56.4659 31.7967 56.3555 31.762 56.2428 31.7364C55.1671 31.4577 54.2202 30.7057 53.9185 29.6554C53.8793 29.515 53.8702 29.4405 53.8887 29.4332C54.3133 29.447 54.7313 29.5419 55.12 29.7126C55.65 29.9518 56.0946 30.346 56.3948 30.8429C56.4881 30.9977 56.5476 31.0905 56.5728 31.1232L56.6072 31.1244C56.6096 31.1187 56.6123 31.1168 56.6217 31.1132C56.6804 30.4296 56.6804 29.7422 56.6217 29.0586C55.4561 28.7905 55.0772 28.6671 54.4281 27.8816C54.2942 27.7211 54.0252 27.12 54.0696 27.0976Z" fill="#FFD200"/>
<path d="M68.4976 12.2046H79.6329V25.7984L91.2801 12.2046H106.084L92.9703 25.7445L106.683 48.1772H92.9678L85.42 33.4485L79.6329 39.504V48.1773H68.4976V12.2046Z" fill="white"/>
<path d="M108.314 12.2046H118.306V19.0056H108.314V12.2046ZM108.314 22.1074H118.306V48.1773H108.314V22.1074Z" fill="white"/>
<path d="M151.944 37.6184H131.839C132.021 39.232 132.458 40.4336 133.151 41.2234C134.122 42.3601 135.391 42.9281 136.958 42.9273C137.945 42.9275 138.916 42.6736 139.776 42.1901C140.321 41.8775 140.906 41.3279 141.533 40.5414L151.404 41.4361C149.895 44.0537 148.072 45.9312 145.935 47.0688C143.8 48.2053 140.737 48.7738 136.747 48.7743C133.279 48.7743 130.552 48.2869 128.566 47.3121C126.578 46.3384 124.931 44.7912 123.625 42.6706C122.321 40.5507 121.668 38.0579 121.667 35.1922C121.667 31.1151 122.976 27.8156 125.593 25.2937C128.212 22.7727 131.826 21.512 136.437 21.5117C140.178 21.5117 143.132 22.0766 145.297 23.2065C147.418 24.2911 149.147 26.0072 150.245 28.1164C151.377 30.2614 151.943 33.0523 151.944 36.4892V37.6184ZM141.772 32.8469C141.573 30.9048 141.05 29.5147 140.203 28.6765C139.354 27.8367 138.238 27.4171 136.855 27.4177C136.109 27.3973 135.37 27.5599 134.702 27.8911C134.034 28.2224 133.457 28.7121 133.024 29.3174C132.416 30.1076 132.029 31.2841 131.863 32.847L141.772 32.8469Z" fill="white"/>
<path d="M151.73 22.1074H161.412L165.618 38.5511L170.988 22.1074H179.958L185.482 38.5129L189.679 22.1074H199.297L189.69 48.1773H180.796L175.514 32.4914L170.392 48.1773H161.43L151.73 22.1074Z" fill="white"/>
<path d="M200.829 12.2046H210.822V19.0056H200.829V12.2046ZM200.829 22.1074H210.822V48.1773H200.829V22.1074Z" fill="white"/>
<path d="M227.522 12.2046V22.1074H233.021V29.4459H227.522V38.6926C227.522 39.8054 227.629 40.5412 227.841 40.9C228.169 41.4569 228.742 41.7352 229.56 41.735C230.294 41.735 231.695 41.3984 233.021 40.9739V48.0461C230.865 48.5356 228.661 48.7798 226.45 48.7742C223.958 48.7742 222.121 48.4558 220.939 47.8189C219.757 47.1806 218.832 46.1552 218.32 44.9159C217.754 43.617 217.471 41.5143 217.472 38.6077V29.446H213.762V22.1074H217.472V17.3272L227.522 12.2046Z" fill="white"/>
</svg>
