<svg width="60" height="60" viewBox="0 0 60 60" fill="none" xmlns="http://www.w3.org/2000/svg">
<rect opacity="0.2" width="60" height="60" rx="15" fill="white"/>
<g clip-path="url(#clip0_173_139)">
<path d="M46.6665 19.5834V40.7222C46.6368 40.8181 46.6601 40.9167 46.6526 41.0131C46.6785 42.0019 46.357 42.8876 45.8525 43.7202C45.5585 44.2029 45.1962 44.6405 44.7768 45.0193C44.2202 45.5233 43.5745 45.919 42.8728 46.1862C42.3431 46.3907 41.7793 46.4924 41.2115 46.4857C41.1225 46.4935 41.032 46.4685 40.9442 46.4996H18.9163C18.8547 46.4701 18.7891 46.4924 18.7258 46.4857C18.059 46.4901 17.4328 46.3284 16.8254 46.0601C16.104 45.7408 15.4526 45.2824 14.9085 44.7111C14.3645 44.1397 13.9384 43.4668 13.6546 42.7306C13.4486 42.2064 13.3443 41.6478 13.3471 41.0845C13.3399 41.0289 13.3624 40.9703 13.3332 40.9178V19.6112C13.3624 19.5493 13.3401 19.4837 13.3471 19.4203C13.3304 18.5555 13.5971 17.7687 14.0061 17.0205C14.2982 16.4882 14.6714 16.0046 15.1124 15.5872C15.8158 14.9105 16.6758 14.4184 17.6156 14.1547C17.9801 14.052 18.3507 14.0289 18.7244 14.0139C18.7883 14.0069 18.8541 14.0294 18.9163 14H40.9442C41.0314 14.0308 41.1212 14.0061 41.2095 14.0139C42.378 13.9953 43.3901 14.4306 44.3128 15.1035C45.0983 15.6757 45.7285 16.4349 46.1464 17.3122C46.3396 17.7023 46.4848 18.1143 46.5787 18.5394C46.6399 18.8272 46.6432 19.1228 46.6535 19.4151C46.6596 19.4709 46.6374 19.5293 46.6665 19.5834Z" fill="#460136"/>
<path d="M46.6667 41.0278C46.6581 41.0284 46.6497 41.0297 46.6414 41.0317C46.6455 40.9283 46.6164 40.8219 46.6667 40.7222V41.0278Z" fill="#36012A"/>
<path d="M41.2221 14C41.2227 14.0085 41.2238 14.0169 41.2255 14.0253C41.1313 14.0228 41.0346 14.0478 40.9443 14H41.2221Z" fill="#2F0124"/>
<path d="M41.2255 46.4747C41.2238 46.4831 41.2227 46.4915 41.2221 46.5H40.9443C41.0346 46.4533 41.1313 46.477 41.2255 46.4747Z" fill="#2D0123"/>
<path d="M18.7203 14.0244C18.7203 14.0164 18.7217 14.0081 18.722 14H18.9165C18.8551 14.0386 18.787 14.0264 18.7203 14.0244Z" fill="#180013"/>
<path d="M13.3333 19.4168C13.3414 19.4168 13.3497 19.4168 13.3578 19.4143C13.36 19.4813 13.373 19.5496 13.3333 19.6113V19.4168Z" fill="#23001B"/>
<path d="M18.722 46.5001C18.722 46.4918 18.722 46.4837 18.7203 46.4757C18.787 46.4734 18.8551 46.4615 18.9165 46.5001H18.722Z" fill="#180012"/>
<path d="M46.643 19.4143C46.6508 19.4143 46.6589 19.4163 46.6666 19.4168V19.5835C46.6311 19.5324 46.6391 19.4724 46.643 19.4143Z" fill="#1B0015"/>
<path d="M13.3569 41.0859C13.3492 41.0859 13.3411 41.084 13.3333 41.0834V40.9167C13.3694 40.9693 13.3608 41.0279 13.3569 41.0859Z" fill="#1E0017"/>
<path d="M41.7361 28.2777C41.7361 30.1575 41.7392 32.037 41.7361 33.9176C41.7342 34.6216 41.7639 35.3239 41.8131 36.026C41.8281 36.2432 41.7969 36.288 41.595 36.3705C40.0853 36.9864 38.5097 37.2426 36.8873 37.187C35.7221 37.147 34.6155 36.8558 33.6386 36.1963C32.4876 35.4184 31.805 34.3221 31.5608 32.9599C31.3733 31.9153 31.3427 30.8665 31.6644 29.841C32.3218 27.7449 33.7481 26.4385 35.8518 25.8682C36.7114 25.6351 37.5932 25.5789 38.4814 25.6623C38.6028 25.674 38.6442 25.652 38.6436 25.5164C38.6381 24.1323 38.64 22.7482 38.6403 21.3638C38.6403 21.144 38.6564 21.1279 38.8781 21.1279H41.5175C41.7214 21.1279 41.738 21.1435 41.738 21.3502L41.7361 28.2777Z" fill="#FE61F5"/>
<path d="M24.7697 27.8034C24.7826 27.7856 24.7946 27.767 24.8055 27.7478C25.6337 26.0164 26.603 24.3584 27.4743 22.6506C27.5962 22.4114 27.7266 22.3361 27.9916 22.3419C28.9031 22.3617 29.8152 22.3494 30.7273 22.3483C30.7898 22.3483 30.8496 22.3483 30.886 22.4081C30.9224 22.4678 30.881 22.5114 30.8521 22.5589C29.4854 24.8122 28.1181 27.0655 26.7503 29.3186C26.6994 29.402 26.7164 29.4556 26.7606 29.5278C28.1986 31.884 29.6356 34.241 31.0715 36.599C31.1216 36.6824 31.2085 36.7704 31.1588 36.863C31.1091 36.9555 30.9904 36.9024 30.9043 36.9027C29.8583 36.9049 28.812 36.8988 27.7649 36.9027C27.5221 36.9027 27.3795 36.8057 27.2706 36.5846C26.4311 34.8799 25.5073 33.2199 24.5819 31.5607C24.5644 31.5293 24.5563 31.4773 24.518 31.476C24.4666 31.4723 24.4643 31.5315 24.4471 31.5646C23.5503 33.3124 22.6212 35.0429 21.675 36.7646C21.6172 36.8699 21.5425 36.9257 21.4249 36.9263C21.0779 36.9282 20.7304 36.9324 20.3837 36.933C19.6939 36.9341 19.0042 36.9341 18.3144 36.933C18.1958 36.933 18.1619 36.8844 18.2061 36.7716C18.2234 36.7336 18.2439 36.6973 18.2675 36.6629C19.6666 34.3688 21.0661 32.0759 22.4659 29.784C22.524 29.689 22.5262 29.6218 22.4687 29.5245C21.0981 27.2136 19.7312 24.9011 18.368 22.587C18.3344 22.53 18.2686 22.4742 18.308 22.3992C18.3497 22.32 18.4339 22.335 18.5067 22.335C19.5252 22.335 20.5437 22.3372 21.5627 22.3328C21.7739 22.3328 21.9036 22.4119 21.9911 22.6106C22.4871 23.7277 23.0927 24.7876 23.7036 25.8442C24.058 26.4565 24.3914 27.0798 24.7038 27.7142C24.7194 27.7434 24.726 27.7837 24.7697 27.8034Z" fill="#FE61F5"/>
<path d="M38.6389 31.3676C38.6389 32.34 38.6372 33.3104 38.6411 34.282C38.6411 34.3881 38.6178 34.4428 38.5053 34.4556C37.6846 34.5487 36.87 34.5715 36.0965 34.2133C35.4456 33.9119 35.0408 33.389 34.8102 32.7239C34.5485 31.9702 34.5224 31.1959 34.703 30.4269C34.9275 29.4692 35.5714 28.8588 36.4455 28.4771C37.1084 28.1873 37.8043 28.1504 38.5128 28.2771C38.6147 28.2954 38.6417 28.3376 38.6414 28.4393C38.6372 29.4145 38.6389 30.3905 38.6389 31.3676Z" fill="#470137"/>
</g>
<defs>
<clipPath id="clip0_173_139">
<rect width="33.3333" height="32.4999" fill="white" transform="translate(13.3333 14)"/>
</clipPath>
</defs>
</svg>
