<svg width="64" height="64" viewBox="0 0 64 64" fill="none" xmlns="http://www.w3.org/2000/svg"><path fill="#fff" d="M0 0h64v64H0z"/><path d="M33.725 17.337l-9.555 16.17 10.192 17.151c.064.13.096.261.064.392-.032.13-.159.033-.35.066h-7.294c-.51 0-.86-.033-1.083-.36-.669-1.372-1.37-2.711-2.038-4.083a133.035 133.035 0 00-2.166-4.116A501.281 501.281 0 0119.2 38.31h-.063c-.67 1.404-1.402 2.81-2.134 4.214a578.567 578.567 0 00-2.166 4.181c-.733 1.372-1.465 2.777-2.198 4.117-.127.326-.382.359-.732.359H4.9c-.127 0-.223.065-.223-.098a.463.463 0 01.064-.36l9.906-16.66-9.651-16.759c-.096-.13-.127-.26-.064-.326.064-.098.191-.13.319-.13h7.23c.16 0 .318.032.446.064a.912.912 0 01.318.294c.606 1.405 1.306 2.81 2.039 4.215.764 1.404 1.497 2.776 2.293 4.148a72.66 72.66 0 012.134 4.15h.064a129.14 129.14 0 012.07-4.215c.7-1.372 1.433-2.744 2.166-4.116.733-1.372 1.433-2.777 2.134-4.116.032-.13.096-.262.191-.327a.595.595 0 01.414-.065h6.72a.293.293 0 01.351.228c.032.033-.032.164-.096.23zM48.44 51.802a15.5 15.5 0 01-6.847-1.47c-2.007-.948-3.663-2.516-4.81-4.443-1.178-1.993-1.752-4.476-1.752-7.449a13.686 13.686 0 011.752-6.892c1.21-2.124 2.962-3.888 5.064-5.064 2.23-1.274 4.905-1.895 8.059-1.895.159 0 .382 0 .669.033.286.033.605.033.987.065V14.364c0-.228.096-.359.319-.359h6.465c.16-.033.287.098.319.229v31.165c0 .588.032 1.241.063 1.96.064.686.096 1.34.128 1.895 0 .228-.096.424-.319.522a23.864 23.864 0 01-5.191 1.568 27.414 27.414 0 01-4.905.458zm3.122-6.534V30.894a7.957 7.957 0 00-.86-.163c-.35-.033-.7-.065-1.051-.065-1.242 0-2.484.26-3.6.849a7.197 7.197 0 00-2.707 2.417c-.7 1.046-1.05 2.45-1.05 4.15a9.314 9.314 0 00.54 3.364 6.407 6.407 0 001.434 2.32 5.475 5.475 0 002.166 1.306c.86.294 1.752.425 2.644.425.477 0 .923-.033 1.337-.066a2.72 2.72 0 001.147-.163z" fill="#000"/></svg>