<svg xmlns="http://www.w3.org/2000/svg" width="61.093" height="36.611" viewBox="0 0 61.093 36.611"><defs><style>.a,.b{fill:#908db5;}.b{font-size:6px;font-family:CircularStd-Book, Circular Std;}</style></defs><g transform="translate(0)"><path class="a" d="M1180.219-264.178c-.04.1-.054,4.018-.027,8.706.04,8.471.04,8.521.327,9.245a3.616,3.616,0,0,0,1.852,2.061c.711.34.852.367,2.456.367a5.222,5.222,0,0,0,2.5-.327l.788-.327.04-1.364c.041-1.735.027-1.8-.512-1.509a4.723,4.723,0,0,1-2.849.131c-.8-.408-.815-.539-.815-5.264v-4.267h4.2v-3.153h-4.2l-.027-2.206-.04-2.193-1.812-.04C1180.663-264.349,1180.283-264.322,1180.219-264.178Z" transform="translate(-1131.486 264.329)"/><path class="a" d="M398.128-165.649a7.445,7.445,0,0,0-3.742,2.075,8.2,8.2,0,0,0-2.391,5.658,8.018,8.018,0,0,0,8.154,8.733,8.106,8.106,0,0,0,5.7-2.152l.852-.828-.579-.526c-.317-.29-.8-.721-1.078-.96l-.485-.421-.7.526a8.839,8.839,0,0,1-1.472.906,3.791,3.791,0,0,1-2.1.367,3.915,3.915,0,0,1-2.048-.34,4.606,4.606,0,0,1-2.455-3.048l-.131-.485h11.653l.091-.485a12.191,12.191,0,0,0-.579-4.176A7.276,7.276,0,0,0,398.128-165.649Zm3.375,3.284a3.628,3.628,0,0,1,1.024.734,5.632,5.632,0,0,1,1.051,2.075c.04.249.118.566.145.684.064.222-.185.236-4.018.236h-4.1l.091-.434C396.353-162.1,398.98-163.6,401.5-162.365Z" transform="translate(-375.841 169.909)"/><path class="a" d="M1.12-156.61c.027.091,1.522,3.678,3.307,7.959,3.547,8.494,3.375,7.918,2.614,8.811-.7.828-1.59,1-2.954.539a3.34,3.34,0,0,0-.842-.236A13.864,13.864,0,0,0,2.168-136.9a3.6,3.6,0,0,0,1.233.566,6.217,6.217,0,0,0,2.337.381,7.588,7.588,0,0,0,1.721-.172,5.492,5.492,0,0,0,3.126-3.1c.3-.63,6.591-16.806,6.736-17.318.064-.209-.078-.222-1.839-.222h-1.9l-.684,1.93c-.367,1.078-1.273,3.678-2.011,5.776-.734,2.115-1.378,3.846-1.431,3.846s-.145-.2-.222-.434c-.077-.222-1.078-2.822-2.206-5.776L4.98-156.768H3.023C1.5-156.768,1.066-156.728,1.12-156.61Z" transform="translate(-1.116 161.21)"/><path class="a" d="M765.03-156.609c.054.091,1.327,1.866,2.836,3.927s2.732,3.809,2.732,3.86-1.233,1.8-2.732,3.86-2.785,3.833-2.836,3.914c-.078.131.34.172,1.916.172l2.011-.014,2.822-3.887c1.549-2.139,2.822-3.954,2.822-4.045s-1.273-1.9-2.822-4.045l-2.822-3.887-2.011-.013C765.373-156.768,764.952-156.727,765.03-156.609Z" transform="translate(-733.474 161.21)"/><path class="a" d="M973.649-154.784l-1.431,1.984.394.539a16.941,16.941,0,0,0,1.617,2.179c.064,0,4.543-6.12,4.766-6.5.091-.158-.222-.185-1.9-.185l-2.011.013Z" transform="translate(-932.114 161.21)"/><path class="a" d="M973.594,66.624c-.327.448-.761,1.064-.973,1.364l-.394.539,1.431,1.984,1.431,1.984H977.1c1.667,0,2-.027,1.9-.185-.236-.408-4.7-6.514-4.766-6.514A6.494,6.494,0,0,0,973.594,66.624Z" transform="translate(-932.123 -52.162)"/></g><text class="b" transform="translate(0.093 34.611)"><tspan x="0" y="0">Certified Professionals</tspan></text></svg>