<svg width="36" height="55" viewBox="0 0 36 55" fill="none" xmlns="http://www.w3.org/2000/svg">
<g clip-path="url(#clip0_1609_474)">
<path d="M29.3417 27.2048C29.0056 26.9365 28.7647 26.7169 28.4988 26.5315C19.8889 20.5207 11.284 14.505 2.6591 8.5137C-0.160693 6.55726 0.200562 6.14255 0.185509 3.85434C0.180492 2.85904 0.180492 1.86862 0.190527 0.878205C0.190527 0.624501 0.230666 0.375676 0.260771 0C0.63206 0.234188 0.913035 0.395192 1.17896 0.580591C7.14467 4.73743 13.1054 8.89914 19.0661 13.0609C23.9179 16.4566 28.7647 19.8572 33.6166 23.2578C33.727 23.3358 33.8323 23.4237 33.9477 23.492C36.9281 25.2045 36.4113 29.293 33.9979 30.9421C29.9689 33.6987 26.0503 36.6016 22.0866 39.4411C15.1424 44.4176 8.19833 49.399 1.25422 54.3755C0.988297 54.5658 0.712339 54.7414 0.325997 55C0.290875 54.6536 0.250736 54.4438 0.245718 54.2291C0.240701 52.6776 0.260771 51.1213 0.235683 49.5698C0.210596 48.1354 0.76753 47.0571 1.9968 46.2131C8.49436 41.7586 14.9668 37.27 21.4443 32.7912C23.8276 31.147 26.2008 29.493 28.5741 27.8391C28.8149 27.6732 29.0256 27.4732 29.3417 27.2048Z" fill="#4669B2"/>
<path d="M19.2565 26.8926C18.5641 27.6635 16.4267 29.1125 15.6289 29.3467C14.4498 29.698 13.346 29.5077 12.3425 28.8247C10.8122 27.7855 9.28185 26.7463 7.76157 25.6973C5.41342 24.0726 3.08032 22.4235 0.717112 20.8184C0.21537 20.4769 -0.0154317 20.1109 0.00965537 19.5157C0.0497947 18.5936 -0.000379473 17.6666 0.0297251 16.7445C0.0798993 15.4125 1.18373 14.749 2.44812 15.2906C2.75419 15.4223 3.04018 15.6175 3.31112 15.8077C8.34359 19.2864 13.3761 22.7651 18.4085 26.2486C18.6945 26.4438 18.9705 26.6731 19.2565 26.8926Z" fill="#4669B2"/>
</g>
<defs>
<clipPath id="clip0_1609_474">
<rect width="36" height="55" fill="white"/>
</clipPath>
</defs>
</svg>
