<svg width="63" height="67" viewBox="0 0 63 67" fill="none" xmlns="http://www.w3.org/2000/svg">
<g clip-path="url(#clip0_1634_120)">
<path d="M0 12.5819C0 12.0584 0 11.5348 0 10.9949C0.277031 11.0603 0.521469 10.9131 0.749612 10.8313C7.77315 8.32796 14.7967 5.8083 21.8202 3.28864C24.9327 2.19243 28.029 1.09621 31.1415 0C31.1415 2.61783 31.1252 5.25201 31.1252 7.86984C24.6883 22.2515 18.2514 36.6332 11.8471 50.9494C14.0634 50.9494 16.2307 50.9331 18.3981 50.9658C18.9033 50.9658 19.1151 50.7858 19.2944 50.3277C20.4188 47.4481 21.5758 44.5849 22.7165 41.7216C22.8306 41.4435 22.8795 41.1653 23.3195 41.1653C25.9268 41.198 28.5178 41.198 31.1252 41.198C31.1252 49.7878 31.1252 58.3939 31.1252 66.9836C30.9133 66.8855 30.6852 66.7873 30.4734 66.6728C28.0616 65.3311 25.6661 63.9895 23.2543 62.6479C17.2737 59.3101 11.2931 55.9888 5.31247 52.651C5.05173 52.5038 4.7747 52.4056 4.74211 52.0129C4.62804 50.8349 4.48138 49.6569 4.35101 48.4789C3.84584 44.1267 3.35696 39.7582 2.85178 35.4061C2.34661 31.0212 1.84144 26.6527 1.33626 22.2679C0.977755 19.1592 0.619245 16.0342 0.260735 12.9255C0.228143 12.7946 0.309622 12.5328 0 12.5819Z" fill="#E13237"/>
<path d="M31.142 0C33.8471 0.916239 36.5522 1.79976 39.2573 2.73236C46.949 5.36654 54.6407 8.00073 62.3486 10.6186C62.9353 10.8149 63.0657 11.093 63.0005 11.6657C62.4301 16.0342 61.8761 20.3863 61.322 24.7548C60.8168 28.7634 60.3442 32.7883 59.8391 36.8132C59.3339 40.8381 58.8124 44.8466 58.3073 48.8552C58.1932 49.7223 58.1117 50.5895 58.0139 51.473C57.965 51.9802 57.7695 52.3238 57.2806 52.5856C48.7578 57.2813 40.2514 62.0098 31.7612 66.7218C31.5657 66.8364 31.3701 67.0164 31.1094 66.9836C31.1094 58.3939 31.1094 49.7878 31.1094 41.198C33.9286 41.198 36.7478 41.198 39.567 41.1653C40.0884 41.1653 40.3655 41.2799 40.5773 41.8034C41.7995 44.7321 43.0706 47.6444 44.3417 50.5568C44.4394 50.7858 44.4557 51.064 44.8305 51.064C47.0142 51.0476 49.1978 51.064 51.3815 51.064C51.3163 50.9167 51.2348 50.6877 51.1371 50.475C44.9609 37.2713 38.7685 24.0676 32.5923 10.864C32.1197 9.86593 31.7286 8.8188 31.1257 7.86984C31.1257 5.25201 31.142 2.61783 31.142 0Z" fill="#B42E31"/>
<path d="M31.1254 7.86987C31.7121 8.81884 32.1195 9.8496 32.592 10.864C38.7845 24.0677 44.9606 37.2713 51.1368 50.475C51.2346 50.6877 51.316 50.9004 51.3812 51.064C49.1813 51.064 47.0139 51.064 44.8303 51.064C44.4555 51.064 44.4392 50.7859 44.3414 50.5568C43.0866 47.6445 41.8155 44.7321 40.577 41.8034C40.3652 41.2799 40.0882 41.149 39.5667 41.1654C36.7475 41.1981 33.9283 41.1981 31.1091 41.1981C28.5018 41.1981 25.9107 41.1981 23.3034 41.1654C22.8634 41.1654 22.8145 41.4271 22.7004 41.7216C21.5597 44.5849 20.4027 47.4481 19.2783 50.3277C19.099 50.7695 18.8872 50.9658 18.382 50.9658C16.2147 50.9331 14.0473 50.9495 11.8311 50.9495C18.2516 36.6332 24.6885 22.2516 31.1254 7.86987ZM31.0928 22.0552C31.0113 22.2352 30.9136 22.3988 30.8321 22.5788C29.4306 25.9329 28.0292 29.2706 26.6277 32.6247C26.2529 33.5246 25.8781 34.4245 25.4707 35.3734C27.4099 35.3734 29.2514 35.3734 31.1091 35.3734C33.0972 35.3898 35.0853 35.3734 37.0734 35.4061C37.5949 35.4061 37.7579 35.3734 37.4808 34.7844C35.4764 30.6286 33.5046 26.4564 31.5165 22.3006C31.4513 22.1698 31.4187 21.9898 31.3047 21.8916C31.0928 21.728 31.1254 21.9407 31.0928 22.0552Z" fill="#FEFDFD"/>
<path d="M31.0928 22.0552C31.1254 21.957 31.0928 21.7279 31.3046 21.9079C31.4187 22.0061 31.4513 22.1697 31.5165 22.3169C33.5046 26.4727 35.4764 30.6449 37.4808 34.8007C37.7578 35.3897 37.5948 35.4224 37.0734 35.4224C35.0853 35.3897 33.0972 35.3897 31.1091 35.3897C31.1091 30.923 31.0928 26.4891 31.0928 22.0552Z" fill="#B52F32"/>
<path d="M31.0928 22.0552C31.0928 26.4891 31.1091 30.9394 31.1091 35.3734C29.2514 35.3734 27.4099 35.3734 25.4707 35.3734C25.8618 34.4244 26.2529 33.5245 26.6277 32.6246C28.0292 29.2706 29.4306 25.9328 30.8321 22.5787C30.9135 22.3988 31.0113 22.2352 31.0928 22.0552Z" fill="#E13338"/>
</g>
<defs>
<clipPath id="clip0_1634_120">
<rect width="63" height="67" fill="white"/>
</clipPath>
</defs>
</svg>
