<svg width="52" height="52" viewBox="0 0 52 52" fill="none" xmlns="http://www.w3.org/2000/svg">
<g clip-path="url(#clip0_1608_459)">
<path d="M0.407631 28.1581C0.407631 25.0034 1.0273 21.9787 2.25363 19.0711C3.40196 16.3541 5.00963 13.9447 7.0593 11.8387C9.79796 9.0264 13.0436 7.00707 16.779 5.78507C19.0496 5.04407 21.3853 4.6844 23.773 4.6454C25.5323 4.61507 26.8713 5.69407 27.2006 7.4014C27.5083 9.00907 26.607 10.5777 25.0253 11.1757C24.6353 11.3231 24.2236 11.3534 23.8076 11.3577C20.874 11.4011 18.1136 12.1117 15.5613 13.5721C12.8053 15.1494 10.63 17.3204 9.1263 20.1154C6.8643 24.3101 6.43096 28.7084 7.8653 33.2584C8.9313 36.6341 10.929 39.3641 13.737 41.5091C16.155 43.3507 18.885 44.4557 21.8966 44.8241C24.1673 45.1014 26.4206 44.9151 28.6176 44.2434C30.8233 43.5717 32.8296 42.5274 34.576 41.0194C36.058 39.7411 37.319 38.2677 38.3113 36.5647C39.0696 35.2691 39.6546 33.8997 40.023 32.4481C40.2656 31.5077 40.452 30.5544 40.5256 29.5707C40.5776 28.8687 40.5343 28.1581 40.6556 27.4734C40.8073 26.5937 41.2883 25.8744 42.051 25.3761C44.209 23.9764 46.8176 25.2287 47.2943 27.6597C47.4633 28.5091 47.342 29.3541 47.2683 30.1904C47.1686 31.3171 46.9953 32.4394 46.7266 33.5444C46.12 36.0144 45.158 38.3371 43.8016 40.4951C42.623 42.3757 41.206 44.0571 39.5636 45.5477C38.4196 46.5877 37.163 47.4804 35.8413 48.2864C34.6973 48.9841 33.4883 49.5474 32.249 50.0457C31.6293 50.2927 30.9923 50.4921 30.3466 50.6827C29.6576 50.8864 28.9556 51.0467 28.2623 51.1941C26.4856 51.5667 24.6786 51.6014 22.863 51.5667C22.1003 51.5537 21.3636 51.4411 20.6096 51.3544C19.6173 51.2417 18.651 51.0337 17.6933 50.7781C15.947 50.3057 14.2656 49.6471 12.6796 48.7717C11.4013 48.0654 10.188 47.2507 9.0483 46.3191C7.40163 44.9757 5.9543 43.4461 4.7193 41.7257C3.53196 40.0791 2.6263 38.2634 1.8983 36.3654C1.16163 34.4414 0.710964 32.4394 0.507297 30.3897C0.433631 29.6487 0.403297 28.9034 0.407631 28.1581Z" fill="#3F60AD"/>
<path d="M23.8767 40.0877C20.098 40.079 16.926 38.6577 14.5167 35.75C11.9427 32.6387 11.1193 29.0507 12.038 25.103C12.6273 22.5637 13.9533 20.4447 15.925 18.759C18.2477 16.7744 20.9603 15.7777 24.0197 15.8254C25.311 15.8427 26.3207 16.4624 26.8797 17.6367C27.469 18.8717 27.3693 20.0807 26.546 21.216C26.0217 21.9397 25.2807 22.3124 24.4617 22.516C24.0977 22.607 23.699 22.5507 23.3133 22.594C22.2387 22.7197 21.2853 23.0837 20.4317 23.764C19.019 24.895 18.3257 26.3684 18.3343 28.145C18.3473 31.8717 22.1433 34.5194 25.662 33.293C26.585 32.9724 27.3043 32.3874 27.9543 31.6724C28.6303 30.9357 28.9683 30.043 29.2023 29.1157C29.289 28.7777 29.328 28.3877 29.3063 28.0107C29.237 26.7757 30.0473 25.3154 31.3777 24.869C32.838 24.3794 34.1293 24.596 35.204 25.7357C35.9017 26.4767 36.14 27.3997 36.075 28.4007C35.997 29.5837 35.815 30.745 35.4293 31.876C35.0003 33.1284 34.398 34.2897 33.592 35.3297C31.447 38.09 28.6217 39.6674 25.1507 40.079C24.7303 40.131 24.3013 40.0877 23.8767 40.0877Z" fill="#3F60AD"/>
<path d="M31.5993 0.416016C32.1583 0.420349 32.7 0.546016 33.2373 0.676016C35.5686 1.22202 37.8046 2.02802 39.8976 3.19368C41.501 4.08635 42.9873 5.14802 44.3523 6.38302C46.116 7.98202 47.572 9.82801 48.7463 11.8863C49.9033 13.9187 50.7483 16.081 51.2553 18.369C51.3593 18.85 51.4633 19.3267 51.5586 19.812C51.784 20.9343 50.978 22.5723 49.8556 23.1097C49.353 23.348 48.8243 23.5647 48.3043 23.569C47.2426 23.5777 46.311 23.1747 45.6306 22.3037C45.1366 21.671 44.998 20.9213 44.8246 20.163C44.4996 18.759 44.0576 17.394 43.412 16.094C42.5626 14.3823 41.4793 12.8527 40.0883 11.5483C39.0873 10.608 37.991 9.80635 36.7906 9.13035C35.0443 8.14235 33.1983 7.44902 31.2353 7.06768C30.4683 6.92035 29.7923 6.63868 29.242 6.08402C28.306 5.14368 28.02 3.68768 28.5313 2.48302C29.0686 1.19602 30.2343 0.416016 31.5993 0.416016Z" fill="#F89E23"/>
<path d="M28.3185 15.3616C28.2448 13.247 30.1601 11.9296 31.8371 11.9903C32.6085 12.0206 33.2888 12.3456 33.9475 12.701C35.2041 13.3726 36.3655 14.1873 37.3188 15.2576C38.4195 16.4926 39.3035 17.8706 39.7238 19.4913C40.0315 20.6743 39.6675 21.71 38.8311 22.5766C38.3545 23.0706 37.7738 23.3393 37.0805 23.4823C36.1445 23.6773 35.3385 23.4476 34.5888 22.958C34.0688 22.62 33.6875 22.139 33.4751 21.528C33.0201 20.2063 32.1145 19.292 30.8665 18.7026C30.1298 18.356 29.4365 17.9833 28.9598 17.2813C28.5655 16.7006 28.3055 16.0766 28.3185 15.3616Z" fill="#F89E23"/>
</g>
<defs>
<clipPath id="clip0_1608_459">
<rect width="52" height="52" fill="white"/>
</clipPath>
</defs>
</svg>
