<svg width="51" height="64" viewBox="0 0 51 64" fill="none" xmlns="http://www.w3.org/2000/svg">
<g clip-path="url(#clip0_1634_127)">
<path d="M50.9997 0.0179121C50.9642 0.197033 50.8401 0.268682 50.7514 0.358242C37.1455 14.0968 23.5395 27.8354 9.95137 41.574C9.72076 41.8069 9.61433 41.8069 9.38372 41.574C6.31485 38.4752 3.24598 35.3764 0.177113 32.2776C-0.0534957 32.0448 -0.0357566 31.9373 0.177113 31.7044C10.5545 21.2259 20.9319 10.7473 31.3093 0.268682C31.4689 0.107473 31.5931 0 31.8415 0C38.1389 0 44.454 0 50.7514 0C50.8223 0 50.8933 0.0179121 50.9997 0.0179121Z" fill="#54C4F7"/>
<path d="M50.982 29.5012H31.4513L24.125 36.8989L33.8993 46.7506L50.982 29.5012Z" fill="#54C5F8"/>
<path d="M50.9819 64L33.8991 46.7506L24.1426 56.6023L31.4688 64H50.9819Z" fill="#01579B"/>
<path d="M24.1247 36.8989L23.628 37.4005L14.3682 46.7327L24.1424 56.6023L33.8989 46.7506L24.1247 36.8989Z" fill="#29B6F6"/>
</g>
<defs>
<clipPath id="clip0_1634_127">
<rect width="51" height="64" fill="white"/>
</clipPath>
</defs>
</svg>
