<svg width="52" height="52" viewBox="0 0 52 52" fill="none" xmlns="http://www.w3.org/2000/svg">
<g clip-path="url(#clip0_1611_491)">
<path d="M0 27.3568C0 26.4353 0 25.5082 0 24.5866C0.124375 24.4284 0.0452272 24.2474 0.0621874 24.0722C0.209176 22.5118 0.446619 20.9685 0.842357 19.4477C1.33986 17.5255 2.04653 15.6882 2.96238 13.9243C4.03653 11.8552 5.37639 9.9726 6.96499 8.26527C8.49141 6.62579 10.21 5.20678 12.1096 4.00826C13.7095 2.9963 15.3942 2.16525 17.1694 1.53207C19.312 0.763209 21.5169 0.26571 23.7952 0.101761C24.0778 0.0791476 24.3718 0.118721 24.6432 0C25.5308 0 26.4127 0 27.3003 0C27.3512 0.084801 27.436 0.056534 27.5038 0.056534C28.7249 0.101761 29.9348 0.271363 31.1276 0.51446C33.6321 1.01761 36.0122 1.85997 38.2622 3.0698C40.795 4.42661 43.0563 6.13394 44.9898 8.26527C45.0011 8.29354 44.9898 8.33877 45.0463 8.32181L45.0407 8.31616C45.0124 8.384 45.052 8.41226 45.1085 8.43488L45.1028 8.42922C45.1085 8.4688 45.1311 8.48576 45.165 8.49141L45.1594 8.48576C45.1763 8.53099 45.182 8.57621 45.2103 8.61579C46.1657 10.0913 46.4936 11.6912 46.1827 13.4268C45.9735 14.5914 45.4816 15.6317 44.6902 16.5023C43.1807 18.1644 41.2981 18.905 39.0481 18.6675C38.1605 18.5771 37.3238 18.3114 36.5549 17.8478C36.2948 17.6895 36.0348 17.5255 35.7747 17.3673L35.7804 17.3729C35.7747 17.3333 35.7521 17.3164 35.7182 17.3107L35.7239 17.3164C35.7012 17.2881 35.6786 17.2542 35.656 17.2259C35.6504 17.2203 35.6391 17.2146 35.6334 17.2033C35.5882 17.1637 35.5429 17.1298 35.4977 17.0902C35.4186 17.0224 35.3394 16.9546 35.2659 16.8867C33.9035 15.5299 32.3375 14.4897 30.5284 13.8226C28.4592 13.0594 26.3336 12.8332 24.1513 13.1385C22.3931 13.3873 20.7593 13.9752 19.2385 14.9024C17.2259 16.1292 15.6599 17.78 14.5406 19.8434C13.7604 21.2794 13.2798 22.8228 13.0876 24.451C12.9293 25.7626 12.9689 27.0572 13.2007 28.3518C13.4834 29.9687 14.0826 31.4668 14.9363 32.8689C15.3433 33.536 15.8295 34.1409 16.3214 34.7402C16.6097 35.0907 16.9828 35.3733 17.2655 35.7352C17.2994 35.7747 17.3051 35.8595 17.3899 35.803L17.3955 35.8143C17.3842 36.0404 17.5708 36.1648 17.6725 36.3288C18.7241 38.0248 18.9672 39.8282 18.3905 41.7278C17.9891 43.062 17.209 44.1587 16.0952 44.9898C15.1794 45.6738 14.1448 46.1092 12.9859 46.2335C11.8835 46.3523 10.8206 46.2392 9.79169 45.8208C9.40161 45.6625 9.02848 45.4534 8.64971 45.2725H8.64405C8.62144 45.1594 8.5536 45.1368 8.45184 45.1707C8.10698 44.9219 7.82996 44.6053 7.53033 44.3114C6.42792 43.2203 5.44988 42.0331 4.57926 40.761C3.35812 38.9746 2.35747 37.0694 1.61122 35.0285C0.819743 32.8576 0.316591 30.6245 0.107415 28.3179C0.0791476 27.9957 0.113068 27.6678 0 27.3568Z" fill="#4184F3"/>
<path d="M12.1774 46.3975C15.8242 46.3975 18.7806 43.4412 18.7806 39.7943C18.7806 36.1475 15.8242 33.1912 12.1774 33.1912C8.53056 33.1912 5.57422 36.1475 5.57422 39.7943C5.57422 43.4412 8.53056 46.3975 12.1774 46.3975Z" fill="#34A853"/>
<path d="M33.276 39.7943C33.276 38.1436 33.8922 36.6341 34.9042 35.4865C34.8024 35.5826 34.7006 35.673 34.5989 35.7635C33.2816 36.9281 31.7948 37.7874 30.1327 38.3414C28.5158 38.8841 26.8481 39.0933 25.1464 38.9859C23.2751 38.8672 21.5056 38.364 19.8491 37.4708C18.9955 37.0129 18.1984 36.4701 17.4747 35.8257C17.4578 35.8087 17.4295 35.8087 17.4012 35.7974C17.3899 36.0235 17.5765 36.1479 17.6782 36.3118C18.7298 38.0079 18.9729 39.8113 18.3962 41.7108C17.9948 43.045 17.2147 44.1418 16.1009 44.9729C15.1851 45.6569 14.1505 46.0922 12.9916 46.2166C11.8892 46.3353 10.8263 46.2223 9.7974 45.8039C9.40731 45.6456 9.03419 45.4364 8.65541 45.2555C8.57626 45.3856 8.7176 45.4082 8.76848 45.4591C9.90481 46.4823 11.1373 47.3812 12.4375 48.184C13.7039 48.9642 15.0324 49.6256 16.4175 50.1683C17.8026 50.7054 19.216 51.1351 20.6689 51.4347C21.777 51.6665 22.902 51.7965 24.0214 51.9322C24.191 51.9548 24.3719 51.8587 24.5245 51.9944C25.5025 51.9944 26.4862 51.9944 27.4643 51.9944C27.6848 51.8644 27.9335 51.9096 28.1653 51.8926C30.4436 51.7174 32.6541 51.2199 34.8024 50.4567C37.3125 49.5634 39.6248 48.3027 41.7448 46.6858C42.4967 46.1148 43.2034 45.5099 43.8818 44.8711C42.7624 45.77 41.3434 46.3127 39.7944 46.3127C36.1931 46.3184 33.276 43.3956 33.276 39.7943Z" fill="#FBBC04"/>
<path d="M35.4979 34.8928C35.2887 35.0794 35.0852 35.2773 34.9043 35.4864C35.1078 35.2942 35.3057 35.0963 35.4979 34.8928Z" fill="#1B3D6D"/>
<path d="M43.8818 44.8768C44.2323 44.5941 44.5546 44.2775 44.8373 43.927C44.532 44.2492 44.2097 44.5658 43.8818 44.8768Z" fill="#1B3D6D"/>
<path d="M51.8987 23.6878C51.746 21.9635 51.4181 20.2788 50.9319 18.6167C50.2027 16.1066 49.1002 13.7774 47.6643 11.5952C46.9576 10.521 46.1605 9.50908 45.2955 8.55365C45.2616 8.51408 45.2277 8.4632 45.1598 8.4745C45.1768 8.51973 45.1824 8.56496 45.2107 8.60453C46.1661 10.0801 46.494 11.68 46.1831 13.4156C45.9739 14.5802 45.4821 15.6204 44.6906 16.491C43.1811 18.1531 41.2985 18.8937 39.0485 18.6563C38.1609 18.5658 37.3242 18.3001 36.5553 17.8365C36.2953 17.6782 36.0352 17.5143 35.7752 17.356C35.9278 17.6613 36.1766 17.8874 36.3744 18.1588C37.7595 20.0074 38.6075 22.0653 38.9015 24.3606C39.1616 26.4071 38.958 28.4084 38.2627 30.3532C37.6521 32.0718 36.7249 33.5926 35.4982 34.8985C35.3059 35.102 35.1081 35.2999 34.9045 35.4921C33.8926 36.6398 33.2764 38.1492 33.2764 39.8C33.2764 43.4012 36.1935 46.324 39.8004 46.324C41.3494 46.324 42.7684 45.7813 43.8878 44.8824C44.2157 44.5715 44.5323 44.2605 44.8432 43.9326C46.2114 42.5023 47.4155 40.9194 48.4331 39.1781C49.9087 36.6511 50.9376 33.9544 51.4973 31.0768C51.7234 29.9235 51.8761 28.7646 51.9439 27.5887C51.9439 27.5434 51.9439 27.4926 52.0004 27.4756C52.0004 26.5145 52.0004 25.5534 52.0004 24.5924C51.8817 24.2984 51.9213 23.9874 51.8987 23.6878Z" fill="#EA4335"/>
</g>
<defs>
<clipPath id="clip0_1611_491">
<rect width="52" height="52" fill="white"/>
</clipPath>
</defs>
</svg>
