<svg width="57" height="53" viewBox="0 0 57 53" fill="none" xmlns="http://www.w3.org/2000/svg">
<g clip-path="url(#clip0_1608_442)">
<path d="M35.8257 16.1532C38.176 12.0456 36.7814 6.7933 32.7106 4.42188C28.6399 2.05047 23.4345 3.45793 21.0841 7.56555L4.25606 36.975C1.90569 41.0827 3.30035 46.3349 7.37111 48.7064C11.4419 51.0778 16.6472 49.6703 18.9976 45.5627L35.8257 16.1532Z" fill="#FBBD04"/>
<path d="M35.9162 7.43785C33.5658 3.33023 28.3605 1.92276 24.2897 4.29418C20.219 6.6656 18.8243 11.9179 21.1747 16.0255L38.0027 45.435C40.3531 49.5426 45.5585 50.9501 49.6292 48.5787C53.7 46.2072 55.0946 40.955 52.7443 36.8473L35.9162 7.43785Z" fill="#438EDC"/>
<path d="M11.7425 49.8495C16.5082 49.8495 20.3716 45.9513 20.3716 41.1427C20.3716 36.334 16.5082 32.4358 11.7425 32.4358C6.9767 32.4358 3.11328 36.334 3.11328 41.1427C3.11328 45.9513 6.9767 49.8495 11.7425 49.8495Z" fill="#34A952"/>
</g>
<defs>
<clipPath id="clip0_1608_442">
<rect width="57" height="53" fill="white"/>
</clipPath>
</defs>
</svg>
