<svg width="60" height="60" viewBox="0 0 60 60" fill="none" xmlns="http://www.w3.org/2000/svg">
<g clip-path="url(#clip0_1611_486)">
<path d="M59.9996 31.004C59.5447 33.4672 57.9657 35.1807 56.253 36.8675C52.5598 40.4819 48.9738 44.2035 45.2806 47.7912C42.5242 50.4418 39.8212 53.1727 37.0915 55.8501C36.8774 56.0643 36.6366 56.2249 36.3957 56.4123C35.8605 56.0107 36.2351 55.5556 36.3689 55.154C37.3056 52.5033 36.8239 50.1205 35.0844 47.9786C34.5759 47.3628 33.9069 46.9076 33.2913 46.4257C32.6491 44.9264 31.1504 44.2035 30.2137 43.0254C29.9729 42.7309 29.5714 42.5435 29.6517 42.0616C29.8391 41.66 30.1602 41.3655 30.4546 41.071C33.6125 37.751 36.8239 34.4578 40.0621 31.245C41.1593 30.174 41.1325 29.9866 40.0888 28.9157C36.6366 25.4083 33.0772 22.008 29.7053 18.4471C27.7249 16.6265 25.798 14.7523 23.9782 12.7443C22.2119 10.7631 21.6499 8.38019 22.2387 5.78313C22.426 4.95315 23.1218 4.3909 23.4162 3.64123C24.7543 1.90094 26.5474 0.77644 28.608 0.0803223C29.4644 0.0803223 30.3475 0.0803223 31.2039 0.0803223C33.5322 0.13387 35.1647 1.39224 36.7436 2.99866C43.4341 9.77242 50.1513 16.5462 56.9755 23.2129C58.6883 24.8728 59.9996 26.5863 59.9996 29.0763C59.9996 29.6653 59.9996 30.3347 59.9996 31.004Z" fill="#8AB4F8"/>
<path d="M29.8393 41.9813C31.1506 43.2664 32.569 44.4444 33.6395 45.9973C33.1845 46.6131 32.6761 46.158 32.1944 46.0241C29.9999 45.4083 27.9125 45.5689 26.0124 46.8809C23.2827 48.755 22.3728 52.075 23.577 55.3681C23.7376 55.7697 24.139 56.1981 23.6306 56.6265C23.3362 56.3588 23.0151 56.1178 22.7474 55.8233C16.0035 49.0763 9.25948 42.3293 2.54226 35.6091C-0.829731 32.2088 -0.829731 27.7644 2.56902 24.3641C9.25948 17.6707 15.9499 10.9772 22.6136 4.31058C22.8812 4.04284 23.1489 3.80188 23.4165 3.56091C23.4165 3.93575 23.2559 4.25703 23.1221 4.60509C21.9178 7.44311 22.5333 10.6024 24.701 12.7979C26.4673 14.5917 28.2336 16.3855 29.9999 18.1794C30.1337 18.822 29.652 19.1432 29.2773 19.5181C26.1997 22.5971 23.1221 25.676 20.0445 28.7818C18.867 29.9598 18.867 30.0937 20.0177 31.245C23.1221 34.3507 26.0659 37.6171 29.2238 40.6693C29.5717 40.9906 30.1605 41.3119 29.8393 41.9813Z" fill="#4285F4"/>
<path d="M23.6038 56.5998C22.8009 54.9666 22.2657 53.3066 22.5868 51.4324C23.3629 46.8006 27.9659 44.0161 32.4084 45.569C32.8098 45.7028 33.2113 45.8635 33.6395 45.9973C35.6734 47.4699 37.0382 49.3173 37.3326 51.8608C37.5199 53.494 36.9847 54.9398 36.3959 56.3856C34.362 59.1165 31.7394 60.5087 28.2603 59.7858C26.28 59.3842 24.8081 58.2062 23.6038 56.5998Z" fill="#246FDB"/>
</g>
<defs>
<clipPath id="clip0_1611_486">
<rect width="60" height="60" fill="white"/>
</clipPath>
</defs>
</svg>
