<svg width="62" height="55" viewBox="0 0 62 55" fill="none" xmlns="http://www.w3.org/2000/svg">
<g clip-path="url(#clip0_1611_478)">
<path d="M2.29074 38.3047C2.17912 38.0418 2.39704 37.8862 2.50334 37.7038C8.66879 26.8616 14.8342 16.0246 21.005 5.18773C23.1151 1.48601 27.4894 -0.590169 31.6085 0.14481C36.0838 0.944166 39.1984 4.01284 39.9532 8.49245C40.3624 10.8959 39.8894 13.1813 38.651 15.2897C32.3633 26.0354 26.0756 36.7757 19.7772 47.5107C19.6816 47.6716 19.6497 47.9077 19.4158 47.9613C19.2776 47.6985 19.453 47.4785 19.5168 47.2532C20.7446 42.8219 18.879 38.1759 14.9352 35.8798C11.2679 33.7446 6.36738 34.4152 3.25808 37.457C2.95512 37.7575 2.75315 38.1813 2.29074 38.3047Z" fill="#FABB05"/>
<path d="M62.0005 27.1298C61.9793 29.0558 61.4956 30.735 60.6133 32.2961C57.2861 38.1759 54.012 44.0826 50.6263 49.9249C46.8314 56.4699 37.5779 56.7328 33.6182 50.4238C31.5931 47.1996 31.3274 43.7285 33.1239 40.3433C35.1967 36.4324 37.5035 32.6502 39.7145 28.8144C40.9211 26.7221 42.1063 24.6137 43.3447 22.5375C45.3538 19.1845 48.3143 17.4356 52.2049 17.4839C56.0796 17.5322 58.9444 19.4099 60.8737 22.7575C61.655 24.1309 61.9686 25.6599 62.0005 27.1298Z" fill="#4285F3"/>
<path d="M2.29107 38.3047C2.74816 38.1813 2.95013 37.7522 3.25309 37.4571C6.36771 34.4152 11.2682 33.7446 14.9356 35.8852C18.8793 38.1813 20.7449 42.8219 19.5171 47.2586C19.4534 47.4839 19.278 47.7092 19.4161 47.9668V47.956C19.1876 47.9989 19.2354 48.1599 19.2726 48.3101C18.4169 50.161 17.2742 51.7704 15.5946 52.9882C11.7944 55.7404 6.9311 55.5526 3.34876 52.4678C0.0321746 49.6084 -0.967054 44.4957 1.01546 40.4936C1.3131 39.8927 1.64263 39.3133 1.95622 38.7178C2.16882 38.7339 2.26449 38.6534 2.16882 38.4335L2.15819 38.4442C2.32827 38.514 2.34422 38.4442 2.3017 38.2994L2.29107 38.3047Z" fill="#34A853"/>
<path d="M2.16866 38.4335C2.26433 38.6588 2.16866 38.7339 1.95605 38.7178C2.00921 38.6051 2.01452 38.4657 2.16866 38.4335Z" fill="#FABB05"/>
<path d="M19.2726 48.31C19.2354 48.1598 19.1875 47.9989 19.4161 47.9559C19.4533 48.1061 19.3895 48.2134 19.2726 48.31Z" fill="#FABB05"/>
<path d="M2.30171 38.2993C2.34954 38.4388 2.32828 38.5139 2.1582 38.4442C2.16883 38.3584 2.14226 38.2403 2.30171 38.2993Z" fill="#FABB05"/>
</g>
<defs>
<clipPath id="clip0_1611_478">
<rect width="62" height="55" fill="white"/>
</clipPath>
</defs>
</svg>
