<svg width="49" height="54" viewBox="0 0 49 54" fill="none" xmlns="http://www.w3.org/2000/svg">
<g clip-path="url(#clip0_1608_437)">
<path d="M47.2609 25.6485C46.0474 23.595 44.3151 21.8899 42.2346 20.701C40.6746 19.7875 38.9456 19.1933 37.1498 18.9534V12.3751C38.049 12.006 38.8158 11.3781 39.3509 10.5726C39.8861 9.76709 40.1651 8.82105 40.1519 7.85678C40.1585 6.54572 39.6392 5.28577 38.7082 4.35404C37.7773 3.42232 36.5109 2.89512 35.1877 2.88842H35.1631C33.8324 2.88961 32.5565 3.41307 31.6145 4.34422C30.6724 5.27537 30.1411 6.53837 30.1368 7.85678C30.1098 8.8157 30.376 9.7603 30.9005 10.5666C31.425 11.373 32.1832 12.0034 33.0758 12.3751V18.9172C31.5366 19.1385 30.0432 19.6031 28.6526 20.2935L10.8723 6.95764C11.0139 6.4854 11.0922 5.99679 11.1054 5.50434C11.1157 4.27572 10.7142 3.07844 9.96393 2.10021C9.21361 1.12197 8.15687 0.418104 6.95939 0.0989487C5.7619 -0.220206 4.49137 -0.1366 3.347 0.336659C2.20263 0.809918 1.24911 1.64607 0.635956 2.71403C0.0227979 3.78198 -0.215338 5.02135 -0.0411156 6.23783C0.133107 7.45431 0.709836 8.57911 1.59865 9.43589C2.48747 10.2927 3.63811 10.833 4.87019 10.9721C6.10227 11.1112 7.34611 10.8413 8.40671 10.2047L9.57099 11.0776L25.5162 22.4685C24.6511 23.2401 23.8922 24.1212 23.259 25.0889C21.9516 27.0456 21.2397 29.3335 21.2082 31.6799V32.1743C21.2139 33.8005 21.5097 35.4129 22.0819 36.9371C22.5669 38.2288 23.2652 39.4316 24.1482 40.4965L18.8477 45.7565C17.9383 45.4279 16.9435 45.4139 16.0251 45.7168C15.1066 46.0197 14.3187 46.6217 13.7895 47.4247C13.2603 48.2278 13.0209 49.1846 13.1104 50.1396C13.1999 51.0945 13.6129 51.9914 14.2822 52.6842C14.9515 53.377 15.8378 53.825 16.7968 53.9553C17.7558 54.0855 18.7311 53.8904 19.5639 53.4016C20.3967 52.9128 21.038 52.1591 21.3836 51.2632C21.7291 50.3674 21.7585 49.382 21.4669 48.4675L26.9382 43.0455C27.703 43.5671 28.5193 44.0103 29.3746 44.3684C31.1694 45.148 33.1074 45.5519 35.0671 45.5545H35.4372C37.7563 45.5563 40.0375 44.9715 42.0647 43.8555C44.0919 42.7395 45.798 41.1293 47.0215 39.1773C48.3146 37.1722 49.0003 34.8417 48.9973 32.4622V32.3346C49.0244 29.9904 48.4217 27.6812 47.2509 25.644L47.2609 25.6485ZM40.5796 37.0267C39.9666 37.8052 39.1921 38.4442 38.3084 38.9005C37.4247 39.3568 36.4524 39.6197 35.4573 39.6717H35.0918C33.9589 39.6559 32.8476 39.3629 31.8567 38.8187C30.7042 38.2242 29.7279 37.3426 29.0237 36.2607C28.2691 35.2522 27.855 34.0335 27.8402 32.7782V32.4079C27.8273 31.1475 28.1395 29.9047 28.7472 28.7973C29.355 27.69 30.2381 26.7548 31.3129 26.0804C32.3929 25.3605 33.6668 24.98 34.9684 24.9884H35.0927C36.2855 24.9719 37.4647 25.2402 38.5307 25.7708C39.6256 26.3417 40.5557 27.1797 41.233 28.2056C41.9038 29.2343 42.3185 30.4061 42.443 31.6247L42.4722 32.3952C42.4503 34.1305 41.7564 35.7912 40.5339 37.034L40.5796 37.0267Z" fill="#F8761F"/>
</g>
<defs>
<clipPath id="clip0_1608_437">
<rect width="49" height="54" fill="white"/>
</clipPath>
</defs>
</svg>
