<svg width="67" height="46" viewBox="0 0 67 46" fill="none" xmlns="http://www.w3.org/2000/svg">
<g clip-path="url(#clip0_1608_465)">
<path d="M33.1694 20.6473C37.0074 20.6473 40.3841 21.3585 43.6072 22.8151C46.4145 24.0838 48.9143 25.7907 51.0668 27.9925C52.3423 29.2955 53.5552 30.6609 54.4435 32.2768C54.5574 32.4816 54.5973 32.5726 54.3695 32.7547C53.6349 33.3407 52.832 33.813 52.0633 34.3421C50.7479 35.2524 49.404 36.1286 48.0886 37.0389C47.8381 37.2096 47.7356 37.1755 47.5761 36.9308C45.9988 34.4559 43.9374 32.5044 41.3522 31.082C38.3797 29.4434 35.2023 28.8232 31.8597 29.1134C29.1434 29.3467 26.6493 30.2797 24.3488 31.7533C22.2646 33.0904 20.6645 34.8826 19.3207 36.9251C19.127 37.2153 19.0132 37.1812 18.774 37.0219C16.7012 35.6165 14.6228 34.2112 12.5387 32.823C12.2824 32.6523 12.2312 32.5271 12.4077 32.2597C13.296 30.9227 14.2754 29.6539 15.3858 28.4932C17.191 26.6043 19.2295 24.9942 21.5244 23.7368C24.2805 22.2347 27.2017 21.2163 30.3393 20.8522C31.387 20.7327 32.4291 20.6587 33.1694 20.6473Z" fill="url(#paint0_linear_1608_465)"/>
<path d="M33.5228 45.9715C32.2017 46.1422 31.2678 45.357 30.277 44.697C29.0128 43.855 27.7544 43.0129 26.4845 42.1823C26.2112 42.0059 26.16 41.8807 26.3536 41.5849C27.3444 40.0544 28.6541 38.9335 30.3453 38.211C33.7449 36.7601 37.7081 37.9037 39.9403 40.5949C40.0941 40.7769 40.2308 40.9704 40.3731 41.1638C40.9312 41.9205 40.9426 41.9831 40.1112 42.4326C38.904 43.0869 37.8676 43.9802 36.7002 44.6914C35.9771 45.1294 35.345 45.7439 34.468 45.9146C34.1435 45.9772 33.8303 45.9431 33.5228 45.9715Z" fill="url(#paint1_linear_1608_465)"/>
<path d="M64.5111 20.0955C63.8164 19.646 63.4462 19.3501 62.9622 19.0145C61.7835 18.2009 60.5763 17.4271 59.4032 16.6021C57.097 14.9806 54.6997 13.5013 52.3878 11.8911C49.7854 10.0762 47.1376 8.32949 44.5011 6.56004C41.6425 4.63697 38.7839 2.71959 35.9196 0.807905C34.4049 -0.204835 32.8276 -0.295868 31.2901 0.711182C28.8757 2.28719 26.4898 3.92578 24.0924 5.53023C20.505 7.93691 16.9118 10.3436 13.3244 12.756C11.4851 13.9906 9.6515 15.2309 7.81791 16.4712C6.62209 17.2848 4.1906 18.9917 3.00047 19.8053C3.00047 19.8053 -2.14155 22.3542 1.04161 25.0909L4.93087 27.7081C4.93087 27.7081 5.15295 28.0722 5.57433 27.4179C6.00141 26.7636 8.37596 23.0939 12.4645 19.6858C13.6831 18.7812 15.2946 17.5579 16.6157 16.7898C18.6315 15.6178 20.7271 14.6335 22.9365 13.8882C25.4534 13.0404 28.0386 12.5056 30.6808 12.278C32.7251 12.1017 34.7694 12.1358 36.8194 12.3349C38.9092 12.5454 40.9592 12.938 42.9579 13.5411C47.2742 14.8326 51.1635 16.9321 54.6314 19.7769C58.6516 23.1621 60.992 26.775 61.4134 27.4179C61.8404 28.0722 62.0568 27.7081 62.0568 27.7081L65.9518 25.0966C68.5028 22.9061 65.724 20.8408 64.5111 20.0955Z" fill="url(#paint2_linear_1608_465)"/>
</g>
<defs>
<linearGradient id="paint0_linear_1608_465" x1="33.4178" y1="50.0403" x2="33.4178" y2="-3.35292" gradientUnits="userSpaceOnUse">
<stop stop-color="#EFC214"/>
<stop offset="1" stop-color="#24AE69"/>
</linearGradient>
<linearGradient id="paint1_linear_1608_465" x1="33.5017" y1="50.0403" x2="33.5017" y2="-3.35294" gradientUnits="userSpaceOnUse">
<stop stop-color="#EFC214"/>
<stop offset="1" stop-color="#24AE69"/>
</linearGradient>
<linearGradient id="paint2_linear_1608_465" x1="33.4987" y1="50.0404" x2="33.4987" y2="-3.3529" gradientUnits="userSpaceOnUse">
<stop stop-color="#EFC214"/>
<stop offset="1" stop-color="#24AE69"/>
</linearGradient>
<clipPath id="clip0_1608_465">
<rect width="67" height="46" fill="white"/>
</clipPath>
</defs>
</svg>
