<svg width="63" height="63" viewBox="0 0 63 63" fill="none" xmlns="http://www.w3.org/2000/svg">
<g clip-path="url(#clip0_1634_133)">
<path d="M0.0488281 52.4426C0.15957 52.4303 0.208789 52.5164 0.270313 52.578C1.90684 54.2022 3.53105 55.8387 5.16758 57.4629C5.35215 57.6475 5.32754 57.6475 5.4998 57.4629C8.44062 54.5221 11.3937 51.5936 14.3346 48.6405C14.7037 48.2713 15.0729 47.9145 15.442 47.5453C20.7822 42.2174 26.1102 36.8772 31.4504 31.5492C31.5119 31.4877 31.5611 31.4385 31.6227 31.3893C31.635 31.4139 31.6596 31.4262 31.6719 31.4508C35.9908 35.7944 40.2975 40.1379 44.6164 44.4815C49.6982 49.6002 54.7801 54.719 59.8619 59.8254C60.8463 60.8221 61.8307 61.8065 62.8273 62.8031C62.8643 62.8401 62.8766 62.9139 62.9627 62.877C62.9504 62.9016 62.9873 62.9385 62.9258 62.9385C62.8889 62.9385 62.852 62.9385 62.815 62.9385C41.9463 62.9385 21.0775 62.9385 0.221094 62.9385C0.0857422 62.9385 0.0611328 62.9016 0.0611328 62.7785C0.0488281 59.3455 0.0488281 55.8879 0.0488281 52.4426Z" fill="url(#paint0_linear_1634_133)"/>
<path d="M31.598 0.0615234C29.5186 2.25176 27.4391 4.44199 25.3596 6.64453C24.7813 7.25977 24.2152 7.875 23.6123 8.47793C23.1201 8.97012 22.6771 9.49922 22.185 9.99141C21.6805 10.4959 21.2129 11.0373 20.7084 11.5541C20.4131 11.8494 20.1178 12.157 19.8348 12.4646C19.4287 12.9199 19.0104 13.3506 18.592 13.7936C18.0752 14.3473 17.5584 14.8887 17.0416 15.4301C14.9867 17.5957 12.9195 19.7613 10.8646 21.9393C9.31426 23.5635 7.77617 25.2 6.22578 26.8365C4.30625 28.8053 2.42363 30.8232 0.504102 32.8166C0.356445 32.9643 0.233398 33.1488 0.0488281 33.2596C0.0488281 22.2469 0.0488281 11.2219 0.0488281 0.20918C0.0488281 0.0861328 0.0734375 0.0615234 0.196484 0.0615234C10.6678 0.0615234 21.1268 0.0615234 31.598 0.0615234Z" fill="url(#paint1_linear_1634_133)"/>
<path d="M31.598 0.0615198C42.0078 0.0615198 52.4053 0.0615198 62.815 0.0615198C62.8643 0.0615198 62.9258 0.0246057 62.9627 0.0861292C62.8889 0.0984339 62.852 0.159957 62.815 0.209176C53.9064 9.11777 44.9979 18.0141 36.0893 26.9227C34.6496 28.3623 33.1977 29.8143 31.758 31.2539C31.7088 31.3031 31.6719 31.3523 31.635 31.3893C31.5734 31.4385 31.5242 31.5 31.4627 31.5492C26.1225 36.8771 20.7822 42.2174 15.4543 47.5453C15.0852 47.9145 14.716 48.2713 14.3469 48.6404C11.3937 51.5936 3.17422 59.9238 0.233398 62.8523C0.0488281 63.0369 0.0488281 62.8277 0.0488281 62.8277V52.4303C0.0488281 52.4303 0.0488281 39.6457 0.0488281 33.2473C0.233398 33.1242 0.356445 32.952 0.504102 32.8043C2.42363 30.8232 4.30625 28.8053 6.21348 26.7996C7.76387 25.1754 9.30195 23.5389 10.8523 21.9023C12.9072 19.7367 14.9744 17.5711 17.0293 15.3932C17.5461 14.8518 18.0629 14.3103 18.5797 13.7566C18.998 13.3137 19.4164 12.883 19.8225 12.4277C20.1055 12.1201 20.4008 11.8125 20.6961 11.5172C21.2006 11.0127 21.6682 10.459 22.1727 9.95449C22.6648 9.4623 23.1201 8.9332 23.6 8.44101C24.1906 7.85039 24.7689 7.22285 25.3473 6.60761C27.4268 4.44199 29.5186 2.25175 31.598 0.0615198Z" fill="url(#paint2_linear_1634_133)"/>
</g>
<defs>
<linearGradient id="paint0_linear_1634_133" x1="9.96591" y1="75.1299" x2="47.9536" y2="44.3681" gradientUnits="userSpaceOnUse">
<stop stop-color="#0095D5"/>
<stop offset="1" stop-color="#806EE3"/>
</linearGradient>
<linearGradient id="paint1_linear_1634_133" x1="0.0488281" y1="16.6584" x2="31.5942" y2="16.6584" gradientUnits="userSpaceOnUse">
<stop stop-color="#0095D5"/>
<stop offset="0.2032" stop-color="#2789D9"/>
<stop offset="0.4422" stop-color="#4D7DDD"/>
<stop offset="0.6628" stop-color="#6975E0"/>
<stop offset="0.8557" stop-color="#7A70E2"/>
<stop offset="1" stop-color="#806EE3"/>
</linearGradient>
<linearGradient id="paint2_linear_1634_133" x1="-9.0361" y1="51.6638" x2="59.6643" y2="-3.96867" gradientUnits="userSpaceOnUse">
<stop stop-color="#C757BC"/>
<stop offset="0.1012" stop-color="#D0619A"/>
<stop offset="0.2499" stop-color="#DC6D6E"/>
<stop offset="0.4005" stop-color="#E67749"/>
<stop offset="0.5509" stop-color="#EE7F2D"/>
<stop offset="0.701" stop-color="#F48519"/>
<stop offset="0.8507" stop-color="#F7880D"/>
<stop offset="1" stop-color="#F88909"/>
</linearGradient>
<clipPath id="clip0_1634_133">
<rect width="63" height="63" fill="white"/>
</clipPath>
</defs>
</svg>
