<svg width="64" height="64" viewBox="0 0 64 64" fill="none" xmlns="http://www.w3.org/2000/svg">
<path d="M14.5366 0.400962C14.4885 0.489161 14.5767 0.481143 14.6168 0.505197C18.5456 2.76628 22.4665 5.02737 26.3953 7.28044C26.8523 7.54504 27.0608 7.90585 27.0608 8.42702C27.0528 16.7177 27.0528 25.0003 27.0528 33.291C27.0528 33.3952 27.0528 33.5075 27.0528 33.6598C27.4938 33.4032 27.8947 33.1787 28.2956 32.9462C31.1019 31.3346 33.9002 29.7149 36.7065 28.1113C36.8909 28.0071 36.9631 27.8948 36.9631 27.6783C36.9551 23.5009 36.9631 19.3316 36.9551 15.1542C36.9551 14.6169 37.1635 14.2722 37.6206 14.0076C41.4852 11.7946 45.3419 9.5736 49.1986 7.34459C49.6476 7.07999 50.0565 7.09603 50.4975 7.3526C54.3462 9.5736 58.1948 11.7946 62.0515 13.9996C62.5166 14.2722 62.725 14.633 62.725 15.1702C62.717 19.5561 62.717 23.9499 62.725 28.3358C62.725 28.865 62.5246 29.2178 62.0595 29.4824C58.3873 31.5831 54.731 33.6999 51.0588 35.8006C50.8744 35.9048 50.8182 36.0171 50.8182 36.2256C50.8263 40.403 50.8182 44.5723 50.8263 48.7497C50.8263 49.2789 50.6258 49.6397 50.1688 49.8963C42.3592 54.3864 34.5496 58.8765 26.7481 63.3747C26.259 63.6553 25.8421 63.6473 25.353 63.3666C17.5915 58.8845 9.82201 54.4185 2.05252 49.9444C1.77189 49.7841 1.5073 49.6157 1.36297 49.319C1.36297 49.311 1.34694 49.311 1.33892 49.311C1.29883 49.295 1.30685 49.3351 1.29883 49.3511C1.29883 35.52 1.29883 21.6969 1.29883 7.86576C1.30685 7.87378 1.32288 7.88981 1.3309 7.89783C1.3309 7.89783 1.34694 7.88981 1.35495 7.88179C1.5073 7.51296 1.83604 7.34459 2.15676 7.16017C4.3537 5.90134 6.54263 4.64251 8.73155 3.37566C10.3672 2.43754 12.0029 1.49142 13.6306 0.545287C13.6867 0.513215 13.823 0.529251 13.7669 0.392944C14.0154 0.400962 14.272 0.400962 14.5366 0.400962ZM25.0563 60.9211C25.0563 60.7688 25.0563 60.6806 25.0563 60.5844C25.0563 57.0003 25.0563 53.4243 25.0643 49.8402C25.0643 49.5997 24.9841 49.4794 24.7837 49.3671C21.1756 47.3306 17.5755 45.2779 13.9593 43.2574C13.39 42.9367 13.1735 42.5358 13.1735 41.8943C13.1896 33.2429 13.1816 24.5994 13.1896 15.9479C13.1896 15.7475 13.1415 15.6272 12.9571 15.523C9.82201 13.7269 6.69497 11.9229 3.55992 10.1268C3.27928 9.96649 3.27127 9.96649 3.27127 10.2872C3.27127 22.8996 3.27127 35.5039 3.26325 48.1163C3.26325 48.3248 3.33541 48.437 3.51181 48.5333C10.1427 52.3498 16.7736 56.1664 23.4126 59.983C23.9418 60.2797 24.479 60.5844 25.0563 60.9211ZM27.0448 60.9131C27.157 60.849 27.2372 60.8089 27.3174 60.7688C34.4053 56.6876 41.5013 52.6064 48.5972 48.5252C48.7736 48.421 48.8458 48.3168 48.8458 48.1083C48.8378 44.5483 48.8378 40.9803 48.8378 37.4203C48.8378 37.3321 48.8618 37.2358 48.8057 37.1236C48.7336 37.1637 48.6534 37.1958 48.5812 37.2439C41.4933 41.293 34.3973 45.3421 27.3013 49.3752C27.1009 49.4874 27.0367 49.6157 27.0448 49.8402C27.0528 53.4323 27.0528 57.0163 27.0528 60.6084C27.0448 60.6886 27.0448 60.7848 27.0448 60.9131ZM47.8275 35.3837C47.7313 35.3275 47.6672 35.2794 47.603 35.2474C44.484 33.4513 41.357 31.6553 38.2379 29.8512C38.0134 29.7229 37.8611 29.731 37.6446 29.8512C30.9736 33.6999 24.2946 37.5405 17.6236 41.3892C17.1505 41.6618 16.6774 41.9344 16.1803 42.2231C16.2605 42.2712 16.3166 42.3113 16.3727 42.3433C19.5399 44.1314 22.707 45.9274 25.8661 47.7234C26.0345 47.8197 26.1387 47.7796 26.283 47.6994C32.5852 44.0993 38.8874 40.4992 45.1896 36.9071C46.0555 36.3939 46.9215 35.8968 47.8275 35.3837ZM25.0322 10.0066C24.944 9.99856 24.8879 10.0627 24.8238 10.0948C21.6647 11.9149 18.5055 13.735 15.3464 15.547C15.1941 15.6352 15.154 15.7315 15.154 15.8918C15.154 24.0141 15.154 32.1364 15.162 40.2586C15.162 40.3308 15.1299 40.411 15.2021 40.4751C15.2502 40.4511 15.2903 40.427 15.3384 40.403C18.5216 38.5749 21.6967 36.7387 24.8879 34.9186C25.0563 34.8224 25.0643 34.7021 25.0643 34.5418C25.0643 26.4516 25.0643 18.3614 25.0643 10.2792C25.0563 10.183 25.0803 10.0948 25.0322 10.0066ZM39.9378 14.9617C40.0179 15.0098 40.0741 15.0499 40.1302 15.082C43.3053 16.9101 46.4805 18.7382 49.6476 20.5663C49.808 20.6626 49.9122 20.6144 50.0405 20.5423C53.1515 18.7462 56.2705 16.9502 59.3815 15.1542C59.4857 15.098 59.598 15.0579 59.6862 14.9457C59.614 14.9056 59.5499 14.8575 59.4858 14.8254C56.3266 13.0053 53.1675 11.1852 50.0084 9.36513C49.8561 9.27693 49.7518 9.29297 49.6155 9.37315C47.17 10.7843 44.7245 12.1875 42.279 13.5987C41.5093 14.0557 40.7316 14.5047 39.9378 14.9617ZM24.054 8.24261C23.9658 8.18648 23.9177 8.15441 23.8616 8.12234C20.6945 6.29422 17.5193 4.47413 14.3522 2.638C14.1838 2.54178 14.0716 2.58989 13.9353 2.67007C10.9125 4.40998 7.89768 6.1499 4.88289 7.88179C4.69046 7.99405 4.50604 8.1063 4.31361 8.21855C4.36172 8.32279 4.4419 8.33882 4.49803 8.37891C7.64912 10.191 10.8002 12.0031 13.9513 13.8232C14.1197 13.9194 14.2319 13.9114 14.3923 13.8151C16.8538 12.3879 19.3234 10.9687 21.7929 9.54955C22.5306 9.11657 23.2763 8.69162 24.054 8.24261ZM48.8218 33.6598C48.8298 33.5716 48.8378 33.5315 48.8378 33.4914C48.8378 29.8512 48.8378 26.211 48.8378 22.5628C48.8378 22.4185 48.7817 22.3463 48.6694 22.2822C45.4862 20.4541 42.3031 18.618 39.1199 16.7898C39.0638 16.7578 39.0157 16.6936 38.9275 16.7417C38.9275 16.8219 38.9275 16.9101 38.9275 16.9903C38.9275 20.5583 38.9275 24.1183 38.9195 27.6864C38.9195 27.9028 38.9916 27.9991 39.168 28.1033C41.3409 29.3461 43.5138 30.5969 45.6867 31.8477C46.721 32.4491 47.7554 33.0424 48.8218 33.6598ZM50.8182 33.6598C50.9064 33.6117 50.9626 33.5876 51.0107 33.5556C54.1858 31.7274 57.361 29.8993 60.5361 28.0792C60.6885 27.991 60.7285 27.8948 60.7285 27.7345C60.7205 24.1424 60.7285 20.5583 60.7205 16.9662C60.7205 16.8861 60.7526 16.7979 60.6804 16.7097C60.6243 16.7337 60.5762 16.7658 60.5281 16.7898C57.353 18.618 54.1858 20.4461 51.0027 22.2662C50.8503 22.3544 50.8182 22.4506 50.8182 22.6109C50.8182 25.9945 50.8182 29.3782 50.8182 32.7618C50.8182 33.0504 50.8182 33.3311 50.8182 33.6598Z" fill="#FD2D20"/>
</svg>
