<svg width="68" height="51" viewBox="0 0 68 51" fill="none" xmlns="http://www.w3.org/2000/svg">
<g clip-path="url(#clip0_1608_453)">
<path d="M12.4207 12.2464L33.5871 23.3679C33.7234 23.4363 33.8737 23.4719 34.0261 23.4719C34.1785 23.4719 34.3288 23.4363 34.4651 23.3679L55.6316 12.2464C55.7253 12.1985 55.8041 12.1256 55.8591 12.0357C55.9141 11.9457 55.9432 11.8423 55.9432 11.7368C55.9432 11.6313 55.9141 11.5279 55.8591 11.438C55.8041 11.348 55.7253 11.2751 55.6316 11.2273L34.4651 0.104789C34.3288 0.0364391 34.1785 0.000854492 34.0261 0.000854492C33.8737 0.000854492 33.7234 0.0364391 33.5871 0.104789L12.4207 11.2264C12.3267 11.2741 12.2477 11.3471 12.1926 11.4371C12.1374 11.5271 12.1082 11.6307 12.1082 11.7364C12.1082 11.842 12.1374 11.9456 12.1926 12.0356C12.2477 12.1257 12.3267 12.1986 12.4207 12.2464V12.2464ZM6.55131 22.5341L33.5871 36.7147C33.7234 36.7831 33.8737 36.8187 34.0261 36.8187C34.1785 36.8187 34.3288 36.7831 34.4651 36.7147L61.5009 22.5341C61.5947 22.4862 61.6734 22.4133 61.7284 22.3234C61.7834 22.2334 61.8125 22.13 61.8125 22.0245C61.8125 21.919 61.7834 21.8156 61.7284 21.7256C61.6734 21.6357 61.5947 21.5628 61.5009 21.5149L53.7382 17.4367L34.4651 27.5857C34.3288 27.6541 34.1785 27.6897 34.0261 27.6897C33.8737 27.6897 33.7234 27.6541 33.5871 27.5857L14.3141 17.4833L6.55131 21.5615C6.45909 21.6047 6.38108 21.6734 6.32642 21.7596C6.27177 21.8457 6.24274 21.9457 6.24274 22.0478C6.24274 22.1499 6.27177 22.2498 6.32642 22.336C6.38108 22.4221 6.45909 22.4908 6.55131 22.5341V22.5341ZM67.6933 32.4048L59.19 27.9562L34.4651 40.9782C34.3288 41.0465 34.1785 41.0821 34.0261 41.0821C33.8737 41.0821 33.7234 41.0465 33.5871 40.9782L8.81143 27.9562L0.312547 32.4048C0.21879 32.4526 0.14006 32.5256 0.0850709 32.6155C0.0300816 32.7054 0.000976563 32.8089 0.000976562 32.9143C0.000976562 33.0198 0.0300816 33.1233 0.0850709 33.2132C0.14006 33.3031 0.21879 33.3761 0.312547 33.4239L33.5407 50.8954C33.677 50.9638 33.8273 50.9994 33.9797 50.9994C34.1321 50.9994 34.2824 50.9638 34.4187 50.8954L67.6469 33.4239C67.7469 33.3842 67.8333 33.3165 67.8957 33.2288C67.9581 33.141 67.994 33.0371 67.9989 32.9294C68.0038 32.8217 67.9775 32.7149 67.9233 32.6219C67.8691 32.5288 67.7892 32.4534 67.6933 32.4048V32.4048Z" fill="#603EFF"/>
</g>
<defs>
<clipPath id="clip0_1608_453">
<rect width="68" height="51" fill="white"/>
</clipPath>
</defs>
</svg>
