<svg width="50" height="53" viewBox="0 0 50 53" fill="none" xmlns="http://www.w3.org/2000/svg">
<g clip-path="url(#clip0_1608_439)">
<path d="M37.6193 25.0291C37.9835 24.982 38.3523 24.982 38.7165 25.0291C38.9334 24.358 38.9538 23.639 38.7753 22.9567C38.5155 21.6964 38.1498 20.9312 37.4174 21.0486C36.6851 21.1661 36.6507 22.0849 36.9213 23.3451C37.0225 23.9519 37.2606 24.5277 37.6175 25.0291H37.6193ZM31.2825 26.0301C31.8139 26.2659 32.1325 26.4186 32.262 26.2776C32.4865 26.0536 31.8492 25.1709 30.8344 24.7346C30.244 24.4915 29.6009 24.404 28.9669 24.4802C28.3328 24.5565 27.729 24.794 27.2134 25.17C26.8594 25.4293 26.529 25.7826 26.5797 26.0066C26.6856 26.4421 27.7565 25.6886 29.2584 25.5946C29.9608 25.5668 30.659 25.7165 31.2879 26.0301H31.2825ZM30.2206 26.6309C29.147 26.7962 28.4509 27.3961 28.6274 27.8207C28.7333 27.8559 28.7686 27.911 29.2412 27.7303C29.9485 27.4643 30.7123 27.3832 31.4599 27.4945C31.8021 27.5298 31.9678 27.5533 32.0502 27.4358C32.2032 27.1883 31.3658 26.5053 30.2206 26.6354V26.6309ZM36.6163 28.6527C37.0173 27.8396 35.3299 27.004 34.9289 27.8279C34.5278 28.6518 36.227 29.4658 36.6163 28.6527ZM38.4693 26.2388C37.5641 26.227 37.5252 28.0998 38.434 28.1233C39.3547 28.1233 39.39 26.2505 38.4693 26.2388ZM12.6007 35.5458C12.4251 35.611 12.2333 35.6188 12.0529 35.568C11.8726 35.5171 11.7132 35.4103 11.5977 35.263C10.9839 34.3208 12.9076 32.8608 11.9517 31.035C11.7762 30.6611 11.5116 30.3357 11.1811 30.0873C10.8506 29.8389 10.4641 29.675 10.0555 29.6099C9.64694 29.5449 9.22859 29.5806 8.83702 29.7141C8.44546 29.8476 8.09259 30.0746 7.80922 30.3755C6.78266 31.5066 6.78266 33.1554 7.21899 33.2141C7.72684 33.2846 7.7024 32.4489 8.09256 31.8364C8.20007 31.6683 8.33988 31.5232 8.50392 31.4094C8.66796 31.2956 8.85298 31.2154 9.04827 31.1734C9.24356 31.1314 9.44525 31.1285 9.6417 31.1647C9.83814 31.201 10.0254 31.2757 10.1928 31.3847C10.1959 31.3847 10.1989 31.3859 10.2011 31.3881C10.2033 31.3903 10.2045 31.3933 10.2045 31.3964C11.5733 32.2917 10.3693 33.4923 10.4761 34.7761C10.6418 36.7428 12.6596 36.7076 13.0253 35.8358C13.0479 35.7932 13.0577 35.7449 13.0535 35.6968C13.0493 35.6488 13.0314 35.6029 13.0018 35.5648C13.0018 35.694 13.0724 35.4356 12.6007 35.5413V35.5458ZM48.0497 33.5312C47.8322 32.7067 47.5643 31.8964 47.2476 31.1046C47.8058 30.3508 48.0761 29.423 48.0097 28.488C47.9433 27.5531 47.5447 26.6725 46.8855 26.0048C45.658 24.721 42.8734 24.0498 42.0234 23.814C41.8423 22.4715 42.5783 16.8893 39.4742 14.0155C41.9292 11.4715 43.4627 8.66818 43.4627 6.26599C43.451 1.64952 37.7596 0.247411 30.7529 3.14468L29.2656 3.76894L26.5399 1.10747C18.5619 -5.84073 -6.43317 21.8708 1.55481 28.6076L3.30104 30.0801C2.82912 31.3425 2.66346 32.6985 2.81764 34.0371C3.10337 35.9701 4.05946 37.7419 5.5194 39.0439C6.97934 40.3459 8.85065 41.0955 10.8074 41.1624C17.6403 56.8737 42.4914 56.8972 48.9259 41.5156C49.5508 39.9156 49.9133 38.2257 49.9996 36.5107C49.9996 34.4147 48.8074 33.5294 48.0524 33.5294L48.0497 33.5312ZM10.6626 39.2227C9.21625 39.1228 7.84623 38.5379 6.77507 37.5629C5.7039 36.5878 4.99451 35.2801 4.76213 33.8519C4.03068 26.6245 13.5431 24.9722 14.6991 32.3911C15.2423 35.8891 14.1442 39.2923 10.6635 39.2218L10.6626 39.2227ZM8.48182 25.7356C6.72956 26.0636 5.17245 27.0556 4.1366 28.5037C3.46271 27.9807 2.84557 27.3888 2.29531 26.7375C0.760897 23.805 3.9827 18.1161 6.23679 14.9126C11.8095 6.97066 20.5299 0.967437 24.5791 2.05154C25.2372 2.23945 27.4098 4.74825 27.4098 4.74825C24.6726 6.31552 22.0712 8.1081 19.6328 10.1073C14.5362 14.1852 10.6753 19.5962 8.48092 25.7365L8.48182 25.7356ZM36.734 37.6779C33.964 38.0079 31.1551 37.7222 28.5088 36.8413C29.2402 34.4626 31.7071 37.564 39.9087 35.2152C42.0859 34.5959 44.1302 33.5819 45.9395 32.2239C46.3399 33.1384 46.6216 34.1002 46.7778 35.086C47.2141 35.0038 48.4652 35.0272 48.1357 37.218C47.7667 39.4921 46.6917 41.5931 45.0623 43.2249C44.0123 44.3584 42.7649 45.2923 41.3806 45.9812C40.6081 46.383 39.804 46.7211 38.9763 46.9921C32.6503 49.0528 26.1714 46.7916 24.0712 41.9158C23.9052 41.5404 23.7634 41.1547 23.6467 40.7612C23.1891 39.12 23.1536 37.3902 23.5435 35.7317C23.9334 34.0732 24.736 32.5395 25.8772 31.2726C26.0424 31.1271 26.1476 30.9256 26.1723 30.7071C26.1529 30.5082 26.0748 30.3196 25.9478 30.165C25.1213 28.9635 22.2544 26.9263 22.8319 22.9811C22.99 21.7017 23.6039 20.5218 24.5616 19.6568C25.5192 18.7918 26.7567 18.2995 28.048 18.2697L28.6383 18.305C29.6413 18.3637 30.5148 18.4938 31.3404 18.529C32.0805 18.595 32.8263 18.5078 33.531 18.2727C34.2358 18.0377 34.8842 17.6599 35.4358 17.163C35.8602 16.7196 36.4062 16.411 37.0055 16.2759C37.2767 16.2086 37.5588 16.1968 37.8347 16.2414C38.1105 16.2859 38.3745 16.3859 38.6106 16.5352C39.7874 17.3238 39.9558 19.2201 40.0146 20.6105C40.0499 21.3992 40.1441 23.3307 40.1803 23.8727C40.2509 25.133 40.5813 25.3092 41.2539 25.5215C41.6314 25.6507 41.9853 25.7338 42.4932 25.8828C43.6197 26.1136 44.6748 26.6092 45.5711 27.3283C45.8723 27.6235 46.0709 28.0072 46.1378 28.4233C46.327 29.7657 45.0994 31.4262 41.8423 32.9223C38.1056 34.5426 33.9928 35.101 29.9581 34.5358C27.5746 34.2178 26.2167 37.2921 27.6452 39.3881C30.3238 43.3333 42.1293 41.7433 45.5475 36.8675C45.6299 36.7501 45.5593 36.6787 45.4652 36.7501C40.5206 40.118 33.9829 41.2608 30.265 39.8217C29.6983 39.5977 28.5188 39.0565 28.3766 37.855C33.5366 39.445 36.7792 37.9372 36.7792 37.9372C36.7792 37.9372 37.039 37.6309 36.7321 37.6661L36.734 37.6779ZM18.7728 14.8765C20.6243 12.6912 22.8648 10.8663 25.3811 9.49391C25.3911 9.48813 25.4021 9.48446 25.4136 9.48311C25.425 9.48176 25.4366 9.48277 25.4476 9.48607C25.4587 9.48938 25.4689 9.4949 25.4777 9.50231C25.4865 9.50972 25.4937 9.51885 25.4988 9.52914C25.5046 9.54207 25.5077 9.55608 25.5077 9.57025C25.5077 9.58442 25.5046 9.59843 25.4988 9.61135C25.2313 10.082 25.0251 10.5847 24.8851 11.1074C24.8805 11.1308 24.8854 11.155 24.8986 11.1747C24.9118 11.1945 24.9323 11.2083 24.9557 11.2131C24.9675 11.2169 24.9801 11.2179 24.9924 11.2158C25.0047 11.2138 25.0163 11.2088 25.0263 11.2014C26.7638 10.0644 28.752 9.36528 30.8199 9.16416C30.8426 9.16407 30.8645 9.17246 30.8812 9.18768C30.898 9.2029 30.9084 9.22385 30.9104 9.24637C30.9109 9.26181 30.9079 9.27716 30.9019 9.29135C30.8958 9.30554 30.8866 9.31825 30.8751 9.32858C30.5305 9.58962 30.2256 9.89909 29.9699 10.2474C29.9631 10.2564 29.9583 10.2668 29.9558 10.2778C29.9533 10.2888 29.9531 10.3002 29.9554 10.3113C29.9576 10.3224 29.9621 10.3329 29.9687 10.3421C29.9752 10.3513 29.9837 10.3591 29.9934 10.3648C30.0072 10.3741 30.0239 10.3783 30.0405 10.3765C31.732 10.4351 33.389 10.8697 34.8909 11.6486C34.9814 11.6955 34.9144 11.8726 34.8202 11.8491C32.0929 11.2561 29.2723 11.2314 26.5349 11.7766C23.7976 12.3218 21.2025 13.4251 18.9122 15.0174C18.891 15.0283 18.8669 15.0319 18.8434 15.0277C18.82 15.0234 18.7987 15.0116 18.7827 14.9939C18.7474 14.9469 18.7474 14.9036 18.771 14.8765H18.7728Z" fill="black"/>
</g>
<defs>
<clipPath id="clip0_1608_439">
<rect width="50" height="53" fill="white"/>
</clipPath>
</defs>
</svg>
