<svg width="63" height="38" viewBox="0 0 63 38" fill="none" xmlns="http://www.w3.org/2000/svg">
<g clip-path="url(#clip0_1608_425)">
<path d="M44.0301 0H12.6799C12.6799 0 18.4707 6.1 24.8605 8.3H0C0 8.3 3.19493 16.6 22.8637 25.3H9.98415C9.98415 25.3 16.9731 37.1 44.0301 37.9C54.5135 37.9 63 29.4 63 18.9C63 8.4 54.5135 0 44.0301 0Z" fill="#FF622D"/>
<path d="M44.0305 31.7001C51.0334 31.7001 56.7103 26.0141 56.7103 19C56.7103 11.986 51.0334 6.30005 44.0305 6.30005C37.0276 6.30005 31.3506 11.986 31.3506 19C31.3506 26.0141 37.0276 31.7001 44.0305 31.7001Z" fill="white"/>
<path d="M43.032 10.1C42.8323 10.7 42.9321 11.4 43.4313 12.1C43.7309 12.4 44.0304 12.6 44.5296 12.7C45.8275 13 48.9226 14.1 49.921 18.5C50.1207 19.2 50.6199 19.8 51.3188 19.9C52.5169 20.2 53.6152 19.1 53.6152 17.9C53.5153 15.4 52.3172 10.6 45.3283 8.80003C44.4298 8.50003 43.3315 9.10003 43.032 10.1Z" fill="#FF622D"/>
</g>
<defs>
<clipPath id="clip0_1608_425">
<rect width="63" height="38" fill="white"/>
</clipPath>
</defs>
</svg>
