<svg width="102" height="29" viewBox="0 0 102 29" fill="none" xmlns="http://www.w3.org/2000/svg">
<g clip-path="url(#clip0_1634_78)">
<path d="M50.9248 29C50.7897 28.8794 50.5946 28.8643 50.4445 28.7738C49.8892 28.442 49.3188 28.1254 48.7635 27.7936C47.0075 26.7832 45.2664 25.7577 43.5104 24.7473C43.1202 24.5211 42.9551 24.2195 42.9551 23.7821C42.9701 21.0978 42.9551 18.4134 42.9551 15.7442C42.9551 15.3068 43.1202 15.0052 43.4954 14.7941C45.8068 13.467 48.1031 12.1399 50.3995 10.7977C50.8047 10.5564 51.1649 10.5564 51.5701 10.7977C52.0504 11.0993 52.5307 11.3557 53.026 11.6422C53.4763 11.8986 53.6714 11.7931 53.6714 11.2803C53.6714 7.76653 53.6714 4.25275 53.6714 0.738973C53.6714 0.64849 53.6714 0.558006 53.6714 0.467522C53.6864 0.120669 54.0166 -0.0904599 54.3168 0.0905073C55.7276 0.874699 57.1384 1.67397 58.5493 2.45816C58.8194 2.60897 58.9845 2.85026 59.0145 3.16695C59.0145 3.27251 59.0295 3.37808 59.0295 3.46856C59.0295 10.2096 59.0295 16.9657 59.0295 23.7067C59.0295 23.752 59.0295 23.7972 59.0295 23.8575C59.0295 24.2496 58.8644 24.5362 58.5192 24.7473C57.4386 25.3656 56.373 25.9839 55.2923 26.6173C54.0616 27.3261 52.8309 28.0499 51.6002 28.7587C51.4201 28.8643 51.2249 28.8945 51.0598 29.0302C50.9998 29 50.9548 29 50.9248 29ZM53.6264 19.7556C53.6264 19.3183 53.6264 18.8659 53.6264 18.4285C53.6264 18.2626 53.5663 18.1722 53.4312 18.0817C52.6808 17.6443 51.9304 17.2221 51.1799 16.7697C51.0148 16.6792 50.8797 16.6792 50.7296 16.7697C49.9792 17.207 49.2438 17.6443 48.4783 18.0817C48.3282 18.1722 48.2682 18.2777 48.2682 18.4436C48.2682 19.3183 48.2682 20.193 48.2682 21.0676C48.2682 21.2335 48.3282 21.3391 48.4633 21.4145C49.2288 21.8518 49.9942 22.3042 50.7597 22.7567C50.8797 22.8321 50.9998 22.8321 51.1199 22.7567C51.8853 22.3042 52.6508 21.8669 53.4162 21.4145C53.5513 21.3391 53.6113 21.2335 53.6113 21.0676C53.6264 20.6303 53.6264 20.193 53.6264 19.7556Z" fill="#404137"/>
<path d="M102 23.8576C101.939 23.7822 101.924 23.8727 101.924 23.8877C101.789 24.31 101.474 24.5664 101.099 24.7926C98.9377 26.0292 96.7915 27.2809 94.6452 28.5326C94.0899 28.8493 93.5646 28.8643 93.0092 28.5326C92.2888 28.0952 91.5534 27.673 90.833 27.2356C90.7579 27.1904 90.6679 27.1602 90.6829 27.0697C90.6829 26.9793 90.7879 26.9793 90.848 26.9491C91.1481 26.8435 91.4483 26.7229 91.7185 26.557C91.8536 26.4816 91.9586 26.4816 92.0937 26.557C92.604 26.8737 93.1293 27.1753 93.6396 27.4769C93.7747 27.5523 93.8798 27.5523 94.0148 27.4769C96.2061 26.1951 98.4124 24.9283 100.619 23.6615C100.754 23.5861 100.799 23.4956 100.799 23.3448C100.799 20.7962 100.799 18.2476 100.799 15.6839C100.799 15.5331 100.739 15.4275 100.604 15.3521C98.4124 14.0853 96.2361 12.8186 94.0448 11.5518C93.8948 11.4613 93.7747 11.4613 93.6246 11.5518C91.4333 12.8186 89.257 14.0853 87.0657 15.3521C86.9307 15.4275 86.8706 15.5331 86.8706 15.699C86.8706 18.2325 86.8706 20.7811 86.8706 23.3147C86.8706 23.4655 86.9157 23.571 87.0657 23.6464C87.6361 23.9782 88.1914 24.31 88.7617 24.6418C88.9719 24.7624 89.212 24.8378 89.4521 24.868C89.9775 24.9283 90.4427 24.5362 90.4427 23.9933C90.4427 23.6163 90.4427 23.2393 90.4427 22.8623C90.4427 20.7057 90.4427 18.5492 90.4427 16.3927C90.4427 16.0911 90.4878 16.0609 90.7729 16.0609C90.9981 16.0609 91.2232 16.0609 91.4483 16.0609C91.6134 16.0609 91.7035 16.1363 91.7035 16.3173C91.7035 16.3625 91.7035 16.3927 91.7035 16.4379C91.7035 18.9111 91.7035 21.3844 91.7035 23.8727C91.7035 24.1743 91.6885 24.4608 91.6134 24.7473C91.3883 25.5768 90.7579 26.0744 89.9024 26.1197C89.242 26.1498 88.6417 25.9839 88.0863 25.6672C87.531 25.3506 86.9607 25.0188 86.4054 24.687C85.9251 24.4005 85.6699 23.9782 85.6699 23.4202C85.6699 20.8113 85.6699 18.1873 85.6699 15.5783C85.6699 15.0203 85.9551 14.5981 86.4354 14.3116C88.6417 13.0297 90.848 11.7629 93.0393 10.4811C93.2044 10.3906 93.3695 10.3152 93.5496 10.285C93.8948 10.2247 94.225 10.27 94.5401 10.4358C96.7915 11.7328 99.0428 13.0448 101.294 14.3568C101.609 14.5378 101.819 14.8243 101.939 15.1711C101.939 15.1862 101.955 15.1862 101.97 15.2013C102 15.2164 102 15.2013 102.015 15.1862C102 18.0817 102 20.9772 102 23.8576Z" fill="#82CC29"/>
<path d="M21.4925 19.5897C21.4925 18.2475 21.4925 16.8903 21.4925 15.5481C21.4925 15.1258 21.6576 14.8393 22.0179 14.6282C24.3742 13.2709 26.7306 11.8986 29.102 10.5413C29.3422 10.4056 29.5973 10.3755 29.8375 10.5112C30.2127 10.7072 30.5579 10.9184 30.9181 11.1144C32.9443 12.2907 34.9705 13.467 37.0117 14.6282C37.3719 14.8393 37.537 15.1258 37.537 15.533C37.537 18.2475 37.537 20.962 37.537 23.6765C37.537 24.0837 37.3569 24.3552 37.0117 24.5663C34.6703 25.9236 32.3439 27.2657 30.0176 28.623C29.6724 28.819 29.3422 28.819 28.997 28.623C26.6406 27.2506 24.2992 25.8934 21.9428 24.5361C21.6276 24.3552 21.4775 24.0686 21.4775 23.7067C21.4925 22.3344 21.4925 20.962 21.4925 19.5897Z" fill="#82CC29"/>
<path d="M16.0591 20.9319C16.0591 22.6964 16.0591 24.4759 16.0591 26.2403C16.0591 26.3157 16.0591 26.4062 16.0591 26.4816C16.0291 26.8888 15.7139 27.0547 15.3687 26.8586C14.7983 26.5269 14.228 26.1951 13.6427 25.8633C12.8472 25.4109 12.0667 24.9434 11.2713 24.491C10.896 24.2798 10.7009 23.9782 10.7159 23.5258C10.731 21.9122 10.7159 20.2835 10.731 18.6699C10.731 18.1873 10.5508 17.8555 10.1306 17.6293C9.60529 17.3428 9.09499 17.0261 8.56968 16.7245C8.23949 16.5284 7.89428 16.5133 7.56409 16.7094C6.97875 17.0562 6.37839 17.388 5.79305 17.7349C5.47786 17.9158 5.3728 18.2174 5.3728 18.5643C5.3728 20.0271 5.3728 21.4899 5.3728 22.9527C5.3728 23.1488 5.35779 23.3448 5.3728 23.5409C5.38781 23.9632 5.2077 24.2497 4.84749 24.4608C3.6768 25.1394 2.50611 25.803 1.33543 26.4816C1.1253 26.6023 0.930187 26.7229 0.720063 26.8435C0.359852 27.0396 0.0596749 26.8586 0.0446661 26.4514C0.0296573 26.0594 0.0296573 25.6522 0.0296573 25.2601C0.0296573 22.0178 0.0296573 18.7905 0.0146484 15.5482C0.0146484 15.0505 0.194754 14.7187 0.63001 14.4775C2.92636 13.1654 5.2077 11.8383 7.50405 10.5113C7.87928 10.3001 8.22448 10.3001 8.5997 10.5113C10.896 11.8383 13.1924 13.1805 15.5038 14.5076C15.909 14.7338 16.0891 15.0354 16.0741 15.5029C16.0591 17.3277 16.0591 19.1374 16.0591 20.9319Z" fill="#404137"/>
<path d="M64.3426 19.6501C64.3426 18.3531 64.3576 17.0562 64.3426 15.7442C64.3276 15.2315 64.5227 14.8846 64.973 14.6282C67.2693 13.3162 69.5657 11.974 71.862 10.6319C72.2222 10.4207 72.5524 10.4358 72.8976 10.6319C75.224 11.9891 77.5354 13.3464 79.8617 14.6886C80.2069 14.8846 80.372 15.1711 80.357 15.5632C80.357 16.1815 80.342 16.7998 80.357 17.4031C80.357 17.7952 80.1919 18.0666 79.8617 18.2627C78.4809 19.0619 77.1151 19.8763 75.7343 20.6756C75.299 20.9319 74.9989 20.7359 74.9989 20.2533C74.9989 19.6501 74.9989 19.0318 74.9989 18.4285C74.9989 18.1873 74.9088 18.0214 74.6987 17.9007C73.9933 17.5086 73.3029 17.1014 72.6125 16.6943C72.4173 16.5736 72.2372 16.5887 72.0421 16.6943C71.3517 17.1014 70.6463 17.5086 69.9559 17.9007C69.7458 18.0214 69.6407 18.1873 69.6557 18.4285C69.6707 19.2278 69.6707 20.012 69.6557 20.8113C69.6557 21.0676 69.7458 21.2335 69.9709 21.3542C72.2823 22.6813 74.5936 24.0084 76.905 25.3505C76.95 25.3807 76.995 25.4109 77.0401 25.441C77.3853 25.6672 77.3853 26.0292 77.0251 26.2403C75.5992 27.0396 74.1734 27.8388 72.7475 28.6381C72.4474 28.804 72.1472 28.7588 71.862 28.5929C70.6013 27.869 69.3255 27.1451 68.0648 26.4213C67.0292 25.8331 66.0086 25.2299 64.973 24.6568C64.5377 24.4155 64.3576 24.0838 64.3576 23.6012C64.3426 22.2741 64.3426 20.9621 64.3426 19.6501Z" fill="#404137"/>
<path d="M95.8309 23.3749C95.1255 23.3749 94.4501 23.2995 93.7897 23.0431C92.8742 22.6812 92.3789 22.0026 92.3488 21.0072C92.3338 20.766 92.3939 20.7056 92.634 20.7056C92.8441 20.7056 93.0543 20.7056 93.2644 20.7056C93.5495 20.7056 93.5796 20.7207 93.6246 21.0072C93.7146 21.5652 94.0298 21.9272 94.5701 22.0629C94.6902 22.0931 94.8253 22.1232 94.9454 22.1383C95.5907 22.2288 96.2361 22.2439 96.8815 22.1383C97.0766 22.1081 97.2567 22.0478 97.4218 21.9724C97.812 21.7764 98.0072 21.3843 97.9021 20.9469C97.8571 20.7509 97.722 20.6453 97.5569 20.5548C97.2117 20.3739 96.8365 20.3135 96.4613 20.2532C95.7709 20.1326 95.0504 20.1175 94.36 19.9667C93.8497 19.846 93.3394 19.6952 92.9792 19.2881C92.2588 18.4737 92.4689 17.0712 93.3995 16.4378C93.9548 16.0608 94.5701 15.9402 95.2155 15.8949C95.996 15.8497 96.7614 15.8949 97.5119 16.1664C98.3674 16.4831 98.8327 17.1165 98.9677 18.0062C98.9827 18.0665 98.9827 18.1269 98.9977 18.1872C99.0278 18.3531 98.9377 18.4586 98.7726 18.4586C98.4874 18.4737 98.2173 18.4586 97.9321 18.4586C97.8271 18.4586 97.767 18.4134 97.737 18.3078C97.737 18.2927 97.722 18.2777 97.722 18.2626C97.5719 17.5236 97.0766 17.1617 96.3562 17.1014C95.7108 17.041 95.0654 16.9958 94.4351 17.2371C94.0749 17.3728 93.8947 17.6292 93.8797 17.9911C93.8797 18.2626 93.9998 18.4435 94.24 18.5491C94.6002 18.6848 94.9754 18.7452 95.3506 18.8055C96.1461 18.9412 96.9415 18.9864 97.722 19.2127C97.9922 19.2881 98.2623 19.4087 98.5025 19.5595C99.0878 19.9214 99.2679 20.4794 99.2379 21.1279C99.1929 22.1383 98.5775 22.8622 97.5269 23.1638C97.0016 23.3297 96.4162 23.3749 95.8309 23.3749Z" fill="#82CC29"/>
<path d="M70.7959 19.6048C70.7959 19.3786 70.7959 19.1373 70.7959 18.9111C70.7959 18.7754 70.8409 18.7 70.961 18.6246C71.3662 18.3833 71.7715 18.1571 72.1767 17.9158C72.2968 17.8404 72.4018 17.8404 72.5219 17.9158C72.9121 18.1571 73.3174 18.3833 73.7226 18.6246C73.8427 18.7 73.9027 18.7754 73.9027 18.9111C73.9027 19.3786 73.9027 19.8461 73.9027 20.3136C73.9027 20.4493 73.8577 20.5398 73.7226 20.6002C73.3174 20.8264 72.9121 21.0677 72.5069 21.3089C72.4018 21.3693 72.3118 21.3693 72.2067 21.3089C71.8015 21.0677 71.3962 20.8414 70.991 20.6152C70.8709 20.5398 70.8109 20.4644 70.8259 20.3136C70.8109 20.0723 70.7959 19.831 70.7959 19.6048Z" fill="#82CC29"/>
</g>
<defs>
<clipPath id="clip0_1634_78">
<rect width="102" height="29" fill="white"/>
</clipPath>
</defs>
</svg>
