<svg width="68" height="68" viewBox="0 0 68 68" fill="none" xmlns="http://www.w3.org/2000/svg">
<g clip-path="url(#clip0_1634_87)">
<path d="M1.40522e-05 34.0087C-0.0170243 15.1814 15.4623 -0.400196 34.7753 0.00872424C53.0404 0.400606 68.3493 15.4199 68 34.6988C67.6593 53.1598 52.4525 68.3921 33.2588 67.9917C14.7126 67.6083 0.0170524 52.4527 1.40522e-05 34.0087ZM10.7342 44.9985C10.896 45.0155 10.9983 45.041 11.109 45.0496C12.2591 45.0836 13.4092 45.0922 14.5508 45.1433C14.9341 45.1603 15.096 45.0325 15.1641 44.6406C15.3686 43.3968 15.6242 42.1616 15.8371 40.9178C15.9053 40.5174 16.0331 40.347 16.4761 40.364C17.7199 40.3981 18.9722 40.3725 20.2245 40.3811C21.5365 40.3896 22.7632 40.0744 23.8792 39.4099C26.9291 37.6038 28.2325 34.8606 28.0792 31.3848C28.0281 30.1581 27.6106 29.0506 26.682 28.1901C25.6512 27.236 24.3734 26.8441 23.0188 26.8015C20.6931 26.7419 18.3673 26.7589 16.0416 26.7419C15.6327 26.7419 15.2152 26.7674 14.8063 26.7334C14.4059 26.6993 14.2441 26.8697 14.2015 27.2445C14.1589 27.6108 14.0737 27.9686 13.997 28.335C12.9492 33.6083 11.9098 38.8732 10.862 44.1465C10.8194 44.4191 10.7853 44.6918 10.7342 44.9985ZM49.8883 26.793C49.8883 26.776 49.8883 26.7674 49.8883 26.7504C48.6104 26.7504 47.3325 26.7589 46.0546 26.7419C45.6798 26.7334 45.5094 26.8441 45.4327 27.2445C44.6916 31.0696 43.9334 34.8947 43.1752 38.7198C42.7833 40.6963 42.3999 42.6727 41.9995 44.6406C41.9484 44.8962 41.9484 45.0496 42.2721 45.0581C43.4904 45.0836 44.7086 45.1092 45.9354 45.1433C46.1995 45.1518 46.3102 45.0581 46.3528 44.794C46.5913 43.465 46.8554 42.1445 47.0769 40.8241C47.1366 40.4918 47.2473 40.3811 47.5881 40.3811C48.866 40.3981 50.1438 40.3896 51.4217 40.3896C53.6623 40.3811 55.528 39.5036 57.0529 37.902C58.6289 36.2493 59.319 34.2302 59.319 31.9726C59.319 30.6948 59.0634 29.485 58.1859 28.4968C57.1466 27.3297 55.758 26.8952 54.2586 26.8271C52.8103 26.7419 51.345 26.793 49.8883 26.793ZM35.3972 22.2182C35.1757 22.2097 35.0394 22.1926 34.8945 22.1926C33.77 22.1926 32.654 22.2097 31.5295 22.1841C31.1631 22.1756 31.0098 22.2778 30.9416 22.6527C30.5838 24.578 30.209 26.4948 29.8256 28.4116C29.0759 32.2112 28.3177 36.0022 27.568 39.7932C27.5254 40.0233 27.4999 40.2533 27.4658 40.5003C27.5851 40.5174 27.6532 40.5429 27.7214 40.5429C28.9567 40.5174 30.1919 40.4918 31.4187 40.4663C31.6998 40.4577 31.7254 40.2788 31.768 40.0744C32.0236 38.8135 32.2877 37.5442 32.5347 36.2833C32.901 34.4517 33.2759 32.6201 33.6337 30.78C33.7018 30.4392 33.8467 30.3114 34.2045 30.3284C34.869 30.354 35.542 30.3284 36.2065 30.337C36.6921 30.3455 37.1691 30.3455 37.6462 30.3966C38.2852 30.4647 38.5492 30.797 38.4981 31.4359C38.4811 31.6745 38.447 31.913 38.4044 32.1515C37.9785 34.4688 37.5525 36.7775 37.1265 39.0947C37.0414 39.5632 36.9562 40.0233 36.8625 40.5514C37.084 40.5514 37.2203 40.5514 37.3651 40.5514C38.5833 40.5514 39.8101 40.5344 41.0283 40.56C41.4287 40.5685 41.5565 40.4237 41.6161 40.0488C42.1103 37.0245 42.6299 34.0087 43.1326 30.9929C43.3626 29.6128 42.7748 28.4201 41.565 27.7301C40.5598 27.1593 39.4693 26.9719 38.3363 26.9549C37.2458 26.9378 36.1468 26.9549 35.0564 26.9463C34.903 26.9463 34.7582 26.9293 34.5452 26.9208C34.8434 25.3277 35.116 23.7942 35.3972 22.2182Z" fill="#4E5B92"/>
<path d="M10.7344 44.9982C10.7855 44.6915 10.811 44.4104 10.8707 44.1378C11.91 38.8644 12.9579 33.5996 14.0057 28.3262C14.0739 27.9684 14.1591 27.6021 14.2102 27.2357C14.2528 26.8609 14.4147 26.6905 14.8151 26.7246C15.224 26.7587 15.6414 26.7331 16.0503 26.7331C18.3761 26.7502 20.7018 26.7246 23.0275 26.7927C24.3821 26.8268 25.66 27.2187 26.6908 28.1814C27.6194 29.0418 28.0368 30.1493 28.0879 31.3761C28.2327 34.8519 26.9293 37.6036 23.888 39.4011C22.772 40.0656 21.5367 40.3808 20.2332 40.3723C18.9809 40.3638 17.7371 40.3893 16.4848 40.3553C16.0418 40.3467 15.914 40.5086 15.8459 40.909C15.6414 42.1528 15.3773 43.3881 15.1729 44.6319C15.1047 45.0238 14.9514 45.143 14.5595 45.1345C13.4094 45.0834 12.2593 45.0749 11.1177 45.0408C11.007 45.0493 10.8962 45.0238 10.7344 44.9982ZM16.8597 36.7091C17.7627 36.9391 19.8158 36.8794 20.7103 36.6324C22.0649 36.249 22.8997 35.3716 23.2576 34.0255C23.3683 33.5996 23.445 33.1651 23.5046 32.7306C23.7005 31.3164 23.1212 30.439 21.7156 30.2601C20.6507 30.1237 19.5602 30.2004 18.4868 30.1493C18.0779 30.1323 17.9501 30.2941 17.8905 30.6605C17.6775 31.9468 17.439 33.2332 17.2175 34.5111C17.0982 35.2352 16.9789 35.9594 16.8597 36.7091Z" fill="white"/>
<path d="M49.8879 26.7928C51.3532 26.7928 52.8099 26.7416 54.2752 26.8098C55.7746 26.878 57.1547 27.3124 58.2026 28.4796C59.0886 29.4678 59.3441 30.686 59.3356 31.9554C59.3271 34.213 58.637 36.232 57.0695 37.8847C55.5446 39.4948 53.6704 40.3638 51.4383 40.3723C50.1605 40.3808 48.8826 40.3808 47.6047 40.3638C47.264 40.3553 47.1532 40.4745 47.0936 40.8068C46.8721 42.1358 46.5995 43.4563 46.3694 44.7767C46.3183 45.0408 46.2076 45.1345 45.952 45.126C44.7338 45.0919 43.5155 45.0579 42.2888 45.0408C41.965 45.0323 41.965 44.879 42.0161 44.6234C42.4165 42.6469 42.7999 40.6705 43.1918 38.7026C43.95 34.8775 44.7082 31.0523 45.4494 27.2272C45.526 26.8354 45.6964 26.7246 46.0713 26.7246C47.3491 26.7416 48.627 26.7331 49.9049 26.7331C49.8879 26.7587 49.8879 26.7757 49.8879 26.7928ZM48.1585 36.8028C49.0956 36.8283 49.9645 36.905 50.8164 36.8539C52.0517 36.7687 53.1933 36.4024 53.9685 35.329C54.5564 34.5026 54.7267 33.5485 54.8375 32.5602C54.9908 31.0949 54.19 30.3879 53.0229 30.2601C51.8728 30.1323 50.6972 30.1834 49.5386 30.1749C49.4449 30.1749 49.283 30.3708 49.2574 30.4986C49.0956 31.3164 48.9593 32.1428 48.823 32.9692C48.6015 34.213 48.3885 35.4482 48.1585 36.8028Z" fill="white"/>
<path d="M35.3974 22.2179C35.1163 23.794 34.8352 25.336 34.554 26.929C34.767 26.9376 34.9204 26.9546 35.0652 26.9546C36.1556 26.9546 37.2546 26.9376 38.3451 26.9631C39.4781 26.9801 40.5771 27.1676 41.5738 27.7384C42.7836 28.4284 43.3714 29.6211 43.1414 31.0012C42.6387 34.0255 42.1191 37.0413 41.6249 40.0571C41.5653 40.4319 41.4375 40.5767 41.0371 40.5682C39.8189 40.5427 38.5921 40.5597 37.3739 40.5597C37.2376 40.5597 37.0927 40.5597 36.8713 40.5597C36.965 40.04 37.0502 39.5715 37.1353 39.1029C37.5613 36.7857 37.9873 34.477 38.4132 32.1598C38.4558 31.9213 38.4899 31.6827 38.5069 31.4442C38.5495 30.8053 38.294 30.473 37.655 30.4049C37.1779 30.3537 36.6923 30.3537 36.2153 30.3452C35.5508 30.3367 34.8778 30.3623 34.2133 30.3367C33.8555 30.3197 33.7106 30.4475 33.6425 30.7882C33.2847 32.6284 32.9098 34.46 32.5435 36.2916C32.2879 37.5524 32.0238 38.8218 31.7768 40.0826C31.7342 40.2871 31.7086 40.466 31.4275 40.4745C30.1922 40.4916 28.9569 40.5256 27.7302 40.5512C27.662 40.5512 27.5939 40.5256 27.4746 40.5086C27.5087 40.2615 27.5342 40.0315 27.5768 39.8015C28.3265 36.0105 29.0847 32.2109 29.8344 28.4199C30.2178 26.5031 30.5926 24.5777 30.9504 22.6609C31.0186 22.2861 31.1719 22.1839 31.5383 22.1924C32.6628 22.2179 33.7788 22.2009 34.9033 22.2009C35.0396 22.1839 35.1759 22.2009 35.3974 22.2179Z" fill="white"/>
<path d="M16.8594 36.709C16.9786 35.9594 17.0979 35.2352 17.2257 34.5111C17.4472 33.2247 17.6857 31.9468 17.8987 30.6604C17.9583 30.2941 18.0861 30.1322 18.4951 30.1493C19.5685 30.2004 20.6589 30.1152 21.7238 30.26C23.1295 30.4475 23.7088 31.3249 23.5128 32.7306C23.4532 33.1651 23.3765 33.5995 23.2658 34.0255C22.908 35.363 22.0731 36.249 20.7186 36.6324C19.8155 36.8794 17.7624 36.9391 16.8594 36.709Z" fill="#4E5B92"/>
<path d="M48.1592 36.8027C48.3892 35.4567 48.6107 34.2129 48.8237 32.9691C48.9685 32.1427 49.0963 31.3164 49.2582 30.4985C49.2837 30.3707 49.4456 30.1748 49.5393 30.1748C50.6979 30.1748 51.8735 30.1237 53.0236 30.26C54.1908 30.3963 54.9916 31.0949 54.8382 32.5602C54.736 33.5484 54.5656 34.5025 53.9693 35.3289C53.2025 36.4023 52.0524 36.7686 50.8172 36.8538C49.9652 36.9049 49.0963 36.8197 48.1592 36.8027Z" fill="#4E5B92"/>
</g>
<defs>
<clipPath id="clip0_1634_87">
<rect width="68" height="68" fill="white"/>
</clipPath>
</defs>
</svg>
