<svg width="65" height="66" viewBox="0 0 65 66" fill="none" xmlns="http://www.w3.org/2000/svg">
<g clip-path="url(#clip0_1634_100)">
<path d="M34.6113 0C34.6286 0.0868878 34.6978 0.0521327 34.7497 0.0521327C35.8573 0.104265 36.9649 0.191153 38.0551 0.330174C38.5916 0.399684 39.1281 0.469194 39.6645 0.556082C40.3048 0.64297 40.9452 0.781991 41.5682 0.938389C42.2085 1.11216 42.7969 1.35545 43.3853 1.66825C44.9255 2.46761 46.1888 3.5624 47.0714 5.05687C47.7463 6.20379 48.1097 7.45498 48.1097 8.81043C48.1097 13.9194 48.1443 19.0284 48.0924 24.1374C48.0405 27.8215 45.3235 31.019 41.6893 31.6793C41.1701 31.7836 40.651 31.8183 40.1145 31.8183C34.9574 31.8183 29.8176 31.8183 24.6605 31.8183C20.0399 31.8183 15.8693 35.2765 14.9867 39.8468C14.8655 40.455 14.8136 41.0632 14.8136 41.6714C14.8136 43.9652 14.8136 46.2765 14.8136 48.5703C14.8136 48.7441 14.779 48.7962 14.606 48.7962C12.8927 48.7962 11.1968 48.7962 9.48349 48.7962C7.78754 48.7962 6.21273 48.3618 4.84558 47.3191C3.91108 46.6066 3.16693 45.7204 2.57854 44.6951C1.73056 43.218 1.26331 41.6019 0.899894 39.951C0.605698 38.6303 0.346113 37.2923 0.190362 35.9542C0.138445 35.5024 0.103834 35.0506 0.0692226 34.5987C0.0692226 34.5466 0.103834 34.4597 0 34.425C0 33.3302 0 32.2354 0 31.1406C0.103834 31.1232 0.0519169 31.0363 0.0692226 30.9842C0.103834 30.6367 0.12114 30.3065 0.155751 29.9589C0.294196 28.673 0.519169 27.4044 0.79606 26.1359C1.05564 24.9368 1.31523 23.7551 1.8344 22.643C3.58227 18.9415 6.52423 16.9605 10.5911 16.8562C14.2599 16.752 17.9286 16.8389 21.5974 16.8389C25.1451 16.8389 28.7101 16.8389 32.2577 16.8389C32.4135 16.8389 32.4654 16.8041 32.4654 16.6477C32.4481 16.1264 32.4654 15.6051 32.4654 15.1011C32.4654 14.8057 32.5 14.8404 32.2058 14.8404C27.1526 14.8404 22.082 14.8404 17.0288 14.8404C16.7865 14.8404 16.7865 14.8404 16.7865 14.5972C16.7865 12.703 16.7865 10.8088 16.7865 8.93207C16.7865 8.02844 16.8211 7.1248 16.9941 6.23855C17.2018 5.17852 17.5825 4.20537 18.3094 3.406C19.0881 2.53712 20.0745 1.99842 21.1475 1.58136C22.8608 0.921011 24.6605 0.625592 26.4776 0.382306C27.6198 0.225908 28.762 0.139021 29.9215 0.0868878C29.9734 0.0868878 30.0426 0.121643 30.0599 0.0347551C31.5655 0 33.0884 0 34.6113 0ZM23.6222 4.83096C21.9955 4.83096 20.6976 6.18641 20.6976 7.83728C20.6976 9.48815 22.0301 10.8262 23.6395 10.8262C25.2489 10.8262 26.5642 9.47077 26.5815 7.83728C26.5815 6.18641 25.2489 4.83096 23.6222 4.83096Z" fill="url(#paint0_linear_1634_100)"/>
<path d="M44.6485 48.7962C40.6509 48.7962 36.6533 48.7962 32.673 48.7962C32.4999 48.7962 32.448 48.8309 32.448 49.0047C32.4653 49.5434 32.4653 50.0821 32.448 50.6208C32.448 50.7772 32.4999 50.812 32.6384 50.812C37.6916 50.812 42.7449 50.812 47.7981 50.812C48.1096 50.812 48.1096 50.812 48.1096 51.1248C48.1096 53.071 48.1269 55 48.1096 56.9462C48.0923 58.9447 47.2963 60.5955 45.8426 61.9336C44.6312 63.0631 43.1948 63.8104 41.6546 64.3665C39.7683 65.0616 37.8128 65.5134 35.8226 65.7914C34.2305 66.0173 32.6557 66.0868 31.0463 66C29.0734 65.8957 27.1352 65.5308 25.2316 65.0094C23.6395 64.575 22.1166 64.0015 20.6975 63.1327C19.7111 62.5244 18.8285 61.7946 18.1363 60.8736C17.2018 59.6571 16.7691 58.2843 16.7691 56.7377C16.7691 51.7851 16.7345 46.8325 16.7864 41.8973C16.821 38.4739 18.4824 36.0063 21.5455 34.4944C22.5665 33.9905 23.6568 33.8167 24.7816 33.8167C29.8868 33.8167 34.992 33.8167 40.1144 33.8167C43.0737 33.8167 45.5138 32.635 47.4866 30.4628C48.5077 29.3507 49.2172 28.0647 49.6498 26.6224C49.8575 25.8925 50.0133 25.1627 50.0306 24.3981C50.0998 21.9478 50.0479 19.515 50.0652 17.0647C50.0652 16.8909 50.0998 16.8388 50.2728 16.8562C52.263 16.8736 54.2704 16.8562 56.2606 16.8736C57.2989 16.8909 58.3027 17.1169 59.2372 17.6208C59.6179 17.8293 59.964 18.0726 60.2928 18.3333C61.6599 19.4628 62.4733 20.9399 63.0963 22.5734C63.4424 23.5118 63.6847 24.4676 63.927 25.4407C64.2212 26.605 64.4462 27.7867 64.6365 28.9857C64.6884 29.368 64.723 29.7503 64.775 30.1153C64.8269 30.515 64.8788 30.9146 64.8961 31.297C64.9134 31.575 64.9826 31.8704 64.948 32.1485C64.9307 32.3048 64.9826 32.4612 64.9826 32.6176C65.1038 35.624 64.6365 38.526 63.6328 41.3586C63.1829 42.6445 62.7156 43.9131 62.058 45.0947C61.4869 46.1026 60.812 47.0237 59.8602 47.7014C58.9949 48.327 58.0258 48.6571 56.9874 48.7788C56.5375 48.8309 56.0702 48.8309 55.6203 48.8309C51.9515 48.7962 48.3 48.7962 44.6485 48.7962ZM44.2159 57.7804C44.2159 56.1295 42.9006 54.7914 41.2739 54.7914C39.6472 54.7914 38.3319 56.1295 38.3319 57.7804C38.3319 59.4312 39.6645 60.8041 41.2739 60.7867C42.8833 60.8041 44.2159 59.4486 44.2159 57.7804Z" fill="url(#paint1_linear_1634_100)"/>
</g>
<defs>
<linearGradient id="paint0_linear_1634_100" x1="10.5498" y1="12.0154" x2="38.7991" y2="37.3458" gradientUnits="userSpaceOnUse">
<stop stop-color="#4A8BBE"/>
<stop offset="1" stop-color="#306998"/>
</linearGradient>
<linearGradient id="paint1_linear_1634_100" x1="27.4524" y1="27.7743" x2="53.7654" y2="53.9783" gradientUnits="userSpaceOnUse">
<stop stop-color="#FFE873"/>
<stop offset="1" stop-color="#FFD43B"/>
</linearGradient>
<clipPath id="clip0_1634_100">
<rect width="65" height="66" fill="white"/>
</clipPath>
</defs>
</svg>
