<svg width="78" height="71" viewBox="0 0 78 71" fill="none" xmlns="http://www.w3.org/2000/svg">
<g clip-path="url(#clip0_1634_95)">
<path d="M77.9996 34.9191C77.9996 35.3291 77.9996 35.722 77.9996 36.132C77.6556 37.8063 77.0534 39.3609 75.9524 40.6934C74.559 42.3676 72.873 43.666 70.9979 44.7764C68.3658 46.331 65.5616 47.4586 62.637 48.364C62.2414 48.4836 61.8973 48.5519 62.0005 49.1499C62.4134 51.3707 62.8779 53.5916 63.1015 55.8467C63.394 58.9901 63.3424 62.1335 62.2758 65.1744C60.4006 70.5045 55.7901 71.9737 51.0936 70.3678C46.7411 68.8816 42.9564 66.4044 39.705 63.1585C39.4813 62.9364 39.2405 62.7143 38.9136 62.3897C38.5351 62.8168 38.2427 63.2098 37.8986 63.5514C34.6644 66.6607 30.9485 69.0695 26.6648 70.4533C22.0543 71.9566 17.6331 70.3849 15.8783 65.5161C15.2934 63.9102 14.9837 62.1506 14.8289 60.4422C14.5021 56.7009 15.0526 52.9937 15.9127 49.3549C16.0676 48.7228 15.8783 48.5519 15.3278 48.3469C12.9537 47.4244 10.5109 46.6044 8.24003 45.4427C4.35207 43.461 0.928606 40.9326 -0.0175781 36.2687C-0.0175781 35.722 -0.0175781 35.1583 -0.0175781 34.6116C0.0168286 34.5433 0.085642 34.492 0.102845 34.4237C0.464116 32.237 1.66835 30.5115 3.23386 29.0252C5.5047 26.8727 8.22283 25.4035 11.0958 24.2076C12.6957 23.5413 14.3472 22.9947 16.0159 22.3626C15.9815 22.1575 15.9299 21.9696 15.8955 21.7646C15.517 19.0312 15.0009 16.2978 14.7773 13.5473C14.5537 10.7969 14.7945 8.06347 15.8267 5.44966C17.6159 0.939551 22.0027 -1.07633 26.596 0.529542C31.0689 2.08416 34.974 4.57839 38.3115 7.90971C38.5179 8.11472 38.7416 8.31972 39.034 8.59306C39.3437 8.23431 39.5845 7.9268 39.8426 7.67054C43.1456 4.44172 46.982 2.04999 51.3516 0.512458C55.7729 -1.02508 60.1253 0.871216 61.9489 5.14215C62.6886 6.88469 63.0327 8.71265 63.1359 10.5748C63.3596 14.3503 62.8779 18.0575 62.0005 21.7305C61.8629 22.2771 61.9833 22.5334 62.5166 22.6359C62.7403 22.6871 62.9639 22.7555 63.1703 22.8238C66.9379 24.088 70.5678 25.6255 73.6816 28.1369C75.2815 29.4181 76.6234 30.9215 77.3631 32.8691C77.6728 33.5524 77.8104 34.2357 77.9996 34.9191ZM38.9996 48.5178C41.3049 48.4152 43.6617 48.3469 46.0186 48.2102C46.3799 48.1932 46.8272 47.9027 47.0336 47.6123C49.5109 43.9564 51.6785 40.1126 53.5537 36.115C53.7085 35.7904 53.7085 35.2779 53.5537 34.9533C51.6785 30.9557 49.5109 27.1118 47.0336 23.4559C46.8272 23.1655 46.3799 22.8751 46.0186 22.858C41.3565 22.5163 36.6944 22.5334 32.0323 22.8238C31.5334 22.858 31.2065 23.0459 30.9313 23.473C28.5228 27.146 26.3552 30.9557 24.4456 34.9191C24.2219 35.3804 24.2219 35.722 24.4456 36.1833C26.338 40.1126 28.4884 43.9051 30.8796 47.5611C31.1893 48.0394 31.5506 48.2444 32.1011 48.2615C34.3891 48.3127 36.66 48.4323 38.9996 48.5178ZM41.2705 60.1689C43.4037 63.0048 49.5969 66.9682 53.0376 67.7199C55.6009 68.2836 57.8545 67.2757 58.9555 65.0206C59.6781 63.5514 60.0565 61.9626 60.0221 60.3568C59.9705 57.8455 59.7813 55.3342 59.5576 52.8399C59.4544 51.7124 59.1104 50.602 58.8695 49.4574C58.6631 49.4915 58.5598 49.4915 58.4738 49.5086C55.4804 50.0211 52.4871 50.5678 49.4937 51.012C48.7195 51.1316 48.3066 51.4391 47.8766 52.0199C46.0014 54.4287 44.0918 56.8034 42.1822 59.1951C41.8726 59.5197 41.5629 59.8443 41.2705 60.1689ZM19.1642 49.594C19.147 49.6453 19.0609 49.782 19.0437 49.9186C18.6825 52.1224 18.218 54.3262 18.0115 56.5471C17.7879 58.9559 17.8223 61.3818 18.562 63.7394C19.6631 67.2928 22.5016 68.762 25.9595 67.3782C27.8347 66.6265 29.641 65.6869 31.3785 64.679C33.3913 63.5173 35.1461 61.9626 36.7116 60.2714C36.6772 60.1689 36.6772 60.1176 36.6428 60.0664C34.3203 57.1621 31.9979 54.275 29.6754 51.3878C29.555 51.2341 29.3141 51.1145 29.1077 51.0803C25.8391 50.5849 22.5532 50.1065 19.1642 49.594ZM41.2705 10.7456C41.3221 10.8823 41.3393 10.9335 41.3737 10.9848C43.6789 13.8549 45.9842 16.742 48.3066 19.6121C48.4615 19.8171 48.8055 19.9367 49.0808 19.9708C50.7839 20.2271 52.4871 20.4321 54.1902 20.7054C55.7385 20.9617 57.2524 21.2863 58.8007 21.5767C58.8695 21.3888 58.9383 21.2521 58.9727 21.1154C59.334 18.9629 59.7985 16.8103 59.9877 14.6407C60.2286 12.0098 60.2114 9.34475 59.2824 6.79927C58.233 3.91212 56.0309 2.61376 53.0548 3.39961C48.3927 4.62964 44.6079 7.34595 41.2705 10.7456ZM19.0953 21.4742C22.3812 20.9617 25.4778 20.4492 28.5916 20.0221C29.2625 19.9367 29.6582 19.6633 30.0539 19.1508C31.9463 16.7078 33.873 14.3161 35.7998 11.9073C36.0923 11.5315 36.4191 11.1898 36.7632 10.8139C33.5462 7.41429 29.8302 4.86881 25.409 3.48503C22.0371 2.44292 19.577 3.91212 18.562 7.27762C18.4416 7.67054 18.3384 8.04639 18.2524 8.43931C17.6675 11.429 17.8567 14.4186 18.3212 17.3912C18.5448 18.7921 18.8545 20.1588 19.0953 21.4742ZM61.0887 45.5452C64.6498 44.4689 67.9873 43.1876 70.9291 41.0692C71.9096 40.3688 72.8214 39.5146 73.5612 38.5921C75.2471 36.525 75.1955 34.492 73.5612 32.3907C72.4946 31.024 71.1183 29.999 69.6216 29.0935C66.9723 27.4877 64.0993 26.3943 61.1231 25.506C61.0371 25.6768 60.9683 25.7793 60.9339 25.8989C59.7813 28.9569 58.6287 32.0149 57.5104 35.0899C57.39 35.3974 57.4588 35.8245 57.5793 36.1491C58.3878 38.2846 59.2652 40.403 60.0737 42.5384C60.4694 43.4951 60.7447 44.486 61.0887 45.5452ZM16.8417 45.5281C16.9277 45.3743 16.9793 45.2889 17.0137 45.1864C18.1664 42.0943 19.3362 39.0192 20.4716 35.91C20.5748 35.6195 20.5232 35.2266 20.4028 34.9191C19.7319 33.1766 18.9921 31.4682 18.3212 29.7256C17.8051 28.3419 17.3578 26.9239 16.8589 25.4718C15.9127 25.7964 15.0182 26.0697 14.158 26.3943C11.0786 27.5389 8.1024 28.8715 5.64232 31.1094C2.4253 34.0307 2.39089 36.9691 5.60792 39.8734C8.80774 42.7776 12.7645 44.2127 16.8417 45.5281ZM33.5978 51.5416C35.4557 53.7795 37.1761 55.8638 39.0168 58.0676C40.8748 55.8296 42.5779 53.7625 44.4015 51.5416C40.7372 51.5416 37.2965 51.5416 33.5978 51.5416ZM38.9996 12.9836C37.1417 15.2216 35.4385 17.3058 33.615 19.4925C37.2965 19.4925 40.72 19.4925 44.3843 19.4925C42.5779 17.2887 40.8576 15.2216 38.9996 12.9836ZM50.8011 47.7832C53.3128 47.3048 55.6353 46.8777 58.1126 46.4165C57.2524 43.9735 56.4438 41.7184 55.6009 39.3267C53.9665 42.1968 52.4526 44.8789 50.8011 47.7832ZM55.6009 31.7244C56.461 29.2986 57.2524 27.0264 58.1126 24.6176C55.6009 24.1563 53.2956 23.7293 50.8355 23.2851C52.4527 26.1722 53.9838 28.8544 55.6009 31.7244ZM22.3984 31.7074C24.0327 28.8373 25.5466 26.1551 27.1637 23.2851C24.6864 23.7463 22.3812 24.1734 19.9039 24.6347C20.7641 27.0435 21.5554 29.2986 22.3984 31.7074ZM22.3984 39.3438C21.5382 41.7526 20.7469 44.0247 19.9039 46.4335C22.3984 46.8948 24.7208 47.3219 27.1637 47.7661C25.5466 44.8789 24.0327 42.2139 22.3984 39.3438Z" fill="#55AEF6"/>
<path d="M45.4332 35.5171C45.4332 39.0705 42.6119 41.8893 39.0164 41.9064C35.4209 41.9235 32.5307 39.0534 32.5479 35.4829C32.5651 31.9295 35.4381 29.1107 38.9992 29.1278C42.5947 29.1448 45.4332 31.9637 45.4332 35.5171ZM39.0164 38.7801C40.8571 38.7801 42.285 37.328 42.285 35.5171C42.2678 33.6891 40.8399 32.2712 38.9992 32.2883C37.1584 32.3053 35.7305 33.7233 35.7478 35.5512C35.7305 37.3621 37.1756 38.7801 39.0164 38.7801Z" fill="#55AEF6"/>
</g>
<defs>
<clipPath id="clip0_1634_95">
<rect width="78" height="71" fill="white"/>
</clipPath>
</defs>
</svg>
