<svg width="60" height="60" viewBox="0 0 60 60" fill="none" xmlns="http://www.w3.org/2000/svg">
<g clip-path="url(#clip0_1634_104)">
<path d="M46.6992 60H13.3008C5.95312 60 0 54.0469 0 46.6992V13.3008C0 5.95312 5.95312 0 13.3008 0H46.6992C54.0469 0 60 5.95312 60 13.3008V46.6992C60 54.0469 54.0469 60 46.6992 60Z" fill="url(#paint0_linear_1634_104)"/>
<path d="M31.9102 39.293C24.0117 43.1484 14.7891 40.6992 7.73438 36.1406C14.0977 46.6992 29.1094 53.5312 40.7344 47.625C44.6367 45.1289 48.3984 45.3281 51.3398 49.1133C51.5977 49.6641 51.9961 49.5586 52.043 48.9492C52.9453 45.1523 51.0469 41.3906 48.7852 38.4492C48.5156 38.0977 48.4453 37.8047 48.5977 37.3828C51.9961 26.6367 44.3437 15.5625 35.5312 10.1953C39.5391 16.1133 41.5664 23.707 39.293 30.668C39.0937 31.2891 39 31.3242 38.4961 30.9609C31.3711 25.793 24.3984 20.4258 17.9648 14.4141C21.5508 19.5117 25.0664 24.6562 29.3086 29.2617C23.168 25.5703 17.6602 21.0234 12.1406 16.5C18.1992 24.1523 24.2812 32.1094 32.0273 38.1445C32.9297 38.7773 32.9414 38.8008 31.9102 39.293Z" fill="white"/>
</g>
<defs>
<linearGradient id="paint0_linear_1634_104" x1="30" y1="60" x2="30" y2="0" gradientUnits="userSpaceOnUse">
<stop stop-color="#F04632"/>
<stop offset="1" stop-color="#FAAC42"/>
</linearGradient>
<clipPath id="clip0_1634_104">
<rect width="60" height="60" fill="white"/>
</clipPath>
</defs>
</svg>
