<svg width="73" height="73" viewBox="0 0 73 73" fill="none" xmlns="http://www.w3.org/2000/svg">
<g clip-path="url(#clip0_1634_108)">
<path d="M1.16021e-05 36.4602C0.0159123 16.3102 16.4413 -0.0636468 36.5716 -0.000182342C56.7654 0.0632821 73.0477 16.4212 73 36.6029C72.9523 56.7212 56.5587 73.0315 36.4285 72.9998C16.3141 72.9522 -0.0158891 56.5784 1.16021e-05 36.4602ZM39.4655 50.8825C41.0079 50.9776 42.8364 50.581 44.2516 49.8829C47.1137 48.4549 48.7992 46.0116 49.9599 43.1557C52.4563 37.0155 54.9368 30.8753 57.4174 24.7351C57.5128 24.4971 57.5923 24.2432 57.7195 23.8783C57.0198 23.9418 56.4156 23.9577 55.8273 24.0529C52.4245 24.6716 50.1189 26.7342 48.6402 29.7171C47.8133 31.383 47.2727 33.1917 46.6844 34.9687C45.8894 37.3645 45.1579 39.7762 44.3947 42.172C44.347 42.172 44.2834 42.172 44.2357 42.172C43.4566 36.0794 42.6615 30.0026 41.8824 23.9418C40.2764 23.8625 38.7023 24.2274 37.303 25.0207C34.743 26.4645 33.2642 28.7651 32.2307 31.3989C30.9268 34.7149 29.6707 38.0468 28.3827 41.3786C28.2714 41.6642 28.1442 41.934 28.0329 42.2037C27.8739 41.7594 27.8421 41.3469 27.8103 40.9344C27.6513 38.0309 27.4923 35.1274 27.3333 32.2239C27.1107 28.1939 24.3916 24.9889 20.4165 24.1004C19.9077 23.9894 19.3988 23.9577 18.7628 23.8783C20.2575 32.9696 21.7203 41.9181 23.1991 50.93C25.8068 50.9142 28.0647 50.1209 29.9728 48.4073C31.6106 46.9159 32.7077 45.0596 33.5027 43.0129C34.5681 40.2839 35.6175 37.539 36.667 34.8101C36.7624 34.5879 36.8578 34.3658 37.0486 33.9216C37.8754 39.7286 38.6705 45.2976 39.4655 50.8825Z" fill="#4353FF"/>
<path d="M39.4654 50.8827C38.6703 45.2978 37.8753 39.7288 37.0485 33.9377C36.8577 34.366 36.7464 34.5882 36.6669 34.8262C35.6174 37.5551 34.568 40.3 33.5026 43.0289C32.7076 45.0757 31.6263 46.932 29.9727 48.4234C28.0646 50.1528 25.8067 50.9303 23.199 50.9461C21.7202 41.9342 20.2574 32.9857 18.7627 23.8944C19.3828 23.9737 19.9075 24.0055 20.4164 24.1165C24.3915 25.005 27.1105 28.1941 27.3332 32.24C27.4922 35.1435 27.6512 38.047 27.8102 40.9505C27.8261 41.363 27.8738 41.7914 28.0328 42.2198C28.16 41.95 28.2872 41.6645 28.3826 41.3947C29.6706 38.0628 30.9267 34.731 32.2306 31.4149C33.2641 28.7812 34.7429 26.4647 37.3029 25.0368C38.7021 24.2435 40.2763 23.8785 41.8823 23.9579C42.6614 30.0187 43.4564 36.1113 44.2356 42.188C44.2833 42.188 44.3469 42.188 44.3946 42.188C45.1578 39.7764 45.8892 37.3647 46.6843 34.9848C47.2726 33.2078 47.8291 31.3991 48.6401 29.7331C50.1029 26.7344 52.4244 24.6718 55.8272 24.0689C56.4155 23.9579 57.0197 23.9579 57.7193 23.8944C57.5921 24.2752 57.5126 24.5132 57.4172 24.7512C54.9367 30.8914 52.4562 37.0316 49.9598 43.1717C48.7991 46.0276 47.1136 48.471 44.2515 49.899C42.8363 50.5812 41.0077 50.9779 39.4654 50.8827Z" fill="white"/>
</g>
<defs>
<clipPath id="clip0_1634_108">
<rect width="73" height="73" fill="white"/>
</clipPath>
</defs>
</svg>
