<svg width="73" height="73" viewBox="0 0 73 73" fill="none" xmlns="http://www.w3.org/2000/svg">
<g clip-path="url(#clip0_1634_112)">
<path d="M36.5187 72.2958C17.185 72.3598 1.39056 56.8489 0.732078 37.8444C0.0187234 17.5412 15.932 1.70111 34.525 0.759115C55.5049 -0.310918 71.7018 16.2883 72.2779 35.3203C72.8998 55.6417 56.5384 72.3324 36.5187 72.2958ZM36.5187 70.7228C55.2489 70.8691 71.217 55.1662 70.7323 35.5946C70.275 17.3126 54.9196 1.79256 35.5493 2.27728C17.3313 2.73456 1.71066 18.0808 2.26854 37.5426C2.78983 55.8887 18.0904 70.8508 36.5187 70.7228Z" fill="#007398"/>
<path d="M36.5186 70.7228C18.0903 70.8508 2.7897 55.8887 2.2684 37.5426C1.71052 18.0808 17.3312 2.72543 35.5492 2.27729C54.9195 1.79258 70.2749 17.3126 70.723 35.5946C71.2078 55.1662 55.2396 70.86 36.5186 70.7228ZM40.7987 22.1598C44.4752 33.0887 48.1243 43.9537 51.7917 54.8644C51.8832 54.7546 51.9289 54.7272 51.938 54.6906C53.4562 49.6148 54.9927 44.539 56.4925 39.4632C57.5168 35.997 57.5168 32.5492 56.0353 29.211C55.3676 27.7111 54.4988 26.3027 53.6848 24.876C52.9075 23.5133 52.1392 22.1598 51.8009 20.605C51.179 17.7699 52.6788 14.8982 55.2853 14.0294C55.834 13.8464 56.4285 13.8007 57.0961 13.6727C49.3864 7.08787 40.5884 4.5271 30.6746 6.37451C22.2972 7.9384 15.7673 12.4746 10.8652 19.5624C12.4017 19.5624 13.7918 19.6082 15.182 19.5533C17.0934 19.4801 19.0048 19.3338 20.9162 19.2332C21.6662 19.1966 22.096 19.4984 22.2972 20.1112C22.599 21.0074 21.968 21.7848 20.8797 21.8763C19.8554 21.9677 18.8402 22.05 17.7153 22.1506C21.4192 33.1619 25.1049 44.1183 28.7997 55.1296C28.8912 55.029 28.9186 55.0107 28.9186 54.9924C31.0861 48.4899 33.2628 41.9782 35.4211 35.4757C35.476 35.302 35.4668 35.0642 35.4028 34.8904C33.9212 30.7932 32.4214 26.7051 30.9398 22.6079C30.8209 22.2787 30.6563 22.1232 30.2813 22.1049C29.4216 22.0592 28.5619 21.9586 27.7023 21.858C26.806 21.7574 26.3304 21.2452 26.3761 20.4678C26.4219 19.663 26.9706 19.1783 27.8943 19.224C29.824 19.3246 31.7537 19.4984 33.6835 19.5624C35.2199 19.6173 36.7747 19.5899 38.3111 19.535C40.2043 19.471 42.0882 19.3338 43.9814 19.224C44.6216 19.1875 45.1063 19.4344 45.3441 20.0563C45.6916 20.98 45.0789 21.7848 43.9539 21.8763C42.9479 21.9677 41.9236 22.0592 40.7987 22.1598ZM37.049 39.3626C36.8936 39.7559 36.8021 39.9937 36.7106 40.2406C33.8481 48.5539 30.9947 56.8581 28.1412 65.1714C27.8577 65.9854 27.8577 65.9854 28.7083 66.2049C33.7383 67.5036 38.7775 67.5401 43.8259 66.3146C44.7496 66.086 45.6642 65.7933 46.597 65.5281C43.4144 56.7849 40.2591 48.1515 37.049 39.3626ZM22.9374 63.9185C18.1085 50.694 13.2888 37.4695 8.45996 24.2541C5.08524 32.0827 4.8566 39.9754 7.98439 47.8771C10.8561 55.1296 15.9045 60.4432 22.9374 63.9185ZM63.6535 22.2421C63.6535 22.553 63.6535 22.6902 63.6535 22.8274C63.5895 24.7297 63.6352 26.6503 63.434 28.5434C63.1505 31.1682 62.2085 33.6375 61.3305 36.1251C58.6234 43.8165 55.9895 51.5354 53.319 59.2451C52.9075 60.4432 52.4959 61.6412 52.0569 62.9033C66.3789 54.6632 71.1529 36.3354 63.6535 22.2421Z" fill="white"/>
<path d="M40.7993 22.1597C41.9242 22.0591 42.9394 21.9768 43.9637 21.8854C45.0886 21.7939 45.7014 20.9891 45.3538 20.0654C45.116 19.4435 44.6313 19.1966 43.9911 19.2331C42.098 19.3337 40.214 19.4709 38.3209 19.5441C36.7753 19.599 35.2297 19.6264 33.6932 19.5715C31.7635 19.5075 29.8338 19.3337 27.9041 19.2331C26.9895 19.1874 26.4316 19.663 26.3859 20.4769C26.3402 21.2543 26.8157 21.7665 27.712 21.8671C28.5717 21.9677 29.4314 22.0683 30.2911 22.114C30.666 22.1323 30.8307 22.2878 30.9495 22.617C32.4311 26.7142 33.931 30.8023 35.4126 34.8995C35.4766 35.0733 35.4858 35.3111 35.4309 35.4848C33.2725 41.9965 31.105 48.499 28.9284 55.0015C28.9192 55.0198 28.9009 55.0289 28.8095 55.1387C25.1055 44.1274 21.429 33.1801 17.725 22.1597C18.8408 22.0591 19.8651 21.9768 20.8894 21.8854C21.9777 21.7939 22.5996 21.0165 22.307 20.1203C22.1058 19.4984 21.6759 19.2057 20.926 19.2423C19.0146 19.3337 17.1031 19.4892 15.1917 19.5624C13.8016 19.6173 12.4023 19.5715 10.875 19.5715C15.7862 12.4837 22.307 7.93835 30.6843 6.3836C40.5981 4.5362 49.3962 7.09696 57.0876 13.6909C56.42 13.819 55.8255 13.8647 55.2768 14.0476C52.6703 14.9164 51.1704 17.779 51.7923 20.6233C52.1307 22.178 52.8989 23.5316 53.6763 24.8943C54.4903 26.321 55.3591 27.7294 56.0267 29.2293C57.5174 32.5674 57.5083 36.0153 56.484 39.4814C54.9841 44.5664 53.4477 49.633 51.9295 54.7088C51.9204 54.7454 51.8838 54.7729 51.7832 54.8826C48.1249 43.9445 44.4759 33.0887 40.7993 22.1597Z" fill="#007398"/>
<path d="M37.0487 39.3625C40.2588 48.1514 43.414 56.7849 46.6058 65.528C45.673 65.7933 44.7584 66.0951 43.8347 66.3146C38.7863 67.5401 33.7471 67.5035 28.7171 66.2048C27.8665 65.9853 27.8665 65.9853 28.15 65.1714C31.0035 56.858 33.866 48.5539 36.7194 40.2405C36.8017 39.9936 36.9024 39.7558 37.0487 39.3625Z" fill="#007398"/>
<path d="M22.9372 63.9185C15.9042 60.4432 10.8559 55.1296 7.98417 47.8772C4.85638 39.9754 5.08502 32.0828 8.45974 24.2542C13.2886 37.4695 18.1083 50.694 22.9372 63.9185Z" fill="#007398"/>
<path d="M63.6539 22.2421C71.1532 36.3354 66.3792 54.6631 52.0664 62.9033C52.5054 61.6321 52.9169 60.434 53.3285 59.2451C55.9899 51.5353 58.6238 43.8165 61.34 36.1251C62.218 33.6375 63.16 31.1773 63.4435 28.5434C63.6447 26.6502 63.599 24.7297 63.663 22.8274C63.6539 22.6902 63.6539 22.553 63.6539 22.2421Z" fill="#007398"/>
</g>
<defs>
<clipPath id="clip0_1634_112">
<rect width="73" height="73" fill="white"/>
</clipPath>
</defs>
</svg>
